<?xml version="1.0" encoding="UTF-8"?>
<svg width="44px" height="44px" viewBox="0 0 44 44" version="1.1" xmlns="http://www.w3.org/2000/svg" xmlns:xlink="http://www.w3.org/1999/xlink">
    <title>1@2x</title>
    <g id="相关图标说明" stroke="none" stroke-width="1" fill="none" fill-rule="evenodd">
        <g id="线型图标（单色）" transform="translate(-131.000000, -4940.000000)">
            <g id="1" transform="translate(131.000000, 4940.000000)">
                <g id="编组"></g>
                <path d="M7.5483871,27.6774194 C8.40353768,27.6774194 9.09677419,28.3706559 9.09677419,29.2258065 L9.09677419,29.2258065 L9.09677419,34.3870968 L9.10508972,34.4798716 C9.14879136,34.720645 9.35952528,34.9032258 9.61290323,34.9032258 L9.61290323,34.9032258 L14.7741935,34.9032258 L14.9233136,34.9103139 C15.7085026,34.9853433 16.3225806,35.6467653 16.3225806,36.4516129 C16.3225806,37.3067635 15.6293441,38 14.7741935,38 L14.7741935,38 L9.61290323,38 L9.41467334,37.9946541 C7.51151236,37.8917434 6,36.3159364 6,34.3870968 L6,34.3870968 L6,29.2258065 L6.00708808,29.0766864 C6.08211749,28.2914974 6.74353949,27.6774194 7.5483871,27.6774194 Z M36.4516129,27.6774194 C37.2564605,27.6774194 37.9178825,28.2914974 37.9929119,29.0766864 L38,29.2258065 L38,34.3870968 C38,36.3159364 36.4884876,37.8917434 34.5853267,37.9946541 L34.3870968,38 L29.2258065,38 C28.3706559,38 27.6774194,37.3067635 27.6774194,36.4516129 C27.6774194,35.6467653 28.2914974,34.9853433 29.0766864,34.9103139 L29.2258065,34.9032258 L34.3870968,34.9032258 C34.6404747,34.9032258 34.8512086,34.720645 34.8949103,34.4798716 L34.9032258,34.3870968 L34.9032258,29.2258065 C34.9032258,28.3706559 35.5964623,27.6774194 36.4516129,27.6774194 Z M35.4193548,20.4516129 C36.2745054,20.4516129 36.9677419,21.1448494 36.9677419,22 C36.9677419,22.8048476 36.3536639,23.4662696 35.5684748,23.541299 L35.4193548,23.5483871 L8.58064516,23.5483871 C7.72549458,23.5483871 7.03225806,22.8551506 7.03225806,22 C7.03225806,21.1951524 7.64633609,20.5337304 8.43152515,20.458701 L8.58064516,20.4516129 L35.4193548,20.4516129 Z M14.7741935,6 C15.6293441,6 16.3225806,6.69323652 16.3225806,7.5483871 C16.3225806,8.3532347 15.7085026,9.0146567 14.9233136,9.08968611 L14.7741935,9.09677419 L9.61290323,9.09677419 C9.35952528,9.09677419 9.14879136,9.279355 9.10508972,9.52012838 L9.09677419,9.61290323 L9.09677419,14.7741935 C9.09677419,15.6293441 8.40353768,16.3225806 7.5483871,16.3225806 C6.74353949,16.3225806 6.08211749,15.7085026 6.00708808,14.9233136 L6,14.7741935 L6,9.61290323 C6,7.68406358 7.51151236,6.10825657 9.41467334,6.00534592 L9.61290323,6 L14.7741935,6 Z M34.3870968,6 L34.5853267,6.00534592 C36.4884876,6.10825657 38,7.68406358 38,9.61290323 L38,9.61290323 L38,14.7741935 L37.9929119,14.9233136 C37.9178825,15.7085026 37.2564605,16.3225806 36.4516129,16.3225806 C35.5964623,16.3225806 34.9032258,15.6293441 34.9032258,14.7741935 L34.9032258,14.7741935 L34.9032258,9.61290323 L34.8949103,9.52012838 C34.8512086,9.279355 34.6404747,9.09677419 34.3870968,9.09677419 L34.3870968,9.09677419 L29.2258065,9.09677419 L29.0766864,9.08968611 C28.2914974,9.0146567 27.6774194,8.3532347 27.6774194,7.5483871 C27.6774194,6.69323652 28.3706559,6 29.2258065,6 L29.2258065,6 L34.3870968,6 Z" id="形状结合" fill="#333333" fill-rule="nonzero"></path>
            </g>
        </g>
    </g>
</svg>