<?xml version="1.0" encoding="UTF-8"?>
<svg width="44px" height="44px" viewBox="0 0 44 44" version="1.1" xmlns="http://www.w3.org/2000/svg" xmlns:xlink="http://www.w3.org/1999/xlink">
    <title>10@2x</title>
    <g id="页面-1" stroke="none" stroke-width="1" fill="none" fill-rule="evenodd">
        <g id="10">
            <g id="编组"></g>
            <path d="M10,19 C11.6568542,19 13,20.3431458 13,22 C13,23.6568542 11.6568542,25 10,25 C8.34314575,25 7,23.6568542 7,22 C7,20.3431458 8.34314575,19 10,19 Z M22,19 C23.6568542,19 25,20.3431458 25,22 C25,23.6568542 23.6568542,25 22,25 C20.3431458,25 19,23.6568542 19,22 C19,20.3431458 20.3431458,19 22,19 Z M34,19 C35.6568542,19 37,20.3431458 37,22 C37,23.6568542 35.6568542,25 34,25 C32.3431458,25 31,23.6568542 31,22 C31,20.3431458 32.3431458,19 34,19 Z" id="形状结合" fill="#333333"></path>
        </g>
    </g>
</svg>