<?xml version="1.0" encoding="UTF-8"?>
<svg width="44px" height="44px" viewBox="0 0 44 44" version="1.1" xmlns="http://www.w3.org/2000/svg" xmlns:xlink="http://www.w3.org/1999/xlink">
    <title>11@2x</title>
    <g id="相关图标说明" stroke="none" stroke-width="1" fill="none" fill-rule="evenodd">
        <g id="线型图标（单色）" transform="translate(-966.000000, -4940.000000)">
            <g id="编组-5" transform="translate(131.000000, 4940.000000)">
                <g id="11" transform="translate(835.000000, 0.000000)">
                    <g id="编组"></g>
                    <path d="M28,4.5 C29.8685634,4.5 31.3951264,5.9642776 31.4948211,7.8079648 L31.5,8 L31.5,11 L37,11 C37.8284271,11 38.5,11.6715729 38.5,12.5 C38.5,13.2796961 37.9051119,13.9204487 37.14446,13.9931334 L37,14 L11.5,14 L11.5,34 C11.5,35.3254834 12.5315359,36.4100387 13.8356243,36.4946823 L14,36.5 L30,36.5 C31.3254834,36.5 32.4100387,35.4684641 32.4946823,34.1643757 L32.5,19 C32.5,18.1715729 33.1715729,17.5 34,17.5 C34.8088285,17.5 35.4681366,18.1401731 35.4988792,18.9414743 L35.4989864,19.0496128 C35.4989981,19.0729288 35.4990096,19.0998795 35.499021,19.1303326 L35.4999997,33.9870749 C35.4999999,33.9953263 35.5,33.9996787 35.5,34 C35.5,36.9634791 33.15622,39.3795391 30.2212071,39.4956328 L30,39.5 L14,39.5 C11.0365209,39.5 8.62046086,37.15622 8.5043672,34.2212071 L8.5,34 L8.5,14 L7,14 C6.17157288,14 5.5,13.3284271 5.5,12.5 C5.5,11.7203039 6.09488808,11.0795513 6.85553999,11.0068666 L7,11 L12.5,11 L12.5,8 C12.5,6.1314366 13.9642776,4.60487355 15.8079648,4.50517886 L16,4.5 L28,4.5 Z M18.5,16.5 C19.2796961,16.5 19.9204487,17.0948881 19.9931334,17.85554 L20,18 L20,30 C20,30.8284271 19.3284271,31.5 18.5,31.5 C17.7203039,31.5 17.0795513,30.9051119 17.0068666,30.14446 L17,30 L17,18 C17,17.1715729 17.6715729,16.5 18.5,16.5 Z M26,16.5 C26.7796961,16.5 27.4204487,17.0948881 27.4931334,17.85554 L27.5,18 L27.5,30 C27.5,30.8284271 26.8284271,31.5 26,31.5 C25.2203039,31.5 24.5795513,30.9051119 24.5068666,30.14446 L24.5,30 L24.5,18 C24.5,17.1715729 25.1715729,16.5 26,16.5 Z M28,7.5 L16,7.5 C15.7545401,7.5 15.5503916,7.67687516 15.5080557,7.91012437 L15.5,8 L15.5,11 L28.5,11 L28.5,8 C28.5,7.75454011 28.3231248,7.55039163 28.0898756,7.50805567 L28,7.5 Z" id="形状结合" fill="#333333" fill-rule="nonzero"></path>
                </g>
            </g>
        </g>
    </g>
</svg>