<?xml version="1.0" encoding="UTF-8"?>
<svg width="44px" height="44px" viewBox="0 0 44 44" version="1.1" xmlns="http://www.w3.org/2000/svg" xmlns:xlink="http://www.w3.org/1999/xlink">
    <title>12@2x</title>
    <g id="相关图标说明" stroke="none" stroke-width="1" fill="none" fill-rule="evenodd">
        <g id="线型图标（单色）" transform="translate(-1050.000000, -4940.000000)">
            <g id="编组-5" transform="translate(131.000000, 4940.000000)">
                <g id="12" transform="translate(919.000000, 0.000000)">
                    <g id="编组"></g>
                    <path d="M26.8722209,7.54155497 C28.967072,5.60995343 32.2320628,5.66078505 34.2653276,7.69404983 C36.3507273,9.77944961 36.3507273,13.1605507 34.2653276,15.2459505 L34.2653276,15.2459505 L16.6159416,32.8953364 L16.5089376,32.9926297 C15.9196796,33.4790959 15.0459497,33.4466648 14.4946213,32.8953364 C13.9088348,32.30955 13.9088348,31.3598025 14.4946213,30.7740161 L14.4946213,30.7740161 L29.77,15.499 L28.1133542,13.8423915 C27.5275678,13.2566051 27.5275678,12.3068576 28.1133542,11.7210712 C28.662529,11.1718964 29.5315914,11.137573 30.1207522,11.6181009 L30.2346746,11.7210712 L31.891,13.378 L32.1440072,13.1246301 L32.2534761,13.0075267 C33.0562476,12.0883218 33.019758,10.691121 32.1440072,9.81537018 L32.1440072,9.81537018 L32.0269038,9.70590133 C31.1076989,8.90312978 29.7104981,8.9396194 28.8347473,9.81537018 L28.8347473,9.81537018 L11.4004397,27.2490956 L8.56132384,34.3001003 L8.5376133,34.3818031 C8.50243326,34.5739621 8.60571821,34.7707738 8.79398404,34.8466068 C8.84386234,34.8666977 8.89713464,34.8770235 8.95090719,34.8770235 L8.95090719,34.8770235 L36.4623299,34.8770235 L36.6156962,34.8847679 C37.3720803,34.9615829 37.9623299,35.6003731 37.9623299,36.3770235 C37.9623299,37.2054507 37.290757,37.8770235 36.4623299,37.8770235 L36.4623299,37.8770235 L8.95090719,37.8770235 L8.68886724,37.8669702 C8.34063508,37.8402101 7.99802603,37.760222 7.67310459,37.6293445 C5.92108004,36.9236336 5.07287522,34.9312454 5.77858611,33.1792209 L5.77858611,33.1792209 L8.73333228,25.8436562 L8.79675478,25.7065583 C8.86691153,25.5729966 8.95695502,25.4505217 9.06404097,25.3434358 L9.06404097,25.3434358 L26.7134269,7.69404983 Z M36.9740147,26.281732 C37.8024419,26.281732 38.4740147,26.9533048 38.4740147,27.781732 C38.4740147,28.5614281 37.8791266,29.2021806 37.1184747,29.2748654 L36.9740147,29.281732 L29.2940144,29.281732 C28.4655873,29.281732 27.7940144,28.6101591 27.7940144,27.781732 C27.7940144,27.0020358 28.3889025,26.3612833 29.1495544,26.2885985 L29.2940144,26.281732 L36.9740147,26.281732 Z" id="形状结合" fill="#333333" fill-rule="nonzero"></path>
                </g>
            </g>
        </g>
    </g>
</svg>