<?xml version="1.0" encoding="UTF-8"?>
<svg width="44px" height="44px" viewBox="0 0 44 44" version="1.1" xmlns="http://www.w3.org/2000/svg" xmlns:xlink="http://www.w3.org/1999/xlink">
    <title>12@2x</title>
    <g id="页面-1" stroke="none" stroke-width="1" fill="none" fill-rule="evenodd">
        <g id="12">
            <g id="编组"></g>
            <path d="M26.9704889,5.92618678 C29.06534,3.99458524 32.3303308,4.04541686 34.3635956,6.07868164 C36.4489954,8.16408142 36.4489954,11.5451825 34.3635956,13.6305823 L34.3635956,13.6305823 L16.7142096,31.2799682 L16.6072056,31.3772615 C16.0179476,31.8637277 15.1442177,31.8312967 14.5928893,31.2799682 C14.0071028,30.6941818 14.0071028,29.7444343 14.5928893,29.1586479 L14.5928893,29.1586479 L29.868268,13.8836318 L28.2116223,12.2270233 C27.6258358,11.6412369 27.6258358,10.6914894 28.2116223,10.105703 C28.760797,9.55652822 29.6298594,9.52220479 30.2190202,10.0027327 L30.3329426,10.105703 L31.989268,11.7626318 L32.2422752,11.5092619 L32.3517441,11.3921585 C33.1545156,10.4729536 33.118026,9.07575277 32.2422752,8.20000198 L32.2422752,8.20000198 L32.1251718,8.09053314 C31.2059669,7.28776159 29.8087661,7.3242512 28.9330153,8.20000198 L28.9330153,8.20000198 L11.4987077,25.6337274 L8.65959185,32.6847321 L8.63588131,32.7664349 C8.60070127,32.9585939 8.70398622,33.1554056 8.89225205,33.2312386 C8.94213035,33.2513295 8.99540265,33.2616553 9.0491752,33.2616553 L9.0491752,33.2616553 L36.5605979,33.2616553 L36.7139642,33.2693997 C37.4703483,33.3462147 38.0605979,33.9850049 38.0605979,34.7616553 C38.0605979,35.5900825 37.389025,36.2616553 36.5605979,36.2616553 L36.5605979,36.2616553 L9.0491752,36.2616553 L8.78713525,36.251602 C8.43890309,36.2248419 8.09629404,36.1448539 7.7713726,36.0139763 C6.01934804,35.3082655 5.17114323,33.3158772 5.87685412,31.5638527 L5.87685412,31.5638527 L8.83160029,24.228288 L8.89502278,24.0911901 C8.96517953,23.9576285 9.05522303,23.8351536 9.16230898,23.7280676 L9.16230898,23.7280676 L26.8116949,6.07868164 Z M37.0722827,24.6663638 C37.9007099,24.6663638 38.5722827,25.3379366 38.5722827,26.1663638 C38.5722827,26.9460599 37.9773947,27.5868124 37.2167427,27.6594972 L37.0722827,27.6663638 L29.3922824,27.6663638 C28.5638553,27.6663638 27.8922824,26.9947909 27.8922824,26.1663638 C27.8922824,25.3866677 28.4871705,24.7459151 29.2478224,24.6732303 L29.3922824,24.6663638 L37.0722827,24.6663638 Z" id="形状结合" fill="#333333" fill-rule="nonzero"></path>
        </g>
    </g>
</svg>