<?xml version="1.0" encoding="UTF-8"?>
<svg width="44px" height="44px" viewBox="0 0 44 44" version="1.1" xmlns="http://www.w3.org/2000/svg" xmlns:xlink="http://www.w3.org/1999/xlink">
    <title>13@2x</title>
    <g id="相关图标说明" stroke="none" stroke-width="1" fill="none" fill-rule="evenodd">
        <g id="线型图标（单色）" transform="translate(-1134.000000, -4940.000000)">
            <g id="编组-5" transform="translate(131.000000, 4940.000000)">
                <g id="13" transform="translate(1003.000000, 0.000000)">
                    <g id="编组"></g>
                    <path d="M20.6056998,14.6706171 C20.6376034,14.682141 20.6690043,14.694716 20.6998607,14.7083003 C20.7172397,14.716148 20.7345582,14.7241382 20.7517337,14.732464 C20.7692999,14.740883 20.78677,14.7498165 20.8040376,14.7590782 C20.8290033,14.7724276 20.8537015,14.7865322 20.8780251,14.8013632 C20.8897397,14.8086918 20.9011464,14.8158896 20.9124479,14.8232355 C20.9385288,14.8398917 20.9642287,14.8577005 20.9894163,14.8763617 C21.0027546,14.8866509 21.0161799,14.8969715 21.0294229,14.9075114 C21.0524017,14.9253357 21.0746676,14.9441246 21.0964403,14.9636275 C21.1095025,14.975804 21.1226376,14.9879907 21.1355508,15.0004065 C21.1548675,15.01854 21.1736895,15.0376563 21.192058,15.0573539 C21.2041895,15.0706905 21.2161207,15.0839148 21.2278167,15.0973494 C21.2468911,15.1190798 21.2654128,15.1417133 21.2833576,15.1650054 C21.295274,15.180422 21.3070064,15.1962192 21.3184313,15.2122507 C21.3303488,15.2291878 21.342138,15.2465238 21.3536185,15.2641815 C22.8054941,17.4972413 23.5465721,19.776874 23.5465721,22.0818171 C23.5465721,24.3867601 22.8054941,26.6663928 21.3536185,28.8994527 L21.321941,28.9464374 C21.3094127,28.9641681 21.2965094,28.9816149 21.2832427,28.9987664 L21.3536185,28.8994527 C21.3150272,28.958808 21.2729483,29.0145293 21.2278262,29.0665224 C21.2161207,29.0797193 21.2041895,29.0929437 21.1920293,29.1059513 C21.1740045,29.12564 21.1555129,29.1444384 21.1366089,29.1626697 C21.1233274,29.1750032 21.1098531,29.1875163 21.0961521,29.1997812 C21.0746676,29.2195095 21.0524017,29.2382984 21.0296784,29.2563657 C21.0161799,29.2666626 21.0027546,29.2769832 20.9891525,29.287079 C20.9651935,29.3052189 20.9404969,29.3223769 20.9153672,29.3387379 C20.9032016,29.3464459 20.890777,29.3543073 20.8782307,29.3619894 C20.8537015,29.377102 20.8290033,29.3912065 20.8039657,29.4045771 C20.78677,29.4138176 20.7692999,29.4227512 20.7516358,29.4313481 C20.7345582,29.4394959 20.7172397,29.4474861 20.6997888,29.4551385 C20.6690043,29.4689181 20.6376034,29.4814931 20.6056998,29.493017 C20.6026659,29.4937643 20.5996697,29.4948333 20.5966703,29.4958928 C20.5654389,29.5075597 20.5243773,29.5204284 20.4825992,29.5315392 C20.4706329,29.5343523 20.4590178,29.5372952 20.44737,29.5400992 C20.4173251,29.5476675 20.3865702,29.554044 20.3554866,29.5594637 C20.3377585,29.562336 20.3198315,29.5651576 20.3018552,29.5676553 C20.2345651,29.5770477 20.1658658,29.5818171 20.0960526,29.5818171 L20.2230018,29.576504 C20.2009713,29.5783906 20.1788879,29.5797931 20.1567686,29.580708 L20.0960526,29.5818171 L18.0960526,29.5818171 L17.9316769,29.5871347 C16.6275885,29.6717784 15.5960526,30.7563337 15.5960526,32.0818171 L15.5960526,32.0818171 L15.5960526,34.0818171 L15.6013703,34.2461928 C15.6860139,35.5502811 16.7705692,36.5818171 18.0960526,36.5818171 L18.0960526,36.5818171 L22.4209062,36.5818171 C23.3020221,36.5818171 24.1180784,36.1179835 24.5688988,35.3609348 L24.9570811,34.7022042 C25.0110171,34.6093514 25.05955,34.5250085 25.1026461,34.4492386 C25.5122204,33.7291411 26.4280004,33.4774124 27.1480979,33.8869867 C27.8681953,34.296561 28.1199241,35.2123409 27.7103498,35.9324384 L27.4062527,36.4570223 C27.327298,36.5913678 27.2407288,36.7376154 27.1464868,36.8958746 C26.1960047,38.4919896 24.5075753,39.4956612 22.6624197,39.5765295 L22.4209062,39.5818171 L18.0960526,39.5818171 L17.8748454,39.5774499 C14.9398326,39.4613562 12.5960526,37.0452962 12.5960526,34.0818171 L12.5960526,34.0818171 L12.5960526,32.0818171 L12.6004198,31.8606099 C12.7165134,28.9255971 15.1325734,26.5818171 18.0960526,26.5818171 L18.0960526,26.5818171 L19.2537164,26.582647 C20.1222897,25.0538025 20.5465721,23.5582091 20.5465721,22.0818171 C20.5465721,20.6057481 20.1224753,19.110486 19.2542864,17.5819905 L18.0960526,17.5818171 L17.8748454,17.5774499 C14.9398326,17.4613562 12.5960526,15.0452962 12.5960526,12.0818171 L12.5960526,12.0818171 L12.5960526,10.0818171 L12.6004198,9.86060992 C12.7165134,6.92559708 15.1325734,4.58181706 18.0960526,4.58181706 L18.0940526,4.58181706 L22.4765234,4.58181706 C24.4214708,4.58181706 26.2217955,5.60905022 27.211382,7.28342565 C30.1080564,12.1845845 31.5675816,17.1236036 31.5675816,22.0818171 C31.5675816,24.5461711 31.2067929,27.0081495 30.4870665,29.4638129 C30.2540654,30.2587985 29.4207176,30.7143769 28.6257321,30.4813759 C27.8307466,30.2483749 27.3751681,29.4150271 27.6081691,28.6200415 C28.2483944,26.4356315 28.5675816,24.2575365 28.5675816,22.0818171 C28.5675816,17.6832352 27.2620883,13.265459 24.6287259,8.80982255 C24.2089012,8.09948116 23.468055,7.64538424 22.6523642,7.58799217 L22.4765174,7.58181706 L21.1170526,7.58081706 L21.0960526,7.58181706 L18.0960526,7.58181706 L17.9316769,7.58713474 C16.6275885,7.67177839 15.5960526,8.75633366 15.5960526,10.0818171 L15.5960526,10.0818171 L15.5960526,12.0818171 L15.6013703,12.2461928 C15.6860139,13.5502811 16.7705692,14.5818171 18.0960526,14.5818171 L18.0960526,14.5818171 L20.0960526,14.5818171 L20.1265852,14.5819811 C20.1591368,14.5826732 20.1916273,14.584422 20.2240032,14.5872162 L20.2405126,14.5886836 C20.2610799,14.590649 20.2815259,14.5930296 20.3018423,14.5958171 C20.3198315,14.5984765 20.3377585,14.6012981 20.3556267,14.6044416 C20.3865702,14.6095901 20.4173251,14.6159667 20.4477198,14.6232686 C20.4590178,14.626339 20.4706329,14.6292818 20.4822126,14.6323629 C20.5212881,14.6423841 20.5593624,14.6541809 20.5967555,14.6674186 L20.5966703,14.6677414 Z" id="形状结合" fill="#333333" fill-rule="nonzero" transform="translate(22.081817, 22.081817) rotate(-315.000000) translate(-22.081817, -22.081817) "></path>
                </g>
            </g>
        </g>
    </g>
</svg>