<?xml version="1.0" encoding="UTF-8"?>
<svg width="44px" height="44px" viewBox="0 0 44 44" version="1.1" xmlns="http://www.w3.org/2000/svg" xmlns:xlink="http://www.w3.org/1999/xlink">
    <title>13@2x</title>
    <g id="页面-1" stroke="none" stroke-width="1" fill="none" fill-rule="evenodd">
        <g id="13">
            <g id="编组"></g>
            <path d="M21.0096473,15.0888001 C21.0415509,15.100324 21.0729517,15.112899 21.1038081,15.1264833 C21.1211871,15.1343309 21.1385057,15.1423211 21.1556811,15.1506469 C21.1732473,15.1590659 21.1907174,15.1679994 21.2079851,15.1772612 C21.2329507,15.1906106 21.2576489,15.2047151 21.2819726,15.2195461 C21.2936872,15.2268747 21.3050938,15.2340725 21.3163954,15.2414185 C21.3424763,15.2580746 21.3681761,15.2758834 21.3933637,15.2945446 C21.406702,15.3048339 21.4201273,15.3151545 21.4333703,15.3256943 C21.4563491,15.3435187 21.4786151,15.3623076 21.5003877,15.3818104 C21.51345,15.3939869 21.526585,15.4061736 21.5394982,15.4185894 C21.558815,15.436723 21.5776369,15.4558393 21.5960054,15.4755368 C21.6081369,15.4888734 21.6200681,15.5020977 21.6317641,15.5155323 C21.6508386,15.5372627 21.6693602,15.5598963 21.687305,15.5831883 C21.6992214,15.5986049 21.7109538,15.6144021 21.7223787,15.6304336 C21.7342962,15.6473707 21.7460854,15.6647067 21.7575659,15.6823644 C23.2094415,17.9154242 23.9505195,20.1950569 23.9505195,22.5 C23.9505195,24.8049431 23.2094415,27.0845758 21.7575659,29.3176356 L21.7258885,29.3646203 C21.7133601,29.382351 21.7004568,29.3997979 21.6871901,29.4169493 L21.7575659,29.3176356 C21.7189747,29.3769909 21.6768958,29.4327123 21.6317737,29.4847053 C21.6200681,29.4979023 21.6081369,29.5111266 21.5959767,29.5241343 C21.5779519,29.543823 21.5594603,29.5626213 21.5405564,29.5808527 C21.5272748,29.5931861 21.5138006,29.6056992 21.5000995,29.6179642 C21.4786151,29.6376924 21.4563491,29.6564813 21.4336258,29.6745486 C21.4201273,29.6848455 21.406702,29.6951661 21.3930999,29.7052619 C21.3691409,29.7234018 21.3444443,29.7405598 21.3193146,29.7569209 C21.307149,29.7646289 21.2947244,29.7724902 21.2821781,29.7801723 C21.2576489,29.7952849 21.2329507,29.8093894 21.2079131,29.82276 C21.1907174,29.8320006 21.1732473,29.8409341 21.1555833,29.849531 C21.1385057,29.8576789 21.1211871,29.8656691 21.1037362,29.8733214 C21.0729517,29.887101 21.0415509,29.899676 21.0096473,29.9111999 C21.0066134,29.9119473 21.0036171,29.9130163 21.0006177,29.9140757 C20.9693863,29.9257426 20.9283248,29.9386113 20.8865466,29.9497221 C20.8745803,29.9525353 20.8629652,29.9554781 20.8513174,29.9582821 C20.8212726,29.9658504 20.7905177,29.9722269 20.7594341,29.9776466 C20.7417059,29.9805189 20.7237789,29.9833405 20.7058026,29.9858383 C20.6385125,29.9952306 20.5698132,30 20.5,30 L20.6269493,29.994687 C20.6049187,29.9965735 20.5828353,29.997976 20.560716,29.9988909 L20.5,30 L18.5,30 L18.3356243,30.0053177 C17.0315359,30.0899613 16,31.1745166 16,32.5 L16,32.5 L16,34.5 L16.0053177,34.6643757 C16.0899613,35.9684641 17.1745166,37 18.5,37 L18.5,37 L22.8248537,37 C23.7059695,37 24.5220258,36.5361664 24.9728462,35.7791178 L25.3610285,35.1203871 C25.4149645,35.0275343 25.4634975,34.9431915 25.5065936,34.8674216 C25.9161679,34.1473241 26.8319478,33.8955953 27.5520453,34.3051696 C28.2721428,34.7147439 28.5238715,35.6305238 28.1142972,36.3506213 L27.8102001,36.8752053 C27.7312454,37.0095507 27.6446763,37.1557984 27.5504342,37.3140575 C26.5999521,38.9101725 24.9115227,39.9138441 23.0663672,39.9947124 L22.8248537,40 L18.5,40 L18.2787929,39.9956328 C15.34378,39.8795391 13,37.4634791 13,34.5 L13,34.5 L13,32.5 L13.0043672,32.2787929 C13.1204609,29.34378 15.5365209,27 18.5,27 L18.5,27 L19.6576638,27.0008299 C20.5262371,25.4719854 20.9505195,23.976392 20.9505195,22.5 C20.9505195,21.023931 20.5264227,19.528669 19.6582338,18.0001735 L18.5,18 L18.2787929,17.9956328 C15.34378,17.8795391 13,15.4634791 13,12.5 L13,12.5 L13,10.5 L13.0043672,10.2787929 C13.1204609,7.34378001 15.5365209,5 18.5,5 L18.498,5 L22.8804708,5 C24.8254182,5 26.625743,6.02723315 27.6153294,7.70160859 C30.5120038,12.6027675 31.971529,17.5417865 31.971529,22.5 C31.971529,24.964354 31.6107403,27.4263325 30.8910139,29.8819959 C30.6580129,30.6769814 29.8246651,31.1325599 29.0296795,30.8995588 C28.234694,30.6665578 27.7791155,29.83321 28.0121166,29.0382245 C28.6523418,26.8538144 28.971529,24.6757194 28.971529,22.5 C28.971529,18.1014182 27.6660358,13.6836419 25.0326733,9.22800548 C24.6128486,8.5176641 23.8720025,8.06356718 23.0563116,8.0061751 L22.8804648,8 L21.521,7.999 L21.5,8 L18.5,8 L18.3356243,8.00531768 C17.0315359,8.08996133 16,9.1745166 16,10.5 L16,10.5 L16,12.5 L16.0053177,12.6643757 C16.0899613,13.9684641 17.1745166,15 18.5,15 L18.5,15 L20.5,15 L20.5305326,15.0001641 C20.5630842,15.0008561 20.5955748,15.0026049 20.6279506,15.0053991 L20.64446,15.0068666 C20.6650273,15.0088319 20.6854734,15.0112125 20.7057898,15.014 C20.7237789,15.0166595 20.7417059,15.0194811 20.7595741,15.0226245 C20.7905177,15.0277731 20.8212726,15.0341496 20.8516672,15.0414516 C20.8629652,15.0445219 20.8745803,15.0474647 20.88616,15.0505459 C20.9252355,15.0605671 20.9633099,15.0723639 21.000703,15.0856015 L21.0006177,15.0859243 Z" id="形状结合" fill="#333333" fill-rule="nonzero" transform="translate(22.485764, 22.500000) rotate(-315.000000) translate(-22.485764, -22.500000) "></path>
        </g>
    </g>
</svg>