<?xml version="1.0" encoding="UTF-8"?>
<svg width="44px" height="44px" viewBox="0 0 44 44" version="1.1" xmlns="http://www.w3.org/2000/svg" xmlns:xlink="http://www.w3.org/1999/xlink">
    <title>14@2x</title>
    <g id="相关图标说明" stroke="none" stroke-width="1" fill="none" fill-rule="evenodd">
        <g id="线型图标（单色）" transform="translate(-1218.000000, -4940.000000)">
            <g id="编组-5" transform="translate(131.000000, 4940.000000)">
                <g id="14" transform="translate(1087.000000, 0.000000)">
                    <g id="编组"></g>
                    <g id="shanchu1-2" transform="translate(8.705038, 8.705038)" fill="#333333" fill-rule="nonzero">
                        <path d="M0.381399287,0.609135402 C-0.161035254,1.26550099 -0.124872952,2.23391493 0.489886195,2.84867407 L10.913,13.272 L0.489886195,23.6961114 C-0.163295398,24.349293 -0.163295398,25.4017177 0.489886195,26.0548993 L0.609135402,26.1633862 C1.26550099,26.7058207 2.23391493,26.6696584 2.84867407,26.0548993 L13.272,15.631 L17.8965702,20.2553581 C18.5497518,20.9085397 19.6021765,20.9085397 20.2553581,20.2553581 L20.363845,20.1361089 C20.9062795,19.4797433 20.8701172,18.5113294 20.2553581,17.8965702 L15.631,13.272 L26.0548993,2.84867407 C26.7080809,2.19549248 26.7080809,1.14306779 26.0548993,0.489886195 L25.9356501,0.381399287 C25.2792845,-0.161035254 24.3108705,-0.124872952 23.6961114,0.489886195 L13.272,10.913 L2.84867407,0.489886195 C2.19549248,-0.163295398 1.14306779,-0.163295398 0.489886195,0.489886195 L0.381399287,0.609135402 Z" id="路径"></path>
                        <path d="M21.95504,21.95504 C21.3018584,22.6082216 21.3018584,23.6606462 21.95504,24.3138278 L23.6961114,26.0548993 C24.0080111,26.3683002 24.4326301,26.5447801 24.8755053,26.5447801 C25.3183806,26.5447801 25.7429995,26.3683002 26.0554075,26.0543898 C26.7082145,25.4064992 26.7082145,24.3494267 26.0548993,23.6961114 L24.3138278,21.95504 C23.6606462,21.3018584 22.6082216,21.3018584 21.95504,21.95504 Z" id="路径"></path>
                    </g>
                </g>
            </g>
        </g>
    </g>
</svg>