<?xml version="1.0" encoding="UTF-8"?>
<svg width="44px" height="44px" viewBox="0 0 44 44" version="1.1" xmlns="http://www.w3.org/2000/svg" xmlns:xlink="http://www.w3.org/1999/xlink">
    <title>14@2x</title>
    <g id="页面-1" stroke="none" stroke-width="1" fill="none" fill-rule="evenodd">
        <g id="14">
            <g id="编组"></g>
            <g id="shanchu1-2" transform="translate(9.005038, 9.005038)" fill="#333333" fill-rule="nonzero" stroke="#333333" stroke-width="0.6">
                <path d="M14.9069165,12.9723927 L19.7432261,17.8087023 C20.2792504,18.3447266 20.2792504,19.2072018 19.7432261,19.7432261 C19.2072018,20.2792504 18.3447266,20.2792504 17.8087023,19.7432261 L12.9723927,14.9069165 L2.33654204,25.5427672 C1.80051773,26.0787915 0.938042535,26.0787915 0.402018229,25.5427672 C-0.134006076,25.0067429 -0.134006076,24.1442677 0.402018229,23.6082434 L11.0378689,12.9723927 L0.402018229,2.33654204 C-0.134006076,1.80051773 -0.134006076,0.938042535 0.402018229,0.402018229 C0.938042535,-0.134006076 1.80051773,-0.134006076 2.33654204,0.402018229 L12.9723927,11.0378689 L23.6082434,0.402018229 C24.1442677,-0.134006076 25.0067429,-0.134006076 25.5427672,0.402018229 C26.0787915,0.938042535 26.0787915,1.80051773 25.5427672,2.33654204 L14.9069165,12.9723927 Z" id="路径"></path>
                <path d="M25.5427672,25.5427672 C25.286661,25.8001052 24.9385663,25.9447801 24.5755053,25.9447801 C24.2124444,25.9447801 23.8643497,25.8001052 23.6082434,25.5427672 L21.867172,23.8016958 C21.3311477,23.2656715 21.3311477,22.4031963 21.867172,21.867172 C22.4031963,21.3311477 23.2656715,21.3311477 23.8016958,21.867172 L25.5427672,23.6082434 C26.0787915,24.1442677 26.0787915,25.0107732 25.5427672,25.5427672 Z" id="路径"></path>
            </g>
        </g>
    </g>
</svg>