<?xml version="1.0" encoding="UTF-8"?>
<svg width="44px" height="44px" viewBox="0 0 44 44" version="1.1" xmlns="http://www.w3.org/2000/svg" xmlns:xlink="http://www.w3.org/1999/xlink">
    <title>16@2x</title>
    <g id="相关图标说明" stroke="none" stroke-width="1" fill="none" fill-rule="evenodd">
        <g id="线型图标（单色）" transform="translate(-1386.000000, -4940.000000)">
            <g id="编组-5" transform="translate(131.000000, 4940.000000)">
                <g id="16" transform="translate(1255.000000, 0.000000)">
                    <g id="编组"></g>
                    <path d="M23.216028,12.4392767 L23.2962037,12.5632136 L30.273,24.543 L34.1575074,20.3274458 L34.2912761,20.1928477 C34.7523481,19.762849 35.3611394,19.5212408 35.9962729,19.5212408 C37.3769848,19.5212408 38.4962729,20.6405289 38.4962729,22.0212408 L38.4962729,22.0212408 L38.4962729,36.2374539 L38.4894064,36.3819139 C38.4167216,37.1425658 37.7759691,37.7374539 36.9962729,37.7374539 L36.9962729,37.7374539 L36.8518129,37.7305873 C36.091161,37.6579026 35.4962729,37.01715 35.4962729,36.2374539 L35.4962729,36.2374539 L35.4972729,23.3 L31.1032672,28.0710226 C31.0447724,28.1342624 30.9880048,28.1864539 30.9266601,28.2345131 C30.816245,28.321443 30.696686,28.3905352 30.5713833,28.442047 C30.5458873,28.4523851 30.520496,28.4620697 30.4949675,28.4710231 C30.4761397,28.4775012 30.4665604,28.4806614 30.4569554,28.483723 C30.4212634,28.4952397 30.385135,28.5053345 30.3488393,28.5140256 C30.3440272,28.514924 30.3393899,28.5160043 30.3347483,28.5170625 C30.2469504,28.5374538 30.15817,28.5494033 30.0695255,28.5534408 C30.0575573,28.5536891 30.0455487,28.5541025 30.0335363,28.5543725 C29.9982562,28.5553995 29.9631738,28.5549116 29.9282012,28.553203 C29.9131613,28.5523528 29.8977643,28.5513899 29.8823803,28.5501902 C29.8525828,28.5478906 29.8229603,28.5446434 29.7934796,28.5405253 C29.7693351,28.5372549 29.7456007,28.5333905 29.7219476,28.5289524 C29.70395,28.5253716 29.6859144,28.5216193 29.6679556,28.5175386 C29.6408274,28.5116617 29.6137575,28.5047476 29.5868529,28.4970636 C29.5633445,28.4899961 29.5400325,28.4827033 29.5169041,28.4748463 C29.5010964,28.4698491 29.4854217,28.4642333 29.4698225,28.4583469 C29.4410799,28.4471411 29.4124403,28.4353264 29.3841657,28.4226255 C29.366634,28.4150453 29.3493238,28.4068453 29.3321391,28.3982931 C29.3088932,28.3865197 29.2858522,28.3743373 29.2631149,28.3615443 C29.2436495,28.350653 29.2243713,28.3391832 29.2052963,28.3272404 C29.1846009,28.3143854 29.164093,28.3008953 29.1438943,28.2868805 C29.088492,28.2480639 29.0349132,28.2051519 28.9837309,28.1580049 L29.0819838,28.2415213 C29.0645297,28.2280295 29.047341,28.2141236 29.0304336,28.1998078 L28.9837309,28.1580049 C28.9809613,28.1554537 28.9782035,28.1528944 28.9754574,28.1503272 C28.9049392,28.0848789 28.8402545,28.0115579 28.7824308,27.9310111 L28.7037963,27.8096337 L21.999,16.298 L15.2923154,27.8098969 C14.8083357,28.6405412 13.6902979,28.7992677 12.9941343,28.1711551 L12.8930058,28.0710226 L8.5,23.301 L8.499,29.216 L8.5,29.2374539 L8.499,34.737 L29,34.7374539 C29.7796961,34.7374539 30.4204487,35.332342 30.4931334,36.0929939 L30.5,36.2374539 C30.5,37.01715 29.9051119,37.6579026 29.14446,37.7305873 L29,37.7374539 L7,37.7374539 C6.22030388,37.7374539 5.57955132,37.1425658 5.50686658,36.3819139 L5.5,36.2374539 L5.5,29.258 L5.5,29.2374539 L5.5,22.0212408 C5.5,20.6405289 6.61928813,19.5212408 8,19.5212408 C8.63513354,19.5212408 9.24392481,19.762849 9.70499683,20.1928477 L9.83876549,20.3274458 L13.723,24.544 L20.7039496,12.5629504 C21.2575097,11.6128868 22.5945185,11.5717129 23.216028,12.4392767 Z M7,13 C8.1045695,13 9,13.8954305 9,15 C9,16.1045695 8.1045695,17 7,17 C5.8954305,17 5,16.1045695 5,15 C5,13.8954305 5.8954305,13 7,13 Z M37,13 C38.1045695,13 39,13.8954305 39,15 C39,16.1045695 38.1045695,17 37,17 C35.8954305,17 35,16.1045695 35,15 C35,13.8954305 35.8954305,13 37,13 Z M22,6 C23.1045695,6 24,6.8954305 24,8 C24,9.1045695 23.1045695,10 22,10 C20.8954305,10 20,9.1045695 20,8 C20,6.8954305 20.8954305,6 22,6 Z" id="形状结合" fill="#333333" fill-rule="nonzero"></path>
                </g>
            </g>
        </g>
    </g>
</svg>