<?xml version="1.0" encoding="UTF-8"?>
<svg width="44px" height="44px" viewBox="0 0 44 44" version="1.1" xmlns="http://www.w3.org/2000/svg" xmlns:xlink="http://www.w3.org/1999/xlink">
    <title>17@2x</title>
    <g id="页面-1" stroke="none" stroke-width="1" fill="none" fill-rule="evenodd">
        <g id="17">
            <g id="编组"></g>
            <path d="M34.1978022,7.5 C36.3252847,7.5 38.0621566,9.17240275 38.165468,11.2742583 L38.1703297,11.4725275 L38.1703297,15.1813187 L38.1703297,15.1813187 C38.1703297,18.7625138 35.1217047,21.6263736 31.4062389,21.6263736 C29.6826795,21.6263736 28.0712718,21.0055778 26.8516245,19.9479327 L26.62,19.736 L26.6009434,19.7564198 C25.4217624,20.8715381 23.8291201,21.555565 22.1079544,21.6211798 L21.8351648,21.6263736 C20.1116055,21.6263736 18.5001977,21.0055778 17.2805504,19.9479327 L17.049,19.736 L17.0298693,19.7564198 C15.8506883,20.8715381 14.2580461,21.555565 12.5368803,21.6211798 L12.2640907,21.6263736 C11.3719818,21.6263736 10.5183171,21.4612683 9.73606643,21.1607709 L9.73626374,33.7252747 L9.74280664,33.838692 C9.79898479,34.3223675 10.2100443,34.6978022 10.7087912,34.6978022 L10.7087912,34.6978022 L24.5029775,34.6959646 C24.5287158,34.692141 24.5546673,34.6889712 24.5808147,34.6864727 L24.7252747,34.6796061 L32.7065149,34.6796061 C33.2052618,34.6796061 33.6163213,34.3041714 33.6724995,33.8204959 L33.6790424,33.7070786 L33.6790424,25.3076923 C33.6790424,24.4792652 34.3506152,23.8076923 35.1790424,23.8076923 C35.9587385,23.8076923 36.599491,24.4025804 36.6721758,25.1632323 L36.6790424,25.3076923 L36.6790424,33.7070786 C36.6790424,35.8345611 35.0066396,37.5714331 32.9047841,37.6747444 L32.7065149,37.6796061 L25.2839292,37.6813771 C25.2112518,37.6921963 25.1368726,37.6978022 25.061184,37.6978022 L25.061184,37.6978022 L10.7087912,37.6978022 L10.510522,37.6929405 C8.40866649,37.5896292 6.73626374,35.8527572 6.73626374,33.7252747 L6.73626374,33.7252747 L6.7359694,18.8981013 C5.95825896,17.8503991 5.5,16.5697726 5.5,15.1813187 L5.5,11.4725275 C5.5,9.34504496 7.17240275,7.60817304 9.27425829,7.50486169 L9.47252747,7.5 L34.1978022,7.5 Z M28.1704572,26.0619009 C28.688555,26.7083266 28.5845247,27.6523594 27.9380991,28.1704572 C24.5516474,30.8846334 19.768711,30.9505607 16.3141153,28.3657832 L16.0640123,28.1721463 C15.4166538,27.6552146 15.3109219,26.7113708 15.8278537,26.0640123 C16.3124772,25.4571137 17.1723163,25.3262541 17.8113101,25.738206 L17.9472619,25.8368564 C20.3210225,27.7323627 23.6915609,27.7293249 26.0619009,25.8295428 C26.7083266,25.311445 27.6523594,25.4154753 28.1704572,26.0619009 Z M34.1978022,10.5 L9.47252747,10.5 C8.97378053,10.5 8.56272106,10.8754347 8.5065429,11.3591102 L8.5,11.4725275 L8.5,15.1813187 L8.5,15.1813187 C8.5,15.9000324 8.74308983,16.5724833 9.16060115,17.1290935 C9.30749848,17.2417177 9.43099022,17.3818736 9.52583735,17.5410794 C10.2072116,18.2072519 11.1774913,18.6263736 12.2640907,18.6263736 C13.7006894,18.6263736 14.9765708,17.884433 15.6109782,16.7569305 L15.7012682,16.584958 C16.2273216,15.5078439 17.721874,15.4643967 18.3258958,16.455074 L18.3966259,16.5842947 C18.995178,17.8083246 20.3267214,18.6263736 21.8351648,18.6263736 C23.3435934,18.6263736 24.6748313,17.8083841 25.2723423,16.584958 C25.7983957,15.5078439 27.2929481,15.4643967 27.8969699,16.455074 L27.9677,16.5842947 C28.5662521,17.8083246 29.8977955,18.6263736 31.4062389,18.6263736 C33.5053272,18.6263736 35.1703297,17.0622804 35.1703297,15.1813187 L35.1703297,11.4725275 C35.1703297,10.9737805 34.794895,10.5627211 34.3112194,10.5065429 L34.1978022,10.5 Z" id="形状结合" fill="#333333" fill-rule="nonzero"></path>
        </g>
    </g>
</svg>