<?xml version="1.0" encoding="UTF-8"?>
<svg width="44px" height="44px" viewBox="0 0 44 44" version="1.1" xmlns="http://www.w3.org/2000/svg" xmlns:xlink="http://www.w3.org/1999/xlink">
    <title>17@2x</title>
    <g id="相关图标说明" stroke="none" stroke-width="1" fill="none" fill-rule="evenodd">
        <g id="线型图标（单色）" transform="translate(-1470.000000, -4940.000000)">
            <g id="编组-5" transform="translate(131.000000, 4940.000000)">
                <g id="17" transform="translate(1339.000000, 0.000000)">
                    <g id="编组"></g>
                    <path d="M34.2978022,7 C36.4252847,7 38.1621566,8.67240275 38.265468,10.7742583 L38.2703297,10.9725275 L38.2703297,14.6813187 L38.2703297,14.6813187 C38.2703297,18.2625138 35.2217047,21.1263736 31.5062389,21.1263736 C29.7826795,21.1263736 28.1712718,20.5055778 26.9516245,19.4479327 L26.72,19.236 L26.7009434,19.2564198 C25.5217624,20.3715381 23.9291201,21.055565 22.2079544,21.1211798 L21.9351648,21.1263736 C20.2116055,21.1263736 18.6001977,20.5055778 17.3805504,19.4479327 L17.149,19.236 L17.1298693,19.2564198 C15.9506883,20.3715381 14.3580461,21.055565 12.6368803,21.1211798 L12.3640907,21.1263736 C11.4719818,21.1263736 10.6183171,20.9612683 9.83606643,20.6607709 L9.83626374,33.2252747 L9.84280664,33.338692 C9.89898479,33.8223675 10.3100443,34.1978022 10.8087912,34.1978022 L10.8087912,34.1978022 L24.6029775,34.1959646 C24.6287158,34.192141 24.6546673,34.1889712 24.6808147,34.1864727 L24.8252747,34.1796061 L32.8065149,34.1796061 C33.3052618,34.1796061 33.7163213,33.8041714 33.7724995,33.3204959 L33.7790424,33.2070786 L33.7790424,24.8076923 C33.7790424,23.9792652 34.4506152,23.3076923 35.2790424,23.3076923 C36.0587385,23.3076923 36.699491,23.9025804 36.7721758,24.6632323 L36.7790424,24.8076923 L36.7790424,33.2070786 C36.7790424,35.3345611 35.1066396,37.0714331 33.0047841,37.1747444 L32.8065149,37.1796061 L25.3839292,37.1813771 C25.3112518,37.1921963 25.2368726,37.1978022 25.161184,37.1978022 L25.161184,37.1978022 L10.8087912,37.1978022 L10.610522,37.1929405 C8.50866649,37.0896292 6.83626374,35.3527572 6.83626374,33.2252747 L6.83626374,33.2252747 L6.8359694,18.3981013 C6.05825896,17.3503991 5.6,16.0697726 5.6,14.6813187 L5.6,10.9725275 C5.6,8.84504496 7.27240275,7.10817304 9.37425829,7.00486169 L9.57252747,7 L34.2978022,7 Z M28.2704572,25.5619009 C28.788555,26.2083266 28.6845247,27.1523594 28.0380991,27.6704572 C24.6516474,30.3846334 19.868711,30.4505607 16.4141153,27.8657832 L16.1640123,27.6721463 C15.5166538,27.1552146 15.4109219,26.2113708 15.9278537,25.5640123 C16.4124772,24.9571137 17.2723163,24.8262541 17.9113101,25.238206 L18.0472619,25.3368564 C20.4210225,27.2323627 23.7915609,27.2293249 26.1619009,25.3295428 C26.8083266,24.811445 27.7523594,24.9154753 28.2704572,25.5619009 Z M34.2978022,10 L9.57252747,10 C9.07378053,10 8.66272106,10.3754347 8.6065429,10.8591102 L8.6,10.9725275 L8.6,14.6813187 L8.6,14.6813187 C8.6,15.4000324 8.84308983,16.0724833 9.26060115,16.6290935 C9.40749848,16.7417177 9.53099022,16.8818736 9.62583735,17.0410794 C10.3072116,17.7072519 11.2774913,18.1263736 12.3640907,18.1263736 C13.8006894,18.1263736 15.0765708,17.384433 15.7109782,16.2569305 L15.8012682,16.084958 C16.3273216,15.0078439 17.821874,14.9643967 18.4258958,15.955074 L18.4966259,16.0842947 C19.095178,17.3083246 20.4267214,18.1263736 21.9351648,18.1263736 C23.4435934,18.1263736 24.7748313,17.3083841 25.3723423,16.084958 C25.8983957,15.0078439 27.3929481,14.9643967 27.9969699,15.955074 L28.0677,16.0842947 C28.6662521,17.3083246 29.9977955,18.1263736 31.5062389,18.1263736 C33.6053272,18.1263736 35.2703297,16.5622804 35.2703297,14.6813187 L35.2703297,10.9725275 C35.2703297,10.4737805 34.894895,10.0627211 34.4112194,10.0065429 L34.2978022,10 Z" id="形状结合" fill="#333333" fill-rule="nonzero"></path>
                </g>
            </g>
        </g>
    </g>
</svg>