<?xml version="1.0" encoding="UTF-8"?>
<svg width="44px" height="44px" viewBox="0 0 44 44" version="1.1" xmlns="http://www.w3.org/2000/svg" xmlns:xlink="http://www.w3.org/1999/xlink">
    <title>18@2x</title>
    <g id="页面-1" stroke="none" stroke-width="1" fill="none" fill-rule="evenodd">
        <g id="18">
            <g id="编组"></g>
            <g id="drag" transform="translate(12.000000, 6.000000)" fill="#333333" fill-rule="nonzero">
                <path d="M13.0822123,29.3903504 C13.0822123,31.0224393 14.7143012,32.6545281 16.3463901,32.6545281 C17.9784789,32.6545281 19.6105678,31.0224392 19.6105678,29.3903504 C19.6105678,27.7582615 17.9784789,26.1261726 16.3463901,26.1261726 C14.7143012,26.1261726 13.0822123,27.7582615 13.0822123,29.3903504 Z M6.55385688,3.27692842 C6.55385688,1.64483953 4.92176799,0.0127506815 3.28967914,0.0127506815 C1.6575903,0.0127506815 0.0255014077,1.64483957 0.0255014077,3.27692842 C0.0255014077,4.90901726 1.6575903,6.5411062 3.28967914,6.5411062 C4.92176799,6.5411062 6.55385688,4.90901731 6.55385688,3.27692842 Z M0.0255014077,29.3903504 C0.0255014077,31.0224393 1.6575903,32.6545281 3.28967914,32.6545281 C4.92176799,32.6545281 6.55385688,31.0224392 6.55385688,29.3903504 C6.55385688,27.7582615 4.92176799,26.1261726 3.28967914,26.1261726 C1.6575903,26.1261726 0.0255014077,27.7582615 0.0255014077,29.3903504 Z M13.0822123,3.27692842 C13.0822123,4.90901731 14.7143012,6.5411062 16.3463901,6.5411062 C17.9784789,6.5411062 19.6105678,4.90901731 19.6105678,3.27692842 C19.6105678,1.64483953 17.9784789,0.0127506815 16.3463901,0.0127506815 C14.7143012,0.0127506815 13.0822123,1.64483957 13.0822123,3.27692842 Z M0.0255014077,16.3336394 C0.0255014077,17.9657283 1.6575903,19.5978171 3.28967914,19.5978171 C4.92176799,19.5978171 6.55385688,17.9657282 6.55385688,16.3336394 C6.55385688,14.7015506 4.92176799,13.0694617 3.28967914,13.0694617 C1.6575903,13.0694617 0.0255014077,14.7015506 0.0255014077,16.3336394 Z M13.0822123,16.3336394 C13.0822123,17.9657283 14.7143012,19.5978171 16.3463901,19.5978171 C17.9784789,19.5978171 19.6105678,17.9657282 19.6105678,16.3336394 C19.6105678,14.7015506 17.9784789,13.0694617 16.3463901,13.0694617 C14.7143012,13.0694617 13.0822123,14.7015506 13.0822123,16.3336394 Z" id="形状"></path>
            </g>
        </g>
    </g>
</svg>