<?xml version="1.0" encoding="UTF-8"?>
<svg width="44px" height="44px" viewBox="0 0 44 44" version="1.1" xmlns="http://www.w3.org/2000/svg" xmlns:xlink="http://www.w3.org/1999/xlink">
    <title>18@2x</title>
    <g id="相关图标说明" stroke="none" stroke-width="1" fill="none" fill-rule="evenodd">
        <g id="线型图标（单色）" transform="translate(-1554.000000, -4940.000000)">
            <g id="编组-5" transform="translate(131.000000, 4940.000000)">
                <g id="18" transform="translate(1423.000000, 0.000000)">
                    <g id="编组"></g>
                    <g id="drag" transform="translate(12.200000, 5.750000)" fill="#333333" fill-rule="nonzero">
                        <path d="M13.0567109,29.3775997 C13.0567109,31.0096886 14.6887998,32.6417774 16.3208887,32.6417774 C17.9529775,32.6417774 19.5850664,31.0096885 19.5850664,29.3775997 C19.5850664,27.7455109 17.9529775,26.1134219 16.3208887,26.1134219 C14.6887998,26.1134219 13.0567109,27.7455108 13.0567109,29.3775997 Z M6.52835547,3.26417773 C6.52835547,1.63208885 4.89626658,0 3.26417773,0 C1.63208889,0 5.68434189e-14,1.63208889 5.68434189e-14,3.26417773 C5.68434189e-14,4.89626658 1.63208889,6.52835551 3.26417773,6.52835551 C4.89626658,6.52835551 6.52835547,4.89626662 6.52835547,3.26417773 Z M0,29.3775997 C0,31.0096886 1.63208889,32.6417774 3.26417773,32.6417774 C4.89626658,32.6417774 6.52835547,31.0096885 6.52835547,29.3775997 C6.52835547,27.7455109 4.89626658,26.1134219 3.26417773,26.1134219 C1.63208889,26.1134219 0,27.7455108 0,29.3775997 Z M13.0567109,3.26417773 C13.0567109,4.89626662 14.6887998,6.52835551 16.3208887,6.52835551 C17.9529775,6.52835551 19.5850664,4.89626662 19.5850664,3.26417773 C19.5850664,1.63208884 17.9529775,0 16.3208887,0 C14.6887998,0 13.0567109,1.63208889 13.0567109,3.26417773 Z M0,16.3208887 C0,17.9529776 1.63208889,19.5850665 3.26417773,19.5850665 C4.89626658,19.5850665 6.52835547,17.9529776 6.52835547,16.3208887 C6.52835547,14.6887999 4.89626658,13.056711 3.26417773,13.056711 C1.63208889,13.056711 0,14.6887999 0,16.3208887 Z M13.0567109,16.3208887 C13.0567109,17.9529776 14.6887998,19.5850665 16.3208887,19.5850665 C17.9529775,19.5850665 19.5850664,17.9529776 19.5850664,16.3208887 C19.5850664,14.6887999 17.9529775,13.056711 16.3208887,13.056711 C14.6887998,13.056711 13.0567109,14.6887999 13.0567109,16.3208887 Z" id="形状"></path>
                    </g>
                </g>
            </g>
        </g>
    </g>
</svg>