<?xml version="1.0" encoding="UTF-8"?>
<svg width="44px" height="44px" viewBox="0 0 44 44" version="1.1" xmlns="http://www.w3.org/2000/svg" xmlns:xlink="http://www.w3.org/1999/xlink">
    <title>19@2x</title>
    <g id="页面-1" stroke="none" stroke-width="1" fill="none" fill-rule="evenodd">
        <g id="19">
            <g id="编组"></g>
            <g id="编组">
                <g id="铃" transform="translate(7.000000, 3.000000)" fill="#333333">
                    <path d="M9.95652392,38.3983284 C11.3641015,38.9459627 13.0097419,39.2404412 14.7226252,39.2404412 C16.4355084,39.2404412 18.0811488,38.9459627 19.4887264,38.3983284 C20.2607793,38.0979523 20.6431489,37.2285768 20.3427728,36.4565239 C20.0423968,35.684471 19.1730213,35.3021014 18.4009684,35.6024775 C17.3485349,36.0119389 16.0715905,36.2404412 14.7226252,36.2404412 C13.3736598,36.2404412 12.0967155,36.0119389 11.044282,35.6024775 C10.272229,35.3021014 9.40285356,35.684471 9.10247747,36.4565239 C8.80210138,37.2285768 9.184471,38.0979523 9.95652392,38.3983284 Z" id="形状结合"></path>
                </g>
                <path d="M10,35 L10,22.1034483 C10,15.4188984 15.372583,10 22,10 C28.627417,10 34,15.4188984 34,22.1034483 C34,25.2531927 34,29.5504447 34,31.1253169" id="路径" stroke="#333333" stroke-width="3" stroke-linecap="round" stroke-linejoin="round"></path>
                <rect id="矩形" fill="#333333" x="20" y="4" width="3.4" height="7" rx="1.7"></rect>
                <rect id="矩形" fill="#333333" x="7" y="34" width="30" height="3" rx="1.5"></rect>
            </g>
        </g>
    </g>
</svg>