<?xml version="1.0" encoding="UTF-8"?>
<svg width="44px" height="44px" viewBox="0 0 44 44" version="1.1" xmlns="http://www.w3.org/2000/svg" xmlns:xlink="http://www.w3.org/1999/xlink">
    <title>19@2x</title>
    <g id="相关图标说明" stroke="none" stroke-width="1" fill="none" fill-rule="evenodd">
        <g id="线型图标（单色）" transform="translate(-131.000000, -5040.000000)">
            <g id="编组-5" transform="translate(131.000000, 4940.000000)">
                <g id="19" transform="translate(0.000000, 100.000000)">
                    <g id="编组"></g>
                    <g transform="translate(7.000000, 3.000000)" id="编组-76">
                        <path d="M9.95652392,37.3983284 C11.3641015,37.9459627 13.0097419,38.2404412 14.7226252,38.2404412 C16.4355084,38.2404412 18.0811488,37.9459627 19.4887264,37.3983284 C20.2607793,37.0979523 20.6431489,36.2285768 20.3427728,35.4565239 C20.0423968,34.684471 19.1730213,34.3021014 18.4009684,34.6024775 C17.3485349,35.0119389 16.0715905,35.2404412 14.7226252,35.2404412 C13.3736598,35.2404412 12.0967155,35.0119389 11.044282,34.6024775 C10.272229,34.3021014 9.40285356,34.684471 9.10247747,35.4565239 C8.80210138,36.2285768 9.184471,37.0979523 9.95652392,37.3983284 Z" id="路径" fill="#000000" fill-rule="nonzero"></path>
                        <path d="M15,4.5 C22.3551464,4.5 28.3319138,10.4252558 28.4965163,17.7913595 L28.5,18.1034483 L28.5,27.1253169 C28.5,27.953744 27.8284271,28.6253169 27,28.6253169 C26.2203039,28.6253169 25.5795513,28.0304288 25.5068666,27.2697769 L25.5,27.1253169 L25.5,18.1034483 C25.5,12.2444569 20.796094,7.5 15,7.5 C9.29892397,7.5 4.65451995,12.090176 4.50377654,17.8162157 L4.5,18.1034483 L4.5,31 C4.5,31.8284271 3.82842712,32.5 3,32.5 C2.22030388,32.5 1.57955132,31.9051119 1.50686658,31.14446 L1.5,31 L1.5,18.1034483 C1.5,10.5933398 7.54125997,4.5 15,4.5 Z" id="路径" fill="#333333" fill-rule="nonzero"></path>
                        <rect id="矩形" fill="#333333" x="13" y="0" width="3.4" height="7" rx="1.7"></rect>
                        <rect id="矩形" fill="#333333" x="0" y="30" width="30" height="3" rx="1.5"></rect>
                    </g>
                </g>
            </g>
        </g>
    </g>
</svg>