<?xml version="1.0" encoding="UTF-8"?>
<svg width="44px" height="44px" viewBox="0 0 44 44" version="1.1" xmlns="http://www.w3.org/2000/svg" xmlns:xlink="http://www.w3.org/1999/xlink">
    <title>2@2x</title>
    <g id="相关图标说明" stroke="none" stroke-width="1" fill="none" fill-rule="evenodd">
        <g id="线型图标（单色）" transform="translate(-214.000000, -4940.000000)">
            <g id="编组-5" transform="translate(131.000000, 4940.000000)">
                <g id="2" transform="translate(83.000000, 0.000000)">
                    <g id="编组"></g>
                    <path d="M34,5.5 C35.8685634,5.5 37.3951264,6.9642776 37.4948211,8.8079648 L37.5,9 L37.5,13.6645017 C37.5,14.6987381 37.0428866,15.6759534 36.2583659,16.3384267 L36.0852903,16.4754738 L28.9963521,21.7343284 C28.4095638,22.1696311 28.0450533,22.8376973 27.9924468,23.5604431 L27.9858451,23.7421656 L27.9858451,32.8283467 C27.9858451,33.0854572 27.919775,33.3373557 27.7951394,33.5602978 L27.7133901,33.6903984 L25.3679848,37.0302104 C24.8918868,37.7081648 23.9563425,37.8718018 23.2783881,37.3957037 C22.6403133,36.9476115 22.4578278,36.0925356 22.8354928,35.428274 L22.9128947,35.306107 L24.985,32.355 L24.9858451,23.7421656 C24.9858451,22.0879149 25.7300495,20.5264978 27.0035193,19.4849895 L27.2089604,19.3249237 L34.2978986,14.0660691 C34.3996086,13.9906166 34.4679275,13.8801979 34.4911867,13.7579982 L34.5,13.6645017 L34.5,9 C34.5,8.75454011 34.3231248,8.55039163 34.0898756,8.50805567 L34,8.5 L10,8.5 C9.75454011,8.5 9.55039163,8.67687516 9.50805567,8.91012437 L9.5,9 L9.5,13.6723013 C9.5,13.7980649 9.54731778,13.9179704 9.63058802,14.009259 L9.69960419,14.0720042 L16.6956071,19.3298351 C18.0088603,20.3168077 18.8085031,21.8359347 18.8851842,23.4679952 L18.8912533,23.7265663 L18.8912533,37.6 C18.8912533,38.4284271 18.2196804,39.1 17.3912533,39.1 C16.6115572,39.1 15.9708046,38.5051119 15.8981198,37.74446 L15.8912533,37.6 L15.8912533,23.7265663 C15.8912533,23.0010072 15.576268,22.3144442 15.0335938,21.8416862 L14.8932323,21.7280521 L7.89722935,16.4702212 C7.07618431,15.8531666 6.57061467,14.9092462 6.50685447,13.8914411 L6.5,13.6723013 L6.5,9 C6.5,7.1314366 7.9642776,5.60487355 9.8079648,5.50517886 L10,5.5 L34,5.5 Z" id="路径-21备份" fill="#333333" fill-rule="nonzero"></path>
                </g>
            </g>
        </g>
    </g>
</svg>