<?xml version="1.0" encoding="UTF-8"?>
<svg width="44px" height="44px" viewBox="0 0 44 44" version="1.1" xmlns="http://www.w3.org/2000/svg" xmlns:xlink="http://www.w3.org/1999/xlink">
    <title>2@2x</title>
    <g id="页面-1" stroke="none" stroke-width="1" fill="none" fill-rule="evenodd">
        <g id="2">
            <g id="编组"></g>
            <path d="M34,7.1 C35.8685634,7.1 37.3951264,8.5642776 37.4948211,10.4079648 L37.5,10.6 L37.5,15.2645017 C37.5,16.2987381 37.0428866,17.2759534 36.2583659,17.9384267 L36.0852903,18.0754738 L28.9963521,23.3343284 C28.4095638,23.7696311 28.0450533,24.4376973 27.9924468,25.1604431 L27.9858451,25.3421656 L27.9858451,34.4283467 C27.9858451,34.6854572 27.919775,34.9373557 27.7951394,35.1602978 L27.7133901,35.2903984 L25.3679848,38.6302104 C24.8918868,39.3081648 23.9563425,39.4718018 23.2783881,38.9957037 C22.6403133,38.5476115 22.4578278,37.6925356 22.8354928,37.028274 L22.9128947,36.906107 L24.985,33.955 L24.9858451,25.3421656 C24.9858451,23.6879149 25.7300495,22.1264978 27.0035193,21.0849895 L27.2089604,20.9249237 L34.2978986,15.6660691 C34.3996086,15.5906166 34.4679275,15.4801979 34.4911867,15.3579982 L34.5,15.2645017 L34.5,10.6 C34.5,10.3545401 34.3231248,10.1503916 34.0898756,10.1080557 L34,10.1 L10,10.1 C9.75454011,10.1 9.55039163,10.2768752 9.50805567,10.5101244 L9.5,10.6 L9.5,15.2723013 C9.5,15.3980649 9.54731778,15.5179704 9.63058802,15.609259 L9.69960419,15.6720042 L16.6956071,20.9298351 C18.0088603,21.9168077 18.8085031,23.4359347 18.8851842,25.0679952 L18.8912533,25.3265663 L18.8912533,39.2 C18.8912533,40.0284271 18.2196804,40.7 17.3912533,40.7 C16.6115572,40.7 15.9708046,40.1051119 15.8981198,39.34446 L15.8912533,39.2 L15.8912533,25.3265663 C15.8912533,24.6010072 15.576268,23.9144442 15.0335938,23.4416862 L14.8932323,23.3280521 L7.89722935,18.0702212 C7.07618431,17.4531666 6.57061467,16.5092462 6.50685447,15.4914411 L6.5,15.2723013 L6.5,10.6 C6.5,8.7314366 7.9642776,7.20487355 9.8079648,7.10517886 L10,7.1 L34,7.1 Z" id="路径-21备份" fill="#333333" fill-rule="nonzero"></path>
        </g>
    </g>
</svg>