<?xml version="1.0" encoding="UTF-8"?>
<svg width="44px" height="44px" viewBox="0 0 44 44" version="1.1" xmlns="http://www.w3.org/2000/svg" xmlns:xlink="http://www.w3.org/1999/xlink">
    <title>20@2x</title>
    <g id="相关图标说明" stroke="none" stroke-width="1" fill="none" fill-rule="evenodd">
        <g id="线型图标（单色）" transform="translate(-214.000000, -5040.000000)">
            <g id="编组-5" transform="translate(131.000000, 4940.000000)">
                <g id="20" transform="translate(83.000000, 100.000000)">
                    <g id="编组"></g>
                    <g transform="translate(5.000000, 3.000000)">
                        <path d="M33.5,16.4156893 C34.3284271,16.4156893 35,17.0872621 35,17.9156893 L35,17.9156893 L35,29.745044 C35,31.3444088 34.7869576,32.2136698 34.189611,33.0937386 C33.6609821,33.8725659 32.9015108,34.4709744 31.9701611,34.8634343 C31.1087737,35.226413 30.2865877,35.3787973 28.8264857,35.4096285 L28.8264857,35.4096285 L28.2068177,35.4156893 L6.79318235,35.4156893 C4.93196498,35.4156893 4.00607798,35.2748101 3.02983886,34.8634343 C2.09848916,34.4709744 1.33901795,33.8725659 0.810389016,33.0937386 C0.213042422,32.2136698 0,31.3444088 0,29.745044 L0,29.745044 L0,18.2008113 C0,17.3723841 0.671572875,16.7008113 1.5,16.7008113 C2.32842712,16.7008113 3,17.3723841 3,18.2008113 L3,18.2008113 L3.00098294,29.9442672 C3.01026289,30.8293989 3.08672539,31.1056012 3.29261054,31.4089311 C3.48370121,31.6904644 3.78038927,31.9242331 4.19479823,32.0988603 C4.74796987,32.3319604 5.29825365,32.4156893 6.79318235,32.4156893 L6.79318235,32.4156893 L28.4610155,32.4148067 C29.5924316,32.4065866 30.1324182,32.3400888 30.5952128,32.1796885 L30.5952128,32.1796885 L30.8052018,32.0988603 C31.2196107,31.9242331 31.5162988,31.6904644 31.7073895,31.4089311 C31.9279807,31.0839347 32,30.7900798 32,29.745044 L32,29.745044 L32,17.9156893 C32,17.0872621 32.6715729,16.4156893 33.5,16.4156893 Z M17.5,23.5 C18.2796961,23.5 18.9204487,24.0948881 18.9931334,24.85554 L19,25 L19,26 C19,26.8284271 18.3284271,27.5 17.5,27.5 C16.7203039,27.5 16.0795513,26.9051119 16.0068666,26.14446 L16,26 L16,25 C16,24.1715729 16.6715729,23.5 17.5,23.5 Z M16.5442504,1.43933983 C17.1300132,0.853577021 18.079714,0.853549931 18.6655102,1.43927932 L18.6655102,1.43927932 L26.5078786,9.28075301 C27.0936985,9.86650602 27.0937526,10.8162535 26.5079996,11.4020733 C25.9222466,11.9878932 24.9724991,11.9879474 24.3866793,11.4021944 L24.3866793,11.4021944 L19.105,6.122 L19.1050895,20.2899632 C19.1050895,21.0696593 18.5102014,21.7104118 17.7495495,21.7830966 L17.6050895,21.7899632 C16.7766623,21.7899632 16.1050895,21.1183903 16.1050895,20.2899632 L16.1050895,20.2899632 L16.105,6.12 L10.824097,11.4021339 C10.2749222,11.9513086 9.40585982,11.9856321 8.81669908,11.5051041 L8.70277667,11.4021339 C8.11699023,10.8163474 8.11699023,9.86659995 8.70277667,9.28081351 L8.70277667,9.28081351 Z" id="形状结合" fill="#333333"></path>
                        <g id="编组" transform="translate(6.500000, 0.000000)">
                            <g id="编组-3" transform="translate(10.447279, 11.447637) rotate(180.000000) translate(-10.447279, -11.447637) translate(0.447279, 0.447637)"></g>
                        </g>
                    </g>
                </g>
            </g>
        </g>
    </g>
</svg>