<?xml version="1.0" encoding="UTF-8"?>
<svg width="44px" height="44px" viewBox="0 0 44 44" version="1.1" xmlns="http://www.w3.org/2000/svg" xmlns:xlink="http://www.w3.org/1999/xlink">
    <title>20@2x</title>
    <g id="页面-1" stroke="none" stroke-width="1" fill="none" fill-rule="evenodd">
        <g id="20">
            <g id="编组"></g>
            <g id="编组">
                <path d="M38.5,19.4156893 C39.3284271,19.4156893 40,20.0872621 40,20.9156893 L40,20.9156893 L40,32.745044 C40,34.3444088 39.7869576,35.2136698 39.189611,36.0937386 C38.6609821,36.8725659 37.9015108,37.4709744 36.9701611,37.8634343 C36.1087737,38.226413 35.2865877,38.3787973 33.8264857,38.4096285 L33.8264857,38.4096285 L33.2068177,38.4156893 L11.7931823,38.4156893 C9.93196498,38.4156893 9.00607798,38.2748101 8.02983886,37.8634343 C7.09848916,37.4709744 6.33901795,36.8725659 5.81038902,36.0937386 C5.21304242,35.2136698 5,34.3444088 5,32.745044 L5,32.745044 L5,21.2008113 C5,20.3723841 5.67157288,19.7008113 6.5,19.7008113 C7.32842712,19.7008113 8,20.3723841 8,21.2008113 L8,21.2008113 L8.00098294,32.9442672 C8.01026289,33.8293989 8.08672539,34.1056012 8.29261054,34.4089311 C8.48370121,34.6904644 8.78038927,34.9242331 9.19479823,35.0988603 C9.74796987,35.3319604 10.2982537,35.4156893 11.7931823,35.4156893 L11.7931823,35.4156893 L33.4610155,35.4148067 C34.5924316,35.4065866 35.1324182,35.3400888 35.5952128,35.1796885 L35.5952128,35.1796885 L35.8052018,35.0988603 C36.2196107,34.9242331 36.5162988,34.6904644 36.7073895,34.4089311 C36.9279807,34.0839347 37,33.7900798 37,32.745044 L37,32.745044 L37,20.9156893 C37,20.0872621 37.6715729,19.4156893 38.5,19.4156893 Z M22.5,26.5 C23.2796961,26.5 23.9204487,27.0948881 23.9931334,27.85554 L24,28 L24,29 C24,29.8284271 23.3284271,30.5 22.5,30.5 C21.7203039,30.5 21.0795513,29.9051119 21.0068666,29.14446 L21,29 L21,28 C21,27.1715729 21.6715729,26.5 22.5,26.5 Z M21.5442504,4.43933983 C22.1300132,3.85357702 23.079714,3.85354993 23.6655102,4.43927932 L23.6655102,4.43927932 L31.5078786,12.280753 C32.0936985,12.866506 32.0937526,13.8162535 31.5079996,14.4020733 C30.9222466,14.9878932 29.9724991,14.9879474 29.3866793,14.4021944 L29.3866793,14.4021944 L24.105,9.122 L24.1050895,23.2899632 C24.1050895,24.0696593 23.5102014,24.7104118 22.7495495,24.7830966 L22.6050895,24.7899632 C21.7766623,24.7899632 21.1050895,24.1183903 21.1050895,23.2899632 L21.1050895,23.2899632 L21.105,9.12 L15.824097,14.4021339 C15.2749222,14.9513086 14.4058598,14.9856321 13.8166991,14.5051041 L13.7027767,14.4021339 C13.1169902,13.8163474 13.1169902,12.8666 13.7027767,12.2808135 L13.7027767,12.2808135 Z" id="形状结合" fill="#333333"></path>
                <g transform="translate(11.500000, 3.000000)" id="编组-3">
                    <g transform="translate(10.447279, 11.447637) rotate(180.000000) translate(-10.447279, -11.447637) translate(0.447279, 0.447637)"></g>
                </g>
            </g>
        </g>
    </g>
</svg>