<?xml version="1.0" encoding="UTF-8"?>
<svg width="44px" height="44px" viewBox="0 0 44 44" version="1.1" xmlns="http://www.w3.org/2000/svg" xmlns:xlink="http://www.w3.org/1999/xlink">
    <title>21@2x</title>
    <g id="相关图标说明" stroke="none" stroke-width="1" fill="none" fill-rule="evenodd">
        <g id="线型图标（单色）" transform="translate(-298.000000, -5040.000000)">
            <g id="编组-5" transform="translate(131.000000, 4940.000000)">
                <g id="21" transform="translate(167.000000, 100.000000)">
                    <g id="编组"></g>
                    <g transform="translate(5.000000, 3.000000)" fill="#333333">
                        <path d="M33.5,18.4476368 C34.3284271,18.4476368 35,19.1192097 35,19.9476368 L35,19.9476368 L35,31.7769916 C35,33.3763564 34.7869576,34.2456174 34.189611,35.1256862 C33.6609821,35.9045135 32.9015108,36.5029219 31.9701611,36.8953819 C30.993922,37.3067577 30.068035,37.4476368 28.2068177,37.4476368 L28.2068177,37.4476368 L6.79318235,37.4476368 C4.93196498,37.4476368 4.00607798,37.3067577 3.02983886,36.8953819 C2.09848916,36.5029219 1.33901795,35.9045135 0.810389016,35.1256862 C0.213042422,34.2456174 0,33.3763564 0,31.7769916 L0,31.7769916 L0,20.2327588 C0,19.4043317 0.671572875,18.7327588 1.5,18.7327588 C2.32842712,18.7327588 3,19.4043317 3,20.2327588 L3,20.2327588 L3.00098294,31.9762148 C3.01026289,32.8613464 3.08672539,33.1375487 3.29261054,33.4408787 C3.48370121,33.722412 3.78038927,33.9561807 4.19479823,34.1308078 C4.74796987,34.3639079 5.29825365,34.4476368 6.79318235,34.4476368 L6.79318235,34.4476368 L28.2068177,34.4476368 C29.5258724,34.4476368 30.1094769,34.38245 30.6085417,34.2069831 L30.6085417,34.2069831 L30.8052018,34.1308078 C31.2196107,33.9561807 31.5162988,33.722412 31.7073895,33.4408787 C31.9279807,33.1158823 32,32.8220274 32,31.7769916 L32,31.7769916 L32,19.9476368 C32,19.1192097 32.6715729,18.4476368 33.5,18.4476368 Z M17.6050895,6 C18.4335166,6 19.1050895,6.67157288 19.1050895,7.5 L19.105,21.667 L24.3866793,16.3877688 C24.9724991,15.8020158 25.9222466,15.80207 26.5079996,16.3878898 C27.0937526,16.9737097 27.0936985,17.9234571 26.5078786,18.5092102 L18.6655102,26.3506838 C18.079714,26.9364132 17.1300132,26.9363861 16.5442504,26.3506233 L8.70277667,18.5091496 C8.11699023,17.9233632 8.11699023,16.9736157 8.70277667,16.3878293 C9.28856311,15.8020429 10.2383106,15.8020429 10.824097,16.3878293 L16.105,21.669 L16.1050895,7.5 C16.1050895,6.67157288 16.7766623,6 17.6050895,6 Z" id="形状结合"></path>
                        <rect id="矩形" x="16" y="0" width="3" height="4" rx="1.5"></rect>
                    </g>
                </g>
            </g>
        </g>
    </g>
</svg>