<?xml version="1.0" encoding="UTF-8"?>
<svg width="44px" height="44px" viewBox="0 0 44 44" version="1.1" xmlns="http://www.w3.org/2000/svg" xmlns:xlink="http://www.w3.org/1999/xlink">
    <title>21@2x</title>
    <g id="页面-1" stroke="none" stroke-width="1" fill="none" fill-rule="evenodd">
        <g id="21">
            <g id="编组"></g>
            <g id="编组">
                <path d="M38.5,21.4476368 C39.3284271,21.4476368 40,22.1192097 40,22.9476368 L40,22.9476368 L40,34.7769916 C40,36.3763564 39.7869576,37.2456174 39.189611,38.1256862 C38.6609821,38.9045135 37.9015108,39.5029219 36.9701611,39.8953819 C35.993922,40.3067577 35.068035,40.4476368 33.2068177,40.4476368 L33.2068177,40.4476368 L11.7931823,40.4476368 C9.93196498,40.4476368 9.00607798,40.3067577 8.02983886,39.8953819 C7.09848916,39.5029219 6.33901795,38.9045135 5.81038902,38.1256862 C5.21304242,37.2456174 5,36.3763564 5,34.7769916 L5,34.7769916 L5,23.2327588 C5,22.4043317 5.67157288,21.7327588 6.5,21.7327588 C7.32842712,21.7327588 8,22.4043317 8,23.2327588 L8,23.2327588 L8.00098294,34.9762148 C8.01026289,35.8613464 8.08672539,36.1375487 8.29261054,36.4408787 C8.48370121,36.722412 8.78038927,36.9561807 9.19479823,37.1308078 C9.74796987,37.3639079 10.2982537,37.4476368 11.7931823,37.4476368 L11.7931823,37.4476368 L33.2068177,37.4476368 C34.5258724,37.4476368 35.1094769,37.38245 35.6085417,37.2069831 L35.6085417,37.2069831 L35.8052018,37.1308078 C36.2196107,36.9561807 36.5162988,36.722412 36.7073895,36.4408787 C36.9279807,36.1158823 37,35.8220274 37,34.7769916 L37,34.7769916 L37,22.9476368 C37,22.1192097 37.6715729,21.4476368 38.5,21.4476368 Z M22.6050895,9 C23.4335166,9 24.1050895,9.67157288 24.1050895,10.5 L24.105,24.667 L29.3866793,19.3877688 C29.9724991,18.8020158 30.9222466,18.80207 31.5079996,19.3878898 C32.0937526,19.9737097 32.0936985,20.9234571 31.5078786,21.5092102 L23.6655102,29.3506838 C23.079714,29.9364132 22.1300132,29.9363861 21.5442504,29.3506233 L13.7027767,21.5091496 C13.1169902,20.9233632 13.1169902,19.9736157 13.7027767,19.3878293 C14.2885631,18.8020429 15.2383106,18.8020429 15.824097,19.3878293 L21.105,24.669 L21.1050895,10.5 C21.1050895,9.67157288 21.7766623,9 22.6050895,9 Z" id="形状结合" fill="#333333"></path>
                <g transform="translate(22.500000, 16.500000) scale(1, -1) translate(-22.500000, -16.500000) translate(12.000000, 5.000000)" id="编组-3">
                    <g transform="translate(10.447279, 11.447637) rotate(180.000000) translate(-10.447279, -11.447637) translate(0.447279, 0.447637)"></g>
                </g>
                <rect id="矩形" fill="#333333" x="21" y="3" width="3" height="4" rx="1.5"></rect>
            </g>
        </g>
    </g>
</svg>