<?xml version="1.0" encoding="UTF-8"?>
<svg width="44px" height="44px" viewBox="0 0 44 44" version="1.1" xmlns="http://www.w3.org/2000/svg" xmlns:xlink="http://www.w3.org/1999/xlink">
    <title>22@2x</title>
    <g id="相关图标说明" stroke="none" stroke-width="1" fill="none" fill-rule="evenodd">
        <g id="线型图标（单色）" transform="translate(-382.000000, -5040.000000)">
            <g id="编组-5" transform="translate(131.000000, 4940.000000)">
                <g id="22" transform="translate(251.000000, 100.000000)">
                    <g id="编组"></g>
                    <g transform="translate(8.500000, 4.000000)" fill="#333333">
                        <path d="M13.5,28 C14.3284271,28 15,28.6715729 15,29.5 L15,29.5 L15,35.5 C15,36.3284271 14.3284271,37 13.5,37 C12.6715729,37 12,36.3284271 12,35.5 L12,35.5 L12,29.5 C12,28.6715729 12.6715729,28 13.5,28 Z M13.5,0 C17.918278,0 21.5,3.581722 21.5,8 L21.5,17 C21.5,21.418278 17.918278,25 13.5,25 C9.081722,25 5.5,21.418278 5.5,17 L5.5,8 C5.5,3.581722 9.081722,0 13.5,0 Z M13.5,3 C10.7385763,3 8.5,5.23857625 8.5,8 L8.5,17 C8.5,19.7614237 10.7385763,22 13.5,22 C16.2614237,22 18.5,19.7614237 18.5,17 L18.5,8 C18.5,5.23857625 16.2614237,3 13.5,3 Z" id="形状结合"></path>
                        <path d="M1.5,14.5 C2.27969612,14.5 2.92044868,15.0948881 2.99313342,15.85554 L3,16 L3,17 C3,22.7989899 7.70101013,27.5 13.5,27.5 C14.3284271,27.5 15,28.1715729 15,29 C15,29.8284271 14.3284271,30.5 13.5,30.5 C6.14770927,30.5 0.168165535,24.6225714 0.00348536416,17.3098308 L0,17 L0,16 C0,15.1715729 0.671572875,14.5 1.5,14.5 Z M25.5,14.5 C26.2796961,14.5 26.9204487,15.0948881 26.9931334,15.85554 L27,16 L27,17 C27,21.8988998 24.3672927,26.3396649 20.19231,28.7268273 C19.473142,29.1380316 18.5567943,28.8883777 18.14559,28.1692097 C17.7343858,27.4500418 17.9840396,26.533694 18.7032076,26.1224898 C21.8602325,24.317373 23.8820515,21.0076074 23.9950068,17.3258019 L24,17 L24,16 C24,15.1715729 24.6715729,14.5 25.5,14.5 Z" id="形状" fill-rule="nonzero"></path>
                    </g>
                </g>
            </g>
        </g>
    </g>
</svg>