<?xml version="1.0" encoding="UTF-8"?>
<svg width="44px" height="44px" viewBox="0 0 44 44" version="1.1" xmlns="http://www.w3.org/2000/svg" xmlns:xlink="http://www.w3.org/1999/xlink">
    <title>22@2x</title>
    <g id="页面-1" stroke="none" stroke-width="1" fill="none" fill-rule="evenodd">
        <g id="22">
            <g id="编组"></g>
            <g id="编组">
                <path d="M22,33 C22.8284271,33 23.5,33.6715729 23.5,34.5 L23.5,34.5 L23.5,40.5 C23.5,41.3284271 22.8284271,42 22,42 C21.1715729,42 20.5,41.3284271 20.5,40.5 L20.5,40.5 L20.5,34.5 C20.5,33.6715729 21.1715729,33 22,33 Z M22,5 C26.418278,5 30,8.581722 30,13 L30,22 C30,26.418278 26.418278,30 22,30 C17.581722,30 14,26.418278 14,22 L14,13 C14,8.581722 17.581722,5 22,5 Z M22,8 C19.2385763,8 17,10.2385763 17,13 L17,22 C17,24.7614237 19.2385763,27 22,27 C24.7614237,27 27,24.7614237 27,22 L27,13 C27,10.2385763 24.7614237,8 22,8 Z" id="形状结合" fill="#333333"></path>
                <path d="M34,21 L34,22 C34,26.4632242 31.5633568,30.3573399 27.9477588,32.4246585 M22,34 C15.372583,34 10,28.627417 10,22 L10,21" id="形状" stroke="#333333" stroke-width="3" stroke-linecap="round"></path>
            </g>
        </g>
    </g>
</svg>