<?xml version="1.0" encoding="UTF-8"?>
<svg width="44px" height="44px" viewBox="0 0 44 44" version="1.1" xmlns="http://www.w3.org/2000/svg" xmlns:xlink="http://www.w3.org/1999/xlink">
    <title>23@2x</title>
    <g id="相关图标说明" stroke="none" stroke-width="1" fill="none" fill-rule="evenodd">
        <g id="线型图标（单色）" transform="translate(-466.000000, -5040.000000)">
            <g id="编组-5" transform="translate(131.000000, 4940.000000)">
                <g id="23" transform="translate(335.000000, 100.000000)">
                    <g id="编组"></g>
                    <g transform="translate(5.250000, 6.499947)" fill="#333333">
                        <path d="M3,28.0000526 L3,14.0000526 C3,13.1716255 2.32842712,12.5000526 1.5,12.5000526 C0.671572875,12.5000526 0,13.1716255 0,14.0000526 L0,28.0000526 C0,28.8284797 0.671572875,29.5000526 1.5,29.5000526 C2.32842712,29.5000526 3,28.8284797 3,28.0000526 Z" id="形状结合"></path>
                        <path d="M12.3536322,2.2967983 C13.3655494,0.685112768 15.2189512,-0.202794256 17.1145367,0.0394620187 C19.7287822,0.373563212 21.5952006,2.71961934 21.3820822,5.33107598 L21.35948,5.54927429 L21.036,8.11905261 L27.8774395,8.12386983 C30.2145643,8.12525825 32.2548021,9.68232805 32.9013598,11.9190154 L32.9613293,12.1449171 C33.3224521,13.6359835 33.5,15.3009554 33.5,17.1448659 C33.5,20.4343197 32.7193153,23.6384429 31.1713354,26.726048 C29.8577987,29.346032 27.1910891,31.0000526 24.2741252,31.0000526 C23.4456981,31.0000526 22.7741252,30.3284797 22.7741252,29.5000526 C22.7741252,28.7203565 23.3690133,28.0796039 24.1296652,28.0069192 L24.2741252,28.0000526 C26.053447,28.0000526 27.6836111,26.988947 28.4895067,25.3815053 C29.8312254,22.7053095 30.5,19.960493 30.5,17.1448659 C30.5,15.5276798 30.3474845,14.0974515 30.045621,12.8510651 C29.8133148,11.8918516 29.0001625,11.2044139 28.0455057,11.1304786 L27.8756573,11.1238693 L19.3356812,11.118796 C18.4785498,11.1182868 17.8061012,10.4042201 17.8373994,9.56528368 L17.8482652,9.43186816 L18.3828659,5.17541815 C18.5162398,4.11350541 17.7745074,3.14820656 16.7342292,3.01525875 C16.0254037,2.92467069 15.3296714,3.24541131 14.9291751,3.83859788 L14.7827427,4.07488217 L8.89,12.7440526 L8.80129922,12.9157956 C8.63772304,13.2627194 8.53911621,13.637496 8.51058925,14.021009 L8.50192354,14.2520123 L8.5,24.8941399 C8.5,26.5510265 9.77914473,27.9005124 11.3861904,27.9947908 L11.5660521,28.0000526 L18.537428,28.0000526 C19.3658551,28.0000526 20.037428,28.6716255 20.037428,29.5000526 C20.037428,30.2797487 19.4425399,30.9205013 18.681888,30.993186 L18.537428,31.0000526 L11.5660521,31.0000526 C8.28913875,31.0000526 5.62364574,28.3864159 5.50417959,25.1228597 L5.5,24.8941399 L5.50192439,14.2497551 C5.5026401,13.2984571 5.72415015,12.3618662 6.14709933,11.5141391 L6.29551655,11.2349564 L6.36075008,11.129903 L12.28,2.41905261 L12.3536322,2.2967983 Z" id="路径" fill-rule="nonzero"></path>
                    </g>
                </g>
            </g>
        </g>
    </g>
</svg>