<?xml version="1.0" encoding="UTF-8"?>
<svg width="44px" height="44px" viewBox="0 0 44 44" version="1.1" xmlns="http://www.w3.org/2000/svg" xmlns:xlink="http://www.w3.org/1999/xlink">
    <title>23@2x</title>
    <g id="页面-1" stroke="none" stroke-width="1" fill="none" fill-rule="evenodd">
        <g id="23">
            <g id="编组"></g>
            <g id="编组">
                <path d="M10,33.5 L10,19.5 C10,18.6715729 9.32842712,18 8.5,18 C7.67157288,18 7,18.6715729 7,19.5 L7,33.5 C7,34.3284271 7.67157288,35 8.5,35 C9.32842712,35 10,34.3284271 10,33.5 Z" id="形状结合" fill="#333333"></path>
                <path d="M25.537428,35 C23.5826389,35 22.4756303,35 18.5660521,35 C16.0442912,35 14,32.9378626 14,30.3940873 L14,22.3076314 L14.001924,19.750831 C14.002525,18.9519621 14.2090988,18.1669866 14.6013585,17.4729938 L20.5421343,8.73168612 C21.2238463,7.52558919 22.5589506,6.85280519 23.924383,7.02730777 C25.7879538,7.26547257 27.1072766,8.98245421 26.871173,10.8622936 L26.3365723,15.1187436 L34.8765484,15.123817 C36.5974782,15.1248393 38.0950689,16.3115918 38.5034763,17.9979432 C38.8358566,19.3703331 39,20.9189278 39,22.6448133 C39,25.6995647 38.2742223,28.6739139 36.8304211,31.553724 C35.7707064,33.6674339 33.6222714,35 31.2741252,35" id="Stroke-1" stroke="#333333" stroke-width="3" fill-rule="nonzero"></path>
            </g>
        </g>
    </g>
</svg>