<?xml version="1.0" encoding="UTF-8"?>
<svg width="44px" height="44px" viewBox="0 0 44 44" version="1.1" xmlns="http://www.w3.org/2000/svg" xmlns:xlink="http://www.w3.org/1999/xlink">
    <title>24@2x</title>
    <g id="页面-1" stroke="none" stroke-width="1" fill="none" fill-rule="evenodd">
        <g id="24">
            <g id="编组"></g>
            <g id="编组-2" fill="#333333" transform="translate(4.000000, 5.000000)">
                <path d="M30,0.5 C33.0375661,0.5 35.5,2.96243388 35.5,6 L35.5,6 L35.5,25.0100793 C35.5,28.0476454 33.0375661,30.5100793 30,30.5100793 L30,30.5100793 L17.7105174,30.5100793 L14.8939576,33.9502375 C14.3691559,34.5912326 13.4240908,34.6854259 12.7830958,34.1606242 C12.1421007,33.6358225 12.0479074,32.6907575 12.5727091,32.0497625 L12.5727091,32.0497625 L15.8393758,28.0598417 C16.1242743,27.7118654 16.5502727,27.5100793 17,27.5100793 L17,27.5100793 L30,27.5100793 C31.3807119,27.5100793 32.5,26.3907912 32.5,25.0100793 L32.5,25.0100793 L32.5,6 C32.5,4.61928813 31.3807119,3.5 30,3.5 L30,3.5 L6,3.5 C4.61928813,3.5 3.5,4.61928813 3.5,6 L3.5,6 L3.5,25.0100793 C3.5,26.3907912 4.61928813,27.5100793 6,27.5100793 L6,27.5100793 L9.78487767,27.5100793 C10.6133048,27.5100793 11.2848777,28.1816522 11.2848777,29.0100793 C11.2848777,29.8385064 10.6133048,30.5100793 9.78487767,30.5100793 L9.78487767,30.5100793 L6,30.5100793 C2.96243388,30.5100793 0.5,28.0476454 0.5,25.0100793 L0.5,25.0100793 L0.5,6 C0.5,2.96243388 2.96243388,0.5 6,0.5 L6,0.5 Z M22.2666667,13.8333333 C23.0950938,13.8333333 23.7666667,14.5049062 23.7666667,15.3333333 C23.7666667,16.1617605 23.0950938,16.8333333 22.2666667,16.8333333 L22.2666667,16.8333333 L13.7333333,16.8333333 C12.9049062,16.8333333 12.2333333,16.1617605 12.2333333,15.3333333 C12.2333333,14.5049062 12.9049062,13.8333333 13.7333333,13.8333333 L13.7333333,13.8333333 Z" id="形状结合" transform="translate(18.000000, 17.500022) scale(-1, 1) translate(-18.000000, -17.500022) "></path>
            </g>
        </g>
    </g>
</svg>