<?xml version="1.0" encoding="UTF-8"?>
<svg width="44px" height="44px" viewBox="0 0 44 44" version="1.1" xmlns="http://www.w3.org/2000/svg" xmlns:xlink="http://www.w3.org/1999/xlink">
    <title>24@2x</title>
    <g id="相关图标说明" stroke="none" stroke-width="1" fill="none" fill-rule="evenodd">
        <g id="线型图标（单色）" transform="translate(-546.000000, -5040.000000)">
            <g id="编组-5" transform="translate(131.000000, 4940.000000)">
                <g id="24" transform="translate(415.000000, 100.000000)">
                    <g id="icon/模型/系统图标备份-9"></g>
                    <g transform="translate(4.500000, 5.500000)" fill="#333333" id="编组-2">
                        <path d="M29.5,7.81597009e-14 C32.5375661,7.81597009e-14 35,2.46243388 35,5.5 L35,5.5 L35,24.5100793 C35,27.5476454 32.5375661,30.0100793 29.5,30.0100793 L29.5,30.0100793 L17.2105174,30.0100793 L14.3939576,33.4502375 C13.8691559,34.0912326 12.9240908,34.1854259 12.2830958,33.6606242 C11.6421007,33.1358225 11.5479074,32.1907575 12.0727091,31.5497625 L12.0727091,31.5497625 L15.3393758,27.5598417 C15.6242743,27.2118654 16.0502727,27.0100793 16.5,27.0100793 L16.5,27.0100793 L29.5,27.0100793 C30.8807119,27.0100793 32,25.8907912 32,24.5100793 L32,24.5100793 L32,5.5 C32,4.11928813 30.8807119,3 29.5,3 L29.5,3 L5.5,3 C4.11928813,3 3,4.11928813 3,5.5 L3,5.5 L3,24.5100793 C3,25.8907912 4.11928813,27.0100793 5.5,27.0100793 L5.5,27.0100793 L9.28487767,27.0100793 C10.1133048,27.0100793 10.7848777,27.6816522 10.7848777,28.5100793 C10.7848777,29.3385064 10.1133048,30.0100793 9.28487767,30.0100793 L9.28487767,30.0100793 L5.5,30.0100793 C2.46243388,30.0100793 0,27.5476454 0,24.5100793 L0,24.5100793 L0,5.5 C0,2.46243388 2.46243388,7.81597009e-14 5.5,7.81597009e-14 L5.5,7.81597009e-14 Z M21.7666667,13.3333333 C22.5950938,13.3333333 23.2666667,14.0049062 23.2666667,14.8333333 C23.2666667,15.6617605 22.5950938,16.3333333 21.7666667,16.3333333 L21.7666667,16.3333333 L13.2333333,16.3333333 C12.4049062,16.3333333 11.7333333,15.6617605 11.7333333,14.8333333 C11.7333333,14.0049062 12.4049062,13.3333333 13.2333333,13.3333333 L13.2333333,13.3333333 Z" id="形状结合" transform="translate(17.500000, 17.000022) scale(-1, 1) translate(-17.500000, -17.000022) "></path>
                    </g>
                </g>
            </g>
        </g>
    </g>
</svg>