<?xml version="1.0" encoding="UTF-8"?>
<svg width="44px" height="44px" viewBox="0 0 44 44" version="1.1" xmlns="http://www.w3.org/2000/svg" xmlns:xlink="http://www.w3.org/1999/xlink">
    <title>25@2x</title>
    <g id="页面-1" stroke="none" stroke-width="1" fill="none" fill-rule="evenodd">
        <g id="25">
            <g id="编组"></g>
            <g id="赞" fill="#333333" transform="translate(5.000000, 6.000000)">
                <g id="分组" transform="translate(0.268119, 0.268119)">
                    <path d="M9.61991255,2.43529467 C10.4483397,2.43529467 11.1199126,3.10686755 11.1199126,3.93529467 C11.1199126,4.7637218 10.4483397,5.43529467 9.61991255,5.43529467 L9.61991255,5.43529467 L5,5.43529467 C4.17157288,5.43529467 3.5,6.10686755 3.5,6.93529467 L3.5,6.93529467 L3.5,27.9071989 C3.5,28.7356261 4.17157288,29.4071989 5,29.4071989 L5,29.4071989 L28.9687825,29.4071989 C29.7972096,29.4071989 30.4687825,28.7356261 30.4687825,27.9071989 L30.4687825,27.9071989 L30.4687825,12.9627024 C30.4687825,12.1342752 31.1403554,11.4627024 31.9687825,11.4627024 C32.7972096,11.4627024 33.4687825,12.1342752 33.4687825,12.9627024 L33.4687825,12.9627024 L33.4687825,27.9071989 C33.4687825,30.3924803 31.4540639,32.4071989 28.9687825,32.4071989 L28.9687825,32.4071989 L5,32.4071989 C2.51471863,32.4071989 0.5,30.3924803 0.5,27.9071989 L0.5,27.9071989 L0.5,6.93529467 C0.5,4.4500133 2.51471863,2.43529467 5,2.43529467 L5,2.43529467 Z M28.905466,0.47157833 C30.3953676,0.47157833 30.9739877,2.40864215 29.7281863,3.22582365 C24.2305162,6.83201189 20.0167509,11.7018344 17.0703088,17.8605436 C16.7127834,18.6078502 15.8171401,18.9238301 15.0698336,18.5663047 C14.322527,18.2087792 14.0065471,17.3131359 14.3640725,16.5658294 C16.8510415,11.3675194 20.1927355,6.99874464 24.3812269,3.47157833 L24.3812269,3.47157833 L17.7266235,3.47157833 C16.8981963,3.47157833 16.2266235,2.80000546 16.2266235,1.97157833 C16.2266235,1.14315121 16.8981963,0.47157833 17.7266235,0.47157833 L17.7266235,0.47157833 Z" id="形状结合"></path>
                </g>
            </g>
        </g>
    </g>
</svg>