<?xml version="1.0" encoding="UTF-8"?>
<svg width="44px" height="44px" viewBox="0 0 44 44" version="1.1" xmlns="http://www.w3.org/2000/svg" xmlns:xlink="http://www.w3.org/1999/xlink">
    <title>25@2x</title>
    <g id="相关图标说明" stroke="none" stroke-width="1" fill="none" fill-rule="evenodd">
        <g id="线型图标（单色）" transform="translate(-630.000000, -5040.000000)">
            <g id="编组-5" transform="translate(131.000000, 4940.000000)">
                <g id="25" transform="translate(499.000000, 100.000000)">
                    <g id="编组"></g>
                    <g transform="translate(5.500000, 6.500000)" fill="#333333" id="分组">
                        <path d="M9.11991255,1.96371634 C9.94833968,1.96371634 10.6199126,2.63528922 10.6199126,3.46371634 C10.6199126,4.29214347 9.94833968,4.96371634 9.11991255,4.96371634 L9.11991255,4.96371634 L4.5,4.96371634 C3.67157288,4.96371634 3,5.63528922 3,6.46371634 L3,6.46371634 L3,27.4356206 C3,28.2640477 3.67157288,28.9356206 4.5,28.9356206 L4.5,28.9356206 L28.4687825,28.9356206 C29.2972096,28.9356206 29.9687825,28.2640477 29.9687825,27.4356206 L29.9687825,27.4356206 L29.9687825,12.491124 C29.9687825,11.6626969 30.6403554,10.991124 31.4687825,10.991124 C32.2972096,10.991124 32.9687825,11.6626969 32.9687825,12.491124 L32.9687825,12.491124 L32.9687825,27.4356206 C32.9687825,29.920902 30.9540639,31.9356206 28.4687825,31.9356206 L28.4687825,31.9356206 L4.5,31.9356206 C2.01471863,31.9356206 0,29.920902 0,27.4356206 L0,27.4356206 L0,6.46371634 C0,3.97843497 2.01471863,1.96371634 4.5,1.96371634 L4.5,1.96371634 Z M28.405466,6.3504757e-14 C29.8953676,4.52970994e-14 30.4739877,1.93706382 29.2281863,2.75424532 C23.7305162,6.36043356 19.5167509,11.2302561 16.5703088,17.3889653 C16.2127834,18.1362718 15.3171401,18.4522518 14.5698336,18.0947263 C13.822527,17.7372009 13.5065471,16.8415576 13.8640725,16.0942511 C16.3510415,10.8959411 19.6927355,6.52716631 23.8812269,3 L23.8812269,3 L17.2266235,3 C16.3981963,3 15.7266235,2.32842712 15.7266235,1.5 C15.7266235,0.671572875 16.3981963,2.06945572e-13 17.2266235,1.97175609e-13 L17.2266235,1.97175609e-13 Z" id="形状结合"></path>
                    </g>
                </g>
            </g>
        </g>
    </g>
</svg>