<?xml version="1.0" encoding="UTF-8"?>
<svg width="44px" height="44px" viewBox="0 0 44 44" version="1.1" xmlns="http://www.w3.org/2000/svg" xmlns:xlink="http://www.w3.org/1999/xlink">
    <title>26@2x</title>
    <g id="相关图标说明" stroke="none" stroke-width="1" fill="none" fill-rule="evenodd">
        <g id="线型图标（单色）" transform="translate(-714.000000, -5040.000000)">
            <g id="编组-5" transform="translate(131.000000, 4940.000000)">
                <g id="26" transform="translate(583.000000, 100.000000)">
                    <g id="编组"></g>
                    <g transform="translate(4.478530, 2.618802)" fill="#333333" id="形状结合">
                        <path d="M20.0473338,0.614282388 L20.27147,0.736860279 L32.2929399,7.6774592 C33.9946459,8.65993957 35.0429399,10.4756382 35.0429399,12.4405989 L35.0429399,26.3217968 C35.0429399,28.2867575 33.9946459,30.1024561 32.2929399,31.0849365 L20.27147,38.0255354 C18.569764,39.0080158 16.4731759,39.0080158 14.77147,38.0255354 L2.75,31.0849365 C1.04829408,30.1024561 -2.98427949e-13,28.2867575 -2.98427949e-13,26.3217968 L-2.98427949e-13,12.4405989 C-2.98427949e-13,10.4756382 1.04829408,8.65993957 2.75,7.6774592 L14.77147,0.736860279 C16.3991887,-0.202903555 18.3881985,-0.243762852 20.0473338,0.614282388 Z M16.27147,3.33493649 L4.25,10.2755354 C3.47649731,10.7221174 3,11.5474349 3,12.4405989 L3,26.3217968 C3,27.2149607 3.47649731,28.0402783 4.25,28.4868603 L16.27147,35.4274592 C17.0449727,35.8740412 17.9979673,35.8740412 18.77147,35.4274592 L30.7929399,28.4868603 C31.5664426,28.0402783 32.0429399,27.2149607 32.0429399,26.3217968 L32.0429399,12.4405989 C32.0429399,11.5474349 31.5664426,10.7221174 30.7929399,10.2755354 L18.77147,3.33493649 L18.6031029,3.24607579 C17.862741,2.89063298 16.9897225,2.92025322 16.27147,3.33493649 Z M15.5809405,12.1365898 C19.5816059,11.0646147 23.6937743,13.4387762 24.7657493,17.4394417 C25.236364,19.1957996 25.053228,21.0268544 24.2806183,22.6307112 C23.9210893,23.3770559 23.0246015,23.6906319 22.2782568,23.3311029 C21.5319121,22.9715738 21.2183361,22.075086 21.5778652,21.3287414 C22.0415264,20.3662291 22.1509637,19.2720389 21.8679718,18.2158988 C21.2248222,15.8156317 18.7576647,14.3912176 16.3573976,15.0343673 C13.9568017,15.677605 12.5315779,18.1453319 13.1746394,20.5452702 C13.8179915,22.946293 16.2860308,24.3709756 18.686769,23.7276997 C19.4869682,23.513287 20.3094736,23.9881607 20.5238863,24.7883599 C20.738299,25.588559 20.2634253,26.4110645 19.4632262,26.6254772 C15.4621845,27.6975531 11.3490649,25.3232432 10.2768619,21.3217273 C9.20492412,17.321201 11.5801359,13.2086022 15.5809405,12.1365898 Z"></path>
                    </g>
                </g>
            </g>
        </g>
    </g>
</svg>