<?xml version="1.0" encoding="UTF-8"?>
<svg width="44px" height="44px" viewBox="0 0 44 44" version="1.1" xmlns="http://www.w3.org/2000/svg" xmlns:xlink="http://www.w3.org/1999/xlink">
    <title>26@2x</title>
    <g id="页面-1" stroke="none" stroke-width="1" fill="none" fill-rule="evenodd">
        <g id="26">
            <g id="编组"></g>
            <g id="形状结合" fill="#333333">
                <path d="M24.5258639,3.23308454 L24.75,3.35566243 L36.77147,10.2962614 C38.4731759,11.2787417 39.52147,13.0944403 39.52147,15.0594011 L39.52147,28.9405989 C39.52147,30.9055597 38.4731759,32.7212583 36.77147,33.7037386 L24.75,40.6443376 C23.0482941,41.6268179 20.9517059,41.6268179 19.25,40.6443376 L7.22853003,33.7037386 C5.52682411,32.7212583 4.47853003,30.9055597 4.47853003,28.9405989 L4.47853003,15.0594011 C4.47853003,13.0944403 5.52682411,11.2787417 7.22853003,10.2962614 L19.25,3.35566243 C20.8777187,2.4158986 22.8667285,2.3750393 24.5258639,3.23308454 Z M20.75,5.95373864 L8.72853003,12.8943376 C7.95502734,13.3409196 7.47853003,14.1662371 7.47853003,15.0594011 L7.47853003,28.9405989 C7.47853003,29.8337629 7.95502734,30.6590804 8.72853003,31.1056624 L20.75,38.0462614 C21.5235027,38.4928433 22.4764973,38.4928433 23.25,38.0462614 L35.27147,31.1056624 C36.0449727,30.6590804 36.52147,29.8337629 36.52147,28.9405989 L36.52147,15.0594011 C36.52147,14.1662371 36.0449727,13.3409196 35.27147,12.8943376 L23.25,5.95373864 L23.0816329,5.86487794 C22.341271,5.50943514 21.4682525,5.53905537 20.75,5.95373864 Z M20.0594705,14.755392 C24.0601359,13.6834169 28.1723043,16.0575784 29.2442794,20.0582438 C29.7148941,21.8146018 29.5317581,23.6456565 28.7591483,25.2495134 C28.3996193,25.9958581 27.5031315,26.3094341 26.7567868,25.949905 C26.0104422,25.590376 25.6968662,24.6938882 26.0563952,23.9475435 C26.5200565,22.9850313 26.6294937,21.890841 26.3465019,20.8347009 C25.7033522,18.4344338 23.2361948,17.0100198 20.8359276,17.6531694 C18.4353317,18.2964072 17.0101079,20.764134 17.6531694,23.1640724 C18.2965215,25.5650951 20.7645608,26.9897777 23.1652991,26.3465019 C23.9654982,26.1320892 24.7880036,26.6069629 25.0024164,27.407162 C25.2168291,28.2073612 24.7419553,29.0298666 23.9417562,29.2442794 C19.9407145,30.3163552 15.8275949,27.9420454 14.755392,23.9405295 C13.6834541,19.9400031 16.0586659,15.8274043 20.0594705,14.755392 Z"></path>
            </g>
        </g>
    </g>
</svg>