<?xml version="1.0" encoding="UTF-8"?>
<svg width="44px" height="44px" viewBox="0 0 44 44" version="1.1" xmlns="http://www.w3.org/2000/svg" xmlns:xlink="http://www.w3.org/1999/xlink">
    <title>27@2x</title>
    <g id="相关图标说明" stroke="none" stroke-width="1" fill="none" fill-rule="evenodd">
        <g id="线型图标（单色）" transform="translate(-798.000000, -5040.000000)">
            <g id="编组-5" transform="translate(131.000000, 4940.000000)">
                <g id="27" transform="translate(667.000000, 100.000000)">
                    <g id="编组"></g>
                    <g transform="translate(5.750000, 8.500000)" fill="#333333" id="形状结合">
                        <path d="M30.9933726,0 C31.8217997,0 32.4933726,0.671572875 32.4933726,1.5 L32.4933726,1.5 L32.4933726,28.5 C32.4933726,29.932384 30.6774783,30.5498621 29.8043036,29.4143932 L29.8043036,29.4143932 L24.310931,22.2708586 C23.8059256,21.6141539 23.9289021,20.6724018 24.5856068,20.1673964 C25.2423115,19.662391 26.1840636,19.7853676 26.689069,20.4420723 L26.689069,20.4420723 L29.4933726,24.0887646 L29.4933726,1.5 C29.4933726,0.671572875 30.1649455,0 30.9933726,0 Z M13.5,24 C14.3284271,24 15,24.6715729 15,25.5 C15,26.2796961 14.4051119,26.9204487 13.64446,26.9931334 L13.5,27 L1.5,27 C0.671572875,27 0,26.3284271 0,25.5 C0,24.7203039 0.594888083,24.0795513 1.35553999,24.0068666 L1.5,24 L13.5,24 Z M19.5,12 C20.3284271,12 21,12.6715729 21,13.5 C21,14.2796961 20.4051119,14.9204487 19.64446,14.9931334 L19.5,15 L1.5,15 C0.671572875,15 0,14.3284271 0,13.5 C0,12.7203039 0.594888083,12.0795513 1.35553999,12.0068666 L1.5,12 L19.5,12 Z M23.5,0 C24.3284271,0 25,0.671572875 25,1.5 C25,2.27969612 24.4051119,2.92044868 23.64446,2.99313342 L23.5,3 L1.5,3 C0.671572875,3 0,2.32842712 0,1.5 C0,0.720303883 0.594888083,0.0795513218 1.35553999,0.00686657806 L1.5,0 L23.5,0 Z"></path>
                    </g>
                </g>
            </g>
        </g>
    </g>
</svg>