<?xml version="1.0" encoding="UTF-8"?>
<svg width="44px" height="44px" viewBox="0 0 44 44" version="1.1" xmlns="http://www.w3.org/2000/svg" xmlns:xlink="http://www.w3.org/1999/xlink">
    <title>27@2x</title>
    <g id="页面-1" stroke="none" stroke-width="1" fill="none" fill-rule="evenodd">
        <g id="27">
            <g id="编组"></g>
            <g id="形状结合" fill="#333333">
                <path d="M36.4933726,8.82226236 C37.3217997,8.82226236 37.9933726,9.49383523 37.9933726,10.3222624 L37.9933726,10.3222624 L37.9933726,37.3222624 C37.9933726,38.7546464 36.1774783,39.3721245 35.3043036,38.2366555 L35.3043036,38.2366555 L29.810931,31.093121 C29.3059256,30.4364163 29.4289021,29.4946642 30.0856068,28.9896588 C30.7423115,28.4846534 31.6840636,28.6076299 32.189069,29.2643346 L32.189069,29.2643346 L34.9933726,32.9110269 L34.9933726,10.3222624 C34.9933726,9.49383523 35.6649455,8.82226236 36.4933726,8.82226236 Z M19,32.5 C19.8284271,32.5 20.5,33.1715729 20.5,34 C20.5,34.7796961 19.9051119,35.4204487 19.14446,35.4931334 L19,35.5 L7,35.5 C6.17157288,35.5 5.5,34.8284271 5.5,34 C5.5,33.2203039 6.09488808,32.5795513 6.85553999,32.5068666 L7,32.5 L19,32.5 Z M25,20.5 C25.8284271,20.5 26.5,21.1715729 26.5,22 C26.5,22.7796961 25.9051119,23.4204487 25.14446,23.4931334 L25,23.5 L7,23.5 C6.17157288,23.5 5.5,22.8284271 5.5,22 C5.5,21.2203039 6.09488808,20.5795513 6.85553999,20.5068666 L7,20.5 L25,20.5 Z M29,8.5 C29.8284271,8.5 30.5,9.17157288 30.5,10 C30.5,10.7796961 29.9051119,11.4204487 29.14446,11.4931334 L29,11.5 L7,11.5 C6.17157288,11.5 5.5,10.8284271 5.5,10 C5.5,9.22030388 6.09488808,8.57955132 6.85553999,8.50686658 L7,8.5 L29,8.5 Z"></path>
            </g>
        </g>
    </g>
</svg>