<?xml version="1.0" encoding="UTF-8"?>
<svg width="44px" height="44px" viewBox="0 0 44 44" version="1.1" xmlns="http://www.w3.org/2000/svg" xmlns:xlink="http://www.w3.org/1999/xlink">
    <title>28@2x</title>
    <g id="相关图标说明" stroke="none" stroke-width="1" fill="none" fill-rule="evenodd">
        <g id="线型图标（单色）" transform="translate(-882.000000, -5040.000000)">
            <g id="编组-5" transform="translate(131.000000, 4940.000000)">
                <g id="28" transform="translate(751.000000, 100.000000)">
                    <g id="icon/模型/系统图标备份-25"></g>
                    <g transform="translate(6.000000, 3.500000)" fill="#333333" fill-rule="nonzero">
                        <path d="M16,0 C24.8448311,0 32,7.33132996 32,16.3569915 C32,21.3926053 29.8465402,25.2984269 25.3890376,30.1309099 L24.7622117,30.800052 L22.6051419,33.0500978 C22.0338125,33.6499929 21.0843474,33.67315 20.4844522,33.1018206 C19.8845571,32.5304912 19.8614,31.5810261 20.4327294,30.9811309 L22.8440327,28.4622364 C27.0678891,23.9581287 29,20.5696235 29,16.3569915 C29,8.9720734 23.1714267,3 16,3 C8.82857331,3 3,8.9720734 3,16.3569915 C3,20.2858499 5.34024083,24.5850644 9.2382087,28.712017 C10.7122775,30.2726795 12.3259987,31.7104418 13.8243167,32.8501508 C14.1720023,33.114621 14.5017176,33.3536077 14.8004353,33.5590756 L15.2236351,33.8411336 L15.5186207,34.0243928 L15.6991997,34.1284069 L15.833,34.198 L15.9210962,34.2199875 C16.5,34.3889848 16.9340771,34.8975844 16.9931334,35.5156141 L17,35.6600741 C17,36.4885012 16.3284271,37.1600741 15.5,37.1600741 C15.1345378,37.1600741 14.5458636,36.9108596 13.8178874,36.4770493 L13.4426792,36.2450603 L13.0465849,35.9841003 C12.9789582,35.9382924 12.9105583,35.8913523 12.8414338,35.8433171 L12.4183806,35.5422662 L11.9802682,35.2167317 C11.9061241,35.1605354 11.8314496,35.1033937 11.7562933,35.045344 L11.2999626,34.6864497 L10.8343999,34.3075592 C10.7561663,34.2428442 10.6776451,34.1773707 10.5988849,34.1111763 L10.1238445,33.7056571 L9.64539919,33.2846291 L9.16587977,32.8498874 L8.68761708,32.4032268 L8.21294196,31.9464423 L7.74418523,31.4813289 C7.51167495,31.2469892 7.28225812,31.0101992 7.05724585,30.7719687 C2.68354249,26.1413337 0,21.2114459 0,16.3569915 C0,7.33132996 7.15516895,0 16,0 Z" id="路径"></path>
                        <path d="M16,8.5 C19.5898509,8.5 22.5,11.4101491 22.5,15 C22.5,18.5898509 19.5898509,21.5 16,21.5 C12.4101491,21.5 9.5,18.5898509 9.5,15 C9.5,11.4101491 12.4101491,8.5 16,8.5 Z M16,11.5 C14.0670034,11.5 12.5,13.0670034 12.5,15 C12.5,16.9329966 14.0670034,18.5 16,18.5 C17.9329966,18.5 19.5,16.9329966 19.5,15 C19.5,13.0670034 17.9329966,11.5 16,11.5 Z" id="椭圆形"></path>
                    </g>
                </g>
            </g>
        </g>
    </g>
</svg>