<?xml version="1.0" encoding="UTF-8"?>
<svg width="44px" height="44px" viewBox="0 0 44 44" version="1.1" xmlns="http://www.w3.org/2000/svg" xmlns:xlink="http://www.w3.org/1999/xlink">
    <title>29@2x</title>
    <g id="页面-1" stroke="none" stroke-width="1" fill="none" fill-rule="evenodd">
        <g id="29">
            <g id="编组"></g>
            <g id="形状结合" fill="#333333">
                <path d="M18.7008495,5.04005159 C26.7936333,2.98904444 35.1605934,6.94534385 38.7489445,14.3714679 C39.2925889,15.4965448 38.3028853,16.7541601 37.0815358,16.4902424 L37.0815358,16.4902424 L30.1815358,14.9992424 C30.173997,14.9976134 30.1664837,14.9959303 30.1589964,14.9941937 L30.2503456,15.0124372 C29.5530521,14.8955386 29.1275349,14.3787198 29.0229941,13.8041242 C29.0203979,13.7919138 29.0182727,13.7794973 29.0163034,13.7670412 C28.9273946,13.1986441 29.150451,12.5816066 29.7328316,12.2424918 C29.7579189,12.2282353 29.7831161,12.2142415 29.8087068,12.2009749 C29.8200328,12.1951312 29.8317276,12.1892881 29.8435515,12.1835511 L29.8562954,12.1773588 C29.8599767,12.1756121 29.8636655,12.1738802 29.8673616,12.1721631 L32.3873375,10.9492496 C28.9096247,8.00126807 24.1179964,6.76199444 19.4379492,7.94808941 C11.6770504,9.91550081 6.98091183,17.8014377 8.94835106,25.5624463 C10.915889,33.3229379 18.8022079,38.019304 26.5626972,36.0510902 C30.728981,34.9947374 34.1345507,32.1923655 36.0014738,28.4127797 C36.3683579,27.6700229 37.2678995,27.3653179 38.0106563,27.7322019 C38.753413,28.099086 39.058118,28.9986276 38.691234,29.7413843 C36.4397463,34.2995212 32.3258108,37.6847924 27.3001087,38.959049 C17.9335472,41.3345944 8.4150844,35.6662736 6.04034652,26.2996773 C3.66576295,16.9325959 9.33378782,7.41463015 18.7008495,5.04005159 Z"></path>
            </g>
        </g>
    </g>
</svg>