<?xml version="1.0" encoding="UTF-8"?>
<svg width="44px" height="44px" viewBox="0 0 44 44" version="1.1" xmlns="http://www.w3.org/2000/svg" xmlns:xlink="http://www.w3.org/1999/xlink">
    <title>29@2x</title>
    <g id="相关图标说明" stroke="none" stroke-width="1" fill="none" fill-rule="evenodd">
        <g id="线型图标（单色）" transform="translate(-966.000000, -5040.000000)">
            <g id="编组-5" transform="translate(131.000000, 4940.000000)">
                <g id="29" transform="translate(835.000000, 100.000000)">
                    <g id="编组"></g>
                    <g id="编组-75" transform="translate(5.000000, 4.501503)" fill="#333333">
                        <path d="M25.3155315,7.56541911 C24.5057935,7.39044529 23.7075268,7.90502334 23.532553,8.71476136 C23.3575792,9.52449938 23.8721572,10.3227661 24.6818953,10.4977399 L31.5818953,11.9887399 C32.8032448,12.2526576 33.7929484,10.9950423 33.249304,9.86996543 C29.6609529,2.44384133 21.2939928,-1.51245807 13.201209,0.538549071 C3.83414729,2.91312764 -1.83387758,12.4310934 0.540706,21.7981748 C2.91544388,31.164771 12.4339067,36.8330919 21.8004682,34.4575464 C26.8261703,33.1832898 30.9401058,29.7980187 33.1915935,25.2398818 C33.5584775,24.4971251 33.2537725,23.5975835 32.5110157,23.2306994 C31.768259,22.8638154 30.8687174,23.1685204 30.5018333,23.9112772 C28.6349102,27.690863 25.2293405,30.4932348 21.0630567,31.5495877 C13.3025673,33.5178015 5.41624847,28.8214354 3.44871054,21.0609438 C1.48127131,13.2999352 6.17740993,5.41399829 13.9383087,3.44658689 C19.3899507,2.0649416 24.9929994,3.97432711 28.4942663,8.04196524 L28.7103384,8.29899261 L25.3155315,7.56541911 Z" id="Stroke-1"></path>
                        <path d="M28.5881122,5.62273051 C29.2601094,5.29667246 30.0696086,5.51470482 30.4869378,6.13416455 L32.5913271,9.25779978 C33.3273538,10.3503157 32.398483,11.7930557 31.0992956,11.5752519 L24.7507051,10.5109347 C23.3097133,10.2693579 23.0293768,8.31987032 24.3439109,7.68204856 L28.5881122,5.62273051 Z" id="路径-18"></path>
                    </g>
                </g>
            </g>
        </g>
    </g>
</svg>