<?xml version="1.0" encoding="UTF-8"?>
<svg width="44px" height="44px" viewBox="0 0 44 44" version="1.1" xmlns="http://www.w3.org/2000/svg" xmlns:xlink="http://www.w3.org/1999/xlink">
    <title>3@2x</title>
    <g id="页面-1" stroke="none" stroke-width="1" fill="none" fill-rule="evenodd">
        <g id="3">
            <g id="编组"></g>
            <path d="M30.7281905,9.41425962 C36.2463242,14.9323933 36.5909177,23.6649526 31.7619711,29.5845519 L36.3157768,34.1400636 C36.9165834,34.7408702 36.9165834,35.7149702 36.3157768,36.3157768 C35.7525206,36.879033 34.8611746,36.9142365 34.2569071,36.4213873 L34.1400636,36.3157768 L28.7269582,30.9026714 L28.643674,30.8124177 C28.6124326,30.7857931 28.5820042,30.7577173 28.5524773,30.7281905 C27.9516707,30.1273839 27.9516707,29.1532839 28.5524773,28.5524773 C33.2365436,23.8684111 33.2365436,16.2740391 28.5524773,11.5899728 C23.8684111,6.9059065 16.2740391,6.9059065 11.5899728,11.5899728 C6.9059065,16.2740391 6.9059065,23.8684111 11.5899728,28.5524773 C14.7755101,31.7380147 19.417152,32.8377557 23.6431573,31.5241917 C24.4545343,31.2719924 25.3167332,31.7252955 25.5689326,32.5366725 C25.8211319,33.3480495 25.3678288,34.2102485 24.5564518,34.4624478 C19.2495077,36.1119987 13.4159198,34.7298507 9.41425962,30.7281905 C3.52858013,24.842511 3.52858013,15.2999391 9.41425962,9.41425962 C15.2999391,3.52858013 24.842511,3.52858013 30.7281905,9.41425962 Z" id="形状结合" fill="#333333" fill-rule="nonzero"></path>
        </g>
    </g>
</svg>