<?xml version="1.0" encoding="UTF-8"?>
<svg width="44px" height="44px" viewBox="0 0 44 44" version="1.1" xmlns="http://www.w3.org/2000/svg" xmlns:xlink="http://www.w3.org/1999/xlink">
    <title>3@2x</title>
    <g id="相关图标说明" stroke="none" stroke-width="1" fill="none" fill-rule="evenodd">
        <g id="线型图标（单色）" transform="translate(-298.000000, -4940.000000)">
            <g id="编组-5" transform="translate(131.000000, 4940.000000)">
                <g id="3" transform="translate(167.000000, 0.000000)">
                    <g id="编组"></g>
                    <path d="M31.7281905,10.4142596 C37.2463242,15.9323933 37.5909177,24.6649526 32.7619711,30.5845519 L37.3157768,35.1400636 C37.9165834,35.7408702 37.9165834,36.7149702 37.3157768,37.3157768 C36.7525206,37.879033 35.8611746,37.9142365 35.2569071,37.4213873 L35.1400636,37.3157768 L29.7269582,31.9026714 L29.643674,31.8124177 C29.6124326,31.7857931 29.5820042,31.7577173 29.5524773,31.7281905 C28.9516707,31.1273839 28.9516707,30.1532839 29.5524773,29.5524773 C34.2365436,24.8684111 34.2365436,17.2740391 29.5524773,12.5899728 C24.8684111,7.9059065 17.2740391,7.9059065 12.5899728,12.5899728 C7.9059065,17.2740391 7.9059065,24.8684111 12.5899728,29.5524773 C15.7755101,32.7380147 20.417152,33.8377557 24.6431573,32.5241917 C25.4545343,32.2719924 26.3167332,32.7252955 26.5689326,33.5366725 C26.8211319,34.3480495 26.3678288,35.2102485 25.5564518,35.4624478 C20.2495077,37.1119987 14.4159198,35.7298507 10.4142596,31.7281905 C4.52858013,25.842511 4.52858013,16.2999391 10.4142596,10.4142596 C16.2999391,4.52858013 25.842511,4.52858013 31.7281905,10.4142596 Z" id="形状结合" fill="#333333" fill-rule="nonzero"></path>
                </g>
            </g>
        </g>
    </g>
</svg>