<?xml version="1.0" encoding="UTF-8"?>
<svg width="44px" height="44px" viewBox="0 0 44 44" version="1.1" xmlns="http://www.w3.org/2000/svg" xmlns:xlink="http://www.w3.org/1999/xlink">
    <title>30@2x</title>
    <g id="相关图标说明" stroke="none" stroke-width="1" fill="none" fill-rule="evenodd">
        <g id="线型图标（单色）" transform="translate(-1050.000000, -5040.000000)">
            <g id="编组-5" transform="translate(131.000000, 4940.000000)">
                <g id="30" transform="translate(919.000000, 100.000000)">
                    <g id="编组"></g>
                    <g id="图标-/-工具-/-@-/-@备份-110" transform="translate(4.500000, 7.000000)" fill="#333333">
                        <path d="M8.77213542,24 L3.5,24 C3.22385763,24 3,23.7761424 3,23.5 L3,3.5 C3,3.22385763 3.22385763,3 3.5,3 L31.5,3 C31.7761424,3 32,3.22385763 32,3.5 L32,23.5 C32,23.7761424 31.7761424,24 31.5,24 L26.2039931,24 C25.3755659,24 24.7039931,24.6715729 24.7039931,25.5 C24.7039931,26.3284271 25.3755659,27 26.2039931,27 L31.5,27 C33.4329966,27 35,25.4329966 35,23.5 L35,3.5 C35,1.56700338 33.4329966,0 31.5,0 L3.5,0 C1.56700338,0 0,1.56700338 0,3.5 L0,23.5 C0,25.4329966 1.56700338,27 3.5,27 L8.77213542,27 C9.60056254,27 10.2721354,26.3284271 10.2721354,25.5 C10.2721354,24.6715729 9.60056254,24 8.77213542,24 Z" id="形状结合"></path>
                        <path d="M16.1456892,22.4514338 L10.0037763,27.5094798 C9.51236984,27.9141674 9.22768701,28.5174056 9.22768701,29.154 C9.22768701,30.3305874 10.1814996,31.2844 11.358087,31.2844 L23.641913,31.2844 C24.2785073,31.2844 24.8817455,30.9997172 25.2864332,30.5083107 C26.0343983,29.6000673 25.9044671,28.2574449 24.9962237,27.5094798 L18.8543108,22.4514338 C18.0676482,21.803594 16.9323518,21.803594 16.1456892,22.4514338 Z M17.5,24.663 L22.419,28.715 L12.58,28.715 L17.5,24.663 Z" id="Triangle" fill-rule="nonzero"></path>
                    </g>
                </g>
            </g>
        </g>
    </g>
</svg>