<?xml version="1.0" encoding="UTF-8"?>
<svg width="44px" height="44px" viewBox="0 0 44 44" version="1.1" xmlns="http://www.w3.org/2000/svg" xmlns:xlink="http://www.w3.org/1999/xlink">
    <title>30@2x</title>
    <g id="页面-1" stroke="none" stroke-width="1" fill="none" fill-rule="evenodd">
        <g id="30">
            <g id="编组"></g>
            <g id="编组">
                <g transform="translate(5.000000, 7.000000)" fill="#333333" id="形状结合">
                    <path d="M8.77213542,24 L3.5,24 C3.22385763,24 3,23.7761424 3,23.5 L3,3.5 C3,3.22385763 3.22385763,3 3.5,3 L31.5,3 C31.7761424,3 32,3.22385763 32,3.5 L32,23.5 C32,23.7761424 31.7761424,24 31.5,24 L26.2039931,24 C25.3755659,24 24.7039931,24.6715729 24.7039931,25.5 C24.7039931,26.3284271 25.3755659,27 26.2039931,27 L31.5,27 C33.4329966,27 35,25.4329966 35,23.5 L35,3.5 C35,1.56700338 33.4329966,0 31.5,0 L3.5,0 C1.56700338,0 0,1.56700338 0,3.5 L0,23.5 C0,25.4329966 1.56700338,27 3.5,27 L8.77213542,27 C9.60056254,27 10.2721354,26.3284271 10.2721354,25.5 C10.2721354,24.6715729 9.60056254,24 8.77213542,24 Z"></path>
                </g>
                <path d="M23.0378084,30.442901 L29.1797213,35.500947 C29.5403925,35.7979703 29.5919893,36.3311371 29.294966,36.6918083 C29.134261,36.88695 28.89471,37 28.641913,37 L16.358087,37 C15.8908541,37 15.512087,36.6212329 15.512087,36.154 C15.512087,35.9012029 15.625137,35.6616519 15.8202787,35.500947 L21.9621916,30.442901 C22.2745821,30.1856383 22.7254179,30.1856383 23.0378084,30.442901 Z" id="Triangle" stroke="#333333" stroke-width="2.5688" stroke-linejoin="round"></path>
            </g>
        </g>
    </g>
</svg>