<?xml version="1.0" encoding="UTF-8"?>
<svg width="44px" height="44px" viewBox="0 0 44 44" version="1.1" xmlns="http://www.w3.org/2000/svg" xmlns:xlink="http://www.w3.org/1999/xlink">
    <title>31@2x</title>
    <g id="相关图标说明" stroke="none" stroke-width="1" fill="none" fill-rule="evenodd">
        <g id="线型图标（单色）" transform="translate(-1134.000000, -5040.000000)">
            <g id="编组-5" transform="translate(131.000000, 4940.000000)">
                <g id="31" transform="translate(1003.000000, 100.000000)">
                    <g id="编组"></g>
                    <g transform="translate(2.920000, 5.499767)" fill="#333333">
                        <path d="M15.9770341,1.71365858 C16.9639038,0.0515622661 19.1113151,-0.495817069 20.7734114,0.491052619 C21.2138592,0.752568517 21.5907546,1.10709744 21.8783196,1.52886135 L21.9960173,1.71365858 L37.4825431,27.7962283 C38.0353859,28.7273319 38.232334,29.8959873 38.1292544,31.2872715 C38.0680445,32.1134342 37.3486868,32.733551 36.522524,32.672341 C35.6963613,32.611131 35.0762446,31.8917733 35.1374546,31.0656106 C35.1926814,30.3202039 35.1198115,29.7804956 34.9595721,29.4356068 L34.9029789,29.3278445 L19.4164531,3.24527485 C19.3737566,3.173365 19.313705,3.11331332 19.2417951,3.07061685 C19.0307353,2.94530007 18.7648956,2.9931613 18.6094101,3.17210759 L18.5565984,3.24527485 L3.07007263,29.3278445 C3.0242059,29.4050937 3,29.493274 3,29.5831139 C3,29.8285738 3.17687516,30.0327223 3.41012437,30.0750582 L3.5,30.0831139 L28.5900712,30.0831139 C29.4184983,30.0831139 30.0900712,30.7546868 30.0900712,31.5831139 C30.0900712,32.36281 29.4951831,33.0035626 28.7345312,33.0762473 L28.5900712,33.0831139 L3.5,33.0831139 C1.56700338,33.0831139 0,31.5161105 0,29.5831139 C0,29.0328448 0.129728485,28.4914699 0.377250487,28.0024675 L0.490508397,27.7962283 L15.9770341,1.71365858 Z" id="路径" fill-rule="nonzero"></path>
                        <circle id="椭圆形" transform="translate(18.486526, 23.083347) scale(1, -1) rotate(180.000000) translate(-18.486526, -23.083347) " cx="18.4865257" cy="23.0833471" r="2"></circle>
                        <path d="M16.9865257,12.0833471 L16.9865257,18.0833471 C16.9865257,18.9117743 17.6580986,19.5833471 18.4865257,19.5833471 C19.3149529,19.5833471 19.9865257,18.9117743 19.9865257,18.0833471 L19.9865257,12.0833471 C19.9865257,11.25492 19.3149529,10.5833471 18.4865257,10.5833471 C17.6580986,10.5833471 16.9865257,11.25492 16.9865257,12.0833471 Z" id="路径-7" transform="translate(18.486526, 15.083347) scale(1, -1) rotate(180.000000) translate(-18.486526, -15.083347) "></path>
                    </g>
                </g>
            </g>
        </g>
    </g>
</svg>