<?xml version="1.0" encoding="UTF-8"?>
<svg width="44px" height="44px" viewBox="0 0 44 44" version="1.1" xmlns="http://www.w3.org/2000/svg" xmlns:xlink="http://www.w3.org/1999/xlink">
    <title>31@2x</title>
    <g id="页面-1" stroke="none" stroke-width="1" fill="none" fill-rule="evenodd">
        <g id="31">
            <g id="编组"></g>
            <g id="编组">
                <path d="M21.9865257,26.5831139 C23.0910952,26.5831139 23.9865257,27.4785444 23.9865257,28.5831139 C23.9865257,29.6876834 23.0910952,30.5831139 21.9865257,30.5831139 C20.8819562,30.5831139 19.9865257,29.6876834 19.9865257,28.5831139 C19.9865257,27.4785444 20.8819562,26.5831139 21.9865257,26.5831139 Z M21.9865257,16.0831139 C22.8149529,16.0831139 23.4865257,16.7546868 23.4865257,17.5831139 L23.4865257,23.5831139 C23.4865257,24.411541 22.8149529,25.0831139 21.9865257,25.0831139 C21.1580986,25.0831139 20.4865257,24.411541 20.4865257,23.5831139 L20.4865257,17.5831139 C20.4865257,16.7546868 21.1580986,16.0831139 21.9865257,16.0831139 Z" id="形状结合" fill="#333333"></path>
                <path d="M32.0900712,37.0828807 L7,37.0828807 C5.8954305,37.0828807 5,36.1874502 5,35.0828807 C5,34.7235212 5.09682359,34.3708001 5.28029051,34.0618031 L20.7668163,7.97923348 C21.3307418,7.02946415 22.5578339,6.71667596 23.5076033,7.2806015 C23.7952426,7.45138739 24.0354493,7.69159408 24.2062352,7.97923348 L39.692761,34.0618031 C40.0687113,34.6949827 40.2155758,35.5664509 40.1333545,36.6762078" id="路径" stroke="#333333" stroke-width="3" stroke-linecap="round"></path>
            </g>
        </g>
    </g>
</svg>