<?xml version="1.0" encoding="UTF-8"?>
<svg width="44px" height="44px" viewBox="0 0 44 44" version="1.1" xmlns="http://www.w3.org/2000/svg" xmlns:xlink="http://www.w3.org/1999/xlink">
    <title>32@2x</title>
    <g id="页面-1" stroke="none" stroke-width="1" fill="none" fill-rule="evenodd">
        <g id="32">
            <g id="编组"></g>
            <g id="编组">
                <path d="M30.8913796,37.6542501 C28.2685122,39.1472103 25.233846,40 22,40 C12.0588745,40 4,31.9411255 4,22 C4,12.0588745 12.0588745,4 22,4 C31.9411255,4 40,12.0588745 40,22 C40,25.86779 38.7800864,29.450654 36.7040346,32.3848166" id="形状结合" stroke="#333333" stroke-width="3" stroke-linecap="round"></path>
                <path d="M28.2685532,24.726694 C28.4879848,23.9278565 29.313455,23.4581553 30.1122924,23.677587 C30.9111299,23.8970186 31.3808311,24.7224888 31.1613994,25.5213262 C30.0374278,29.6131277 26.3043058,32.5 22,32.5 C17.7228645,32.5 14.0072763,29.649161 12.8586131,25.593072 C12.632884,24.7959911 13.096056,23.9668398 13.8931369,23.7411107 C14.6902177,23.5153816 15.519369,23.9785537 15.7450981,24.7756345 C16.5304139,27.5486933 19.0736134,29.5 22,29.5 C24.9449377,29.5 27.5001615,27.5240118 28.2685532,24.726694 Z" id="路径" fill="#333333"></path>
                <path d="M26.5245838,13.449039 C27.5789456,13.449039 28.442749,14.2649168 28.5190981,15.2997766 L28.5245838,15.449039 L28.5245838,17.9118085 C28.5245838,19.016378 27.6291533,19.9118085 26.5245838,19.9118085 C25.4702221,19.9118085 24.6064187,19.0959307 24.5300696,18.0610709 L24.5245838,17.9118085 L24.5245838,15.449039 C24.5245838,14.3444695 25.4200143,13.449039 26.5245838,13.449039 Z M17,13.449039 C18.0543618,13.449039 18.9181651,14.2649168 18.9945143,15.2997766 L19,15.449039 L19,17.9118085 C19,19.016378 18.1045695,19.9118085 17,19.9118085 C15.9456382,19.9118085 15.0818349,19.0959307 15.0054857,18.0610709 L15,17.9118085 L15,15.449039 C15,14.3444695 15.8954305,13.449039 17,13.449039 Z" id="形状结合" fill="#333333" fill-rule="nonzero"></path>
            </g>
        </g>
    </g>
</svg>