<?xml version="1.0" encoding="UTF-8"?>
<svg width="44px" height="44px" viewBox="0 0 44 44" version="1.1" xmlns="http://www.w3.org/2000/svg" xmlns:xlink="http://www.w3.org/1999/xlink">
    <title>32@2x</title>
    <g id="相关图标说明" stroke="none" stroke-width="1" fill="none" fill-rule="evenodd">
        <g id="线型图标（单色）" transform="translate(-1218.000000, -5040.000000)">
            <g id="编组-5" transform="translate(131.000000, 4940.000000)">
                <g id="32" transform="translate(1087.000000, 100.000000)">
                    <g id="编组"></g>
                    <g transform="translate(2.500000, 2.500000)" fill="#333333">
                        <path d="M19.5,0 C30.2695526,0 39,8.73044738 39,19.5 C39,23.5855196 37.7390543,27.4856432 35.4285265,30.7511996 C34.9500363,31.4274678 34.0139197,31.5877986 33.3376515,31.1093085 C32.6613833,30.6308184 32.5010525,29.6947018 32.9795427,29.0184335 C34.934442,26.2555004 36,22.9597137 36,19.5 C36,10.3873016 28.6126984,3 19.5,3 C10.3873016,3 3,10.3873016 3,19.5 C3,28.6126984 10.3873016,36 19.5,36 C22.3994137,36 25.1865336,35.2525005 27.6493533,33.8506409 C28.3693168,33.4408311 29.285179,33.6922603 29.6949888,34.4122238 C30.1047986,35.1321873 29.8533694,36.0480495 29.1334059,36.4578593 C26.2212639,38.1154773 22.9232405,39 19.5,39 C8.73044738,39 0,30.2695526 0,19.5 C0,8.73044738 8.73044738,0 19.5,0 Z" id="形状结合" fill-rule="nonzero"></path>
                        <path d="M25.7685532,22.226694 C25.9879848,21.4278565 26.813455,20.9581553 27.6122924,21.177587 C28.4111299,21.3970186 28.8808311,22.2224888 28.6613994,23.0213262 C27.5374278,27.1131277 23.8043058,30 19.5,30 C15.2228645,30 11.5072763,27.149161 10.3586131,23.093072 C10.132884,22.2959911 10.596056,21.4668398 11.3931369,21.2411107 C12.1902177,21.0153816 13.019369,21.4785537 13.2450981,22.2756345 C14.0304139,25.0486933 16.5736134,27 19.5,27 C22.4449377,27 25.0001615,25.0240118 25.7685532,22.226694 Z" id="路径"></path>
                        <path d="M24.0245838,10.949039 C25.0789456,10.949039 25.942749,11.7649168 26.0190981,12.7997766 L26.0245838,12.949039 L26.0245838,15.4118085 C26.0245838,16.516378 25.1291533,17.4118085 24.0245838,17.4118085 C22.9702221,17.4118085 22.1064187,16.5959307 22.0300696,15.5610709 L22.0245838,15.4118085 L22.0245838,12.949039 C22.0245838,11.8444695 22.9200143,10.949039 24.0245838,10.949039 Z M14.5,10.949039 C15.5543618,10.949039 16.4181651,11.7649168 16.4945143,12.7997766 L16.5,12.949039 L16.5,15.4118085 C16.5,16.516378 15.6045695,17.4118085 14.5,17.4118085 C13.4456382,17.4118085 12.5818349,16.5959307 12.5054857,15.5610709 L12.5,15.4118085 L12.5,12.949039 C12.5,11.8444695 13.3954305,10.949039 14.5,10.949039 Z" id="形状结合" fill-rule="nonzero"></path>
                    </g>
                </g>
            </g>
        </g>
    </g>
</svg>