<?xml version="1.0" encoding="UTF-8"?>
<svg width="44px" height="44px" viewBox="0 0 44 44" version="1.1" xmlns="http://www.w3.org/2000/svg" xmlns:xlink="http://www.w3.org/1999/xlink">
    <title>34@2x</title>
    <g id="页面-1" stroke="none" stroke-width="1" fill="none" fill-rule="evenodd">
        <g id="34">
            <g id="编组"></g>
            <g id="zhanghao" transform="translate(4.000000, 5.000000)" fill="#333333" fill-rule="nonzero">
                <g id="编组-21">
                    <path d="M33.563195,8.25388083 L28.5893165,8.25388083 C27.9015289,8.25388083 27.3479438,8.81214271 27.3479438,9.49632831 C27.3479438,10.1805139 27.9057228,10.7387758 28.5893165,10.7387758 L33.563195,10.7387758 C34.2509826,10.7387758 34.8045677,10.1805139 34.8045677,9.49632831 C34.8045677,8.81214271 34.2467887,8.25388083 33.563195,8.25388083 Z M28.5893165,5.76898587 L33.563195,5.76898587 C34.2509826,5.76898587 34.8045677,5.210724 34.8045677,4.52653839 C34.8045677,3.83815533 34.2467887,3.28409091 33.563195,3.28409091 L28.5893165,3.28409091 C27.9015289,3.28409091 27.3479203,3.84235278 27.3479203,4.52653839 C27.34375,5.210724 27.9015289,5.76898587 28.5893165,5.76898587 Z M33.563195,13.2320657 L28.5893165,13.2320657 C27.9015289,13.2320657 27.3479438,13.7903275 27.3479438,14.4745132 C27.3479438,15.1628962 27.9057228,15.7169606 28.5893165,15.7169606 L33.563195,15.7169606 C34.2509826,15.7169606 34.8045677,15.1586988 34.8045677,14.4745132 C34.8045677,13.7903275 34.2467887,13.2320657 33.563195,13.2320657 Z" id="形状"></path>
                    <path d="M5.27108047,23.7354632 C3.98276736,23.8191553 2.96370968,24.8915186 2.96370968,26.2021017 L2.96370968,26.2021017 L2.96370968,30.6515152 L22.2278226,30.6515152 L22.3705351,30.6583045 C23.1219856,30.7301722 23.7096774,31.3637218 23.7096774,32.134653 C23.7096774,32.9537674 23.0462284,33.6177908 22.2278226,33.6177908 L22.2278226,33.6177908 L1.48185484,33.6177908 L1.33914233,33.6110014 C0.587691856,33.5391338 0,32.9055842 0,32.134653 L0,32.134653 L0,26.2021017 L0.00431437489,25.9833812 C0.119003675,23.0813622 2.50583713,20.7639296 5.43346774,20.7639296 L5.43346774,20.7639296 L25.1915323,20.7639296 C28.1191629,20.7639296 30.5059963,23.0813622 30.6206856,25.9833812 L30.625,26.2021017 L30.625,32.134653 C30.625,32.9537674 29.961551,33.6177908 29.1431452,33.6177908 C28.3728809,33.6177908 27.7398793,33.0295901 27.6680738,32.2774891 L27.6612903,32.134653 L27.6612903,26.2021017 C27.6612903,24.8915186 26.6422326,23.8191553 25.3539195,23.7354632 L25.1915323,23.7302053 L5.43346774,23.7302053 Z M18.2762097,0 C21.277031,0 23.7096774,2.43475256 23.7096774,5.43817204 L23.7096774,5.43817204 L23.7096774,10.3819648 C23.7096774,15.0236131 19.950133,18.7864125 15.3125,18.7864125 C10.674867,18.7864125 6.91532258,15.0236131 6.91532258,10.3819648 L6.91532258,10.3819648 L6.91532258,5.43817204 C6.91532258,2.43475256 9.34796895,0 12.3487903,0 L12.3487903,0 Z M18.2762097,2.96627566 L12.3487903,2.96627566 C10.9847806,2.96627566 9.87903226,4.07298137 9.87903226,5.43817204 L9.87903226,5.43817204 L9.87903226,10.3819648 C9.87903226,13.3853843 12.3116786,15.8201369 15.3125,15.8201369 C18.3133214,15.8201369 20.7459677,13.3853843 20.7459677,10.3819648 L20.7459677,10.3819648 L20.7459677,5.43817204 C20.7459677,4.07298137 19.6402194,2.96627566 18.2762097,2.96627566 L18.2762097,2.96627566 Z" id="形状结合"></path>
                </g>
            </g>
        </g>
    </g>
</svg>