<?xml version="1.0" encoding="UTF-8"?>
<svg width="44px" height="44px" viewBox="0 0 44 44" version="1.1" xmlns="http://www.w3.org/2000/svg" xmlns:xlink="http://www.w3.org/1999/xlink">
    <title>35@2x</title>
    <g id="相关图标说明" stroke="none" stroke-width="1" fill="none" fill-rule="evenodd">
        <g id="线型图标（单色）" transform="translate(-1470.000000, -5040.000000)">
            <g id="编组-5" transform="translate(131.000000, 4940.000000)">
                <g id="35" transform="translate(1339.000000, 100.000000)">
                    <g id="编组"></g>
                    <g id="mima" transform="translate(6.000000, 6.000000)" fill="#333333" fill-rule="nonzero">
                        <g id="编组-74">
                            <path d="M7.89515581,16.8169336 C5.99137291,18.7207165 5.99137291,21.80871 7.89515581,23.7124929 C9.7989387,25.6162757 12.8869321,25.6162757 14.790715,23.7124929 C16.6944979,21.80871 16.6944979,18.7207165 14.790715,16.8169336 C12.8869321,14.9131507 9.7989387,14.9131507 7.89515581,16.8169336 Z M13.0637413,21.989631 C12.109794,22.9435784 10.5678532,22.9435784 9.61801765,21.989631 C8.66818212,21.0356836 8.66407028,19.4937429 9.61801765,18.5439073 C10.571965,17.5940718 12.1139058,17.58996 13.0637413,18.5439073 C14.0135769,19.4978547 14.0176887,21.0356836 13.0637413,21.989631 Z" id="形状"></path>
                            <path d="M23.711587,1.36773182 C25.5409438,-0.456368188 28.501435,-0.456368188 30.32828,1.37047885 C32.0953769,3.14266824 32.1505987,5.97640074 30.4926975,7.81140521 L30.3269075,7.98579935 L28.9289255,9.38282838 L30.3320221,10.7817502 C32.099119,12.5539396 32.1543408,15.3876721 30.49519,17.2239244 L30.3292751,17.3984432 C28.5570857,19.1655401 25.7233532,19.2207619 23.8883487,17.5628607 L23.7139546,17.3970707 L22.3149255,15.9978284 L21.9399255,16.3718284 L21.9766752,16.465308 C23.118498,19.5776556 22.837019,23.0426161 21.2068456,25.9327302 L21.0270267,26.2401433 C20.5574089,27.0148192 19.9947969,27.7329233 19.3477146,28.3800056 C18.8205068,28.9072134 17.9657341,28.9072134 17.4385263,28.3800056 C16.9113185,27.8527978 16.9113185,26.9980251 17.4385263,26.4708173 C17.9320283,25.9773153 18.3605523,25.4303578 18.7181476,24.8404729 C20.167286,22.4499921 20.3713245,19.4963979 19.2544484,16.9272136 L19.1249113,16.6433787 L18.7126732,15.7816571 L22.3147954,12.1795349 L25.6231429,15.4878824 C26.3946573,16.2593968 27.6477214,16.2593968 28.4214613,15.4878824 C29.1523697,14.7569739 29.1908386,13.5938714 28.5381593,12.816866 L28.4229801,12.6910804 L25.1078529,9.38647739 L28.4177192,6.07661104 C29.1892337,5.30509658 29.1892337,4.05203248 28.4177192,3.27829266 C27.6868108,2.54738422 26.5237082,2.50891536 25.7457498,3.16254962 L25.6197963,3.27789697 L15.9190481,12.9866889 L15.0573493,12.5753081 C11.7579514,11.0001535 7.82030664,11.6730891 5.22893661,14.2612276 C1.85692185,17.6332424 1.85692185,23.0988025 5.22893661,26.4708173 C7.04490081,28.2867815 9.52492876,29.1748702 12.0356442,28.9714438 C12.5700696,28.9281429 13.0993589,28.8354522 13.6162789,28.694342 C14.3355451,28.4979947 15.0777965,28.9219043 15.2741437,29.6411705 C15.470491,30.3604367 15.0465815,31.102688 14.3273153,31.2990353 C13.6488328,31.4842493 12.9544982,31.6058431 12.2536925,31.6626247 C8.96163987,31.9293576 5.70174383,30.7620011 3.3197483,28.3800056 C-1.10668204,23.9535753 -1.10668204,16.7784696 3.32034399,12.351444 C6.4193332,9.25631883 10.9849083,8.24802558 15.0476702,9.65701732 L15.3269255,9.75782838 L23.711587,1.36773182 Z" id="形状"></path>
                        </g>
                    </g>
                </g>
            </g>
        </g>
    </g>
</svg>