<?xml version="1.0" encoding="UTF-8"?>
<svg width="44px" height="44px" viewBox="0 0 44 44" version="1.1" xmlns="http://www.w3.org/2000/svg" xmlns:xlink="http://www.w3.org/1999/xlink">
    <title>35@2x</title>
    <g id="页面-1" stroke="none" stroke-width="1" fill="none" fill-rule="evenodd">
        <g id="35">
            <g id="编组"></g>
            <g id="mima" transform="translate(8.000000, 8.000000)" fill-rule="nonzero">
                <path d="M6.54523026,15.4671053 C4.64144737,17.3708882 4.64144737,20.4588816 6.54523026,22.3626645 C8.44901316,24.2664474 11.5370066,24.2664474 13.4407895,22.3626645 C15.3445724,20.4588816 15.3445724,17.3708882 13.4407895,15.4671053 C11.5370066,13.5633224 8.44901316,13.5633224 6.54523026,15.4671053 Z M11.7138158,20.6398026 C10.7598684,21.59375 9.21792763,21.59375 8.26809211,20.6398026 C7.31825658,19.6858553 7.31414474,18.1439145 8.26809211,17.1940789 C9.22203947,16.2442434 10.7639803,16.2401316 11.7138158,17.1940789 C12.6636513,18.1480263 12.6677632,19.6858553 11.7138158,20.6398026 Z" id="形状" fill="#333333"></path>
                <path d="M17.0431949,26.0755831 C17.6193699,25.4994081 18.1134114,24.8655739 18.5226616,24.1904798 C20.2424197,21.353588 20.464879,17.7881043 18.9928062,14.7109584 L20.9648698,12.7388948 L23.3186232,15.0926481 C24.6171167,16.3911416 26.7238943,16.3911416 28.0261299,15.0926481 C29.3246234,13.7941547 29.3246234,11.687377 28.0261299,10.3851415 L25.6686345,8.03513017 L28.0223878,5.68137682 C29.3208813,4.38288332 29.3208813,2.27610568 28.0223878,0.973870125 C26.7238943,-0.324623375 24.6171167,-0.324623375 23.3148811,0.973870125 L14.2890416,10.0071938 C10.4796284,8.18855447 5.92554599,8.95941805 2.92441692,11.9568051 C-0.974805639,15.8560276 -0.974805639,22.1763605 2.92441692,26.0755831 C5.08048375,28.2316499 7.97680836,29.1955242 10.7947428,28.9672058 C11.4103726,28.9173255 12.0222609,28.8105436 12.6218715,28.6468603" id="形状" stroke="#333333" stroke-width="2.7" stroke-linecap="round"></path>
            </g>
        </g>
    </g>
</svg>