<?xml version="1.0" encoding="UTF-8"?>
<svg width="44px" height="44px" viewBox="0 0 44 44" version="1.1" xmlns="http://www.w3.org/2000/svg" xmlns:xlink="http://www.w3.org/1999/xlink">
    <title>36@2x</title>
    <g id="相关图标说明" stroke="none" stroke-width="1" fill="none" fill-rule="evenodd">
        <g id="线型图标（单色）" transform="translate(-1554.000000, -5040.000000)">
            <g id="编组-5" transform="translate(131.000000, 4940.000000)">
                <g id="36" transform="translate(1423.000000, 100.000000)">
                    <g id="编组"></g>
                    <g id="编组-73" transform="translate(9.750000, 8.224973)" fill="#333333" fill-rule="nonzero">
                        <path d="M14.9457322,10.1354768 C15.5747417,9.40167433 16.679519,9.31672278 17.4133215,9.94573223 C18.1063572,10.5397967 18.2206339,11.5582344 17.7013015,12.2877314 L17.6030661,12.4133215 L10.2765847,20.9603956 C9.90619806,21.3924887 9.87769019,22.0142982 10.191071,22.4755962 L10.2765388,22.587374 L17.6031303,31.1355517 C18.2320984,31.8693897 18.1470846,32.9741623 17.4132466,33.6031303 C16.7201775,34.1971557 15.6962438,34.1543269 15.0547564,33.5295342 L14.945668,33.4132466 L7.61907653,24.8650689 C6.1469929,23.14754 6.09630037,20.6413534 7.46695601,18.8695117 L7.6192508,18.6825509 L14.9457322,10.1354768 Z" id="Stroke-1" transform="translate(12.250032, 21.774399) scale(-1, 1) rotate(-90.000000) translate(-12.250032, -21.774399) "></path>
                        <path d="M14.9457322,-5.86452318 C15.5747417,-6.59832567 16.679519,-6.68327722 17.4133215,-6.05426777 C18.1063572,-5.46020329 18.2206339,-4.44176557 17.7013015,-3.71226864 L17.6030661,-3.58667846 L10.2765847,4.96039558 C9.90619806,5.39248868 9.87769019,6.01429816 10.191071,6.47559618 L10.2765388,6.58737402 L17.6031303,15.1355517 C18.2320984,15.8693897 18.1470846,16.9741623 17.4132466,17.6031303 C16.7201775,18.1971557 15.6962438,18.1543269 15.0547564,17.5295342 L14.945668,17.4132466 L7.61907653,8.86506892 C6.1469929,7.14754004 6.09630037,4.64135338 7.46695601,2.86951168 L7.6192508,2.68255087 L14.9457322,-5.86452318 Z" id="Stroke-1备份" transform="translate(12.250032, 5.774399) scale(-1, -1) rotate(-90.000000) translate(-12.250032, -5.774399) "></path>
                    </g>
                </g>
            </g>
        </g>
    </g>
</svg>