<?xml version="1.0" encoding="UTF-8"?>
<svg width="44px" height="44px" viewBox="0 0 44 44" version="1.1" xmlns="http://www.w3.org/2000/svg" xmlns:xlink="http://www.w3.org/1999/xlink">
    <title>37@2x</title>
    <g id="页面-1" stroke="none" stroke-width="1" fill="none" fill-rule="evenodd">
        <g id="37">
            <g id="编组"></g>
            <path d="M27,4.5 C27.7796961,4.5 28.4204487,5.09488808 28.4931334,5.85553999 L28.5,6 L28.5,7.5 L33,7.5 C35.9634791,7.5 38.3795391,9.84378001 38.4956328,12.7787929 L38.5,13 L38.5,15 C38.5,15.8284271 37.8284271,16.5 37,16.5 C36.2203039,16.5 35.5795513,15.9051119 35.5068666,15.14446 L35.5,15 L35.5,13 C35.5,11.6745166 34.4684641,10.5899613 33.1643757,10.5053177 L33,10.5 L28.5,10.5 L28.5,12 C28.5,12.8284271 27.8284271,13.5 27,13.5 C26.2203039,13.5 25.5795513,12.9051119 25.5068666,12.14446 L25.5,12 L25.5,10.5 L18.5,10.5 L18.5,12 C18.5,12.8284271 17.8284271,13.5 17,13.5 C16.2203039,13.5 15.5795513,12.9051119 15.5068666,12.14446 L15.5,12 L15.5,10.5 L11,10.5 C9.6745166,10.5 8.58996133,11.5315359 8.50531768,12.8356243 L8.5,13 L8.5,17.5 L19,17.5 C19.8284271,17.5 20.5,18.1715729 20.5,19 C20.5,19.7796961 19.9051119,20.4204487 19.14446,20.4931334 L19,20.5 L8.5,20.5 L8.5,32 C8.5,33.3254834 9.53153594,34.4100387 10.8356243,34.4946823 L11,34.5 L23.499844,34.5007673 C22.2441173,32.8293148 21.5,30.7515563 21.5,28.5 C21.5,22.9771525 25.9771525,18.5 31.5,18.5 C37.0228475,18.5 41.5,22.9771525 41.5,28.5 C41.5,34.0228475 37.0228475,38.5 31.5,38.5 C29.907871,38.5 28.4026451,38.1279235 27.0665323,37.4659803 C27.0113956,37.4787377 26.9543326,37.4875885 26.8963049,37.4931334 L26.7518449,37.5 L11,37.5 C8.03652085,37.5 5.62046086,35.15622 5.5043672,32.2212071 L5.5,32 L5.5,13 C5.5,10.0365209 7.84378001,7.62046086 10.7787929,7.5043672 L11,7.5 L15.5,7.5 L15.5,6 C15.5,5.17157288 16.1715729,4.5 17,4.5 C17.7796961,4.5 18.4204487,5.09488808 18.4931334,5.85553999 L18.5,6 L18.5,7.5 L25.5,7.5 L25.5,6 C25.5,5.17157288 26.1715729,4.5 27,4.5 Z M31.5,21.5 C27.6340068,21.5 24.5,24.6340068 24.5,28.5 C24.5,32.3659932 27.6340068,35.5 31.5,35.5 C35.3659932,35.5 38.5,32.3659932 38.5,28.5 C38.5,24.6340068 35.3659932,21.5 31.5,21.5 Z M35,27 C35.8284271,27 36.5,27.6715729 36.5,28.5 C36.5,29.2796961 35.9051119,29.9204487 35.14446,29.9931334 L35,30 L28,30 C27.1715729,30 26.5,29.3284271 26.5,28.5 C26.5,27.7203039 27.0948881,27.0795513 27.85554,27.0068666 L28,27 L35,27 Z" id="形状结合" fill="#333333" fill-rule="nonzero"></path>
        </g>
    </g>
</svg>