<?xml version="1.0" encoding="UTF-8"?>
<svg width="44px" height="44px" viewBox="0 0 44 44" version="1.1" xmlns="http://www.w3.org/2000/svg" xmlns:xlink="http://www.w3.org/1999/xlink">
    <title>37@2x</title>
    <g id="相关图标说明" stroke="none" stroke-width="1" fill="none" fill-rule="evenodd">
        <g id="线型图标（单色）" transform="translate(-131.000000, -5140.000000)">
            <g id="编组-5" transform="translate(131.000000, 4940.000000)">
                <g id="37" transform="translate(0.000000, 200.000000)">
                    <g id="编组"></g>
                    <path d="M25.5,5 C26.2796961,5 26.9204487,5.59488808 26.9931334,6.35553999 L27,6.5 L27,8 L31.5,8 C34.4634791,8 36.8795391,10.34378 36.9956328,13.2787929 L37,13.5 L37,15.5 C37,16.3284271 36.3284271,17 35.5,17 C34.7203039,17 34.0795513,16.4051119 34.0068666,15.64446 L34,15.5 L34,13.5 C34,12.1745166 32.9684641,11.0899613 31.6643757,11.0053177 L31.5,11 L27,11 L27,12.5 C27,13.3284271 26.3284271,14 25.5,14 C24.7203039,14 24.0795513,13.4051119 24.0068666,12.64446 L24,12.5 L24,11 L17,11 L17,12.5 C17,13.3284271 16.3284271,14 15.5,14 C14.7203039,14 14.0795513,13.4051119 14.0068666,12.64446 L14,12.5 L14,11 L9.5,11 C8.1745166,11 7.08996133,12.0315359 7.00531768,13.3356243 L7,13.5 L7,18 L17.5,18 C18.3284271,18 19,18.6715729 19,19.5 C19,20.2796961 18.4051119,20.9204487 17.64446,20.9931334 L17.5,21 L7,21 L7,32.5 C7,33.8254834 8.03153594,34.9100387 9.33562431,34.9946823 L9.5,35 L21.999844,35.0007673 C20.7441173,33.3293148 20,31.2515563 20,29 C20,23.4771525 24.4771525,19 30,19 C35.5228475,19 40,23.4771525 40,29 C40,34.5228475 35.5228475,39 30,39 C28.407871,39 26.9026451,38.6279235 25.5665323,37.9659803 C25.5113956,37.9787377 25.4543326,37.9875885 25.3963049,37.9931334 L25.2518449,38 L9.5,38 C6.53652085,38 4.12046086,35.65622 4.0043672,32.7212071 L4,32.5 L4,13.5 C4,10.5365209 6.34378001,8.12046086 9.27879286,8.0043672 L9.5,8 L14,8 L14,6.5 C14,5.67157288 14.6715729,5 15.5,5 C16.2796961,5 16.9204487,5.59488808 16.9931334,6.35553999 L17,6.5 L17,8 L24,8 L24,6.5 C24,5.67157288 24.6715729,5 25.5,5 Z M30,22 C26.1340068,22 23,25.1340068 23,29 C23,32.8659932 26.1340068,36 30,36 C33.8659932,36 37,32.8659932 37,29 C37,25.1340068 33.8659932,22 30,22 Z M33.5,27.5 C34.3284271,27.5 35,28.1715729 35,29 C35,29.7796961 34.4051119,30.4204487 33.64446,30.4931334 L33.5,30.5 L26.5,30.5 C25.6715729,30.5 25,29.8284271 25,29 C25,28.2203039 25.5948881,27.5795513 26.35554,27.5068666 L26.5,27.5 L33.5,27.5 Z" id="形状结合" fill="#333333" fill-rule="nonzero"></path>
                </g>
            </g>
        </g>
    </g>
</svg>