<?xml version="1.0" encoding="UTF-8"?>
<svg width="44px" height="44px" viewBox="0 0 44 44" version="1.1" xmlns="http://www.w3.org/2000/svg" xmlns:xlink="http://www.w3.org/1999/xlink">
    <title>38@2x</title>
    <g id="相关图标说明" stroke="none" stroke-width="1" fill="none" fill-rule="evenodd">
        <g id="线型图标（单色）" transform="translate(-214.000000, -5140.000000)">
            <g id="编组-5" transform="translate(131.000000, 4940.000000)">
                <g id="38" transform="translate(83.000000, 200.000000)">
                    <g id="编组"></g>
                    <g id="编组-72" transform="translate(2.500000, 2.500000)" fill="#333333" fill-rule="nonzero">
                        <path d="M19.5,0 C30.2695526,0 39,8.73044738 39,19.5 C39,23.5855196 37.7390543,27.4856432 35.4285265,30.7511996 C34.9500363,31.4274678 34.0139197,31.5877986 33.3376515,31.1093085 C32.6613833,30.6308184 32.5010525,29.6947018 32.9795427,29.0184335 C34.934442,26.2555004 36,22.9597137 36,19.5 C36,10.3873016 28.6126984,3 19.5,3 C10.3873016,3 3,10.3873016 3,19.5 C3,28.6126984 10.3873016,36 19.5,36 C22.3994137,36 25.1865336,35.2525005 27.6493533,33.8506409 C28.3693168,33.4408311 29.285179,33.6922603 29.6949888,34.4122238 C30.1047986,35.1321873 29.8533694,36.0480495 29.1334059,36.4578593 C26.2212639,38.1154773 22.9232405,39 19.5,39 C8.73044738,39 0,30.2695526 0,19.5 C0,8.73044738 8.73044738,0 19.5,0 Z" id="形状结合"></path>
                        <path d="M23.7991531,12.1473583 L15.6484105,17.3871214 C15.3471539,17.5807864 15.0910233,17.836917 14.8973583,18.1381736 C14.1507279,19.2995987 14.4869854,20.8463833 15.6484105,21.5930138 L23.7991531,26.8327768 C24.2023964,27.0920047 24.671668,27.2298307 25.1510471,27.2298307 C26.5317589,27.2298307 27.6510471,26.1105425 27.6510471,24.7298307 L27.6510471,14.2503045 C27.6510471,13.7709255 27.5132211,13.3016539 27.2539933,12.8984105 C26.5073628,11.7369854 24.9605782,11.4007279 23.7991531,12.1473583 Z M24.6510471,15.165639 L24.6510471,23.813639 L17.9250471,19.489639 L24.6510471,15.165639 Z" id="Triangle-Copy" transform="translate(21.075524, 19.489915) scale(-1, 1) translate(-21.075524, -19.489915) "></path>
                    </g>
                </g>
            </g>
        </g>
    </g>
</svg>