<?xml version="1.0" encoding="UTF-8"?>
<svg width="44px" height="44px" viewBox="0 0 44 44" version="1.1" xmlns="http://www.w3.org/2000/svg" xmlns:xlink="http://www.w3.org/1999/xlink">
    <title>38@2x</title>
    <g id="页面-1" stroke="none" stroke-width="1" fill="none" fill-rule="evenodd">
        <g id="38">
            <g id="编组-30备份-3">
                <g id="编组"></g>
                <path d="M30.8913796,37.6542501 C28.2685122,39.1472103 25.233846,40 22,40 C12.0588745,40 4,31.9411255 4,22 C4,12.0588745 12.0588745,4 22,4 C31.9411255,4 40,12.0588745 40,22 C40,25.86779 38.7800864,29.450654 36.7040346,32.3848166" id="形状结合" stroke="#333333" stroke-width="3" stroke-linecap="round"></path>
            </g>
            <path d="M17.3084999,21.2302501 L25.4592424,15.990487 C25.9238125,15.6918349 26.5425263,15.8263379 26.8411785,16.2909079 C26.9448696,16.4522052 27,16.6399139 27,16.8316655 L27,27.3111916 C27,27.8634764 26.5522847,28.3111916 26,28.3111916 C25.8082484,28.3111916 25.6205397,28.2560613 25.4592424,28.1523701 L17.3084999,22.912607 C16.8439298,22.6139549 16.7094268,21.995241 17.008079,21.530671 C17.085545,21.4101683 17.1879972,21.3077161 17.3084999,21.2302501 Z" id="Triangle-Copy" stroke="#333333" stroke-width="3" transform="translate(21.500000, 22.071429) scale(-1, 1) translate(-21.500000, -22.071429) "></path>
        </g>
    </g>
</svg>