<?xml version="1.0" encoding="UTF-8"?>
<svg width="44px" height="44px" viewBox="0 0 44 44" version="1.1" xmlns="http://www.w3.org/2000/svg" xmlns:xlink="http://www.w3.org/1999/xlink">
    <title>39@2x</title>
    <g id="页面-1" stroke="none" stroke-width="1" fill="none" fill-rule="evenodd">
        <g id="39">
            <g id="编组"></g>
            <g id="编组-31" transform="translate(5.000000, 4.000000)" stroke="#333333" stroke-linecap="round" stroke-width="3">
                <path d="M27.4454688,32.9776563 C24.75375,34.69375 21.4254688,35.669375 17.57,35.669375 C7.86625,35.669375 6.21724894e-14,27.8884375 6.21724894e-14,17.6673438 C6.21724894e-14,7.44625 7.51953125,4.61852778e-14 17.57,4.61852778e-14 C25.046875,4.61852778e-14 30.9476563,3.94515625 33.6065625,10.0340625" id="Stroke-1"></path>
                <path d="M24.2441719,17.6502812 C24.2441719,22.4212187 21.4966719,26.2898125 17.0232344,26.2898125 C13.0343281,26.2898125 9.80120313,22.4212187 9.80120313,17.6502812 C9.80120313,12.87825 12.8921406,9.01075 17.0232344,9.01075 C21.2451094,9.01075 24.2441719,12.87825 24.2441719,17.6502812 Z" id="Stroke-3"></path>
                <path d="M24.9213125,9.65461264 L24.9213125,19.7012812 C24.9213125,23.2515937 26.7325625,24.6428437 28.9299063,24.6428437 C31.5494375,24.6428437 34.605375,22.2683125 34.7935,15.869875 C34.9652188,10.0412812 30.681,5.5055 30.681,5.5055" id="Stroke-5"></path>
            </g>
        </g>
    </g>
</svg>