<?xml version="1.0" encoding="UTF-8"?>
<svg width="44px" height="44px" viewBox="0 0 44 44" version="1.1" xmlns="http://www.w3.org/2000/svg" xmlns:xlink="http://www.w3.org/1999/xlink">
    <title>39@2x</title>
    <g id="相关图标说明" stroke="none" stroke-width="1" fill="none" fill-rule="evenodd">
        <g id="线型图标（单色）" transform="translate(-298.000000, -5140.000000)">
            <g id="编组-5" transform="translate(131.000000, 4940.000000)">
                <g id="39" transform="translate(167.000000, 200.000000)">
                    <g id="编组"></g>
                    <g id="编组-31" transform="translate(5.000000, 4.000000)" fill="#333333" fill-rule="nonzero">
                        <path d="M17.57,-1.5 C25.4910166,-1.5 32.0247779,2.66353411 34.9812119,9.43378 C35.3127388,10.1929779 34.9660429,11.077185 34.206845,11.4087119 C33.4476471,11.7402388 32.56344,11.3935429 32.2319131,10.634345 C29.7586143,4.9704805 24.3124499,1.5 17.57,1.5 C8.30807251,1.5 1.5,8.31460189 1.5,17.6673437 C1.5,26.968254 8.60428334,34.169375 17.57,34.169375 C21.0539901,34.169375 24.1230225,33.3169508 26.6390916,31.7128417 C27.3376294,31.2674919 28.2649336,31.4727413 28.7102833,32.1712791 C29.1556331,32.8698169 28.9503837,33.7971211 28.2518459,34.2424708 C25.2421902,36.1612639 21.6126294,37.169375 17.57,37.169375 C6.93826932,37.169375 -1.5,28.6160846 -1.5,17.6673437 C-1.5,6.65839108 6.65057414,-1.5 17.57,-1.5 Z" id="Stroke-1"></path>
                        <path d="M17.0232344,7.51075 C12.0419593,7.51075 8.30120313,12.0473442 8.30120313,17.6502812 C8.30120313,23.1964066 12.1406896,27.7898125 17.0232344,27.7898125 C22.241648,27.7898125 25.7441719,23.3949405 25.7441719,17.6502812 C25.7441719,12.0104282 22.0673032,7.51075 17.0232344,7.51075 Z M17.0232344,10.51075 C20.2616877,10.51075 22.7441719,13.5487644 22.7441719,17.6502812 C22.7441719,21.8686023 20.416093,24.7898125 17.0232344,24.7898125 C13.92848,24.7898125 11.3012031,21.646645 11.3012031,17.6502812 C11.3012031,13.5901838 13.8404232,10.51075 17.0232344,10.51075 Z" id="Stroke-3"></path>
                        <path d="M29.6510107,4.41503132 C30.2532599,3.84618391 31.2026213,3.87326143 31.7714687,4.47551065 C32.3617345,5.1004359 33.2042327,6.18552628 34.0414664,7.64766648 C35.517205,10.224888 36.3783462,13.0120601 36.2928521,15.9139585 C36.1049942,22.3033113 33.0328408,26.1428438 28.9299063,26.1428438 C25.6836666,26.1428438 23.5213014,23.8701659 23.4246889,19.9756172 L23.4213125,19.7012813 L23.4213125,9.65461264 C23.4213125,8.82618551 24.0928854,8.15461264 24.9213125,8.15461264 C25.7010086,8.15461264 26.3417612,8.74950072 26.4144459,9.51015263 L26.4213125,9.65461264 L26.4213125,19.7012813 C26.4213125,22.1603107 27.3242587,23.1428438 28.9299063,23.1428438 C31.2220205,23.1428438 33.1498539,20.7334657 33.2941506,15.825702 C33.3614298,13.5420654 32.6603822,11.2730529 31.4380611,9.13839809 C31.0243969,8.41597723 30.5809587,7.76353596 30.1395627,7.19504281 L29.9346158,6.93663225 L29.6964898,6.65282555 L29.5905313,6.53548935 C29.0216839,5.93324012 29.0487614,4.98387873 29.6510107,4.41503132 Z" id="Stroke-5"></path>
                    </g>
                </g>
            </g>
        </g>
    </g>
</svg>