<?xml version="1.0" encoding="UTF-8"?>
<svg width="44px" height="44px" viewBox="0 0 44 44" version="1.1" xmlns="http://www.w3.org/2000/svg" xmlns:xlink="http://www.w3.org/1999/xlink">
    <title>4@2x</title>
    <g id="页面-1" stroke="none" stroke-width="1" fill="none" fill-rule="evenodd">
        <g id="4">
            <g id="编组"></g>
            <path d="M22,5.75 C22.9181734,5.75 23.6711923,6.45711027 23.7441988,7.35647279 L23.75,7.5 L23.75,37.5 C23.75,38.4664983 22.9664983,39.25 22,39.25 C21.0818266,39.25 20.3288077,38.5428897 20.2558012,37.6435272 L20.25,37.5 L20.25,24.25 L7,24.25 C6.03350169,24.25 5.25,23.4664983 5.25,22.5 C5.25,21.5818266 5.95711027,20.8288077 6.85647279,20.7558012 L7,20.75 L20.25,20.75 L20.25,7.5 C20.25,6.53350169 21.0335017,5.75 22,5.75 Z M37.5,20.75 C38.4664983,20.75 39.25,21.5335017 39.25,22.5 C39.25,23.4181734 38.5428897,24.1711923 37.6435272,24.2441988 L37.5,24.25 L28,24.25 C27.0335017,24.25 26.25,23.4664983 26.25,22.5 C26.25,21.5818266 26.9571103,20.8288077 27.8564728,20.7558012 L28,20.75 L37.5,20.75 Z" id="形状结合" fill="#333333" fill-rule="nonzero"></path>
        </g>
    </g>
</svg>