<?xml version="1.0" encoding="UTF-8"?>
<svg width="44px" height="44px" viewBox="0 0 44 44" version="1.1" xmlns="http://www.w3.org/2000/svg" xmlns:xlink="http://www.w3.org/1999/xlink">
    <title>4@2x</title>
    <g id="相关图标说明" stroke="none" stroke-width="1" fill="none" fill-rule="evenodd">
        <g id="线型图标（单色）" transform="translate(-382.000000, -4940.000000)">
            <g id="编组-5" transform="translate(131.000000, 4940.000000)">
                <g id="4" transform="translate(251.000000, 0.000000)">
                    <g id="编组"></g>
                    <path d="M21.75,5.25 C22.6681734,5.25 23.4211923,5.95711027 23.4941988,6.85647279 L23.5,7 L23.5,37 C23.5,37.9664983 22.7164983,38.75 21.75,38.75 C20.8318266,38.75 20.0788077,38.0428897 20.0058012,37.1435272 L20,37 L20,23.75 L6.75,23.75 C5.78350169,23.75 5,22.9664983 5,22 C5,21.0818266 5.70711027,20.3288077 6.60647279,20.2558012 L6.75,20.25 L20,20.25 L20,7 C20,6.03350169 20.7835017,5.25 21.75,5.25 Z M37.25,20.25 C38.2164983,20.25 39,21.0335017 39,22 C39,22.9181734 38.2928897,23.6711923 37.3935272,23.7441988 L37.25,23.75 L27.75,23.75 C26.7835017,23.75 26,22.9664983 26,22 C26,21.0818266 26.7071103,20.3288077 27.6064728,20.2558012 L27.75,20.25 L37.25,20.25 Z" id="形状结合" fill="#333333" fill-rule="nonzero"></path>
                </g>
            </g>
        </g>
    </g>
</svg>