<?xml version="1.0" encoding="UTF-8"?>
<svg width="44px" height="44px" viewBox="0 0 44 44" version="1.1" xmlns="http://www.w3.org/2000/svg" xmlns:xlink="http://www.w3.org/1999/xlink">
    <title>40@2x</title>
    <g id="页面-1" stroke="none" stroke-width="1" fill="none" fill-rule="evenodd">
        <g id="40">
            <line x1="28" y1="25" x2="16" y2="14" id="直线" stroke="#333333" stroke-width="3" stroke-linecap="square"></line>
            <g id="编组"></g>
            <path d="M27.4160453,35.5306577 C25.3556913,37.9426369 21.9585441,38.6864452 19.1717234,37.3219425 C16.4739321,36.0019699 13.6470933,33.4009535 10.7848089,29.5715464 C9.82216795,28.2810655 9.82823288,26.4933385 10.777951,25.2099816 L10.9015788,25.0522614 L10.9901223,24.9447057 L9.94792488,24.8546145 C8.42102858,24.72299 7.21828481,23.5098408 7.04322596,21.9870651 L7.02803988,21.8166328 L7.02152656,21.6438875 L7,19.9293019 C6.98477058,18.3400428 8.08699333,16.9778444 9.59839307,16.6851582 L9.76797423,16.6570816 L14.1748272,16.0476276 C15.8051264,15.824621 17.359734,15.0707643 18.652283,13.8804305 C21.9842925,10.7995531 25.2656474,9.73982279 28.2994232,11.1151274 L28.5449425,11.2292783 L28.9237785,11.4123816 L31.2826949,9.00355862 C32.5881408,7.66556265 34.7096191,7.66556265 36.0186242,9.00306558 C37.2831714,10.2951427 37.3256114,12.357454 36.1461613,13.6972999 L36.0151161,13.8380223 L33.8754971,16.0238298 L33.98442,16.279295 C34.2811072,17.0180525 34.4557495,17.8054953 34.5165751,18.65069 L34.5356989,19.0164786 L34.5411142,19.347689 C34.5411142,22.1497037 33.0007951,27.1869328 30.9866868,30.9323122" id="路径" stroke="#333333" stroke-width="3" stroke-linecap="round" fill-rule="nonzero"></path>
        </g>
    </g>
</svg>