<?xml version="1.0" encoding="UTF-8"?>
<svg width="44px" height="44px" viewBox="0 0 44 44" version="1.1" xmlns="http://www.w3.org/2000/svg" xmlns:xlink="http://www.w3.org/1999/xlink">
    <title>40@2x</title>
    <g id="相关图标说明" stroke="none" stroke-width="1" fill="none" fill-rule="evenodd">
        <g id="线型图标（单色）" transform="translate(-382.000000, -5140.000000)">
            <g id="编组-5" transform="translate(131.000000, 4940.000000)">
                <g id="40" transform="translate(251.000000, 200.000000)">
                    <g id="编组"></g>
                    <g id="编组-71" transform="translate(5.499844, 5.500000)" fill="#333333" fill-rule="nonzero">
                        <polygon id="直线" points="8.38083804 7.59214433 10.4080119 5.38068191 24.6194743 18.4078558 22.5923005 20.6193182"></polygon>
                        <path d="M24.7092118,1.45603835 C26.6029091,-0.484876384 29.6931271,-0.485098565 31.5907997,1.45388759 C33.3437409,3.24499147 33.468212,6.07118912 31.900999,8.03250327 L31.7440501,8.21954414 L31.5871974,8.38729659 L30.1151562,9.89100006 C30.2918754,10.4632834 30.4130044,11.0593946 30.4805632,11.6898861 L30.5146855,12.0723756 L30.5356546,12.4919569 L30.5412704,12.847689 C30.5412704,15.9341423 28.9259908,21.2040687 26.8079373,25.1427415 C26.415578,25.8723618 25.5060339,26.1457658 24.7764137,25.7534066 C24.0467934,25.3610473 23.7733894,24.4515032 24.1657486,23.721883 C26.0040646,20.3034021 27.4425406,15.6962764 27.5365775,13.1302486 L27.5414708,12.8722108 L27.5379009,12.5947931 L27.5206007,12.2583613 C27.4787033,11.6761819 27.3731325,11.1385404 27.2097105,10.6527798 L27.1047617,10.3676079 L26.6028878,9.19052508 L29.4175396,6.31577819 L29.520408,6.20617548 C30.1861673,5.4498782 30.1566762,4.27761411 29.4467611,3.55224369 C28.7663013,2.85696992 27.700284,2.81841752 26.978253,3.43706373 L26.854555,3.55305882 L23.7415568,6.73191748 L22.4127036,6.08945353 L22.1802503,5.98130151 C19.8355932,4.91839576 17.172505,5.70629888 14.1685734,8.4838214 C12.742533,9.79709002 11.0315911,10.6622508 9.22106776,10.9802893 L8.8804729,11.0334857 L4.51314163,11.6369362 L4.38372976,11.6577995 C3.63053958,11.8036565 3.06212225,12.4646249 3.00473067,13.25988 L3.00003799,13.410471 L3.02227674,15.1835053 L3.03356742,15.3157529 C3.1231473,16.094977 3.6987674,16.7099884 4.4292099,16.8406156 L4.57726455,16.8601877 L8.46121449,17.1959299 L6.58228521,19.4776268 L6.48385473,19.6022668 C5.92394208,20.3588784 5.92407888,21.4196346 6.48643502,22.1735096 C9.20780694,25.8143921 11.8666297,28.2687507 14.3314972,29.4747586 C16.4949245,30.534031 19.1538354,29.9550159 20.7756694,28.0563957 C21.3137395,27.4264972 22.2605651,27.3520556 22.8904636,27.8901256 C23.520362,28.4281957 23.5948037,29.3750213 23.0567336,30.0049198 C20.5536283,32.9352113 16.4167765,33.8360688 13.0126402,32.1693116 C10.0620971,30.7256729 7.06634979,27.9602994 4.08263483,23.968431 C3.16264883,22.7351317 2.86678971,21.1808282 3.20002395,19.7304849 L3.22715619,19.6190001 L3.08114011,19.5684212 C1.51960031,18.9793953 0.355928581,17.5720768 0.0792333399,15.8385473 L0.0493014851,15.6201927 L0.0292611691,15.3731498 L0.0218009634,15.1627185 L0,13.4436754 C-0.0211336032,11.2148015 1.47976512,9.27380081 3.6357845,8.75264459 L3.85353805,8.70530371 L4.06264091,8.67122364 L8.47169332,8.06146715 C9.79098741,7.88100254 11.0640138,7.2645338 12.1340956,6.27907859 C15.7566614,2.92954386 19.4456217,1.72966078 22.9134886,3.03959374 L23.0901562,3.10900006 L24.7092118,1.45603835 Z" id="路径"></path>
                    </g>
                </g>
            </g>
        </g>
    </g>
</svg>