<?xml version="1.0" encoding="UTF-8"?>
<svg width="44px" height="44px" viewBox="0 0 44 44" version="1.1" xmlns="http://www.w3.org/2000/svg" xmlns:xlink="http://www.w3.org/1999/xlink">
    <title>41@2x</title>
    <g id="相关图标说明" stroke="none" stroke-width="1" fill="none" fill-rule="evenodd">
        <g id="线型图标（单色）" transform="translate(-466.000000, -5140.000000)">
            <g id="编组-5" transform="translate(131.000000, 4940.000000)">
                <g id="41" transform="translate(335.000000, 200.000000)">
                    <g id="编组"></g>
                    <g id="编组-70" transform="translate(2.500000, 2.500000)" fill="#333333" fill-rule="nonzero">
                        <path d="M19.5,0 C30.2695526,0 39,8.73044738 39,19.5 C39,23.5855196 37.7390543,27.4856432 35.4285265,30.7511996 C34.9500363,31.4274678 34.0139197,31.5877986 33.3376515,31.1093085 C32.6613833,30.6308184 32.5010525,29.6947018 32.9795427,29.0184335 C34.934442,26.2555004 36,22.9597137 36,19.5 C36,10.3873016 28.6126984,3 19.5,3 C10.3873016,3 3,10.3873016 3,19.5 C3,28.6126984 10.3873016,36 19.5,36 C22.3994137,36 25.1865336,35.2525005 27.6493533,33.8506409 C28.3693168,33.4408311 29.285179,33.6922603 29.6949888,34.4122238 C30.1047986,35.1321873 29.8533694,36.0480495 29.1334059,36.4578593 C26.2212639,38.1154773 22.9232405,39 19.5,39 C8.73044738,39 0,30.2695526 0,19.5 C0,8.73044738 8.73044738,0 19.5,0 Z" id="形状结合"></path>
                        <path d="M20.9814513,18.6874521 L29.6781777,18.6874521 C30.500647,18.6874521 31.1689034,19.3557084 31.1689034,20.1781777 C31.1689034,21.000647 30.500647,21.6689034 29.6781777,21.6689034 L19.4907257,21.6689034 C18.6682563,21.6689034 18,21.000647 18,20.1781777 L18,9.99072565 C18,9.16825633 18.6682563,8.5 19.4907257,8.5 C20.313195,8.5 20.9814513,9.16825633 20.9814513,9.99072565 L20.9814513,18.6874521 Z" id="路径"></path>
                    </g>
                </g>
            </g>
        </g>
    </g>
</svg>