<?xml version="1.0" encoding="UTF-8"?>
<svg width="44px" height="44px" viewBox="0 0 44 44" version="1.1" xmlns="http://www.w3.org/2000/svg" xmlns:xlink="http://www.w3.org/1999/xlink">
    <title>41@2x</title>
    <g id="页面-1" stroke="none" stroke-width="1" fill="none" fill-rule="evenodd">
        <g id="41">
            <g id="编组"></g>
            <g id="sousuolishi" transform="translate(4.000000, 5.000000)" fill-rule="nonzero">
                <path d="M29.7174087,28.9108282 C26.6150929,32.2272771 22.1996244,34.3 17.3,34.3 C7.91108434,34.3 0.3,26.6889157 0.3,17.3 C0.3,7.91108434 7.91108434,0.3 17.3,0.3 C26.6889157,0.3 34.3,7.91108434 34.3,17.3 C34.3,18.8786126 34.0848374,20.4069665 33.6822385,21.8573356" id="形状" stroke="#333333" stroke-width="3.5"></path>
                <path d="M17.3373754,17.4121453 L27.0341018,17.4121453 C27.8565711,17.4121453 28.5248275,18.0804016 28.5248275,18.902871 C28.5248275,19.7253403 27.8565711,20.3935966 27.0341018,20.3935966 L15.8466497,20.3935966 C15.0241804,20.3935966 14.3559241,19.7253403 14.3559241,18.902871 L14.3559241,7.7154189 C14.3559241,6.89294958 15.0241804,6.22469325 15.8466497,6.22469325 C16.6691191,6.22469325 17.3373754,6.89294958 17.3373754,7.7154189 L17.3373754,17.4121453 Z" id="路径" fill="#333333"></path>
            </g>
        </g>
    </g>
</svg>