<?xml version="1.0" encoding="UTF-8"?>
<svg width="44px" height="44px" viewBox="0 0 44 44" version="1.1" xmlns="http://www.w3.org/2000/svg" xmlns:xlink="http://www.w3.org/1999/xlink">
    <title>42@2x</title>
    <g id="相关图标说明" stroke="none" stroke-width="1" fill="none" fill-rule="evenodd">
        <g id="线型图标（单色）" transform="translate(-546.000000, -5140.000000)">
            <g id="编组-5" transform="translate(131.000000, 4940.000000)">
                <g id="42" transform="translate(415.000000, 200.000000)">
                    <g id="编组"></g>
                    <g id="zhongdaxiaopiao" transform="translate(5.000000, 5.420000)" fill="#333333" fill-rule="nonzero" stroke="#333333" stroke-width="0.4">
                        <path d="M16.9909819,0 L29.0957755,0 C31.8586034,0 33.9819637,1.91020448 33.9819637,4.88618827 L33.9819637,13.1705729 C33.9819637,15.720245 32.2849151,17.6304495 29.7352431,18.0567612 C29.0998746,18.0567612 28.8867188,18.4830729 28.8867188,19.1184414 L28.8867188,29.9797761 C28.8867188,32.1031364 27.8250386,33.1648166 25.7016782,33.1648166 L24.0046296,33.1648166 C23.1561053,33.1648166 22.7297936,32.5294481 22.9429495,31.8899805 C22.9429495,31.0414562 23.5783179,30.8283004 24.2177855,30.8283004 L24.4309414,30.8283004 C26.5543017,30.8283004 26.5543017,30.8283004 26.5543017,28.70494 L26.5543017,11.2562693 C26.5543017,9.98143326 26.5543017,9.98143326 25.2794657,9.98143326 L8.92385224,9.98143326 C7.6490162,9.98143326 7.6490162,9.98143326 7.6490162,11.0431134 L7.6490162,29.3403085 C7.6490162,30.1888328 7.86217207,30.4019886 8.71069637,30.4019886 L17.4172936,30.4019886 C18.4789738,30.4019886 19.1143422,30.8283004 19.1143422,31.6768247 C19.1143422,32.3121931 18.4789738,32.9516607 17.6263503,32.9516607 L8.07122878,32.9516607 C6.16102431,32.9516607 5.09934414,31.8899805 5.09934414,29.9797761 L5.09934414,19.1143422 C5.09934414,18.2658179 4.88618827,17.8395062 4.03766397,17.8395062 C1.91020448,17.6263503 0,15.7161458 0,13.5927855 L0,4.45987654 C0,1.91020448 2.12336034,0 4.45987654,0 L16.9909819,0 Z M16.9909819,2.54967207 L4.45987654,2.54967207 C3.39819637,2.54967207 2.54967207,3.18504051 2.54967207,4.24672068 L2.54967207,13.5927855 C2.54967207,14.4413098 3.39819637,15.2898341 4.45987654,15.2898341 C5.09524498,15.2898341 5.30840085,15.0766782 5.30840085,14.4413098 L5.30840085,10.407745 C5.30840085,9.77237654 5.30840085,9.55922068 4.67303241,9.34606481 C3.8245081,9.55922068 3.61135224,8.91975309 3.61135224,8.28438465 C3.8245081,7.6490162 4.24672068,7.43586034 4.88618827,7.43586034 L28.8867188,7.43586034 C29.5220872,7.43586034 29.9483989,7.6490162 30.1615548,8.28438465 C30.3747106,8.91975309 30.1615548,9.34606481 29.5261863,9.77237654 C28.8908179,9.98553241 28.8908179,10.407745 28.8908179,10.8340567 L28.8908179,14.6585648 C28.8908179,15.5070891 29.1039738,15.720245 29.9524981,15.5070891 C31.0141782,15.2939333 31.44049,14.445409 31.44049,13.1705729 L31.44049,5.52155671 C31.44049,3.61135224 30.5919657,2.75872878 28.677662,2.75872878 C24.8490548,2.54967207 20.81549,2.54967207 16.9909819,2.54967207 Z" id="形状"></path>
                        <path d="M11.4917842,15.2220118 L22.2725519,15.2220118 C22.9284161,15.2220118 23.4613058,15.7549014 23.4613058,16.4107656 C23.4613058,17.0666298 22.9284161,17.5995195 22.2725519,17.5995195 L11.4917842,17.5995195 C10.83592,17.5995195 10.3030303,17.0666298 10.3030303,16.4107656 C10.3030303,15.7549014 10.83592,15.2220118 11.4917842,15.2220118 Z M11.4917842,21.5812114 L22.2725519,21.5812114 C22.9284161,21.5812114 23.4613058,22.1141011 23.4613058,22.7699653 C23.4613058,23.4258295 22.9284161,23.9587191 22.2725519,23.9587191 L11.4917842,23.9587191 C10.83592,23.9587191 10.3030303,23.4258295 10.3030303,22.7699653 C10.3030303,22.1141011 10.83592,21.5812114 11.4917842,21.5812114 Z" id="形状"></path>
                    </g>
                </g>
            </g>
        </g>
    </g>
</svg>