<?xml version="1.0" encoding="UTF-8"?>
<svg width="44px" height="44px" viewBox="0 0 44 44" version="1.1" xmlns="http://www.w3.org/2000/svg" xmlns:xlink="http://www.w3.org/1999/xlink">
    <title>43@2x</title>
    <g id="相关图标说明" stroke="none" stroke-width="1" fill="none" fill-rule="evenodd">
        <g id="线型图标（单色）" transform="translate(-630.000000, -5140.000000)">
            <g id="编组-5" transform="translate(131.000000, 4940.000000)">
                <g id="43" transform="translate(499.000000, 200.000000)">
                    <g id="编组"></g>
                    <g id="编组-69" transform="translate(6.650000, 5.650000)" fill="#333333" fill-rule="nonzero">
                        <path d="M10.6923934,0 C13.3476137,0 15.5259534,2.08409605 15.7568871,4.77192982 L15.7715922,4.99728178 L15.7759943,5.20927026 L15.7754936,8.5692185 L15.9391958,8.57450495 C16.6650821,8.61420971 17.3679578,8.81213299 18.0153704,9.15866693 L18.1504936,9.2352185 L18.2805178,9.16148345 C18.7564519,8.9067516 19.2748682,8.72896525 19.8253747,8.63578067 L20.1032541,8.59627397 L20.3997101,8.57315903 L20.6395531,8.56705093 C21.4620765,8.56705093 22.2606111,8.76881625 22.9889503,9.15866693 L23.1234936,9.2352185 L23.2540977,9.16148345 C23.7300318,8.9067516 24.2484481,8.72896525 24.7989546,8.63578067 L25.0768339,8.59627397 L25.37329,8.57315903 L25.613133,8.56705093 C28.2696781,8.56705093 30.446891,10.652411 30.6776445,13.342043 L30.6923368,13.567546 L30.696734,13.7795543 L30.696734,26.7573314 C30.696734,29.8624186 28.3658524,32.4393468 25.3377,32.682289 L25.1149072,32.6958737 L24.9317691,32.700006 C24.1863478,32.7152981 23.5694235,32.1236556 23.5538301,31.3782343 C23.539154,30.6766613 24.0623754,30.0889126 24.7454442,30.009193 L24.8753006,30.0002953 L25.0301394,29.9973532 C26.6153503,29.9309116 27.9018476,28.6078395 27.9917184,26.943604 L27.996734,26.7573314 L27.9970704,13.8096892 L27.9940229,13.6580342 C27.9363353,12.3689501 26.9641812,11.3547248 25.8028825,11.2719914 L25.6503957,11.2665366 L25.5256911,11.2677258 L25.3476296,11.2823513 C24.9597628,11.3273732 24.5918881,11.4712281 24.2837689,11.6912198 L24.1348731,11.8074553 L23.120486,12.7084485 L22.2233905,11.9023531 L22.167729,11.8496741 L22.0296053,11.7377549 C21.6757778,11.469304 21.262792,11.3102595 20.8523727,11.2743483 L20.6768158,11.2665366 L20.5521112,11.2677258 L20.3740497,11.2823513 C19.9861829,11.3273732 19.6183082,11.4712281 19.3119024,11.6896939 L19.1640139,11.8050322 L18.1524189,12.708441 L17.253153,11.9048012 L17.1941491,11.8496741 L17.0560255,11.7377549 C16.7021979,11.469304 16.2892121,11.3102595 15.8834811,11.2742067 L15.7102342,11.2663252 L15.5603552,11.2683303 L15.3684846,11.2865525 C15.2707844,11.2994536 15.1740346,11.3187342 15.0877303,11.3410842 L14.967295,11.3764975 L13.0756348,12.0686217 L13.0763319,5.23938603 L13.0732841,5.08792451 C13.0156037,3.80120023 12.0428796,2.78762098 10.8776612,2.70505085 L10.7246439,2.69961472 L10.6142861,2.70066072 L10.4684824,2.71083046 C9.31163687,2.82349235 8.39191367,3.81056982 8.31412459,5.0401468 L8.30879239,5.20926014 L8.30817183,19.0217955 L6.24799521,17.7886315 L6.11243708,17.714899 C5.27058102,17.2879915 4.25871302,17.4226292 3.56102989,18.0405116 L3.43401437,18.1620085 L3.34374346,18.2576156 L3.23836911,18.384399 C2.4957368,19.3320515 2.52190985,20.7099142 3.2833246,21.6295778 L3.40965312,21.7708506 L8.28130969,26.806433 L8.35654711,27.3202317 C8.60401456,28.807916 9.80552632,29.9089209 11.226479,29.994621 L11.4051879,30 L19.2715512,30 C20.0171356,30 20.6215512,30.6044156 20.6215512,31.35 C20.6215512,32.0517265 20.086152,32.6284038 19.4015652,32.6938201 L19.2715512,32.700006 L11.4051879,32.700006 C8.72687019,32.700006 6.43324771,30.8253712 5.78604677,28.2074483 L5.75649357,28.0792185 L1.46804317,23.6470564 C-0.29773537,21.8175824 -0.48621445,18.9588646 0.98737947,16.889409 L1.13517675,16.691664 L1.30873568,16.4845395 L1.46935476,16.310287 C2.51264897,15.2318963 3.93013104,14.7020436 5.34999792,14.7797983 L5.60749357,14.8002185 L5.60879239,5.20919949 C5.60879239,2.60309062 7.48746549,0.40631701 10.0152283,0.0475751378 L10.2399194,0.0207277716 L10.4843262,0.00458660686 L10.6923934,0 Z" id="路径"></path>
                        <path d="M6.95253349,15 C7.65425999,15 8.2309373,15.5353993 8.29635356,16.219986 L8.30253349,16.35 L8.30253349,27.1873364 C8.30253349,27.9329208 7.6981179,28.5373364 6.95253349,28.5373364 C6.25080698,28.5373364 5.67412967,28.0019371 5.60871341,27.3173504 L5.60253349,27.1873364 L5.60253349,16.35 C5.60253349,15.6044156 6.20694907,15 6.95253349,15 Z" id="直线-5"></path>
                    </g>
                </g>
            </g>
        </g>
    </g>
</svg>