<?xml version="1.0" encoding="UTF-8"?>
<svg width="44px" height="44px" viewBox="0 0 44 44" version="1.1" xmlns="http://www.w3.org/2000/svg" xmlns:xlink="http://www.w3.org/1999/xlink">
    <title>43@2x</title>
    <g id="页面-1" stroke="none" stroke-width="1" fill="none" fill-rule="evenodd">
        <g id="43">
            <g id="编组-22" transform="translate(8.000000, 6.000000)" stroke="#333333" stroke-linecap="round" stroke-width="2.7">
                <g id="shoudongshuru-8" fill-rule="nonzero">
                    <path d="M18.2430577,30.9257815 C16.0220211,30.9257815 14.8187675,30.9257815 10.3766943,30.9257815 C8.19822402,30.9257815 6.35906669,29.2980417 5.99635214,27.1175338 L5.98033205,27.0084878 L1.41090342,22.2853029 C0.0479792121,20.8732151 -0.0399513822,18.6424726 1.14728346,17.1274752 L1.27464961,16.9733675 L1.4111133,16.8247436 C2.56082224,15.6363583 4.29290772,15.3758858 5.6945137,16.0866439 L5.86106169,16.1765996 L5.92978518,16.2176857 L5.93029882,4.78498099 C5.93029882,2.7775654 7.41293414,1.12763428 9.30913526,0.942968656 L9.48808311,0.929982831 L9.6638998,0.9257815 C11.6666737,0.9257815 13.3016442,2.55557128 13.3934362,4.60324982 L13.3975008,4.78498099 L13.3972424,9.71290097 L13.4749349,9.68447471 C13.6985907,9.60876927 13.9287449,9.55491914 14.1632617,9.5239519 L14.3991537,9.50065035 L14.6374797,9.49283243 C15.4459256,9.49283243 16.2122641,9.75911637 16.8435113,10.2380469 L17.0122504,10.3738963 L17.1242315,10.4739695 L17.2362888,10.3738963 C17.7909741,9.90047198 18.4659562,9.60116879 19.1898989,9.51713656 L19.4084792,9.49842617 L19.6110596,9.49283243 C20.4195055,9.49283243 21.185844,9.75911637 21.8170912,10.2380469 L21.9858303,10.3738963 L22.0972008,10.4739695 L22.2098687,10.3738963 C22.764554,9.90047198 23.4395361,9.60116879 24.1634788,9.51713656 L24.3820591,9.49842617 L24.5846394,9.49283243 C26.588958,9.49283243 28.2224721,11.124173 28.3141796,13.1734624 L28.3182404,13.3553358 L28.3182404,26.3331129 C28.3182404,28.8060163 26.4270358,30.8226637 24.0581793,30.9219505 L23.8750413,30.9257815" id="路径"></path>
                </g>
                <line x1="5.92403992" y1="15.9257815" x2="5.92403992" y2="26.7631179" id="直线-5"></line>
            </g>
            <g id="编组"></g>
        </g>
    </g>
</svg>