<?xml version="1.0" encoding="UTF-8"?>
<svg width="44px" height="44px" viewBox="0 0 44 44" version="1.1" xmlns="http://www.w3.org/2000/svg" xmlns:xlink="http://www.w3.org/1999/xlink">
    <title>44@2x</title>
    <g id="页面-1" stroke="none" stroke-width="1" fill="none" fill-rule="evenodd">
        <g id="44">
            <g id="编组"></g>
            <g id="编组-23" transform="translate(7.000000, 5.000000)">
                <g id="biaoweiyidu-copy" stroke="#333333">
                    <path d="M30.4772949,26.9266799 C30.4772949,29.0936573 28.716351,30.862407 26.5044208,30.9645766 L26.3021303,30.9692383 L4.6524595,30.9692383 C2.41439978,30.9692383 0.587630533,29.2642232 0.482109556,27.1225455 L0.477294922,26.9266799 L0.477294922,13.1460296 C0.477294922,12.2313392 1.07698708,11.4246339 1.95774034,11.1277616 L2.11602012,11.0807465 L4.41298341,10.4878155 L4.41359875,5.26524707 C4.41359875,3.03303269 6.06865853,1.19421808 8.19153297,0.988395157 L8.39188677,0.973921242 L8.58876331,0.969238281 L22.3658265,0.969238281 C24.6099627,0.969238281 26.4340549,2.78721362 26.5364568,5.0641383 L26.5409911,5.26619988 L26.5400874,10.4859653 L28.838588,11.0807512 C29.6975993,11.3023955 30.3242602,11.9965992 30.4529131,12.8283359 L30.4711346,12.9858164 L30.4772949,13.1460296 C30.4772949,16.3948084 30.4711346,20.5730444 30.4711346,22.1974338" id="路径" stroke-width="2.5" stroke-linecap="round" fill-rule="nonzero"></path>
                    <line x1="4.5" y1="8.5" x2="4.5" y2="15.5" id="直线-6" stroke-width="2.4" stroke-linecap="square"></line>
                    <line x1="26.5" y1="8.5" x2="26.5" y2="15.5" id="直线-7" stroke-width="2.4" stroke-linecap="square"></line>
                </g>
                <path d="M0.790684046,14 L13.6850681,22.4146529 C14.6835961,23.0662751 15.973232,23.0647169 16.9701825,22.4106836 L29.790684,14 L29.790684,14" id="路径-2备份" stroke="#333333" stroke-width="2.6" stroke-linecap="round"></path>
                <path d="M19.355268,7.35930271 C19.8575005,6.87423009 20.6558244,6.8811672 21.1495515,7.37489431 C21.6103635,7.83570628 21.6471273,8.56185592 21.2531231,9.06748079 L21.1620978,9.17227654 L16.0637282,14.2706461 C15.5972226,14.7370108 14.8603303,14.7681018 14.3577515,14.3638974 L14.2538264,14.2706194 L11.3399837,11.3567767 C10.8402203,10.8566598 10.8405068,10.0460967 11.3406237,9.54633325 C11.8073994,9.07988738 12.5446084,9.04904057 13.0471376,9.45359737 L13.1510463,9.54695238 L15.1572291,11.5535852 L19.355268,7.35930271 Z" id="路径备份" fill="#333333" fill-rule="nonzero"></path>
            </g>
        </g>
    </g>
</svg>