<?xml version="1.0" encoding="UTF-8"?>
<svg width="44px" height="44px" viewBox="0 0 44 44" version="1.1" xmlns="http://www.w3.org/2000/svg" xmlns:xlink="http://www.w3.org/1999/xlink">
    <title>44@2x</title>
    <g id="相关图标说明" stroke="none" stroke-width="1" fill="none" fill-rule="evenodd">
        <g id="线型图标（单色）" transform="translate(-714.000000, -5140.000000)">
            <g id="编组-5" transform="translate(131.000000, 4940.000000)">
                <g id="44" transform="translate(583.000000, 200.000000)">
                    <g id="编组"></g>
                    <g id="编组-68" transform="translate(5.750000, 5.750000)" fill="#333333" fill-rule="nonzero">
                        <path d="M23.1385316,0 C25.9757399,0 28.3032516,2.22397811 28.5441896,5.0893404 L28.5588473,5.31685689 L28.5636962,5.54717801 L28.562,9.799 L29.923593,10.151154 C31.1896773,10.4778323 32.1537076,11.4756014 32.4295543,12.7602549 L32.4673337,12.965423 L32.4929167,13.2185502 L32.5,13.4267913 L32.4938397,22.4781956 C32.4938397,23.1685515 31.9341956,23.7281956 31.2438397,23.7281956 C30.596631,23.7281956 30.0643058,23.2363209 30.0002933,22.6060008 L29.9938397,22.4781956 L30.000923,13.4748193 L30.0021241,13.4102528 L29.9903087,13.3001751 C29.9433352,12.9964932 29.7272586,12.7329996 29.4182355,12.6106993 L29.2981437,12.5716524 L26.062625,11.734393 L26.0640108,5.57500473 L26.0604241,5.40106048 C25.9899472,3.8339928 24.7898692,2.59483477 23.3104278,2.5051949 L23.1385316,2.5 L9.39119283,2.49964653 L9.25465935,2.50143388 L9.08486594,2.51332283 C7.65393468,2.65205852 6.52604975,3.86505043 6.44140612,5.36485341 L6.43630382,5.54615607 L6.43557441,11.7369106 L3.2446522,12.5597636 L3.12970761,12.5930442 C2.78618204,12.7088351 2.55093933,12.9932372 2.50732605,13.31743 L2.5,13.4267913 L2.49962252,27.1767242 L2.50330017,27.341794 C2.57320517,28.7606019 3.75704121,29.9085939 5.24517919,29.9948022 L5.42516457,30 L27.0460372,30.0003318 L27.2194496,29.9966696 C28.7206861,29.9273272 29.9057045,28.7830634 29.994639,27.3773323 L30,27.2074416 C30,26.5170857 30.5596441,25.9574416 31.25,25.9574416 C31.9403559,25.9574416 32.5,26.5170857 32.5,27.2074416 C32.5,29.9698158 30.3312556,32.2388007 27.5340697,32.4799296 L27.3059241,32.4950065 L27.0748354,32.5 L5.42516457,32.5 C2.61175596,32.5 0.271541007,30.4021331 0.0209031335,27.6579164 L0.00519211335,27.4340246 L0,27.2074416 L0,13.4267913 C0,12.0365924 0.863525249,10.8034208 2.19070327,10.2775428 L2.37451842,10.2102679 L2.57629551,10.1511828 L3.935,9.8 L3.93630383,5.54600879 C3.93630383,2.76523257 5.94912036,0.424343295 8.64772757,0.0490939445 L8.87417055,0.0224059599 L9.1348674,0.00503642776 L9.36146838,0 L23.1385316,0 Z" id="路径"></path>
                        <polygon id="直线-6" points="6.47270508 7.58076172 6.47270508 16.9807617 4.07270508 16.9807617 4.07270508 7.58076172"></polygon>
                        <polygon id="直线-7" points="28.4727051 7.58076172 28.4727051 16.9807617 26.0727051 16.9807617 26.0727051 7.58076172"></polygon>
                        <path d="M29.8502999,13.1937917 C30.4506169,12.7999634 31.2565309,12.9673556 31.6503591,13.5676725 C32.0195732,14.1304697 31.895527,14.8739673 31.3839331,15.2892106 L31.2764783,15.3677317 L18.4559767,23.7784154 C17.0919673,24.6732518 15.345713,24.7159612 13.9449873,23.9056643 L13.7473128,23.7841047 L0.852928742,15.3694518 C0.251661825,14.9770753 0.0823226302,14.1715683 0.474699065,13.5703013 C0.842551972,13.0066136 1.57350799,12.8225498 2.15886925,13.125052 L2.27384951,13.1920717 L15.1682336,21.6067246 C15.6905405,21.9475731 16.3534061,21.9730399 16.8966343,21.6834392 L17.0297984,21.6044753 L29.8502999,13.1937917 Z" id="路径-2备份"></path>
                        <path d="M20.127973,7.64006443 C20.6302055,7.15499181 21.4285295,7.16192892 21.9222566,7.65565603 C22.3830685,8.116468 22.4198323,8.84261764 22.0258282,9.34824251 L21.9348029,9.45303826 L16.8364333,14.5514078 C16.3699277,15.0177726 15.6330354,15.0488635 15.1304566,14.6446591 L15.0265315,14.5513811 L12.1126888,11.6375384 C11.6129253,11.1374215 11.6132119,10.3268584 12.1133287,9.82709497 C12.5801045,9.3606491 13.3173134,9.32980229 13.8198427,9.73435909 L13.9237514,9.8277141 L15.9299341,11.8343469 L20.127973,7.64006443 Z" id="路径备份"></path>
                    </g>
                </g>
            </g>
        </g>
    </g>
</svg>