<?xml version="1.0" encoding="UTF-8"?>
<svg width="44px" height="44px" viewBox="0 0 44 44" version="1.1" xmlns="http://www.w3.org/2000/svg" xmlns:xlink="http://www.w3.org/1999/xlink">
    <title>45@2x</title>
    <g id="相关图标说明" stroke="none" stroke-width="1" fill="none" fill-rule="evenodd">
        <g id="线型图标（单色）" transform="translate(-798.000000, -5140.000000)">
            <g id="编组-5" transform="translate(131.000000, 4940.000000)">
                <g id="45" transform="translate(667.000000, 200.000000)">
                    <g id="编组"></g>
                    <g id="编组-26" transform="translate(2.500000, 2.500000)" fill="#333333" fill-rule="nonzero">
                        <path d="M19.5,0 C30.2695526,0 39,8.73044738 39,19.5 C39,23.5855196 37.7390543,27.4856432 35.4285265,30.7511996 C34.9500363,31.4274678 34.0139197,31.5877986 33.3376515,31.1093085 C32.6613833,30.6308184 32.5010525,29.6947018 32.9795427,29.0184335 C34.934442,26.2555004 36,22.9597137 36,19.5 C36,10.3873016 28.6126984,3 19.5,3 C10.3873016,3 3,10.3873016 3,19.5 C3,28.6126984 10.3873016,36 19.5,36 C22.3994137,36 25.1865336,35.2525005 27.6493533,33.8506409 C28.3693168,33.4408311 29.285179,33.6922603 29.6949888,34.4122238 C30.1047986,35.1321873 29.8533694,36.0480495 29.1334059,36.4578593 C26.2212639,38.1154773 22.9232405,39 19.5,39 C8.73044738,39 0,30.2695526 0,19.5 C0,8.73044738 8.73044738,0 19.5,0 Z" id="形状结合"></path>
                        <path d="M25.1440062,23.4096493 C25.4981929,22.6607546 26.392417,22.3407805 27.1413118,22.6949672 C27.8902065,23.0491539 28.2101805,23.9433781 27.8559938,24.6922728 C27.6077979,25.2170599 27.2950073,25.7149202 26.924359,26.1781213 C25.2383922,28.2850828 22.4690622,29.550961 19.4724597,29.550961 C16.4474507,29.550961 13.6548466,28.260817 11.9746173,26.1201507 C11.6573675,25.7159643 11.3838073,25.2859099 11.1583614,24.8350217 C10.7878751,24.0940551 11.0882087,23.1930446 11.8291753,22.8225584 C12.5701418,22.4520721 13.4711524,22.7524057 13.8416386,23.4933723 C13.9758411,23.761775 14.1407538,24.0210285 14.3344946,24.2678605 C15.4318836,25.6659694 17.3475078,26.550961 19.4724597,26.550961 C21.578159,26.550961 23.4790974,25.6820301 24.5819682,24.3037667 C24.7518236,24.0914975 24.9002023,23.8698483 25.0259057,23.6409226 L25.1440062,23.4096493 Z" id="Stroke-1" transform="translate(19.500012, 26.050785) scale(1, -1) translate(-19.500012, -26.050785) "></path>
                        <path d="M24.0245838,12.5 C25.0789456,12.5 25.942749,13.3158778 26.0190981,14.3507377 L26.0245838,14.5 L26.0245838,16.9627695 C26.0245838,18.067339 25.1291533,18.9627695 24.0245838,18.9627695 C22.9702221,18.9627695 22.1064187,18.1468918 22.0300696,17.1120319 L22.0245838,16.9627695 L22.0245838,14.5 C22.0245838,13.3954305 22.9200143,12.5 24.0245838,12.5 Z M14.5,12.5 C15.5543618,12.5 16.4181651,13.3158778 16.4945143,14.3507377 L16.5,14.5 L16.5,16.9627695 C16.5,18.067339 15.6045695,18.9627695 14.5,18.9627695 C13.4456382,18.9627695 12.5818349,18.1468918 12.5054857,17.1120319 L12.5,16.9627695 L12.5,14.5 C12.5,13.3954305 13.3954305,12.5 14.5,12.5 Z" id="形状结合"></path>
                    </g>
                </g>
            </g>
        </g>
    </g>
</svg>