<?xml version="1.0" encoding="UTF-8"?>
<svg width="44px" height="44px" viewBox="0 0 44 44" version="1.1" xmlns="http://www.w3.org/2000/svg" xmlns:xlink="http://www.w3.org/1999/xlink">
    <title>46@2x</title>
    <g id="页面-1" stroke="none" stroke-width="1" fill="none" fill-rule="evenodd">
        <g id="46">
            <g id="编组"></g>
            <g id="编组-27" transform="translate(4.000000, 4.000000)">
                <path d="M17.9118098,27.6123467 C15.7837423,27.6123467 14.1828988,25.6088958 14.1828988,23.2603529 C14.1828988,20.9118099 15.7837423,18.908359 17.9118098,18.908359 C20.0398773,18.908359 21.6407209,20.9118099 21.6407209,23.2603529 C21.6407209,25.6088958 20.0398773,27.6123467 17.9118098,27.6123467 Z M17.9118098,25.1248084 C18.5300997,25.1248084 19.1531825,24.3435584 19.1531825,23.2603529 C19.1531825,22.1771473 18.5300997,21.3958973 17.9118098,21.3958973 C17.2935199,21.3958973 16.6704371,22.1771473 16.6704371,23.2603529 C16.6704371,24.3435584 17.2935199,25.1248084 17.9118098,25.1248084 L17.9118098,25.1248084 Z" id="形状" fill="#333333" fill-rule="nonzero"></path>
                <path d="M26.8913796,33.6542501 C24.2685122,35.1472103 21.233846,36 18,36 C8.0588745,36 0,27.9411255 0,18 C0,8.0588745 8.0588745,0 18,0 C27.9411255,0 36,8.0588745 36,18 C36,21.86779 34.7800864,25.450654 32.7040346,28.3848166" id="形状结合备份" stroke="#333333" stroke-width="3" stroke-linecap="round"></path>
                <path d="M23.0245838,13 L23.0245838,15.4627695 M13.5,13 L13.5,15.4627695" id="形状结合" stroke="#333333" stroke-width="4" stroke-linecap="round" stroke-linejoin="round"></path>
            </g>
        </g>
    </g>
</svg>