<?xml version="1.0" encoding="UTF-8"?>
<svg width="44px" height="44px" viewBox="0 0 44 44" version="1.1" xmlns="http://www.w3.org/2000/svg" xmlns:xlink="http://www.w3.org/1999/xlink">
    <title>46@2x</title>
    <g id="相关图标说明" stroke="none" stroke-width="1" fill="none" fill-rule="evenodd">
        <g id="线型图标（单色）" transform="translate(-882.000000, -5140.000000)">
            <g id="编组-5" transform="translate(131.000000, 4940.000000)">
                <g id="46" transform="translate(751.000000, 200.000000)">
                    <g id="编组"></g>
                    <g id="编组-27" transform="translate(4.000000, 4.000000)" fill="#333333" fill-rule="nonzero">
                        <path d="M17.9118098,27.6123467 C15.7837423,27.6123467 14.1828988,25.6088958 14.1828988,23.2603529 C14.1828988,20.9118099 15.7837423,18.908359 17.9118098,18.908359 C20.0398773,18.908359 21.6407209,20.9118099 21.6407209,23.2603529 C21.6407209,25.6088958 20.0398773,27.6123467 17.9118098,27.6123467 Z M17.9118098,25.1248084 C18.5300997,25.1248084 19.1531825,24.3435584 19.1531825,23.2603529 C19.1531825,22.1771473 18.5300997,21.3958973 17.9118098,21.3958973 C17.2935199,21.3958973 16.6704371,22.1771473 16.6704371,23.2603529 C16.6704371,24.3435584 17.2935199,25.1248084 17.9118098,25.1248084 L17.9118098,25.1248084 Z" id="形状"></path>
                        <path d="M18,-1.5 C28.7695526,-1.5 37.5,7.23044738 37.5,18 C37.5,22.0855196 36.2390543,25.9856432 33.9285265,29.2511996 C33.4500363,29.9274678 32.5139197,30.0877986 31.8376515,29.6093085 C31.1613833,29.1308184 31.0010525,28.1947018 31.4795427,27.5184335 C33.434442,24.7555004 34.5,21.4597137 34.5,18 C34.5,8.88730163 27.1126984,1.5 18,1.5 C8.88730163,1.5 1.5,8.88730163 1.5,18 C1.5,27.1126984 8.88730163,34.5 18,34.5 C20.8994137,34.5 23.6865336,33.7525005 26.1493533,32.3506409 C26.8693168,31.9408311 27.785179,32.1922603 28.1949888,32.9122238 C28.6047986,33.6321873 28.3533694,34.5480495 27.6334059,34.9578593 C24.7212639,36.6154773 21.4232405,37.5 18,37.5 C7.23044738,37.5 -1.5,28.7695526 -1.5,18 C-1.5,7.23044738 7.23044738,-1.5 18,-1.5 Z" id="形状结合备份"></path>
                        <path d="M23.0245838,11 C24.0789456,11 24.942749,11.8158778 25.0190981,12.8507377 L25.0245838,13 L25.0245838,15.4627695 C25.0245838,16.567339 24.1291533,17.4627695 23.0245838,17.4627695 C21.9702221,17.4627695 21.1064187,16.6468918 21.0300696,15.6120319 L21.0245838,15.4627695 L21.0245838,13 C21.0245838,11.8954305 21.9200143,11 23.0245838,11 Z M13.5,11 C14.5543618,11 15.4181651,11.8158778 15.4945143,12.8507377 L15.5,13 L15.5,15.4627695 C15.5,16.567339 14.6045695,17.4627695 13.5,17.4627695 C12.4456382,17.4627695 11.5818349,16.6468918 11.5054857,15.6120319 L11.5,15.4627695 L11.5,13 C11.5,11.8954305 12.3954305,11 13.5,11 Z" id="形状结合"></path>
                    </g>
                </g>
            </g>
        </g>
    </g>
</svg>