<?xml version="1.0" encoding="UTF-8"?>
<svg width="44px" height="44px" viewBox="0 0 44 44" version="1.1" xmlns="http://www.w3.org/2000/svg" xmlns:xlink="http://www.w3.org/1999/xlink">
    <title>47@2x</title>
    <g id="相关图标说明" stroke="none" stroke-width="1" fill="none" fill-rule="evenodd">
        <g id="线型图标（单色）" transform="translate(-966.000000, -5140.000000)">
            <g id="编组-5" transform="translate(131.000000, 4940.000000)">
                <g id="47" transform="translate(835.000000, 200.000000)">
                    <g id="编组"></g>
                    <g id="编组-6" transform="translate(5.000000, 7.000000)" fill="#333333" fill-rule="nonzero">
                        <g id="编组-67" transform="translate(-1.500000, -1.500000)">
                            <path d="M10.9535564,14.8282975 C12.3160949,14.8282975 13.417964,15.9301666 13.417964,17.2927051 C13.417964,18.6539422 12.3133245,19.7571127 10.9535564,19.7571127 C9.59378828,19.7571127 8.48914877,18.6539422 8.48914877,17.2927051 C8.48914877,15.9301666 9.59101782,14.8282975 10.9535564,14.8282975 Z M19.4071127,14.8282975 C20.7696513,14.8282975 21.8715203,15.9301666 21.8715203,17.2927051 C21.8715203,18.6539422 20.7668808,19.7571127 19.4071127,19.7571127 C18.0473446,19.7571127 16.9427051,18.6539422 16.9427051,17.2927051 C16.9427051,15.9301666 18.0445742,14.8282975 19.4071127,14.8282975 Z M27.8606691,14.8282975 C29.2232076,14.8282975 30.3250767,15.9301666 30.3250767,17.2927051 C30.3250767,18.6539422 29.2204372,19.7571127 27.8606691,19.7571127 C26.500901,19.7571127 25.3962615,18.6539422 25.3962615,17.2927051 C25.3962615,15.9301666 26.4981306,14.8282975 27.8606691,14.8282975 Z" id="形状"></path>
                            <path d="M1.5,20.6896552 C2.27969612,20.6896552 2.92044868,21.2845433 2.99313342,22.0451952 L3,22.1896552 L3,26.8142315 C3,28.5057937 4.36634876,29.9007394 6.10260518,29.9949311 L6.29000273,30 L23.1363636,30 C23.9647908,30 24.6363636,30.6715729 24.6363636,31.5 C24.6363636,32.2796961 24.0414756,32.9204487 23.2808236,32.9931334 L23.1363636,33 L6.29000273,33 C2.90046167,33 0.125803233,30.3594044 0.00415892806,27.0414801 L0,26.8142315 L0,22.1896552 C0,21.361228 0.671572875,20.6896552 1.5,20.6896552 Z M35.5,19.6551724 C36.2796961,19.6551724 36.9204487,20.2500605 36.9931334,21.0107124 L37,21.1551724 L37,26.6630131 C37,30.0880738 34.2752182,32.8763893 30.8714445,32.9960018 L30.6435428,33 L29.3181818,33 C28.4897547,33 27.8181818,32.3284271 27.8181818,31.5 C27.8181818,30.7203039 28.4130699,30.0795513 29.1737218,30.0068666 L29.3181818,30 L30.6435428,30 C32.4367733,30 33.8995143,28.6026581 33.9950379,26.8459779 L34,26.6630131 L34,21.1551724 C34,20.3267453 34.6715729,19.6551724 35.5,19.6551724 Z M30.6269451,0 C34.0549768,0 36.8722573,2.62808901 36.9957769,5.94494945 L37,6.17214357 L37,10.2292236 C37,11.0576507 36.3284271,11.7292236 35.5,11.7292236 C34.7203039,11.7292236 34.0795513,11.1343355 34.0068666,10.3736836 L34,10.2292236 L34,6.17214357 C34,4.49458748 32.60505,3.09930313 30.8196827,3.00507134 L30.6269451,3 L6.37305487,3 C4.5610819,3 3.10365005,4.33743759 3.00529206,5.99353194 L3,6.17214357 L3,10.8103448 C3,11.638772 2.32842712,12.3103448 1.5,12.3103448 C0.720303883,12.3103448 0.0795513218,11.7154567 0.00686657806,10.9548048 L0,10.8103448 L0,6.17214357 C0,2.82497706 2.74110198,0.122506564 6.14029631,0.00404968577 L6.37305487,0 L30.6269451,0 Z" id="形状"></path>
                        </g>
                    </g>
                </g>
            </g>
        </g>
    </g>
</svg>