<?xml version="1.0" encoding="UTF-8"?>
<svg width="44px" height="44px" viewBox="0 0 44 44" version="1.1" xmlns="http://www.w3.org/2000/svg" xmlns:xlink="http://www.w3.org/1999/xlink">
    <title>47@2x</title>
    <g id="页面-1" stroke="none" stroke-width="1" fill="none" fill-rule="evenodd">
        <g id="47">
            <g id="编组"></g>
            <g id="编组-6" transform="translate(5.000000, 7.000000)">
                <g id="yanzhengma-2" transform="translate(6.000000, 13.000000)" fill="#333333" fill-rule="nonzero">
                    <path d="M3.45355637,0.328297546 C4.81609491,0.328297546 5.91796396,1.4301666 5.91796396,2.79270514 C5.91796396,4.15394216 4.81332445,5.25711273 3.45355637,5.25711273 C2.09378828,5.25711273 0.989148773,4.15394216 0.989148773,2.79270514 C0.989148773,1.4301666 2.09101782,0.328297546 3.45355637,0.328297546 Z M11.9071127,0.328297546 C13.2696513,0.328297546 14.3715203,1.4301666 14.3715203,2.79270514 C14.3715203,4.15394216 13.2668808,5.25711273 11.9071127,5.25711273 C10.5473446,5.25711273 9.44270514,4.15394216 9.44270514,2.79270514 C9.44270514,1.4301666 10.5445742,0.328297546 11.9071127,0.328297546 Z M20.3606691,0.328297546 C21.7232076,0.328297546 22.8250767,1.4301666 22.8250767,2.79270514 C22.8250767,4.15394216 21.7204372,5.25711273 20.3606691,5.25711273 C19.000901,5.25711273 17.8962615,4.15394216 17.8962615,2.79270514 C17.8962615,1.4301666 18.9981306,0.328297546 20.3606691,0.328297546 Z" id="形状"></path>
                </g>
                <path d="M0,9.31034483 L0,4.67214357 C0,2.09178993 2.18174098,0 4.87305487,0 L29.1269451,0 C31.818259,0 34,2.09178993 34,4.67214357 L34,8.72922359 M34,19.6551724 L34,25.1630131 C34,27.8344072 31.82569,30 29.1435428,30 L27.8181818,30 M21.6363636,30 L4.79000273,30 C2.14455727,30 0,27.90211 0,25.3142315 L0,20.6896552" id="形状" stroke="#333333" stroke-width="3" stroke-linecap="round"></path>
            </g>
        </g>
    </g>
</svg>