<?xml version="1.0" encoding="UTF-8"?>
<svg width="44px" height="44px" viewBox="0 0 44 44" version="1.1" xmlns="http://www.w3.org/2000/svg" xmlns:xlink="http://www.w3.org/1999/xlink">
    <title>48@2x</title>
    <g id="相关图标说明" stroke="none" stroke-width="1" fill="none" fill-rule="evenodd">
        <g id="线型图标（单色）" transform="translate(-1050.000000, -5140.000000)">
            <g id="编组-5" transform="translate(131.000000, 4940.000000)">
                <g id="48" transform="translate(919.000000, 200.000000)">
                    <g id="编组"></g>
                    <g id="编组-66" transform="translate(8.000000, 2.300000)" fill-rule="nonzero">
                        <path d="M21.8529525,0 C25.0630829,0 27.6786665,2.55487827 27.7958985,5.74535949 L27.8,5.96895833 L27.8,26.5480371 C27.8,27.3212358 27.1731986,27.9480371 26.4,27.9480371 C25.6722836,27.9480371 25.0742479,27.3928083 25.0064088,26.6828665 L25,26.5480371 L25,5.96895833 C25,4.27884499 23.6839974,2.89822123 22.0312739,2.80501544 L21.8529525,2.8 L5.94704749,2.8 C4.27152155,2.8 2.89774221,4.122344 2.80499111,5.78910358 L2.8,5.96895833 L2.8,33.3651015 C2.8,35.0551544 4.11644392,36.4370997 5.76877176,36.5331369 L5.94704749,36.5384615 L21.8529525,36.5384615 C23.5284785,36.5384615 24.9022578,35.2161175 24.9950089,33.549358 L25,33.3695032 C25,32.5963046 25.6268014,31.9695032 26.4,31.9695032 C27.1731986,31.9695032 27.8,32.5963046 27.8,33.3695032 C27.8,36.5885094 25.2573739,39.2165469 22.0759265,39.3343404 L21.8529525,39.3384615 L5.94459243,39.3384615 C2.73507277,39.3328311 0.121250935,36.7778826 0.00409866196,33.5886137 L0,33.3651015 L0,5.96895833 C0,2.74995219 2.54262613,0.121914687 5.7240735,0.00412114684 L5.94704749,0 L21.8529525,0 Z" id="形状" fill="#333333"></path>
                        <path d="M10.3346242,5.4 L15.9279908,5.4 C16.4408359,5.4 16.862615,5.8169862 16.862615,6.33462423 C16.862615,6.85226227 16.4456288,7.26924847 15.9279908,7.26924847 L10.3346242,7.26924847 C9.82177914,7.26924847 9.4,6.85226227 9.4,6.33462423 C9.4,5.8169862 9.8169862,5.4 10.3346242,5.4 Z" id="路径" stroke="#333333" fill="#333333"></path>
                        <path d="M13.8173696,29.5 C14.4576527,29.5 15.0370902,29.7590403 15.4563946,30.1783447 C15.8756989,30.597649 16.1347393,31.1770866 16.1347393,31.8173696 C16.1347393,32.4576527 15.8756989,33.0370902 15.4563946,33.4563946 C15.0370902,33.8756989 14.4576527,34.1347393 13.8173696,34.1347393 C13.1770866,34.1347393 12.597649,33.8756989 12.1783447,33.4563946 C11.7590403,33.0370902 11.5,32.4576527 11.5,31.8173696 C11.5,31.1770866 11.7590403,30.597649 12.1783447,30.1783447 C12.597649,29.7590403 13.1770866,29.5 13.8173696,29.5 Z" id="路径" stroke="#333333" stroke-width="2.2"></path>
                    </g>
                </g>
            </g>
        </g>
    </g>
</svg>