<?xml version="1.0" encoding="UTF-8"?>
<svg width="44px" height="44px" viewBox="0 0 44 44" version="1.1" xmlns="http://www.w3.org/2000/svg" xmlns:xlink="http://www.w3.org/1999/xlink">
    <title>48@2x</title>
    <g id="页面-1" stroke="none" stroke-width="1" fill="none" fill-rule="evenodd">
        <g id="48">
            <g id="lianxidianhua1" transform="translate(10.000000, 4.000000)" fill-rule="nonzero" stroke="#333333">
                <path d="M25,31.9695032 C25,34.4916738 22.9630279,36.5384615 20.4529525,36.5384615 L4.54704749,36.5384615 C2.03697214,36.5340598 2.27373675e-13,34.4872722 2.27373675e-13,31.9651015 L2.27373675e-13,4.56895833 C2.27373675e-13,2.04678769 2.03697214,1.7408297e-13 4.54704749,1.7408297e-13 L20.4529525,1.7408297e-13 C22.9630279,1.7408297e-13 25,2.04678769 25,4.56895833 C25,13.7152156 25,20.5749085 25,25.1480371" id="形状" stroke-width="2.8" stroke-linecap="round"></path>
                <path d="M8.93462423,4 L14.5279908,4 C15.0408359,4 15.462615,4.4169862 15.462615,4.93462423 C15.462615,5.45226227 15.0456288,5.86924847 14.5279908,5.86924847 L8.93462423,5.86924847 C8.42177914,5.86924847 8,5.45226227 8,4.93462423 C8,4.4169862 8.4169862,4 8.93462423,4 Z" id="路径" fill="#333333"></path>
                <path d="M12.4173696,28.1 C13.0576527,28.1 13.6370902,28.3590403 14.0563946,28.7783447 C14.4756989,29.197649 14.7347393,29.7770866 14.7347393,30.4173696 C14.7347393,31.0576527 14.4756989,31.6370902 14.0563946,32.0563946 C13.6370902,32.4756989 13.0576527,32.7347393 12.4173696,32.7347393 C11.7770866,32.7347393 11.197649,32.4756989 10.7783447,32.0563946 C10.3590403,31.6370902 10.1,31.0576527 10.1,30.4173696 C10.1,29.7770866 10.3590403,29.197649 10.7783447,28.7783447 C11.197649,28.3590403 11.7770866,28.1 12.4173696,28.1 L12.4173696,28.1 Z" id="路径" stroke-width="2.2"></path>
            </g>
            <g id="编组"></g>
        </g>
    </g>
</svg>