<?xml version="1.0" encoding="UTF-8"?>
<svg width="44px" height="44px" viewBox="0 0 44 44" version="1.1" xmlns="http://www.w3.org/2000/svg" xmlns:xlink="http://www.w3.org/1999/xlink">
    <title>49@2x</title>
    <g id="相关图标说明" stroke="none" stroke-width="1" fill="none" fill-rule="evenodd">
        <g id="线型图标（单色）" transform="translate(-1134.000000, -5140.000000)">
            <g id="编组-5" transform="translate(131.000000, 4940.000000)">
                <g id="49" transform="translate(1003.000000, 200.000000)">
                    <g id="编组"></g>
                    <g id="编组" transform="translate(2.900000, 14.900000)" fill="#333333" fill-rule="nonzero">
                        <path d="M35.3535967,0.831700446 C35.7228709,0.0901290817 36.6233891,-0.211677426 37.3649605,0.157596743 C38.1065319,0.526870913 38.4083384,1.42738914 38.0390642,2.16896051 C34.7775776,8.71863352 27.3750277,13.0120228 19.0978689,13.0120228 C10.8214901,13.0120228 3.41902765,8.71852169 0.157596743,2.16896051 C-0.211677426,1.42738914 0.0901290817,0.526870913 0.831700446,0.157596743 C1.57327181,-0.211677426 2.47379004,0.0901290817 2.84306421,0.831700446 C5.58159298,6.33117666 11.9277716,10.0120228 19.0978689,10.0120228 C26.2687632,10.0120228 32.6150216,6.33126986 35.3535967,0.831700446 Z" id="Stroke-1"></path>
                        <path d="M19.0982382,11.0573459 C19.8779343,11.0573459 20.5186868,11.6522339 20.5913716,12.4128859 L20.5982382,12.5573459 L20.5982382,17.7348843 C20.5982382,18.5633114 19.9266653,19.2348843 19.0982382,19.2348843 C18.3185421,19.2348843 17.6777895,18.6399962 17.6051047,17.8793443 L17.5982382,17.7348843 L17.5982382,12.5573459 C17.5982382,11.7289187 18.269811,11.0573459 19.0982382,11.0573459 Z" id="Stroke-3"></path>
                        <path d="M27.0497944,9.90131398 C27.7113452,9.48866807 28.5698444,9.65430276 29.0340823,10.2612274 L29.1163624,10.3801637 L31.6031316,14.3669329 C32.0415679,15.0698306 31.8271796,15.9950645 31.1242819,16.4335008 C30.4627312,16.8461467 29.604232,16.680512 29.139994,16.0735874 L29.057714,15.9546511 L26.5709447,11.9678819 C26.1325085,11.2649842 26.3468968,10.3397503 27.0497944,9.90131398 Z" id="Stroke-5"></path>
                        <path d="M8.88008848,9.9231884 C9.28664003,9.20138002 10.2013565,8.94581386 10.9231649,9.3523654 C11.6025139,9.73500216 11.8688595,10.5677781 11.5588989,11.266204 L11.4939879,11.3954418 L9.03583401,15.7597495 C8.62928246,16.4815579 7.71456601,16.737124 6.99275763,16.3305725 C6.31340856,15.9479357 6.04706299,15.1151598 6.35702357,14.4167338 L6.42193464,14.2874961 L8.88008848,9.9231884 Z" id="Stroke-7"></path>
                    </g>
                </g>
            </g>
        </g>
    </g>
</svg>