<?xml version="1.0" encoding="UTF-8"?>
<svg width="44px" height="44px" viewBox="0 0 44 44" version="1.1" xmlns="http://www.w3.org/2000/svg" xmlns:xlink="http://www.w3.org/1999/xlink">
    <title>5@2x</title>
    <g id="相关图标说明" stroke="none" stroke-width="1" fill="none" fill-rule="evenodd">
        <g id="线型图标（单色）" transform="translate(-466.000000, -4940.000000)">
            <g id="编组-5" transform="translate(131.000000, 4940.000000)">
                <g id="5" transform="translate(335.000000, 0.000000)">
                    <g id="编组"></g>
                    <path d="M28.5,32 C28.5,30.6745166 27.4684641,29.5899613 26.1643757,29.5053177 L26,29.5 L18,29.5 C16.6745166,29.5 15.5899613,30.5315359 15.5053177,31.8356243 L15.5,32 L15.5,32.7253553 C15.5,33.5537824 14.8284271,34.2253553 14,34.2253553 C13.2203039,34.2253553 12.5795513,33.6304672 12.5068666,32.8698153 L12.5,32.7253553 L12.5,32 C12.5,29.0365209 14.84378,26.6204609 17.7787929,26.5043672 L18,26.5 L26,26.5 C28.9634791,26.5 31.3795391,28.84378 31.4956328,31.7787929 L31.5,32 L31.5,36 L31.4948211,36.1920352 C31.3951264,38.0357224 29.8685634,39.5 28,39.5 L28,39.5 L10.6923077,39.5 L10.4762845,39.4953656 C7.68327265,39.3752696 5.5,36.9366415 5.5,34 L5.5,34 L5.5,10 L5.50427973,9.77511747 C5.61520789,6.86521204 7.86906169,4.5 10.6923077,4.5 L10.6923077,4.5 L33.3076923,4.5 C36.1309383,4.5 38.3847921,6.86521204 38.4957203,9.77511747 L38.5,10 L38.5,36 C38.5,36.8284271 37.8284271,37.5 37,37.5 C36.2203039,37.5 35.5795513,36.9051119 35.5068666,36.14446 L35.5,36 L35.5,10 C35.5,8.65225942 34.572841,7.59168134 33.4545762,7.50563966 L33.3076923,7.5 L10.6923077,7.5 L10.5454238,7.50563966 C9.42715897,7.59168134 8.5,8.65225942 8.5,10 L8.5,10 L8.5,34 L8.50519749,34.1741072 C8.58442861,35.4955778 9.55881639,36.5 10.6923077,36.5 L10.6923077,36.5 L28,36.5 L28.0898756,36.4919443 C28.3231248,36.4496084 28.5,36.2454599 28.5,36 L28.5,36 L28.5,32 Z M24,10.5 C26.4852814,10.5 28.5,12.5147186 28.5,15 L28.5,15 L28.5,18 C28.5,21.5898509 25.5898509,24.5 22,24.5 C18.4101491,24.5 15.5,21.5898509 15.5,18 L15.5,18 L15.5,15 C15.5,12.5147186 17.5147186,10.5 20,10.5 L20,10.5 Z M24,13.5 L20,13.5 C19.1715729,13.5 18.5,14.1715729 18.5,15 L18.5,15 L18.5,18 C18.5,19.9329966 20.0670034,21.5 22,21.5 C23.9329966,21.5 25.5,19.9329966 25.5,18 L25.5,18 L25.5,15 C25.5,14.1715729 24.8284271,13.5 24,13.5 L24,13.5 Z" id="形状结合" fill="#333333" fill-rule="nonzero"></path>
                </g>
            </g>
        </g>
    </g>
</svg>