<?xml version="1.0" encoding="UTF-8"?>
<svg width="44px" height="44px" viewBox="0 0 44 44" version="1.1" xmlns="http://www.w3.org/2000/svg" xmlns:xlink="http://www.w3.org/1999/xlink">
    <title>5@2x</title>
    <g id="页面-1" stroke="none" stroke-width="1" fill="none" fill-rule="evenodd">
        <g id="5">
            <g id="编组"></g>
            <path d="M28.5,32.5 C28.5,31.1745166 27.4684641,30.0899613 26.1643757,30.0053177 L26,30 L18,30 C16.6745166,30 15.5899613,31.0315359 15.5053177,32.3356243 L15.5,32.5 L15.5,33.2253553 C15.5,34.0537824 14.8284271,34.7253553 14,34.7253553 C13.2203039,34.7253553 12.5795513,34.1304672 12.5068666,33.3698153 L12.5,33.2253553 L12.5,32.5 C12.5,29.5365209 14.84378,27.1204609 17.7787929,27.0043672 L18,27 L26,27 C28.9634791,27 31.3795391,29.34378 31.4956328,32.2787929 L31.5,32.5 L31.5,36.5 L31.4948211,36.6920352 C31.3951264,38.5357224 29.8685634,40 28,40 L28,40 L10.6923077,40 L10.4762845,39.9953656 C7.68327265,39.8752696 5.5,37.4366415 5.5,34.5 L5.5,34.5 L5.5,10.5 L5.50427973,10.2751175 C5.61520789,7.36521204 7.86906169,5 10.6923077,5 L10.6923077,5 L33.3076923,5 C36.1309383,5 38.3847921,7.36521204 38.4957203,10.2751175 L38.5,10.5 L38.5,36.5 C38.5,37.3284271 37.8284271,38 37,38 C36.2203039,38 35.5795513,37.4051119 35.5068666,36.64446 L35.5,36.5 L35.5,10.5 C35.5,9.15225942 34.572841,8.09168134 33.4545762,8.00563966 L33.3076923,8 L10.6923077,8 L10.5454238,8.00563966 C9.42715897,8.09168134 8.5,9.15225942 8.5,10.5 L8.5,10.5 L8.5,34.5 L8.50519749,34.6741072 C8.58442861,35.9955778 9.55881639,37 10.6923077,37 L10.6923077,37 L28,37 L28.0898756,36.9919443 C28.3231248,36.9496084 28.5,36.7454599 28.5,36.5 L28.5,36.5 L28.5,32.5 Z M24,11 C26.4852814,11 28.5,13.0147186 28.5,15.5 L28.5,15.5 L28.5,18.5 C28.5,22.0898509 25.5898509,25 22,25 C18.4101491,25 15.5,22.0898509 15.5,18.5 L15.5,18.5 L15.5,15.5 C15.5,13.0147186 17.5147186,11 20,11 L20,11 Z M24,14 L20,14 C19.1715729,14 18.5,14.6715729 18.5,15.5 L18.5,15.5 L18.5,18.5 C18.5,20.4329966 20.0670034,22 22,22 C23.9329966,22 25.5,20.4329966 25.5,18.5 L25.5,18.5 L25.5,15.5 C25.5,14.6715729 24.8284271,14 24,14 L24,14 Z" id="形状结合" fill="#333333" fill-rule="nonzero"></path>
        </g>
    </g>
</svg>