<?xml version="1.0" encoding="UTF-8"?>
<svg width="44px" height="44px" viewBox="0 0 44 44" version="1.1" xmlns="http://www.w3.org/2000/svg" xmlns:xlink="http://www.w3.org/1999/xlink">
    <title>50@2x</title>
    <g id="相关图标说明" stroke="none" stroke-width="1" fill="none" fill-rule="evenodd">
        <g id="线型图标（单色）" transform="translate(-1218.000000, -5140.000000)">
            <g id="编组-5" transform="translate(131.000000, 4940.000000)">
                <g id="50" transform="translate(1087.000000, 200.000000)">
                    <g id="icon/模型/系统图标备份-50"></g>
                    <g id="编组-25" transform="translate(6.000000, 6.000000)" fill="#333333" stroke="#333333" stroke-width="0.2">
                        <path d="M17.7168152,0.689160515 L31.6925727,14.6649181 C32.2439012,15.2162465 32.2439012,16.1101265 31.6925727,16.6614549 C31.1412443,17.2127833 30.2473644,17.2127833 29.696036,16.6614549 L17.411,4.376 L17.4117647,23.0588235 C17.4117647,23.8385196 16.7796961,24.4705882 16,24.4705882 C15.2203039,24.4705882 14.5882353,23.8385196 14.5882353,23.0588235 L14.588,4.483 L2.4100331,16.6614549 C1.85870469,17.2127833 0.964824721,17.2127833 0.413496309,16.6614549 C-0.137832103,16.1101265 -0.137832103,15.2162465 0.413496309,14.6649181 L14.3892539,0.689160515 C15.3081346,-0.229720172 16.7979345,-0.229720172 17.7168152,0.689160515 Z" id="Combined-Shape" fill-rule="nonzero"></path>
                        <rect id="Rectangle-5" x="14.5882353" y="26.3529412" width="2.82352941" height="5.64705882" rx="1.41176471"></rect>
                    </g>
                </g>
            </g>
        </g>
    </g>
</svg>