<?xml version="1.0" encoding="UTF-8"?>
<svg width="44px" height="44px" viewBox="0 0 44 44" version="1.1" xmlns="http://www.w3.org/2000/svg" xmlns:xlink="http://www.w3.org/1999/xlink">
    <title>51@2x</title>
    <g id="相关图标说明" stroke="none" stroke-width="1" fill="none" fill-rule="evenodd">
        <g id="线型图标（单色）" transform="translate(-1302.000000, -5140.000000)">
            <g id="编组-5" transform="translate(131.000000, 4940.000000)">
                <g id="51" transform="translate(1171.000000, 200.000000)">
                    <g id="编组"></g>
                    <g id="编组-65" transform="translate(7.000000, 5.000000)" fill="#333333" fill-rule="nonzero">
                        <path d="M28.5,21 C29.3284271,21 30,21.6715729 30,22.5 C30,25.5375661 27.5375661,28 24.5,28 C23.6715729,28 23,27.3284271 23,26.5 C23,25.7203039 23.5948881,25.0795513 24.35554,25.0068666 L24.5,25 C25.8254834,25 26.9100387,23.9684641 26.9946823,22.6643757 L27,22.5 C27,21.6715729 27.6715729,21 28.5,21 Z M24.5,0 C27.4634791,0 29.8795391,2.34378001 29.9956328,5.27879286 L30,5.5 L30,16.5 C30,17.3284271 29.3284271,18 28.5,18 C27.7203039,18 27.0795513,17.4051119 27.0068666,16.64446 L27,16.5 L27,5.5 C27,4.1745166 25.9684641,3.08996133 24.6643757,3.00531768 L24.5,3 L10.5,3 C9.1745166,3 8.08996133,4.03153594 8.00531768,5.33562431 L8,5.5 C8,6.32842712 7.32842712,7 6.5,7 C5.67157288,7 5,6.32842712 5,5.5 C5,2.53652085 7.34378001,0.120460863 10.2787929,0.00436720397 L10.5,0 L24.5,0 Z" id="形状"></path>
                        <path d="M19.5,6 L5.5,6 C2.46243388,6 0,8.46243388 0,11.5 L0,28.5 C0,31.5375661 2.46243388,34 5.5,34 L19.5,34 C22.5375661,34 25,31.5375661 25,28.5 L25,11.5 C25,8.46243388 22.5375661,6 19.5,6 Z M5.5,9 L19.5,9 C20.8807119,9 22,10.1192881 22,11.5 L22,28.5 C22,29.8807119 20.8807119,31 19.5,31 L5.5,31 C4.11928813,31 3,29.8807119 3,28.5 L3,11.5 C3,10.1192881 4.11928813,9 5.5,9 Z" id="矩形"></path>
                    </g>
                </g>
            </g>
        </g>
    </g>
</svg>