<?xml version="1.0" encoding="UTF-8"?>
<svg width="44px" height="44px" viewBox="0 0 44 44" version="1.1" xmlns="http://www.w3.org/2000/svg" xmlns:xlink="http://www.w3.org/1999/xlink">
    <title>52@2x</title>
    <g id="相关图标说明" stroke="none" stroke-width="1" fill="none" fill-rule="evenodd">
        <g id="线型图标（单色）" transform="translate(-1386.000000, -5140.000000)">
            <g id="编组-5" transform="translate(131.000000, 4940.000000)">
                <g id="52" transform="translate(1255.000000, 200.000000)">
                    <g id="编组"></g>
                    <g id="编组-64" transform="translate(3.500000, 8.000000)" fill="#333333">
                        <path d="M24.8388889,0 C27.802368,0 30.218428,2.34378001 30.3345217,5.27879286 L30.3388889,5.5 L30.338,7.902 L34.8329015,4.57316002 C35.7874934,3.86603675 37.1260765,4.49787782 37.220472,5.64854009 L37.2257576,5.77848485 L37.2257576,21.8137879 C37.2257576,22.9721794 35.9785904,23.6767759 34.9967586,23.1251089 L34.8847339,23.0558343 L32.3740769,21.3557996 C31.6881136,20.891315 31.5085697,19.9586928 31.9730542,19.2727296 C32.4102161,18.6271171 33.2620605,18.4300974 33.9326569,18.7963964 L34.0561242,18.8717068 L34.225,18.985 L34.225,8.756 L29.731745,12.0853248 C28.7771531,12.7924481 27.4385699,12.160607 27.3441744,11.0099448 L27.3388889,10.88 L27.3388889,5.5 C27.3388889,4.1745166 26.307353,3.08996133 25.0032646,3.00531768 L24.8388889,3 L5.5,3 C4.1745166,3 3.08996133,4.03153594 3.00531768,5.33562431 L3,5.5 L3,22.4486364 C3,23.7741198 4.03153594,24.858675 5.33562431,24.9433187 L5.5,24.9486364 L24.8388889,24.9486364 C26.1643723,24.9486364 27.2489276,23.9171004 27.3335712,22.6130121 L27.3388889,22.4486364 L27.3388889,17.1492424 C27.3388889,16.3208153 28.0104618,15.6492424 28.8388889,15.6492424 C29.618585,15.6492424 30.2593376,16.2441305 30.3320223,17.0047824 L30.3388889,17.1492424 L30.3388889,22.4486364 C30.3388889,25.4121155 27.9951089,27.8281755 25.060096,27.9442692 L24.8388889,27.9486364 L5.5,27.9486364 C2.53652085,27.9486364 0.120460863,25.6048564 0.00436720397,22.6698435 L0,22.4486364 L0,5.5 C0,2.53652085 2.34378001,0.120460863 5.27879286,0.00436720397 L5.5,0 L24.8388889,0 Z" id="路径" fill-rule="nonzero"></path>
                        <circle id="椭圆形" cx="8.5" cy="19.5" r="2"></circle>
                    </g>
                </g>
            </g>
        </g>
    </g>
</svg>