<?xml version="1.0" encoding="UTF-8"?>
<svg width="44px" height="44px" viewBox="0 0 44 44" version="1.1" xmlns="http://www.w3.org/2000/svg" xmlns:xlink="http://www.w3.org/1999/xlink">
    <title>53@2x</title>
    <g id="相关图标说明" stroke="none" stroke-width="1" fill="none" fill-rule="evenodd">
        <g id="线型图标（单色）" transform="translate(-1470.000000, -5140.000000)">
            <g id="编组-5" transform="translate(131.000000, 4940.000000)">
                <g id="53" transform="translate(1339.000000, 200.000000)">
                    <g id="编组"></g>
                    <path d="M21.9962364,2.92123644 C28.7918214,2.92123644 32.873182,8.35578365 32.9934998,16.127442 L32.9962364,16.482298 L32.9962364,28.4771696 C32.9962364,35.8006678 28.5558001,41.0712364 21.9962364,41.0712364 C15.309529,41.0712364 11.1263496,35.8311643 10.999219,28.6132064 L10.9962364,28.2734285 L10.9962364,23.4374206 C10.9962364,19.2510564 13.7604372,16.5956796 17.2462364,16.5956796 C20.9924861,16.5956796 23.3903314,19.5835757 23.4928151,23.1957126 L23.4962364,23.4374206 L23.4962364,30.637653 C23.4962364,31.4660801 22.8246636,32.137653 21.9962364,32.137653 C21.2165403,32.137653 20.5757878,31.5427649 20.503103,30.782113 L20.4962364,30.637653 L20.4962364,23.4374206 C20.4962364,21.2317139 19.2278796,19.5956796 17.2462364,19.5956796 C15.4507809,19.5956796 14.0866961,20.8504239 14.000559,23.1989301 L13.9962364,23.4374206 L13.9962364,28.2734285 C13.9962364,34.1503367 17.0493384,38.0712364 21.9962364,38.0712364 C26.6888444,38.0712364 29.8806663,34.3821709 29.9931636,28.7843856 L29.9962364,28.4771696 L29.9962364,16.482298 C29.9962364,10.0125083 27.0000362,5.92123644 21.9962364,5.92123644 C17.3490629,5.92123644 13.9962364,9.57714952 13.9962364,14.2049479 C13.9962364,15.033375 13.3246636,15.7049479 12.4962364,15.7049479 C11.6678093,15.7049479 10.9962364,15.033375 10.9962364,14.2049479 C10.9962364,7.97547788 15.6314655,2.92123644 21.9962364,2.92123644 Z" id="Stroke-1" fill="#333333" fill-rule="nonzero" transform="translate(21.996236, 21.996236) rotate(45.000000) translate(-21.996236, -21.996236) "></path>
                </g>
            </g>
        </g>
    </g>
</svg>