<?xml version="1.0" encoding="UTF-8"?>
<svg width="44px" height="44px" viewBox="0 0 44 44" version="1.1" xmlns="http://www.w3.org/2000/svg" xmlns:xlink="http://www.w3.org/1999/xlink">
    <title>54@2x</title>
    <g id="页面-1" stroke="none" stroke-width="1" fill="none" fill-rule="evenodd">
        <g id="54">
            <g id="编组-30备份-13">
                <g id="编组"></g>
                <g id="编组" transform="translate(8.000000, 6.000000)" stroke="#333333" stroke-linecap="round" stroke-linejoin="round" stroke-width="3">
                    <path d="M4,0 L17.3333333,0 C19.5424723,-4.05812251e-16 21.3333333,1.790861 21.3333333,4 L21.3333333,32 L21.3333333,32 L4,32 C1.790861,32 2.705415e-16,30.209139 0,28 L0,4 C-2.705415e-16,1.790861 1.790861,4.05812251e-16 4,0 Z" id="矩形"></path>
                    <path d="M23,9.6 L25.3333333,9.6 C26.9901876,9.6 28.3333333,10.9431458 28.3333333,12.6 L28.3333333,28.8 L28.3333333,28.8" id="路径"></path>
                    <line x1="7.46666667" y1="11.230854" x2="13.8666667" y2="11.230854" id="Stroke-3"></line>
                    <line x1="7.46666667" y1="18.6975207" x2="13.8666667" y2="18.6975207" id="Stroke-5"></line>
                </g>
            </g>
            <line x1="27.3" y1="38" x2="32.9" y2="37.9" id="直线-4" stroke="#333333" stroke-width="3" stroke-linecap="round"></line>
        </g>
    </g>
</svg>