<?xml version="1.0" encoding="UTF-8"?>
<svg width="44px" height="44px" viewBox="0 0 44 44" version="1.1" xmlns="http://www.w3.org/2000/svg" xmlns:xlink="http://www.w3.org/1999/xlink">
    <title>54@2x</title>
    <g id="相关图标说明" stroke="none" stroke-width="1" fill="none" fill-rule="evenodd">
        <g id="线型图标（单色）" transform="translate(-1554.000000, -5140.000000)">
            <g id="编组-5" transform="translate(131.000000, 4940.000000)">
                <g id="54" transform="translate(1423.000000, 200.000000)">
                    <g id="编组"></g>
                    <g id="编组" transform="translate(6.330000, 4.500000)" fill="#333333" fill-rule="nonzero">
                        <path d="M18.8333333,0 L5.5,0 C2.46243388,0 0,2.46243388 0,5.5 L0,29.5 C0,32.5375661 2.46243388,35 5.5,35 L22.8333333,35 C23.6617605,35 24.3333333,34.3284271 24.3333333,33.5 L24.3333333,5.5 C24.3333333,2.46243388 21.8708995,0 18.8333333,0 Z M18.997709,3.00531768 C20.3017974,3.08996133 21.3333333,4.1745166 21.3333333,5.5 L21.333,32 L5.5,32 C4.11928813,32 3,30.8807119 3,29.5 L3,5.5 C3,4.11928813 4.11928813,3 5.5,3 L18.8333333,3 L18.997709,3.00531768 Z" id="矩形"></path>
                        <path d="M26.8333333,9.6 C29.2476067,9.6 31.2178224,11.5012365 31.3284353,13.8881643 L31.3333333,14.1 L31.3333333,30.3 C31.3333333,31.1284271 30.6617605,31.8 29.8333333,31.8 C29.0536372,31.8 28.4128847,31.2051119 28.3401999,30.44446 L28.3333333,30.3 L28.3333333,14.1 C28.3333333,13.3203039 27.7384453,12.6795513 26.9777933,12.6068666 L26.8333333,12.6 L24.5,12.6 C23.6715729,12.6 23,11.9284271 23,11.1 C23,10.3203039 23.5948881,9.67955132 24.35554,9.60686658 L24.5,9.6 L26.8333333,9.6 Z" id="路径"></path>
                        <path d="M15.3666667,11.230854 C16.1950938,11.230854 16.8666667,11.9024269 16.8666667,12.730854 C16.8666667,13.5105501 16.2717786,14.1513027 15.5111267,14.2239874 L15.3666667,14.230854 L8.96666667,14.230854 C8.13823954,14.230854 7.46666667,13.5592811 7.46666667,12.730854 C7.46666667,11.9511579 8.06155475,11.3104053 8.82220666,11.2377206 L8.96666667,11.230854 L15.3666667,11.230854 Z" id="Stroke-3"></path>
                        <path d="M15.3666667,18.6975207 C16.1950938,18.6975207 16.8666667,19.3690935 16.8666667,20.1975207 C16.8666667,20.9772168 16.2717786,21.6179693 15.5111267,21.6906541 L15.3666667,21.6975207 L8.96666667,21.6975207 C8.13823954,21.6975207 7.46666667,21.0259478 7.46666667,20.1975207 C7.46666667,19.4178245 8.06155475,18.777072 8.82220666,18.7043872 L8.96666667,18.6975207 L15.3666667,18.6975207 Z" id="Stroke-5"></path>
                        <path d="M26.3732186,31.9002391 C27.2015136,31.8854481 27.8849699,32.5449235 27.8997609,33.3732186 C27.9136818,34.1527904 27.3303288,34.8040621 26.5710958,34.8903162 L26.4267814,34.8997609 L20.8267814,34.9997609 C19.9984864,35.0145519 19.3150301,34.3550765 19.3002391,33.5267814 C19.2863182,32.7472096 19.8696712,32.0959379 20.6289042,32.0096838 L20.7732186,32.0002391 L26.3732186,31.9002391 Z" id="直线-4"></path>
                    </g>
                </g>
            </g>
        </g>
    </g>
</svg>