<?xml version="1.0" encoding="UTF-8"?>
<svg width="44px" height="44px" viewBox="0 0 44 44" version="1.1" xmlns="http://www.w3.org/2000/svg" xmlns:xlink="http://www.w3.org/1999/xlink">
    <title>55@2x</title>
    <g id="页面-1" stroke="none" stroke-width="1" fill="none" fill-rule="evenodd">
        <g id="55">
            <g id="编组"></g>
            <g id="kejian" transform="translate(4.000000, 10.000000)" fill-rule="nonzero">
                <path d="M32.9994269,15.3187499 C34.1568581,13.8545075 34.8087615,12.526012 34.8087615,11.6840012 C34.8087615,8.76509778 26.9746933,0 17.4043808,0 C7.82987442,0 0,8.76509778 0,11.6840012 C0,15.5800661 7.83406825,23.3680023 17.4043808,23.3680023 C21.0432814,23.3680023 24.4311675,22.100803 27.2328366,20.3695991 C27.807092,20.0147559 28.3567191,19.6404188 28.8788313,19.2535043" id="形状" stroke="#333333" stroke-width="3" stroke-linecap="round"></path>
                <path d="M17,5 C13.1326837,5 10,8.13268366 10,12 C10,15.8673163 13.1326837,19 17,19 C20.8673163,19 24,15.8673163 24,12 C24,8.13268366 20.8673163,5 17,5 Z M17,16 C14.7921727,16 13,14.2078273 13,12 C13,9.79217274 14.7921727,8 17,8 C19.2078273,8 21,9.79217274 21,12 C21,14.2078273 19.2078273,16 17,16 Z" id="形状" fill="#333333"></path>
            </g>
        </g>
    </g>
</svg>