<?xml version="1.0" encoding="UTF-8"?>
<svg width="44px" height="44px" viewBox="0 0 44 44" version="1.1" xmlns="http://www.w3.org/2000/svg" xmlns:xlink="http://www.w3.org/1999/xlink">
    <title>55@2x</title>
    <g id="相关图标说明" stroke="none" stroke-width="1" fill="none" fill-rule="evenodd">
        <g id="线型图标（单色）" transform="translate(-131.000000, -5240.000000)">
            <g id="编组-5" transform="translate(131.000000, 4940.000000)">
                <g id="55" transform="translate(0.000000, 300.000000)">
                    <g id="编组"></g>
                    <g id="kejian" transform="translate(4.600000, 10.300000)" fill="#333333" fill-rule="nonzero">
                        <path d="M17.4043808,-1.5 C22.1138276,-1.5 26.7566974,0.435772208 30.639737,3.58195051 C33.9516671,6.26539537 36.3087615,9.55099979 36.3087615,11.6840012 C36.3087615,12.9552294 35.515898,14.5540894 34.1761839,16.2489342 C33.6624573,16.8988392 32.7191475,17.0092335 32.0692426,16.4955069 C31.4193376,15.9817803 31.3089432,15.0384705 31.8226698,14.3885656 C32.7793341,13.1783092 33.3087615,12.110685 33.3087615,11.6840012 C33.3087615,11.3391631 32.9311935,10.4977683 32.2163502,9.50133286 C31.3663557,8.3165074 30.1587862,7.05339899 28.7511397,5.91287311 C25.3656256,3.16980792 21.3606602,1.5 17.4043808,1.5 C13.4462453,1.5 9.4411057,3.16972277 6.05614389,5.91279635 C4.64884292,7.0532317 3.4416702,8.31627147 2.59197507,9.50111886 C1.87741609,10.4975273 1.5,11.3389682 1.5,11.6840012 C1.5,13.1097736 3.27236662,15.6721506 6.02959553,17.7994045 C9.30859189,20.3292118 13.3555179,21.8680023 17.4043808,21.8680023 C20.4751159,21.8680023 23.5718559,20.8685229 26.4443463,19.0935571 C26.9722578,18.7673507 27.4872353,18.4177737 27.9857445,18.0483504 C28.6513327,17.5551122 29.5907471,17.6948294 30.0839853,18.3604176 C30.5772234,19.0260057 30.4375062,19.9654201 29.7719181,20.4586583 C29.2062905,20.8778201 28.6215773,21.274735 28.0213268,21.6456411 C24.7018222,23.6968252 21.0731024,24.8680023 17.4043808,24.8680023 C12.7522447,24.8680023 7.96902418,22.95115 4.37790629,20.3196988 L3.88468995,19.9480028 L3.40774593,19.5677571 C0.440315874,17.1339929 -1.5,14.2294946 -1.5,11.6840012 C-1.5,9.55092999 0.85630761,6.2652045 4.16735711,3.58202727 C8.04991191,0.435718946 12.6930927,-1.5 17.4043808,-1.5 Z" id="形状"></path>
                        <path d="M17,5 C13.1326837,5 10,8.13268366 10,12 C10,15.8673163 13.1326837,19 17,19 C20.8673163,19 24,15.8673163 24,12 C24,8.13268366 20.8673163,5 17,5 Z M17,16 C14.7921727,16 13,14.2078273 13,12 C13,9.79217274 14.7921727,8 17,8 C19.2078273,8 21,9.79217274 21,12 C21,14.2078273 19.2078273,16 17,16 Z" id="形状"></path>
                    </g>
                </g>
            </g>
        </g>
    </g>
</svg>