<?xml version="1.0" encoding="UTF-8"?>
<svg width="44px" height="44px" viewBox="0 0 44 44" version="1.1" xmlns="http://www.w3.org/2000/svg" xmlns:xlink="http://www.w3.org/1999/xlink">
    <title>56@2x</title>
    <g id="相关图标说明" stroke="none" stroke-width="1" fill="none" fill-rule="evenodd">
        <g id="线型图标（单色）" transform="translate(-214.000000, -5240.000000)">
            <g id="编组-5" transform="translate(131.000000, 4940.000000)">
                <g id="56" transform="translate(83.000000, 300.000000)">
                    <g id="编组"></g>
                    <g id="编组-63" transform="translate(2.500000, 2.500000)" fill="#333333" fill-rule="nonzero">
                        <path d="M19.5,0 C30.2695526,0 39,8.73044738 39,19.5 C39,23.5855196 37.7390543,27.4856432 35.4285265,30.7511996 C34.9500363,31.4274678 34.0139197,31.5877986 33.3376515,31.1093085 C32.6613833,30.6308184 32.5010525,29.6947018 32.9795427,29.0184335 C34.934442,26.2555004 36,22.9597137 36,19.5 C36,10.3873016 28.6126984,3 19.5,3 C10.3873016,3 3,10.3873016 3,19.5 C3,28.6126984 10.3873016,36 19.5,36 C22.3994137,36 25.1865336,35.2525005 27.6493533,33.8506409 C28.3693168,33.4408311 29.285179,33.6922603 29.6949888,34.4122238 C30.1047986,35.1321873 29.8533694,36.0480495 29.1334059,36.4578593 C26.2212639,38.1154773 22.9232405,39 19.5,39 C8.73044738,39 0,30.2695526 0,19.5 C0,8.73044738 8.73044738,0 19.5,0 Z" id="形状结合"></path>
                        <path d="M15.9444444,12 C16.7241406,12 17.3648931,12.5948881 17.4375779,13.35554 L17.4444444,13.5 L17.4444444,25.5 C17.4444444,26.3284271 16.7728716,27 15.9444444,27 C15.1647483,27 14.5239958,26.4051119 14.451311,25.64446 L14.4444444,25.5 L14.4444444,13.5 C14.4444444,12.6715729 15.1160173,12 15.9444444,12 Z M23.0555556,12 C23.8352517,12 24.4760042,12.5948881 24.548689,13.35554 L24.5555556,13.5 L24.5555556,25.5 C24.5555556,26.3284271 23.8839827,27 23.0555556,27 C22.2758594,27 21.6351069,26.4051119 21.5624221,25.64446 L21.5555556,25.5 L21.5555556,13.5 C21.5555556,12.6715729 22.2271284,12 23.0555556,12 Z" id="形状结合"></path>
                    </g>
                </g>
            </g>
        </g>
    </g>
</svg>