<?xml version="1.0" encoding="UTF-8"?>
<svg width="44px" height="44px" viewBox="0 0 44 44" version="1.1" xmlns="http://www.w3.org/2000/svg" xmlns:xlink="http://www.w3.org/1999/xlink">
    <title>57@2x</title>
    <g id="相关图标说明" stroke="none" stroke-width="1" fill="none" fill-rule="evenodd">
        <g id="线型图标（单色）" transform="translate(-298.000000, -5240.000000)">
            <g id="编组-5" transform="translate(131.000000, 4940.000000)">
                <g id="57" transform="translate(167.000000, 300.000000)">
                    <g id="编组"></g>
                    <g id="编组-62" transform="translate(3.000000, 7.500000)" fill="#333333" fill-rule="nonzero">
                        <path d="M31.8947368,0 C35.170674,0 37.8745478,2.47415969 37.9957591,5.61326954 L38,5.83333333 L38,23.1666667 C38,26.335726 35.3705793,28.8819097 32.1223371,28.9960084 L31.8947368,29 L29.9984074,29 C29.1699803,29 28.4984074,28.3284271 28.4984074,27.5 C28.4984074,26.7203039 29.0932955,26.0795513 29.8539474,26.0068666 L29.9984074,26 L31.8947368,26 C33.5674944,26 34.901639,24.8008472 34.9948014,23.3310447 L35,23.1666667 L35,5.83333333 C35,4.34475633 33.7255967,3.09244008 32.0791595,3.00488761 L31.8947368,3 L6.10526316,3 C4.43250564,3 3.09836104,4.19915279 3.00519861,5.66895533 L3,5.83333333 L3,23.1666667 C3,24.6552437 4.27440326,25.9075599 5.92084053,25.9951124 L6.10526316,26 L24.7436475,26 C25.5720746,26 26.2436475,26.6715729 26.2436475,27.5 C26.2436475,28.2796961 25.6487594,28.9204487 24.8881075,28.9931334 L24.7436475,29 L6.10526316,29 C2.82932602,29 0.125452183,26.5258403 0.00424094323,23.3867305 L0,23.1666667 L0,5.83333333 C0,2.66427404 2.62942072,0.11809028 5.87766286,0.0039915654 L6.10526316,0 L31.8947368,0 Z" id="路径"></path>
                        <path d="M28.7817218,7.18315664 C29.5089943,6.78646255 30.4201493,7.0544493 30.8168434,7.7817218 C31.1902025,8.46621357 30.9747786,9.31359084 30.3418109,9.74164024 L30.2182782,9.81684336 L19.2182782,15.8168434 C18.8203082,16.0339179 18.3485346,16.0580373 17.9341638,15.8892015 L17.7817218,15.8168434 L6.7817218,9.81684336 C6.0544493,9.42014927 5.78646255,8.50899431 6.18315664,7.7817218 C6.55651579,7.09723003 7.38559113,6.81957962 8.08816932,7.1200098 L8.2182782,7.18315664 L18.5,12.791 L28.7817218,7.18315664 Z" id="路径-23"></path>
                    </g>
                </g>
            </g>
        </g>
    </g>
</svg>