<?xml version="1.0" encoding="UTF-8"?>
<svg width="44px" height="44px" viewBox="0 0 44 44" version="1.1" xmlns="http://www.w3.org/2000/svg" xmlns:xlink="http://www.w3.org/1999/xlink">
    <title>58@2x</title>
    <g id="相关图标说明" stroke="none" stroke-width="1" fill="none" fill-rule="evenodd">
        <g id="线型图标（单色）" transform="translate(-382.000000, -5240.000000)">
            <g id="编组-5" transform="translate(131.000000, 4940.000000)">
                <g id="58" transform="translate(251.000000, 300.000000)">
                    <g id="编组"></g>
                    <g id="图标-/-工具-/-@-/-@备份-116" transform="translate(4.148946, 5.000000)" fill="#333333" fill-rule="nonzero">
                        <path d="M18.0885929,12.6331805 C18.7003432,12.0745634 19.6491135,12.1176365 20.2077305,12.7293868 C20.731434,13.3029028 20.7263083,14.1726276 20.2195552,14.7393892 L20.1115242,14.8485245 L17.053,17.64 L22.8826712,23.1634614 C23.4464827,23.6975986 23.5042732,24.5654165 23.0398381,25.1673447 L22.9399833,25.2840074 C22.4058461,25.8478189 21.5380283,25.9056094 20.9361001,25.4411743 L20.8194373,25.3413195 L13.8194373,18.7097406 C13.2242203,18.1458507 13.1974154,17.2179754 13.7326477,16.6210209 L13.8395886,16.5131395 L18.0885929,12.6331805 Z" id="Stroke-1" transform="translate(18.351056, 18.996618) rotate(-90.000000) translate(-18.351056, -18.996618) "></path>
                        <path d="M16.7454088,-1.24163762 C17.9319648,-1.82721074 19.3581411,-1.38471639 20.0127211,-0.257088859 L20.0936422,-0.10614975 L22.1329062,4.02604312 C23.703005,7.207559 26.6937521,9.44229702 30.174995,10.0544645 L30.5027701,10.1070809 L35.061647,10.7694207 C35.6057086,10.8484651 36.1085435,11.1046459 36.4923159,11.4983079 C37.4142243,12.4439732 37.4358857,13.9332321 36.5708053,14.9044304 L36.4473448,15.0335557 L33.1487811,18.2492529 C30.6107639,20.72351 29.4094536,24.2540285 29.8989921,27.7508567 L29.9516571,28.0891177 L30.7304346,32.6311916 C30.8233401,33.1730456 30.7350463,33.7304148 30.47922,34.2170256 C29.8367181,35.4391371 28.3251502,35.9090036 27.1030387,35.2665017 C26.3697718,34.8810005 26.0878519,33.9740598 26.4733531,33.2407929 C26.7001184,32.8094594 27.1073127,32.5343014 27.5534514,32.4592988 L27.654,32.446 L26.9948051,28.5960953 C26.2303092,24.1373166 27.6494894,19.590217 30.7957381,16.3601085 L31.054615,16.1011215 L33.628,13.592 L30.0714414,13.0759116 C25.5914504,12.4250328 21.7030686,9.66673885 19.6046014,5.67164619 L19.4426734,5.35369047 L17.851,2.13 L16.2600482,5.35418718 C14.2561435,9.41354402 10.4311356,12.2589843 5.98310035,13.0201645 L5.63066714,13.0759116 L2.074,13.592 L4.64825486,16.101027 C7.88807127,19.258882 9.41269611,23.7722365 8.76530969,28.2350365 L8.70805017,28.5967466 L8.099,32.14 L11.2825505,30.466837 C14.1223421,28.9740888 17.3714347,28.4993894 20.4966817,29.0953895 L20.886654,29.1754698 C21.5243641,29.3158144 22.1522179,29.500402 22.76579,29.728279 C23.3316856,29.9384492 23.8845331,30.1851065 24.4211688,30.4672325 C25.1544358,30.8527337 25.4363556,31.7596744 25.0508545,32.4929413 C24.6653533,33.2262082 23.7584126,33.5081281 23.0251457,33.1226269 C22.6023535,32.900352 22.1669384,32.7060881 21.7213159,32.5405866 C21.2382467,32.3611776 20.7439464,32.2158544 20.2418567,32.1053566 C17.8033687,31.5687043 15.2513236,31.867409 12.9982092,32.9607261 L12.6784138,33.1223154 L8.59919879,35.2665717 C8.11252159,35.5223956 7.55508274,35.6106468 7.0131838,35.5176624 C5.70679297,35.293499 4.81231143,34.0934035 4.94943214,32.7937847 L4.97198999,32.6308774 L5.75126287,28.0893919 C6.3507259,24.5958113 5.24745525,21.0332002 2.79574294,18.4920408 L2.55428286,18.2493475 L-0.744846331,15.0336802 C-1.13859835,14.6498894 -1.39483971,14.1469918 -1.47389521,13.6028537 C-1.66446824,12.2911418 -0.799583019,11.0695444 0.478786422,10.7982833 L0.640689727,10.7693875 L5.1993384,10.1070809 C8.71045247,9.59696613 11.7602083,7.44330248 13.4185999,4.32169367 L13.5699695,4.02622769 L15.6100493,-0.106409871 C15.853393,-0.599356993 16.2524334,-0.99835108 16.7454088,-1.24163762 Z" id="路径"></path>
                    </g>
                </g>
            </g>
        </g>
    </g>
</svg>