<?xml version="1.0" encoding="UTF-8"?>
<svg width="44px" height="44px" viewBox="0 0 44 44" version="1.1" xmlns="http://www.w3.org/2000/svg" xmlns:xlink="http://www.w3.org/1999/xlink">
    <title>58@2x</title>
    <g id="页面-1" stroke="none" stroke-width="1" fill="none" fill-rule="evenodd">
        <g id="58">
            <g id="编组"></g>
            <g id="编组" stroke="#333333" stroke-linecap="round" stroke-linejoin="round" stroke-width="3">
                <g>
                    <polyline id="Stroke-1" transform="translate(22.500000, 24.255769) rotate(-90.000000) translate(-22.500000, -24.255769) " points="26 29.511538 19 22.8799591 23.2490043 19"></polyline>
                    <path d="M31.949996,39.197952 C32.4388406,39.4549527 33.0434677,39.2670062 33.3004685,38.7781616 C33.402799,38.5835173 33.4381166,38.3605696 33.4009544,38.143828 L32.6221768,33.601754 C31.9204396,29.5090035 33.2772904,25.3329916 36.2506438,22.4343348 L39.5492075,19.2186376 C39.9446675,18.8331122 39.9527213,18.1999985 39.5671959,17.8045384 C39.413687,17.6470736 39.212553,17.5446013 38.9949284,17.5129835 L34.4360515,16.8506438 C30.3267543,16.2536215 26.7743943,13.6726912 24.9367356,9.94901432 L22.8974716,5.81682146 C22.6530584,5.32156327 22.0534364,5.11821318 21.5581782,5.36262631 C21.360988,5.45994092 21.2013719,5.61953856 21.1040344,5.81671741 L19.0639546,9.94935496 C17.225834,13.6728789 13.6733122,16.2536119 9.5639485,16.8506438 L5.00529983,17.5129504 C4.4587532,17.5923558 4.08006043,18.0997902 4.15946585,18.6463369 C4.19108805,18.8639921 4.2935846,19.0651511 4.45108541,19.2186675 L7.75021459,22.4343348 C10.724015,25.3329035 12.0809051,29.5093009 11.3786023,33.6022168 L10.5993294,38.1437023 C10.5059279,38.6880318 10.8714774,39.2050149 11.4158069,39.2984163 C11.6325665,39.33561 11.855542,39.3003096 12.0502129,39.19798 L16.1294279,37.0537237 C18.7962768,35.6518836 21.8396794,35.267168 24.7132011,35.8995607 C25.2810053,36.0245207 25.8421765,36.1891939 26.3924987,36.3935803 C26.8958515,36.5805225 27.3901283,36.8006882 27.872103,37.0540773" id="路径"></path>
                </g>
            </g>
        </g>
    </g>
</svg>