<?xml version="1.0" encoding="UTF-8"?>
<svg width="44px" height="44px" viewBox="0 0 44 44" version="1.1" xmlns="http://www.w3.org/2000/svg" xmlns:xlink="http://www.w3.org/1999/xlink">
    <title>59@2x</title>
    <g id="页面-1" stroke="none" stroke-width="1" fill="none" fill-rule="evenodd">
        <g id="59">
            <g id="编组"></g>
            <path d="M20.874486,25.2312782 C20.8862546,21.0757791 17.9817597,17.3439503 13.7532952,16.4660114 C8.92227739,15.4621482 4.19129288,18.5655329 3.18860661,23.3977275 C2.18474348,28.2299221 5.2881281,32.9597298 10.1203227,33.9635929 C10.7240528,34.0895171 11.1430156,34.1507139 11.736154,34.1518908 C19.1745776,34.1518908 23.7981057,34.1518908 27.5173175,34.1518908 M33.8741017,34.1518908 C37.8566021,34.1518908 41,30.9237588 41,26.9412584 C41,22.9575812 37.771868,19.7294492 33.7893676,19.7294492 C33.190345,19.7294492 32.6125058,19.8106527 32.057027,19.9483455 C32.2053116,19.2998946 32.2923994,18.6290834 32.2923994,17.9359118 C32.2923994,13.0013302 28.2922461,9 23.3564876,9 C20.4002107,9 17.7781626,10.4369483 16.1517395,12.6506254" id="形状" stroke="#333333" stroke-width="3" stroke-linecap="round" stroke-linejoin="round"></path>
        </g>
    </g>
</svg>