<?xml version="1.0" encoding="UTF-8"?>
<svg width="44px" height="44px" viewBox="0 0 44 44" version="1.1" xmlns="http://www.w3.org/2000/svg" xmlns:xlink="http://www.w3.org/1999/xlink">
    <title>59@2x</title>
    <g id="相关图标说明" stroke="none" stroke-width="1" fill="none" fill-rule="evenodd">
        <g id="线型图标（单色）" transform="translate(-466.000000, -5240.000000)">
            <g id="编组-5" transform="translate(131.000000, 4940.000000)">
                <g id="59" transform="translate(335.000000, 300.000000)">
                    <g id="编组"></g>
                    <path d="M14.0582308,15.3973336 C18.9341262,16.409696 22.3884138,20.7154926 22.37448,25.6355263 C22.3721339,26.4639501 21.6986618,27.1336183 20.870238,27.1312722 C20.0418142,27.128926 19.3721459,26.4554539 19.374492,25.6270301 C19.3844097,22.1251042 16.9222076,19.0559501 13.448121,18.3346396 C9.42806333,17.4992902 5.49159642,20.0819057 4.6572496,24.1028304 C3.82193275,28.1237108 6.404135,32.0595479 10.426597,32.8951938 C10.9135687,32.9967649 11.2067988,33.0386992 11.5558319,33.0491555 L11.736154,33.0518908 L27.5173175,33.0518908 C28.3457446,33.0518908 29.0173175,33.7234637 29.0173175,34.5518908 C29.0173175,35.3315869 28.4224294,35.9723395 27.6617775,36.0450242 L27.5173175,36.0518908 L11.7331778,36.0518908 C11.0683266,36.0505687 10.5676805,35.9891824 9.81521984,35.8322359 C4.17179872,34.6598447 0.547621194,29.135811 1.71989243,23.4929675 C2.89087079,17.8497314 8.4159201,14.2248876 14.0582308,15.3973336 Z M23.3564876,7.9 C29.0258086,7.9 33.6389223,12.4205852 33.7886484,18.0533619 L33.7923994,18.3359118 L33.786,18.629 C38.5130396,18.6294492 42.3578992,22.3888477 42.4961507,27.0797144 L42.5,27.3412584 C42.5,32.1631704 38.674411,36.0518908 33.8741017,36.0518908 C33.0456746,36.0518908 32.3741017,35.3803179 32.3741017,34.5518908 C32.3741017,33.7234637 33.0456746,33.0518908 33.8741017,33.0518908 C37.0064662,33.0518908 39.5,30.5172077 39.5,27.3412584 C39.5,24.1861524 36.943585,21.6294492 33.7893676,21.6294492 C33.3397225,21.6294492 32.8848664,21.6885365 32.4179266,21.8042821 C31.3329705,22.0732225 30.3455931,21.1036285 30.5947722,20.0139642 C30.7255463,19.442087 30.7923994,18.8857913 30.7923994,18.3359118 C30.7923994,14.2293203 27.463382,10.9 23.3564876,10.9 C20.9594699,10.9 18.7544109,12.0416132 17.3605498,13.938757 C16.8700482,14.6063645 15.9312153,14.7499372 15.2636079,14.2594356 C14.5960004,13.768934 14.4524278,12.8301011 14.9429293,12.1624937 C16.8961218,9.50406021 19.9944107,7.9 23.3564876,7.9 Z" id="形状" fill="#333333" fill-rule="nonzero"></path>
                </g>
            </g>
        </g>
    </g>
</svg>