<?xml version="1.0" encoding="UTF-8"?>
<svg width="44px" height="44px" viewBox="0 0 44 44" version="1.1" xmlns="http://www.w3.org/2000/svg" xmlns:xlink="http://www.w3.org/1999/xlink">
    <title>6@2x</title>
    <g id="相关图标说明" stroke="none" stroke-width="1" fill="none" fill-rule="evenodd">
        <g id="线型图标（单色）" transform="translate(-546.000000, -4940.000000)">
            <g id="编组-5" transform="translate(131.000000, 4940.000000)">
                <g id="6" transform="translate(415.000000, 0.000000)">
                    <g id="编组"></g>
                    <path d="M27,6 C28.8685634,6 30.3951264,7.4642776 30.4948211,9.3079648 L30.5,9.5 L30.5,11 L34,11 C36.9634791,11 39.3795391,13.34378 39.4956328,16.2787929 L39.5,16.5 L39.5,29.5 C39.5,30.3284271 38.8284271,31 38,31 C37.2203039,31 36.5795513,30.4051119 36.5068666,29.64446 L36.5,29.5 L36.5,16.5 C36.5,15.1745166 35.4684641,14.0899613 34.1643757,14.0053177 L34,14 L29,14 C28.1715729,14 27.5,13.3284271 27.5,12.5 L27.5,9.5 C27.5,9.25454011 27.3231248,9.05039163 27.0898756,9.00805567 L27,9 L17,9 C16.7545401,9 16.5503916,9.17687516 16.5080557,9.41012437 L16.5,9.5 L16.5,12.5 C16.5,13.2796961 15.9051119,13.9204487 15.14446,13.9931334 L15,14 L10,14 L9.83562431,14.0053177 C8.53153594,14.0899613 7.5,15.1745166 7.5,16.5 L7.5,16.5 L7.5,32.5 L7.50531768,32.6643757 C7.58996133,33.9684641 8.6745166,35 10,35 L10,35 L37,35 L37.14446,35.0068666 C37.9051119,35.0795513 38.5,35.7203039 38.5,36.5 C38.5,37.3284271 37.8284271,38 37,38 L37,38 L10,38 L9.77879286,37.9956328 C6.84378001,37.8795391 4.5,35.4634791 4.5,32.5 L4.5,32.5 L4.5,16.5 L4.5043672,16.2787929 C4.62046086,13.34378 7.03652085,11 10,11 L10,11 L13.5,11 L13.5,9.5 C13.5,7.6314366 14.9642776,6.10487355 16.8079648,6.00517886 L17,6 L27,6 Z M22,16 C26.1421356,16 29.5,19.3578644 29.5,23.5 C29.5,27.6421356 26.1421356,31 22,31 C17.8578644,31 14.5,27.6421356 14.5,23.5 C14.5,19.3578644 17.8578644,16 22,16 Z M22,19 C19.5147186,19 17.5,21.0147186 17.5,23.5 C17.5,25.9852814 19.5147186,28 22,28 C24.4852814,28 26.5,25.9852814 26.5,23.5 C26.5,21.0147186 24.4852814,19 22,19 Z M33,15.5 C33.8284271,15.5 34.5,16.1715729 34.5,17 C34.5,17.7796961 33.9051119,18.4204487 33.14446,18.4931334 L33,18.5 L32,18.5 C31.1715729,18.5 30.5,17.8284271 30.5,17 C30.5,16.2203039 31.0948881,15.5795513 31.85554,15.5068666 L32,15.5 L33,15.5 Z" id="形状结合" fill="#333333" fill-rule="nonzero"></path>
                </g>
            </g>
        </g>
    </g>
</svg>