<?xml version="1.0" encoding="UTF-8"?>
<svg width="44px" height="44px" viewBox="0 0 44 44" version="1.1" xmlns="http://www.w3.org/2000/svg" xmlns:xlink="http://www.w3.org/1999/xlink">
    <title>6@2x</title>
    <g id="页面-1" stroke="none" stroke-width="1" fill="none" fill-rule="evenodd">
        <g id="6">
            <g id="编组"></g>
            <path d="M27,5.5 C28.8685634,5.5 30.3951264,6.9642776 30.4948211,8.8079648 L30.5,9 L30.5,10.5 L34,10.5 C36.9634791,10.5 39.3795391,12.84378 39.4956328,15.7787929 L39.5,16 L39.5,29 C39.5,29.8284271 38.8284271,30.5 38,30.5 C37.2203039,30.5 36.5795513,29.9051119 36.5068666,29.14446 L36.5,29 L36.5,16 C36.5,14.6745166 35.4684641,13.5899613 34.1643757,13.5053177 L34,13.5 L29,13.5 C28.1715729,13.5 27.5,12.8284271 27.5,12 L27.5,9 C27.5,8.75454011 27.3231248,8.55039163 27.0898756,8.50805567 L27,8.5 L17,8.5 C16.7545401,8.5 16.5503916,8.67687516 16.5080557,8.91012437 L16.5,9 L16.5,12 C16.5,12.7796961 15.9051119,13.4204487 15.14446,13.4931334 L15,13.5 L10,13.5 L9.83562431,13.5053177 C8.53153594,13.5899613 7.5,14.6745166 7.5,16 L7.5,16 L7.5,32 L7.50531768,32.1643757 C7.58996133,33.4684641 8.6745166,34.5 10,34.5 L10,34.5 L37,34.5 L37.14446,34.5068666 C37.9051119,34.5795513 38.5,35.2203039 38.5,36 C38.5,36.8284271 37.8284271,37.5 37,37.5 L37,37.5 L10,37.5 L9.77879286,37.4956328 C6.84378001,37.3795391 4.5,34.9634791 4.5,32 L4.5,32 L4.5,16 L4.5043672,15.7787929 C4.62046086,12.84378 7.03652085,10.5 10,10.5 L10,10.5 L13.5,10.5 L13.5,9 C13.5,7.1314366 14.9642776,5.60487355 16.8079648,5.50517886 L17,5.5 L27,5.5 Z M22,15.5 C26.1421356,15.5 29.5,18.8578644 29.5,23 C29.5,27.1421356 26.1421356,30.5 22,30.5 C17.8578644,30.5 14.5,27.1421356 14.5,23 C14.5,18.8578644 17.8578644,15.5 22,15.5 Z M22,18.5 C19.5147186,18.5 17.5,20.5147186 17.5,23 C17.5,25.4852814 19.5147186,27.5 22,27.5 C24.4852814,27.5 26.5,25.4852814 26.5,23 C26.5,20.5147186 24.4852814,18.5 22,18.5 Z M33,15 C33.8284271,15 34.5,15.6715729 34.5,16.5 C34.5,17.2796961 33.9051119,17.9204487 33.14446,17.9931334 L33,18 L32,18 C31.1715729,18 30.5,17.3284271 30.5,16.5 C30.5,15.7203039 31.0948881,15.0795513 31.85554,15.0068666 L32,15 L33,15 Z" id="形状结合" fill="#333333" fill-rule="nonzero"></path>
        </g>
    </g>
</svg>