<?xml version="1.0" encoding="UTF-8"?>
<svg width="44px" height="44px" viewBox="0 0 44 44" version="1.1" xmlns="http://www.w3.org/2000/svg" xmlns:xlink="http://www.w3.org/1999/xlink">
    <title>60@2x</title>
    <g id="页面-1" stroke="none" stroke-width="1" fill="none" fill-rule="evenodd">
        <g id="60">
            <g id="编组"></g>
            <path d="M30,17 L30,12.0894313 C30,8.17404649 26.418278,5 22,5 C17.581722,5 14,8.17404649 14,12.0894313 L14,17" id="路径" stroke="#333333" stroke-width="3" stroke-linecap="round" stroke-linejoin="round"></path>
            <path d="M36,33.4635844 C36,34.5369961 35.8143488,35.3018396 35.4657346,35.9536914 C35.1171204,36.6055433 34.6055433,37.1171204 33.9536914,37.4657346 C33.3018396,37.8143488 32.5369961,38 31.4635844,38 L30.6868242,38 L25.8734962,38 L13.1277704,38 C11.3447329,38 10.6981604,37.8143488 10.0463086,37.4657346 C9.39445674,37.1171204 8.88287959,36.6055433 8.53426541,35.9536914 C8.18565122,35.3018396 8,34.6552671 8,32.8722296 L8,22.1277704 C8,20.3447329 8.18565122,19.6981604 8.53426541,19.0463086 C8.88287959,18.3944567 9.39445674,17.8828796 10.0463086,17.5342654 C10.6981604,17.1856512 11.3447329,17 13.1277704,17 L30.8722296,17 C32.6552671,17 33.3018396,17.1856512 33.9536914,17.5342654 C34.6055433,17.8828796 35.1171204,18.3944567 35.4657346,19.0463086 C35.8143488,19.6981604 36,20.3447329 36,22.1277704 L36,27.1280192" id="路径" stroke="#333333" stroke-width="3" stroke-linecap="round" stroke-linejoin="round"></path>
            <line x1="22.5" y1="24.5" x2="22.5" y2="30.5" id="路径-24" stroke="#333333" stroke-width="3" stroke-linecap="round" stroke-linejoin="round"></line>
        </g>
    </g>
</svg>