<?xml version="1.0" encoding="UTF-8"?>
<svg width="44px" height="44px" viewBox="0 0 44 44" version="1.1" xmlns="http://www.w3.org/2000/svg" xmlns:xlink="http://www.w3.org/1999/xlink">
    <title>61@2x</title>
    <g id="相关图标说明" stroke="none" stroke-width="1" fill="none" fill-rule="evenodd">
        <g id="线型图标（单色）" transform="translate(-630.000000, -5240.000000)">
            <g id="编组-5" transform="translate(131.000000, 4940.000000)">
                <g id="61" transform="translate(499.000000, 300.000000)">
                    <g id="编组"></g>
                    <path d="M25.2932884,3.70730524 C26.1469213,2.72602997 27.6269002,2.55862725 28.681858,3.35314733 C29.3623392,3.865638 29.7316692,4.68623445 29.6715621,5.52779586 L29.6520659,5.7083467 L28.266,15.276086 L33.4691506,15.2767609 C34.794634,15.2767609 35.8791892,16.3082968 35.9638329,17.6123852 L35.9691506,17.7767609 C35.9691506,18.2574682 35.830594,18.7266549 35.5283974,19.183142 L35.4073541,19.353727 L27.3012305,28.795748 C26.7616,29.4243101 25.8145927,29.4964035 25.1860306,28.956773 C24.5967535,28.4508694 24.4965604,27.5869198 24.93098,26.962983 L25.0250055,26.841573 L32.382,18.276086 L26.5339963,18.2767609 C25.6657347,18.2767609 24.9892027,17.5453814 25.0359963,16.6967227 L25.0494733,16.5618388 L26.443,6.93608598 L11.641,23.623086 L18.1662486,23.6236333 C19.0241428,23.6236333 19.6972725,24.3385088 19.6653863,25.1781388 L19.6544169,25.3116626 L18.44,34.918086 L21.3364833,31.5861704 C21.8458785,30.999909 22.710408,30.9048498 23.3317532,31.3429682 L23.4526025,31.4377133 C24.0388639,31.9471085 24.133923,32.8116381 23.6958047,33.4329832 L23.6010595,33.5538325 L17.4654858,40.6152452 C16.5233178,41.6995835 14.7729237,40.9638648 14.8334326,39.5793556 L14.8450294,39.4433848 L16.465,26.623086 L10.53,26.6236333 C9.2045166,26.6236333 8.11996133,25.5920974 8.03531768,24.288009 L8.03,24.1236333 C8.03,23.6246192 8.17929539,23.1385145 8.49578361,22.6800114 L8.62233881,22.5093953 L25.2568313,3.75325711 L25.2932884,3.70730524 Z" id="路径" fill="#333333" fill-rule="nonzero"></path>
                </g>
            </g>
        </g>
    </g>
</svg>