<?xml version="1.0" encoding="UTF-8"?>
<svg width="44px" height="44px" viewBox="0 0 44 44" version="1.1" xmlns="http://www.w3.org/2000/svg" xmlns:xlink="http://www.w3.org/1999/xlink">
    <title>62@2x</title>
    <g id="页面-1" stroke="none" stroke-width="1" fill="none" fill-rule="evenodd">
        <g id="62">
            <g id="编组"></g>
            <g id="编组备份-2" transform="translate(22.000000, 22.000000) scale(-1, -1) translate(-22.000000, -22.000000) translate(6.000000, 6.000000)"></g>
            <g id="irmxitong-tuichu" transform="translate(3.000000, 3.000000)" fill="#333333" fill-rule="nonzero">
                <path d="M10.2880808,4.67635339 C10.8160293,5.39449462 10.6645488,6.39830574 9.94860145,6.92464145 C5.91241969,9.90520502 3.59646689,14.6771057 3.75172991,19.6898832 C3.88033783,23.760992 5.58865601,27.5416199 8.55973604,30.3308876 C11.5397943,33.128584 15.3565709,34.5750987 19.4823923,34.4602471 C27.8932661,34.1940839 34.5160056,27.1387997 34.254274,18.7279004 C34.1078668,14.0251228 31.8478181,9.72190489 28.0536342,6.92502395 C27.3375917,6.3986178 27.1857163,5.39117738 27.712987,4.67723316 C28.2419294,3.96545013 29.2546051,3.81293873 29.9604697,4.33580136 C34.5540304,7.72977028 37.2880511,12.9335527 37.4676439,18.626225 C37.7816055,28.6936537 29.93539,37.163932 19.9161627,37.6599962 L19.3314039,37.683838 L18.9922778,37.6861904 C14.2704149,37.6861904 9.8081063,35.9204503 6.35685368,32.6820319 C2.75917135,29.301631 0.692914977,24.7247856 0.538365708,19.79174 C0.350368327,13.7215124 3.15405442,7.94480531 8.0406541,4.33623939 C8.75130173,3.80898627 9.76236953,3.96125551 10.2880808,4.67635339 Z" id="路径"></path>
                <path d="M19.0051481,0.521450506 C19.8921285,0.521450506 20.6115878,1.24192167 20.6115878,2.13218027 L20.6115878,16.7442648 C20.6115878,17.6307399 19.8916232,18.3507045 19.0051481,18.3507045 C18.1186731,18.3507045 17.3987085,17.6307399 17.3987085,16.7442648 L17.3987085,2.12789017 C17.3987085,1.24141514 18.1186731,0.521450506 19.0051481,0.521450506 Z" id="路径"></path>
            </g>
        </g>
    </g>
</svg>