<?xml version="1.0" encoding="UTF-8"?>
<svg width="44px" height="44px" viewBox="0 0 44 44" version="1.1" xmlns="http://www.w3.org/2000/svg" xmlns:xlink="http://www.w3.org/1999/xlink">
    <title>62@2x</title>
    <g id="相关图标说明" stroke="none" stroke-width="1" fill="none" fill-rule="evenodd">
        <g id="线型图标（单色）" transform="translate(-714.000000, -5240.000000)">
            <g id="编组-5" transform="translate(131.000000, 4940.000000)">
                <g id="62" transform="translate(583.000000, 300.000000)">
                    <g id="编组"></g>
                    <g id="irmxitong-tuichu" transform="translate(3.529477, 3.521451)" fill="#333333" fill-rule="nonzero">
                        <path d="M9.75860376,4.15490288 C10.2865523,4.87304411 10.1350718,5.87685524 9.41912445,6.40319094 C5.38294269,9.38375452 3.06698989,14.1556552 3.22225291,19.1684327 C3.35086083,23.2395415 5.05917901,27.0201694 8.03025904,29.809437 C11.0103173,32.6071335 14.8270939,34.0536482 18.9529153,33.9387966 C27.3637891,33.6726334 33.9865286,26.6173492 33.724797,18.2064499 C33.5783898,13.5036723 31.3183411,9.20045438 27.5241572,6.40357345 C26.8081147,5.8771673 26.6562393,4.86972688 27.18351,4.15578266 C27.7124524,3.44399962 28.7251281,3.29148823 29.4309927,3.81435085 C34.0245534,7.20831977 36.7585741,12.4121022 36.9381669,18.1047745 C37.2521285,28.1722032 29.405913,36.6424815 19.3866857,37.1385457 L18.8019269,37.1623875 L18.4628008,37.1647399 C13.7409379,37.1647399 9.2786293,35.3989998 5.82737668,32.1605814 C2.22969435,28.7801805 0.163437977,24.2033351 0.00888870849,19.2702895 C-0.179108673,13.2000619 2.62457742,7.4233548 7.5111771,3.81478889 C8.22182474,3.28753576 9.23289253,3.43980501 9.75860376,4.15490288 Z" id="路径"></path>
                        <path d="M18.4756711,0 C19.3626515,0 20.0821108,0.720471166 20.0821108,1.61072977 L20.0821108,16.2228143 C20.0821108,17.1092893 19.3621462,17.829254 18.4756711,17.829254 C17.5891961,17.829254 16.8692315,17.1092893 16.8692315,16.2228143 L16.8692315,1.60643967 C16.8692315,0.719964629 17.5891961,0 18.4756711,0 Z" id="路径"></path>
                    </g>
                </g>
            </g>
        </g>
    </g>
</svg>