<?xml version="1.0" encoding="UTF-8"?>
<svg width="44px" height="44px" viewBox="0 0 44 44" version="1.1" xmlns="http://www.w3.org/2000/svg" xmlns:xlink="http://www.w3.org/1999/xlink">
    <title>63@2x</title>
    <g id="相关图标说明" stroke="none" stroke-width="1" fill="none" fill-rule="evenodd">
        <g id="线型图标（单色）" transform="translate(-798.000000, -5240.000000)">
            <g id="编组-5" transform="translate(131.000000, 4940.000000)">
                <g id="63" transform="translate(667.000000, 300.000000)">
                    <g id="编组"></g>
                    <g id="编组-60" transform="translate(3.000000, 4.250000)" fill="#333333" fill-rule="nonzero">
                        <path d="M32.5,0 C35.4634791,0 37.8795391,2.34378001 37.9956328,5.27879286 L38,5.5 L38,16.8909321 C38,17.7193592 37.3284271,18.3909321 36.5,18.3909321 C35.7203039,18.3909321 35.0795513,17.796044 35.0068666,17.0353921 L35,16.8909321 L35,5.5 C35,4.1745166 33.9684641,3.08996133 32.6643757,3.00531768 L32.5,3 L5.5,3 C4.1745166,3 3.08996133,4.03153594 3.00531768,5.33562431 L3,5.5 L3,22.5 C3,23.8254834 4.03153594,24.9100387 5.33562431,24.9946823 L5.5,25 L32.5,25 C33.8254834,25 34.9100387,23.9684641 34.9946823,22.6643757 L35,22.5 L35,22.2353034 C35,21.4068763 35.6715729,20.7353034 36.5,20.7353034 C37.2796961,20.7353034 37.9204487,21.3301915 37.9931334,22.0908434 L38,22.2353034 L38,22.5 C38,25.4634791 35.65622,27.8795391 32.7212071,27.9956328 L32.5,28 L5.5,28 C2.53652085,28 0.120460863,25.65622 0.00436720397,22.7212071 L0,22.5 L0,5.5 C0,2.53652085 2.34378001,0.120460863 5.27879286,0.00436720397 L5.5,0 L32.5,0 Z" id="路径"></path>
                        <path d="M28.5,32.5 C29.3284271,32.5 30,33.1715729 30,34 C30,34.7796961 29.4051119,35.4204487 28.64446,35.4931334 L28.5,35.5 L8.5,35.5 C7.67157288,35.5 7,34.8284271 7,34 C7,33.2203039 7.59488808,32.5795513 8.35553999,32.5068666 L8.5,32.5 L28.5,32.5 Z" id="路径-21备份"></path>
                        <path d="M19,26 C19.7796961,26 20.4204487,26.5948881 20.4931334,27.35554 L20.5,27.5 L20.5,32.6842455 C20.5,33.5126726 19.8284271,34.1842455 19,34.1842455 C18.2203039,34.1842455 17.5795513,33.5893574 17.5068666,32.8287055 L17.5,32.6842455 L17.5,27.5 C17.5,26.6715729 18.1715729,26 19,26 Z" id="路径-22"></path>
                    </g>
                </g>
            </g>
        </g>
    </g>
</svg>