<?xml version="1.0" encoding="UTF-8"?>
<svg width="44px" height="44px" viewBox="0 0 44 44" version="1.1" xmlns="http://www.w3.org/2000/svg" xmlns:xlink="http://www.w3.org/1999/xlink">
    <title>64@2x</title>
    <g id="相关图标说明" stroke="none" stroke-width="1" fill="none" fill-rule="evenodd">
        <g id="线型图标（单色）" transform="translate(-882.000000, -5240.000000)">
            <g id="编组-5" transform="translate(131.000000, 4940.000000)">
                <g id="64" transform="translate(751.000000, 300.000000)">
                    <g id="编组"></g>
                    <g id="编组" transform="translate(7.500000, 6.000000)" fill="#333333" fill-rule="nonzero">
                        <path d="M25.6538462,-1.5 C28.2155501,-1.5 30.3768254,0.326768047 30.4949197,2.71821339 L30.5,2.92454787 L30.5,32.1941609 C30.5,33.0225881 29.8284271,33.6941609 29,33.6941609 C28.2203039,33.6941609 27.5795513,33.0992729 27.5068666,32.338621 L27.5,32.1941609 L27.5,2.92454787 C27.5,2.22494989 26.7954662,1.5723644 25.8190291,1.50560913 L25.6538462,1.5 L3.34615385,1.5 C2.34084058,1.5 1.58339554,2.11576454 1.50644928,2.8084759 L1.5,2.92454787 L1.5,30.596 L14.0789011,23.6167026 C14.5253763,23.3689435 15.0636742,23.3668147 15.5088546,23.6027376 L15.6394302,23.6806485 L24.0067339,29.2651404 C24.6957878,29.7250276 24.8815641,30.6564283 24.4216769,31.3454822 C23.9888419,31.9940035 23.1383339,32.1967149 22.4653032,31.8349084 L22.341335,31.7604252 L14.735,26.683 L2.44106936,33.5057493 C1.32509665,34.1250275 -0.116267511,33.8817715 -0.928208837,32.9178964 L-1.03981557,32.7753131 C-1.30018616,32.4168987 -1.45723692,31.9976956 -1.49243132,31.5598482 L-1.5,31.3711806 L-1.5,2.92454787 C-1.5,0.501865527 0.590116898,-1.39219925 3.12759818,-1.49555572 L3.34615385,-1.5 L25.6538462,-1.5 Z" id="路径"></path>
                        <path d="M18.9615385,7.77925127 C19.7899656,7.77925127 20.4615385,8.45082415 20.4615385,9.27925127 C20.4615385,10.0589474 19.8666504,10.6996999 19.1059985,10.7723847 L18.9615385,10.7792513 L10.0384615,10.7792513 C9.21003441,10.7792513 8.53846154,10.1076784 8.53846154,9.27925127 C8.53846154,8.49955515 9.13334962,7.85880259 9.89400153,7.78611785 L10.0384615,7.77925127 L18.9615385,7.77925127 Z" id="Stroke-5"></path>
                        <path d="M18.9615385,14.471559 C19.7899656,14.471559 20.4615385,15.1431318 20.4615385,15.971559 C20.4615385,16.7512551 19.8666504,17.3920076 19.1059985,17.4646924 L18.9615385,17.471559 L10.0384615,17.471559 C9.21003441,17.471559 8.53846154,16.7999861 8.53846154,15.971559 C8.53846154,15.1918628 9.13334962,14.5511103 9.89400153,14.4784255 L10.0384615,14.471559 L18.9615385,14.471559 Z" id="Stroke-5备份"></path>
                    </g>
                </g>
            </g>
        </g>
    </g>
</svg>