<?xml version="1.0" encoding="UTF-8"?>
<svg width="44px" height="44px" viewBox="0 0 44 44" version="1.1" xmlns="http://www.w3.org/2000/svg" xmlns:xlink="http://www.w3.org/1999/xlink">
    <title>65@2x</title>
    <g id="相关图标说明" stroke="none" stroke-width="1" fill="none" fill-rule="evenodd">
        <g id="线型图标（单色）" transform="translate(-966.000000, -5240.000000)">
            <g id="编组-5" transform="translate(131.000000, 4940.000000)">
                <g id="65" transform="translate(835.000000, 300.000000)">
                    <g id="编组"></g>
                    <g id="编组" transform="translate(6.250000, 7.205930)" fill="#333333" fill-rule="nonzero">
                        <path d="M28.75,0 C29.7164983,0 30.5,0.783501688 30.5,1.75 C30.5,2.6681734 29.7928897,3.42119234 28.8935272,3.4941988 L28.75,3.5 L1.75,3.5 C0.783501688,3.5 0,2.71649831 0,1.75 C0,0.831826603 0.707110273,0.0788076603 1.60647279,0.00580119953 L1.75,0 L28.75,0 Z" id="Stroke-1"></path>
                        <path d="M16.75,26 C17.7164983,26 18.5,26.7835017 18.5,27.75 C18.5,28.6681734 17.7928897,29.4211923 16.8935272,29.4941988 L16.75,29.5 L1.75,29.5 C0.783501688,29.5 0,28.7164983 0,27.75 C0,26.8318266 0.707110273,26.0788077 1.60647279,26.0058012 L1.75,26 L16.75,26 Z" id="Stroke-5"></path>
                        <path d="M29.64917,26.04407 C30.6156683,26.04407 31.39917,26.8275717 31.39917,27.79407 C31.39917,28.7122434 30.6920597,29.4652623 29.7926972,29.5382688 L29.64917,29.54407 L24.64917,29.54407 C23.6826717,29.54407 22.89917,28.7605683 22.89917,27.79407 C22.89917,26.8758966 23.6062803,26.1228777 24.5056428,26.0498712 L24.64917,26.04407 L29.64917,26.04407 Z" id="Stroke-5备份-2"></path>
                        <path d="M18.75,13 C19.7164983,13 20.5,13.7835017 20.5,14.75 C20.5,15.6681734 19.7928897,16.4211923 18.8935272,16.4941988 L18.75,16.5 L1.75,16.5 C0.783501688,16.5 0,15.7164983 0,14.75 C0,13.8318266 0.707110273,13.0788077 1.60647279,13.0058012 L1.75,13 L18.75,13 Z" id="Stroke-9"></path>
                    </g>
                </g>
            </g>
        </g>
    </g>
</svg>