<?xml version="1.0" encoding="UTF-8"?>
<svg width="44px" height="44px" viewBox="0 0 44 44" version="1.1" xmlns="http://www.w3.org/2000/svg" xmlns:xlink="http://www.w3.org/1999/xlink">
    <title>66@2x</title>
    <g id="页面-1" stroke="none" stroke-width="1" fill="none" fill-rule="evenodd">
        <g id="66">
            <g id="编组"></g>
            <g id="编组-40" transform="translate(3.000000, 7.000000)">
                <path d="M21.5175,0 C22.8475,0 24.035,0.841935484 24.453,2.08612903 C24.605,2.51645161 24.9755,2.82516129 25.422,2.89064516 C28.2055,3.25548387 38,5.20129032 38,14.0322581 L38,14.0322581 L38,16.8387097 C38,24.8558065 32.1765,29 19,29 C6.422,29 0,24.6967742 0,16.8387097 L0,16.8387097 L0,14.0322581 C0,5.26677419 9.804,3.27419355 12.578,2.89064516 C13.0245,2.82516129 13.395,2.51645161 13.5375,2.09548387 L13.5375,2.09548387 L13.547,2.08612903 C13.965,0.841935484 15.1525,0 16.4825,0 L16.4825,0 Z" id="形状结合" stroke="#333333" stroke-width="3"></path>
                <path d="M19,25 C16.791,25 15,23.209 15,21 C15,18.791 16.791,17 19,17 C21.209,17 23,18.791 23,21 C23,23.209 21.209,25 19,25 Z" id="Fill-11" fill="#333333"></path>
                <path d="M30.7887308,27.4324337 C32.0732281,26.341318 32.8756911,23.9847188 32.9852705,22.5390115 C33.0583234,21.5752066 33.092165,20.7322028 33.0867951,20.01 C33.0867951,15.45 29.6723472,11 18.2783472,11 C7.36134722,11 5.01234722,15.51 5.01234722,20.01 C4.96954759,20.9380073 5.03801645,21.9346739 5.21775378,23 C5.48735978,24.5979891 6.64958992,26.6457291 8.01234722,27.4324337" id="路径" stroke="#333333" stroke-width="3"></path>
            </g>
        </g>
    </g>
</svg>