<?xml version="1.0" encoding="UTF-8"?>
<svg width="44px" height="44px" viewBox="0 0 44 44" version="1.1" xmlns="http://www.w3.org/2000/svg" xmlns:xlink="http://www.w3.org/1999/xlink">
    <title>66@2x</title>
    <g id="相关图标说明" stroke="none" stroke-width="1" fill="none" fill-rule="evenodd">
        <g id="线型图标（单色）" transform="translate(-1050.000000, -5240.000000)">
            <g id="编组-5" transform="translate(131.000000, 4940.000000)">
                <g id="66" transform="translate(919.000000, 300.000000)">
                    <g id="编组"></g>
                    <g id="编组-40" transform="translate(3.000000, 7.500000)" fill="#333333">
                        <path d="M16.4825,-1.5 L16.2484694,-1.49364284 L16.0208251,-1.4746385 C14.3622291,-1.29673418 12.9488075,-0.276864353 12.2866743,1.19584385 L12.267,1.24 L12.2626247,1.24570317 L12.187,1.432 L12.3603378,1.40652146 C9.76502461,1.76531237 6.96097182,2.57426448 4.48958102,4.02452474 C0.737951929,6.22605376 -1.5,9.54052411 -1.5,14.0322581 L-1.5,16.8387097 L-1.49713035,17.1360341 C-1.32299995,25.8878336 5.96718621,30.5 19,30.5 C20.7077997,30.5 22.308962,30.429823 23.8034618,30.2891033 L24.6080653,30.2053489 C34.533379,29.0709139 39.5,24.6540207 39.5,16.8387097 L39.5,14.0322581 L39.4945062,13.6554624 C39.3615346,9.25581228 37.0937083,6.0431686 33.3869494,3.91939674 L32.9241008,3.66355713 C30.7479244,2.50341455 28.3532471,1.81323348 26.0979538,1.47134217 L25.811,1.431 L25.8673602,1.58654394 C25.2508791,-0.248997092 23.4893452,-1.5 21.5175,-1.5 L16.4825,-1.5 Z M16.383701,1.50296768 L16.5275677,1.49932282 L21.5175,1.5 C22.1583328,1.5 22.7318966,1.8748249 22.9797918,2.43208266 L23.0310997,2.56383149 C23.3752539,3.53869206 24.2049003,4.22819096 25.2043378,4.37476887 C31.3746779,5.18370415 36.3227217,8.01866493 36.495362,13.7233781 L36.5001694,14.0548004 L36.5001694,16.8387097 C36.5001694,22.6030194 33.0902326,25.9813773 25.4361778,27.0911229 L24.7175706,27.1871209 C23.0125791,27.3960978 21.1095017,27.5 19,27.5 C7.40094513,27.5 1.63710028,23.8534797 1.5024991,17.091335 L1.49992652,16.8238623 L1.49992652,14.0322581 C1.49992652,8.17133003 6.4820309,5.24777726 12.7834437,4.37650952 L12.9633595,4.34406278 C13.734314,4.17863115 14.3882842,3.69366824 14.7640381,3.01581231 L14.788,2.968 L14.8547836,2.90350423 L14.9689003,2.56383149 C15.169378,1.96710163 15.7322894,1.54219451 16.383701,1.50296768 Z" id="形状结合" fill-rule="nonzero"></path>
                        <path d="M19,25 C16.791,25 15,23.209 15,21 C15,18.791 16.791,17 19,17 C21.209,17 23,18.791 23,21 C23,23.209 21.209,25 19,25 Z" id="Fill-11"></path>
                        <path d="M18.2783472,9.5 C29.1142543,9.5 34.5867951,13.5421896 34.5867536,19.9988472 C34.5924576,20.7659884 34.5569844,21.6496388 34.4809802,22.6523809 C34.3310669,24.630223 33.3459213,27.0820264 31.9523606,28.4027202 L31.7598381,28.5756531 L29.8176236,26.2892143 C30.6260951,25.6024584 31.3884629,23.7594514 31.4895609,22.4256421 C31.5596625,21.5007744 31.5918723,20.6984172 31.5867951,20.01 C31.5867951,15.4298283 27.6202308,12.5 18.2783472,12.5 C9.57553594,12.5 6.51234722,15.1522134 6.51075447,20.0791064 C6.47307122,20.8961775 6.53424705,21.7866833 6.69685024,22.7504531 C6.90208895,23.966929 7.78596199,25.4608009 8.62328834,26.0446777 L8.7622874,26.1333611 L7.26240703,28.7315063 C5.54902108,27.7423877 4.09487673,25.3609047 3.73865732,23.2495469 C3.54178585,22.0826646 3.46602397,20.9798371 3.51234722,20.01 C3.51234722,13.391631 8.00700835,9.5 18.2783472,9.5 Z" id="路径" fill-rule="nonzero"></path>
                    </g>
                </g>
            </g>
        </g>
    </g>
</svg>