<?xml version="1.0" encoding="UTF-8"?>
<svg width="44px" height="44px" viewBox="0 0 44 44" version="1.1" xmlns="http://www.w3.org/2000/svg" xmlns:xlink="http://www.w3.org/1999/xlink">
    <title>67@2x</title>
    <g id="相关图标说明" stroke="none" stroke-width="1" fill="none" fill-rule="evenodd">
        <g id="线型图标（单色）" transform="translate(-1134.000000, -5240.000000)">
            <g id="编组-5" transform="translate(131.000000, 4940.000000)">
                <g id="67" transform="translate(1003.000000, 300.000000)">
                    <g id="编组"></g>
                    <g id="编组-46" transform="translate(5.500000, 4.000000)" fill="#333333" fill-rule="nonzero">
                        <g id="编组-59">
                            <path d="M7,16 C3.13400675,16 0,19.1340068 0,23 C0,26.8659932 3.13400675,30 7,30 C10.8659932,30 14,26.8659932 14,23 C14,19.1340068 10.8659932,16 7,16 Z M7,19 C9.209139,19 11,20.790861 11,23 C11,25.209139 9.209139,27 7,27 C4.790861,27 3,25.209139 3,23 C3,20.790861 4.790861,19 7,19 Z" id="椭圆形"></path>
                            <path d="M23.5,0 C18.2532949,0 14,4.25329488 14,9.5 C14,14.7467051 18.2532949,19 23.5,19 C28.7467051,19 33,14.7467051 33,9.5 C33,4.25329488 28.7467051,0 23.5,0 Z M23.5,3 C27.0898509,3 30,5.91014913 30,9.5 C30,13.0898509 27.0898509,16 23.5,16 C19.9101491,16 17,13.0898509 17,9.5 C17,5.91014913 19.9101491,3 23.5,3 Z" id="椭圆形备份"></path>
                            <path d="M24,22 C27.8659932,22 31,25.1340068 31,29 C31,29.9754015 30.79951,30.9253988 30.4161973,31.8021222 C30.0843326,32.5611724 29.1999713,32.9074747 28.440921,32.57561 C27.7265208,32.2632668 27.3777381,31.4615147 27.6158546,30.7354466 L27.6674332,30.6003337 C27.8858194,30.1008347 28,29.5598037 28,29 C28,26.790861 26.209139,25 24,25 C21.790861,25 20,26.790861 20,29 C20,31.209139 21.790861,33 24,33 C24.4952858,33 24.9758678,32.9106107 25.4258645,32.7388323 L25.6482406,32.6461097 C26.4028408,32.3042471 27.2916995,32.638837 27.6335621,33.3934372 C27.9754248,34.1480374 27.6408349,35.0368961 26.8862347,35.3787587 C25.986614,35.7863212 25.0069513,36 24,36 C20.1340068,36 17,32.8659932 17,29 C17,25.1340068 20.1340068,22 24,22 Z" id="路径"></path>
                            <path d="M16.0204567,12.8640004 C16.647852,12.3230136 17.5950128,12.3930615 18.1359996,13.0204567 C18.6431747,13.6086398 18.6133076,14.4778667 18.0906353,15.0299819 L17.9795433,15.1359996 L12.404171,19.9435 C11.7767758,20.4844868 10.829615,20.4144389 10.2886282,19.7870437 C9.78145305,19.1988606 9.81132012,18.3296337 10.3339924,17.7775185 L10.4450845,17.6715008 L16.0204567,12.8640004 Z" id="路径-4备份"></path>
                        </g>
                    </g>
                </g>
            </g>
        </g>
    </g>
</svg>