<?xml version="1.0" encoding="UTF-8"?>
<svg width="44px" height="44px" viewBox="0 0 44 44" version="1.1" xmlns="http://www.w3.org/2000/svg" xmlns:xlink="http://www.w3.org/1999/xlink">
    <title>68@2x</title>
    <g id="相关图标说明" stroke="none" stroke-width="1" fill="none" fill-rule="evenodd">
        <g id="线型图标（单色）" transform="translate(-1218.000000, -5240.000000)">
            <g id="编组-5" transform="translate(131.000000, 4940.000000)">
                <g id="68" transform="translate(1087.000000, 300.000000)">
                    <g id="编组"></g>
                    <g id="编组-58" transform="translate(3.500000, 6.000000)" fill="#333333" fill-rule="nonzero">
                        <path d="M13.3605485,0 C15.281207,0 17.0564369,1.00124342 18.0524409,2.63009389 L18.1728371,2.83694196 L19.6202067,5.45241641 C20.0311775,6.19506267 20.7882839,6.6747503 21.626783,6.73540801 L21.8076107,6.74193548 L31.5,6.74193548 C34.4634791,6.74193548 36.8795391,9.0857155 36.9956328,12.0207283 L37,12.2419355 L37,26.5 C37,29.4634791 34.65622,31.8795391 31.7212071,31.9956328 L31.5,32 L31.3887232,32 C30.5602961,32 29.8887232,31.3284271 29.8887232,30.5 C29.8887232,29.7203039 30.4836113,29.0795513 31.2442632,29.0068666 L31.3887232,29 L31.5,29 C32.8254834,29 33.9100387,27.9684641 33.9946823,26.6643757 L34,26.5 L34,12.2419355 C34,10.9164521 32.9684641,9.83189681 31.6643757,9.74725316 L31.5,9.74193548 L21.8076107,9.74193548 C19.8869521,9.74193548 18.1117222,8.74069207 17.1157182,7.11184159 L16.995322,6.90499353 L15.5479524,4.28951907 C15.1369816,3.54687282 14.3798753,3.06718518 13.5413762,3.00652748 L13.3605485,3 L5.5,3 C4.1745166,3 3.08996133,4.03153594 3.00531768,5.33562431 L3,5.5 L3,26.5 C3,27.8254834 4.03153594,28.9100387 5.33562431,28.9946823 L5.5,29 L25.1404045,29 C25.9688316,29 26.6404045,29.6715729 26.6404045,30.5 C26.6404045,31.2796961 26.0455164,31.9204487 25.2848645,31.9931334 L25.1404045,32 L5.5,32 C2.53652085,32 0.120460863,29.65622 0.00436720397,26.7212071 L0,26.5 L0,5.5 C0,2.53652085 2.34378001,0.120460863 5.27879286,0.00436720397 L5.5,0 L13.3605485,0 Z" id="路径"></path>
                        <path d="M30.5,2 C32.3685634,2 33.8951264,3.4642776 33.9948211,5.3079648 L34,5.5 L34,7.58165002 C34,8.41007714 33.3284271,9.08165002 32.5,9.08165002 C31.7203039,9.08165002 31.0795513,8.48676194 31.0068666,7.72611003 L31,7.58165002 L31,5.5 C31,5.25454011 30.8231248,5.05039163 30.5898756,5.00805567 L30.5,5 L17.0674337,5 C16.2390066,5 15.5674337,4.32842712 15.5674337,3.5 C15.5674337,2.72030388 16.1623218,2.07955132 16.9229737,2.00686658 L17.0674337,2 L30.5,2 Z" id="路径"></path>
                        <path d="M18.3051528,21 C19.1335799,21 19.8051528,21.6715729 19.8051528,22.5 C19.8051528,23.2796961 19.2102647,23.9204487 18.4496128,23.9931334 L18.3051528,24 L5.5,24 C4.67157288,24 4,23.3284271 4,22.5 C4,21.7203039 4.59488808,21.0795513 5.35553999,21.0068666 L5.5,21 L18.3051528,21 Z" id="路径-5"></path>
                    </g>
                </g>
            </g>
        </g>
    </g>
</svg>