<?xml version="1.0" encoding="UTF-8"?>
<svg width="44px" height="44px" viewBox="0 0 44 44" version="1.1" xmlns="http://www.w3.org/2000/svg" xmlns:xlink="http://www.w3.org/1999/xlink">
    <title>69@2x</title>
    <g id="相关图标说明" stroke="none" stroke-width="1" fill="none" fill-rule="evenodd">
        <g id="线型图标（单色）" transform="translate(-1302.000000, -5240.000000)">
            <g id="编组-5" transform="translate(131.000000, 4940.000000)">
                <g id="69" transform="translate(1171.000000, 300.000000)">
                    <g id="编组"></g>
                    <g id="danju-5" transform="translate(7.000000, 4.000000)" fill="#333333" fill-rule="nonzero">
                        <path d="M25.3562176,3.17317034 C25.9391192,3.17317034 26.4127267,3.64677785 26.4127267,4.2296794 L26.4127267,30.5440415 L24.285136,29.3272345 C23.6475874,28.962921 22.9226036,28.7698348 22.1866904,28.7698348 C21.4507772,28.7698348 20.7257934,28.962921 20.091888,29.3272345 L14.7911269,32.3546794 L9.49400907,29.3272345 C8.85646049,28.962921 8.13147668,28.7698348 7.39556347,28.7698348 C6.65965026,28.7698348 5.93466645,28.962921 5.30076101,29.3272345 L3.1695272,30.5440415 L3.1695272,4.2296794 C3.1695272,3.64677785 3.64313472,3.17317034 4.22603627,3.17317034 L25.3562176,3.17317034 M25.3562176,0.00364313472 L4.22603627,0.00364313472 C1.89078692,0.00364313472 0,1.89443005 0,4.2296794 L0,34.1871762 C0,34.8028659 0.506395725,35.2436852 1.05650907,35.2436852 C1.23137953,35.2436852 1.40989313,35.1999676 1.57747733,35.101603 L6.86730894,32.0778012 C7.03125,31.9867228 7.2097636,31.939362 7.39192034,31.939362 C7.57407707,31.939362 7.75259067,31.9867228 7.91653174,32.0778012 L14.2628724,35.7063633 C14.4268135,35.7974417 14.6053271,35.8448025 14.7874838,35.8448025 C14.9696405,35.8448025 15.1481541,35.7974417 15.3120952,35.7063633 L21.6584359,32.0778012 C21.8223769,31.9867228 22.0008905,31.939362 22.1830473,31.939362 C22.365204,31.939362 22.5437176,31.9867228 22.7076587,32.0778012 L27.9974903,35.101603 C28.1650745,35.1999676 28.3472312,35.2436852 28.5184585,35.2436852 C29.072215,35.2436852 29.5749886,34.8028659 29.5749886,34.1871762 L29.5749886,4.2296794 C29.5822539,1.89443005 27.691467,0.00364313472 25.3562176,0.00364313472 Z" id="形状"></path>
                        <path d="M13.2063633,8.45571567 L7.92381801,8.45571567 C7.04946567,8.45571567 6.3390544,9.16612694 6.3390544,10.0404793 C6.3390544,10.9148316 7.04946567,11.6252429 7.92381801,11.6252429 L13.2063633,11.6252429 C14.0807157,11.6252429 14.7911269,10.9148316 14.7911269,10.0404793 C14.7911269,9.16612694 14.0807157,8.45571567 13.2063633,8.45571567 L13.2063633,8.45571567 Z M19.5454177,13.738261 L7.92381801,13.738261 C7.04946567,13.738261 6.3390544,14.4486723 6.3390544,15.3230246 C6.3390544,16.1973769 7.04946567,16.9077882 7.92381801,16.9077882 L19.5454177,16.9077882 C20.4197701,16.9077882 21.1301813,16.1973769 21.1301813,15.3230246 C21.1301813,14.4486723 20.4197701,13.738261 19.5454177,13.738261 Z" id="形状"></path>
                    </g>
                </g>
            </g>
        </g>
    </g>
</svg>