<?xml version="1.0" encoding="UTF-8"?>
<svg width="44px" height="44px" viewBox="0 0 44 44" version="1.1" xmlns="http://www.w3.org/2000/svg" xmlns:xlink="http://www.w3.org/1999/xlink">
    <title>7@2x</title>
    <g id="相关图标说明" stroke="none" stroke-width="1" fill="none" fill-rule="evenodd">
        <g id="线型图标（单色）" transform="translate(-630.000000, -4940.000000)">
            <g id="编组-5" transform="translate(131.000000, 4940.000000)">
                <g id="7" transform="translate(499.000000, 0.000000)">
                    <g id="编组"></g>
                    <g id="编组-77" transform="translate(3.500000, 6.500000)" fill="#333333" fill-rule="nonzero">
                        <path d="M32.5,0 C34.9142733,0 36.8844891,1.90123652 36.995102,4.2881643 L37,4.5 L37,26.5 C37,28.9852814 34.9852814,31 32.5,31 C31.6715729,31 31,30.3284271 31,29.5 C31,28.7203039 31.5948881,28.0795513 32.35554,28.0068666 L32.5,28 C33.2796961,28 33.9204487,27.4051119 33.9931334,26.64446 L34,26.5 L34,4.5 C34,3.72030388 33.4051119,3.07955132 32.64446,3.00686658 L32.5,3 L4.5,3 C3.72030388,3 3.07955132,3.59488808 3.00686658,4.35553999 L3,4.5 L3,26.5 C3,27.2796961 3.59488808,27.9204487 4.35553999,27.9931334 L4.5,28 L25.7265301,28 C26.5549572,28 27.2265301,28.6715729 27.2265301,29.5 C27.2265301,30.2796961 26.631642,30.9204487 25.8709901,30.9931334 L25.7265301,31 L4.5,31 C2.08572667,31 0.115510911,29.0987635 0.0048979895,26.7118357 L0,26.5 L0,4.5 C0,2.08572667 1.90123652,0.115510911 4.2881643,0.0048979895 L4.5,0 L32.5,0 Z" id="路径"></path>
                        <path d="M12.5,8 C10.0147186,8 8,10.0147186 8,12.5 C8,14.9852814 10.0147186,17 12.5,17 C14.9852814,17 17,14.9852814 17,12.5 C17,10.0147186 14.9852814,8 12.5,8 Z M12.5,11 C13.3284271,11 14,11.6715729 14,12.5 C14,13.3284271 13.3284271,14 12.5,14 C11.6715729,14 11,13.3284271 11,12.5 C11,11.6715729 11.6715729,11 12.5,11 Z" id="椭圆形"></path>
                        <path d="M21.8460586,14.8061118 C23.3555509,12.8317621 26.1797627,12.4549207 28.1541124,13.9644129 C28.2769425,14.0583229 28.3948101,14.1584697 28.5072567,14.264443 L28.6718037,14.4277218 L36.5836229,22.6937439 C37.1564467,23.2922123 37.1356576,24.2417322 36.5371892,24.814556 C35.976125,25.3515783 35.1065195,25.3668705 34.5280183,24.8735615 L34.4163771,24.7681222 L26.5045579,16.5021001 C26.4511023,16.4462514 26.3934092,16.3946188 26.3319941,16.3476638 C25.7125903,15.8740977 24.8422468,15.9575112 24.3225055,16.5176392 L24.2293095,16.6282301 L13.6916255,30.4110592 C13.1884614,31.0691757 12.2470574,31.1947895 11.5889408,30.6916255 C10.969537,30.2180593 10.8218311,29.3562944 11.2260884,28.7078729 L11.3083745,28.5889408 L21.8460586,14.8061118 Z" id="路径-3"></path>
                    </g>
                </g>
            </g>
        </g>
    </g>
</svg>