<?xml version="1.0" encoding="UTF-8"?>
<svg width="44px" height="44px" viewBox="0 0 44 44" version="1.1" xmlns="http://www.w3.org/2000/svg" xmlns:xlink="http://www.w3.org/1999/xlink">
    <title>7@2x</title>
    <g id="页面-1" stroke="none" stroke-width="1" fill="none" fill-rule="evenodd">
        <g id="7">
            <g id="编组"></g>
            <g id="tupian-3" transform="translate(5.000000, 8.000000)" stroke="#333333" stroke-linecap="round" stroke-width="3">
                <path d="M24.2265301,28 L3,28 C1.34314575,28 0,26.6568542 0,25 L0,3 C0,1.34314575 1.34314575,0 3,0 L31,0 C32.6568542,0 34,1.34314575 34,3 L34,25 C34,26.6568542 32.6568542,28 31,28" id="路径"></path>
            </g>
            <circle id="椭圆形" stroke="#333333" stroke-width="3" cx="16" cy="19" r="3"></circle>
            <path d="M16,36 L26.5376841,22.217171 C27.5440122,20.9009379 29.4268202,20.6497102 30.7430533,21.6560384 C30.8658834,21.7499483 30.9812697,21.8532135 31.0881808,21.964911 L39,30.2309331 L39,30.2309331" id="路径-3" stroke="#333333" stroke-width="3" stroke-linecap="round"></path>
        </g>
    </g>
</svg>