<?xml version="1.0" encoding="UTF-8"?>
<svg width="44px" height="44px" viewBox="0 0 44 44" version="1.1" xmlns="http://www.w3.org/2000/svg" xmlns:xlink="http://www.w3.org/1999/xlink">
    <title>70@2x</title>
    <g id="相关图标说明" stroke="none" stroke-width="1" fill="none" fill-rule="evenodd">
        <g id="线型图标（单色）" transform="translate(-1386.000000, -5240.000000)">
            <g id="编组-5" transform="translate(131.000000, 4940.000000)">
                <g id="70" transform="translate(1255.000000, 300.000000)">
                    <g id="编组"></g>
                    <g id="编组-57" transform="translate(2.500000, 2.500000)" fill="#333333">
                        <g id="编组-29" transform="translate(8.500000, 12.500000)">
                            <rect id="矩形" x="0.549999893" y="0.349999845" width="3.79999995" height="3.79999995" rx="1.89999998"></rect>
                            <rect id="矩形备份-5" x="0.549999893" y="6.04999977" width="3.79999995" height="3.79999995" rx="1.89999998"></rect>
                            <rect id="矩形备份" x="6.24999982" y="0.349999845" width="3.79999995" height="3.79999995" rx="1.89999998"></rect>
                            <rect id="矩形备份-6" x="6.24999982" y="6.04999977" width="3.79999995" height="3.79999995" rx="1.89999998"></rect>
                            <rect id="矩形备份-2" x="11.9499997" y="0.349999845" width="3.79999995" height="3.79999995" rx="1.89999998"></rect>
                            <rect id="矩形备份-7" x="11.9499997" y="6.04999977" width="3.79999995" height="3.79999995" rx="1.89999998"></rect>
                            <rect id="矩形备份-4" x="17.6499997" y="0.349999845" width="3.79999995" height="3.79999995" rx="1.89999998"></rect>
                            <rect id="矩形备份-8" x="17.6499997" y="6.04999977" width="3.79999995" height="3.79999995" rx="1.89999998"></rect>
                            <rect id="矩形备份-3" x="4.34999985" y="12.6999997" width="13.2999998" height="2.84999996" rx="1.42499998"></rect>
                        </g>
                        <path d="M19.5,0 C30.2695526,0 39,8.73044738 39,19.5 C39,23.5855196 37.7390543,27.4856432 35.4285265,30.7511996 C34.9500363,31.4274678 34.0139197,31.5877986 33.3376515,31.1093085 C32.6613833,30.6308184 32.5010525,29.6947018 32.9795427,29.0184335 C34.934442,26.2555004 36,22.9597137 36,19.5 C36,10.3873016 28.6126984,3 19.5,3 C10.3873016,3 3,10.3873016 3,19.5 C3,28.6126984 10.3873016,36 19.5,36 C22.3994137,36 25.1865336,35.2525005 27.6493533,33.8506409 C28.3693168,33.4408311 29.285179,33.6922603 29.6949888,34.4122238 C30.1047986,35.1321873 29.8533694,36.0480495 29.1334059,36.4578593 C26.2212639,38.1154773 22.9232405,39 19.5,39 C8.73044738,39 0,30.2695526 0,19.5 C0,8.73044738 8.73044738,0 19.5,0 Z" id="形状结合" fill-rule="nonzero"></path>
                    </g>
                </g>
            </g>
        </g>
    </g>
</svg>