<?xml version="1.0" encoding="UTF-8"?>
<svg width="44px" height="44px" viewBox="0 0 44 44" version="1.1" xmlns="http://www.w3.org/2000/svg" xmlns:xlink="http://www.w3.org/1999/xlink">
    <title>70@2x</title>
    <g id="页面-1" stroke="none" stroke-width="1" fill="none" fill-rule="evenodd">
        <g id="70">
            <g id="编组"></g>
            <g id="编组-29" transform="translate(11.000000, 15.000000)" fill="#333333">
                <rect id="矩形" x="0.549999893" y="0.349999845" width="3.79999995" height="3.79999995" rx="1.89999998"></rect>
                <rect id="矩形备份-5" x="0.549999893" y="6.04999977" width="3.79999995" height="3.79999995" rx="1.89999998"></rect>
                <rect id="矩形备份" x="6.24999982" y="0.349999845" width="3.79999995" height="3.79999995" rx="1.89999998"></rect>
                <rect id="矩形备份-6" x="6.24999982" y="6.04999977" width="3.79999995" height="3.79999995" rx="1.89999998"></rect>
                <rect id="矩形备份-2" x="11.9499997" y="0.349999845" width="3.79999995" height="3.79999995" rx="1.89999998"></rect>
                <rect id="矩形备份-7" x="11.9499997" y="6.04999977" width="3.79999995" height="3.79999995" rx="1.89999998"></rect>
                <rect id="矩形备份-4" x="17.6499997" y="0.349999845" width="3.79999995" height="3.79999995" rx="1.89999998"></rect>
                <rect id="矩形备份-8" x="17.6499997" y="6.04999977" width="3.79999995" height="3.79999995" rx="1.89999998"></rect>
                <rect id="矩形备份-3" x="4.34999985" y="12.6999997" width="13.2999998" height="2.84999996" rx="1.42499998"></rect>
            </g>
            <path d="M30.8913796,37.6542501 C28.2685122,39.1472103 25.233846,40 22,40 C12.0588745,40 4,31.9411255 4,22 C4,12.0588745 12.0588745,4 22,4 C31.9411255,4 40,12.0588745 40,22 C40,25.86779 38.7800864,29.450654 36.7040346,32.3848166" id="形状结合" stroke="#333333" stroke-width="3" stroke-linecap="round"></path>
        </g>
    </g>
</svg>