<?xml version="1.0" encoding="UTF-8"?>
<svg width="44px" height="44px" viewBox="0 0 44 44" version="1.1" xmlns="http://www.w3.org/2000/svg" xmlns:xlink="http://www.w3.org/1999/xlink">
    <title>71@2x</title>
    <g id="相关图标说明" stroke="none" stroke-width="1" fill="none" fill-rule="evenodd">
        <g id="线型图标（单色）" transform="translate(-1470.000000, -5240.000000)">
            <g id="编组-5" transform="translate(131.000000, 4940.000000)">
                <g id="71" transform="translate(1339.000000, 300.000000)">
                    <g id="编组"></g>
                    <g id="编组-4" transform="translate(2.500000, 2.500000)" fill="#333333">
                        <path d="M19.5,0 C30.2695526,0 39,8.73044738 39,19.5 C39,23.5855196 37.7390543,27.4856432 35.4285265,30.7511996 C34.9500363,31.4274678 34.0139197,31.5877986 33.3376515,31.1093085 C32.6613833,30.6308184 32.5010525,29.6947018 32.9795427,29.0184335 C34.934442,26.2555004 36,22.9597137 36,19.5 C36,10.3873016 28.6126984,3 19.5,3 C10.3873016,3 3,10.3873016 3,19.5 C3,28.6126984 10.3873016,36 19.5,36 C22.3994137,36 25.1865336,35.2525005 27.6493533,33.8506409 C28.3693168,33.4408311 29.285179,33.6922603 29.6949888,34.4122238 C30.1047986,35.1321873 29.8533694,36.0480495 29.1334059,36.4578593 C26.2212639,38.1154773 22.9232405,39 19.5,39 C8.73044738,39 0,30.2695526 0,19.5 C0,8.73044738 8.73044738,0 19.5,0 Z" id="形状结合" fill-rule="nonzero"></path>
                        <g id="编组-2" transform="translate(9.500000, 9.500000)">
                            <path d="M2.10261224,4.60410084 C7.93150397,4.60410084 12.6558622,9.32878067 12.6558622,15.1573508 C12.6558622,15.8477068 12.0962182,16.4073508 11.4058622,16.4073508 C10.7155063,16.4073508 10.1558622,15.8477068 10.1558622,15.1573508 C10.1558622,10.7918229 6.68304021,7.23792139 2.34884637,7.1077925 L2.04761224,7.10685084 C1.35725631,7.10685084 0.797612245,6.54720677 0.797612245,5.85685084 C0.797612245,5.20964215 1.28948691,4.67731694 1.91980701,4.61330445 L2.04910074,4.60552182 L2.10261224,4.60410084 Z" id="Stroke-1" fill-rule="nonzero" transform="translate(6.726737, 10.505726) rotate(45.000000) translate(-6.726737, -10.505726) "></path>
                            <path d="M3.16054894,2.05 C11.8323215,2.05 18.8617989,9.0794774 18.8617989,17.75125 C18.8617989,18.4416059 18.3021549,19.00125 17.6117989,19.00125 C16.921443,19.00125 16.3617989,18.4416059 16.3617989,17.75125 C16.3617989,10.4601893 10.4516097,4.55 3.16054894,4.55 C2.470193,4.55 1.91054894,3.99035594 1.91054894,3.3 C1.91054894,2.60964406 2.470193,2.05 3.16054894,2.05 Z" id="Stroke-3" fill-rule="nonzero" transform="translate(10.386174, 10.525625) rotate(45.000000) translate(-10.386174, -10.525625) "></path>
                            <path d="M1.2,7.83542615 L1.2,12.2272595 C1.2,12.7795442 1.64771525,13.2272595 2.2,13.2272595 L6.579,13.2272595 L6.579,13.2272595 C6.579,13.2043428 6.58266667,13.1823428 6.58266667,13.1603428 C6.58266667,10.2178428 4.1975,7.83267615 1.255,7.83267615 C1.23666667,7.83267615 1.21833333,7.83542615 1.2,7.83542615 Z" id="Fill-5" transform="translate(3.891333, 10.529968) rotate(45.000000) translate(-3.891333, -10.529968) "></path>
                        </g>
                    </g>
                </g>
            </g>
        </g>
    </g>
</svg>