<?xml version="1.0" encoding="UTF-8"?>
<svg width="44px" height="44px" viewBox="0 0 44 44" version="1.1" xmlns="http://www.w3.org/2000/svg" xmlns:xlink="http://www.w3.org/1999/xlink">
    <title>72@2x</title>
    <g id="相关图标说明" stroke="none" stroke-width="1" fill="none" fill-rule="evenodd">
        <g id="线型图标（单色）" transform="translate(-1554.000000, -5240.000000)">
            <g id="编组-5" transform="translate(131.000000, 4940.000000)">
                <g id="72" transform="translate(1423.000000, 300.000000)">
                    <g id="编组"></g>
                    <path d="M16.5037829,5.84433558 L16.5790581,5.96476076 L16.6437253,6.09412071 L23.4007388,21.3827709 C23.5798858,21.5980843 23.6957641,21.8602436 23.7344249,22.1376369 L24.4928339,23.8567846 C25.372,22.5798644 26.6523389,21.5052591 28.0781134,20.9000538 C32.5338227,19.0087174 36.3552135,21.3966649 38.4509685,26.3339542 C38.8117412,27.1838814 39.0783542,28.0420533 39.2432556,28.8889389 C39.4015892,29.7020945 38.8707511,30.4896421 38.0575956,30.6479757 C37.24444,30.8063093 36.4568924,30.2754713 36.2985588,29.4623157 C36.1745317,28.8253483 35.9700803,28.167262 35.6894539,27.5061476 C34.1701287,23.9268416 31.9272342,22.5252801 29.2503068,23.6615683 C27.4885393,24.4093943 26.0695609,26.4074978 26.3027517,27.7286185 L26.3181739,27.8013919 L27.6540079,31.0096287 L28.3211739,32.5223919 L28.4217254,32.6978641 C29.8152927,35.0661377 31.6160303,35.8121286 33.9816746,34.8079722 C34.3929687,34.6333882 34.7488906,34.4192764 35.0520475,34.1689371 C35.6908311,33.6414459 36.6362837,33.7316662 37.163775,34.3704498 C37.6912662,35.0092334 37.6010459,35.9546859 36.9622623,36.4821772 C36.4325803,36.9195751 35.8276472,37.2834845 35.1538679,37.5694868 C31.2715625,39.2174277 27.9272138,37.792041 25.8129052,34.1792885 L25.6671739,33.9233919 L25.5931798,33.7862147 C25.4697507,33.5511662 25.3563417,33.3019065 25.2158463,32.9668346 L24.9128303,32.2304747 L22.242,26.187 L22.0010616,26.7416413 C21.7936089,27.222405 21.5944073,27.6897804 21.3964876,28.1613663 L21.0996982,28.8741028 L21.0259626,29.0554024 L21.0056154,29.139716 L20.9624084,29.2777341 C20.9295527,29.3674199 20.8887656,29.4523534 20.8410699,29.5319358 L20.8410699,29.5319358 L20.8128153,29.5754613 L20.4523485,30.4678777 L19.6216259,32.5809413 L19.2093648,33.6015236 C19.1042525,33.8541073 19.0202487,34.0403588 18.9287946,34.2203426 L18.9287946,34.2203426 L18.8136456,34.4371589 C16.7081519,38.2558411 13.1977871,39.7194687 9.06620472,37.9285708 C4.66957263,36.0220495 3.42946421,31.3106644 5.42612786,26.4988557 C7.4905169,21.5238339 11.4211149,19.1942714 16.057078,21.2041942 L16.057078,21.2041942 L16.2781989,21.3039956 C17.5983563,21.9234478 18.7966144,22.9108325 19.6743962,24.0685687 L19.6743962,24.0685687 L19.8132464,24.2549433 L20.4675015,22.7445829 L20.588,22.445 L13.899674,7.30663154 C13.5648483,6.5488827 13.9076954,5.6631761 14.6654442,5.32835048 C15.3340461,5.03291611 16.1022691,5.26508154 16.5037829,5.84433558 Z M14.8637531,23.9566433 C11.9801842,22.7064713 9.68280989,24.0680649 8.19704371,27.6486493 C6.77366095,31.0788943 7.54193075,33.9976834 10.2595263,35.1761203 C12.8870867,36.3150768 14.7898608,35.5217254 16.1871553,32.9874876 L16.1871553,32.9874876 L16.2229028,32.9211922 C16.2819638,32.8088761 16.3397026,32.6846372 16.4151597,32.5064242 L16.4151597,32.5064242 L16.639938,31.953515 L17.4351422,29.9367298 L17.9811676,28.5732204 L18.1380166,28.1913001 L18.147185,28.1031354 C18.2344378,26.7590288 16.7070986,24.7558261 14.8637531,23.9566433 Z M26.6163788,6.23855553 C26.9158249,5.46614146 27.7847394,5.08272524 28.5571534,5.38217142 C29.3295675,5.68161761 29.7129837,6.55053202 29.4135375,7.32294608 L29.4135375,7.32294608 L25.6324924,17.0760588 C25.3330463,17.8484729 24.4641319,18.2318891 23.6917178,17.9324429 C22.9193037,17.6329968 22.5358875,16.7640823 22.8353337,15.9916683 L22.8353337,15.9916683 Z" id="形状结合" fill="#333333" fill-rule="nonzero"></path>
                </g>
            </g>
        </g>
    </g>
</svg>