<?xml version="1.0" encoding="UTF-8"?>
<svg width="44px" height="44px" viewBox="0 0 44 44" version="1.1" xmlns="http://www.w3.org/2000/svg" xmlns:xlink="http://www.w3.org/1999/xlink">
    <title>72@2x</title>
    <g id="页面-1" stroke="none" stroke-width="1" fill="none" fill-rule="evenodd">
        <g id="72">
            <g id="编组"></g>
            <g id="编组" transform="translate(4.600000, 3.000000)" fill="#333333" fill-rule="nonzero">
                <path d="M12.7423961,0.859947147 L12.8176712,0.980372319 L12.8823384,1.10973228 L19.639352,16.3983824 C19.8184989,16.6136958 19.9343773,16.8758551 19.973038,17.1532485 L20.7314471,18.8723961 C21.6106131,17.595476 22.8909521,16.5208707 24.3167266,15.9156653 C28.7724359,14.024329 32.5938267,16.4122765 34.6895817,21.3495658 C35.0503543,22.199493 35.3169674,23.0576649 35.4818687,23.9045505 C35.6402024,24.7177061 35.1093643,25.5052537 34.2962087,25.6635873 C33.4830532,25.8219209 32.6955056,25.2910828 32.537172,24.4779273 C32.4131448,23.8409599 32.2086935,23.1828735 31.9280671,22.5217592 C30.4087418,18.9424532 28.1658474,17.5408916 25.48892,18.6771799 C23.7271525,19.4250058 22.3081741,21.4231094 22.5413649,22.7442301 L22.5567871,22.8170035 L23.8926211,26.0252403 L24.5597871,27.5380035 L24.6603386,27.7134756 C26.0539058,30.0817493 27.8546435,30.8277402 30.2202877,29.8235838 C30.6315818,29.6489998 30.9875038,29.434888 31.2906607,29.1845487 C31.9294443,28.6570575 32.8748969,28.7472777 33.4023881,29.3860613 C33.9298794,30.0248449 33.8396591,30.9702975 33.2008755,31.4977887 C32.6711935,31.9351867 32.0662604,32.299096 31.3924811,32.5850984 C27.5101757,34.2330393 24.165827,32.8076526 22.0515184,29.1949 L21.9057871,28.9390035 L21.8317929,28.8018263 C21.7083638,28.5667778 21.5949548,28.3175181 21.4544595,27.9824462 L21.1514434,27.2460862 L18.4806132,21.2026116 L18.2396748,21.7572528 C18.0322221,22.2380165 17.8330205,22.705392 17.6351008,23.1769779 L17.3383113,23.8897143 L17.2645758,24.071014 L17.2442286,24.1553276 L17.2010215,24.2933457 C17.1681659,24.3830315 17.1273787,24.4679649 17.0796831,24.5475474 L17.0796831,24.5475474 L17.0514284,24.5910729 L16.6909617,25.4834892 L15.8602391,27.5965528 L15.447978,28.6171352 C15.3428657,28.8697189 15.2588619,29.0559703 15.1674077,29.2359542 L15.1674077,29.2359542 L15.0522588,29.4527705 C12.9467651,33.2714527 9.43640025,34.7350802 5.30481789,32.9441824 C0.908185809,31.0376611 -0.331922619,26.3262759 1.66474103,21.5144672 C3.72913007,16.5394454 7.65972806,14.209883 12.2956911,16.2198058 L12.2956911,16.2198058 L12.516812,16.3196072 C13.8369695,16.9390594 15.0352276,17.926444 15.9130094,19.0841803 L15.9130094,19.0841803 L16.0518596,19.2705548 L16.7061147,17.7601944 L16.8266132,17.4606116 L10.1382871,2.32224311 C9.80346152,1.56449426 10.1463085,0.678787665 10.9040574,0.343962046 C11.5726593,0.0485276759 12.3408823,0.280693105 12.7423961,0.859947147 Z M11.1023662,18.9722548 C8.21879736,17.7220829 5.92142307,19.0836765 4.43565688,22.6642608 C3.01227413,26.0945059 3.78054393,29.0132949 6.49813946,30.1917319 C9.12569991,31.3306883 11.028474,30.537337 12.4257685,28.0030992 L12.4257685,28.0030992 L12.4615159,27.9368038 C12.5205769,27.8244877 12.5783158,27.7002488 12.6537729,27.5220357 L12.6537729,27.5220357 L12.8785512,26.9691266 L13.6737554,24.9523414 L14.2197808,23.588832 L14.3766298,23.2069117 L14.3857981,23.118747 C14.473051,21.7746404 12.9457118,19.7714377 11.1023662,18.9722548 Z M22.8549919,1.25416709 C23.1544381,0.481753027 24.0233525,0.098336805 24.7957666,0.397782988 C25.5681807,0.697229171 25.9515969,1.56614358 25.6521507,2.33855765 L25.6521507,2.33855765 L21.8711056,12.0916704 C21.5716594,12.8640845 20.702745,13.2475007 19.930331,12.9480545 C19.1579169,12.6486083 18.7745007,11.7796939 19.0739469,11.0072798 L19.0739469,11.0072798 Z" id="形状结合"></path>
            </g>
        </g>
    </g>
</svg>