<?xml version="1.0" encoding="UTF-8"?>
<svg width="45px" height="45px" viewBox="0 0 45 45" version="1.1" xmlns="http://www.w3.org/2000/svg" xmlns:xlink="http://www.w3.org/1999/xlink">
    <title>73@2x</title>
    <g id="相关图标说明" stroke="none" stroke-width="1" fill="none" fill-rule="evenodd">
        <g id="线型图标（单色）" transform="translate(-131.000000, -5340.000000)">
            <g id="编组-5" transform="translate(131.000000, 4940.000000)">
                <g id="73" transform="translate(0.000000, 400.000000)">
                    <g id="编组"></g>
                    <g id="编组-56" transform="translate(22.247487, 22.252513) rotate(45.000000) translate(-22.247487, -22.252513) translate(10.647487, 2.502513)" fill="#333333" fill-rule="nonzero">
                        <path d="M11.6,-4.54747351e-13 C17.9079415,-4.54747351e-13 23.039913,5.03492623 23.1963268,11.305191 L23.2,11.6 L23.2,15.9 C23.2,16.7836556 22.4836556,17.5 21.6,17.5 C20.7654364,17.5 20.0801102,16.8610385 20.0065387,16.0456326 L20,15.9 L20,11.6 C20,6.9608081 16.2391919,3.2 11.6,3.2 C7.04515705,3.2 3.33704703,6.82529469 3.2037124,11.3478416 L3.2,11.6 L3.2,15.9 C3.2,16.7836556 2.4836556,17.5 1.6,17.5 C0.765436378,17.5 0.0801102148,16.8610385 0.00653867703,16.0456326 L0,15.9 L0,11.6 C0,5.1934969 5.1934969,-4.54747351e-13 11.6,-4.54747351e-13 Z" id="路径"></path>
                        <path d="M11.6,22 C17.9079415,22 23.039913,27.0349262 23.1963268,33.305191 L23.2,33.6 L23.2,37.9 C23.2,38.7836556 22.4836556,39.5 21.6,39.5 C20.7654364,39.5 20.0801102,38.8610385 20.0065387,38.0456326 L20,37.9 L20,33.6 C20,28.9608081 16.2391919,25.2 11.6,25.2 C7.04515705,25.2 3.33704703,28.8252947 3.2037124,33.3478416 L3.2,33.6 L3.2,37.9 C3.2,38.7836556 2.4836556,39.5 1.6,39.5 C0.765436378,39.5 0.0801102148,38.8610385 0.00653867702,38.0456326 L-9.09494702e-13,37.9 L-9.09494702e-13,33.6 C-9.09494702e-13,27.1934969 5.1934969,22 11.6,22 Z" id="路径备份" transform="translate(11.600000, 30.750000) scale(1, -1) translate(-11.600000, -30.750000) "></path>
                        <path d="M11.6,13.2 C12.4345636,13.2 13.1198898,13.8389615 13.1934613,14.6543674 L13.2,14.8 L13.2,25.8 C13.2,26.6836556 12.4836556,27.4 11.6,27.4 C10.7654364,27.4 10.0801102,26.7610385 10.0065387,25.9456326 L10,25.8 L10,14.8 C10,13.9163444 10.7163444,13.2 11.6,13.2 Z" id="Stroke-3"></path>
                    </g>
                </g>
            </g>
        </g>
    </g>
</svg>