<?xml version="1.0" encoding="UTF-8"?>
<svg width="44px" height="44px" viewBox="0 0 44 44" version="1.1" xmlns="http://www.w3.org/2000/svg" xmlns:xlink="http://www.w3.org/1999/xlink">
    <title>74@2x</title>
    <g id="相关图标说明" stroke="none" stroke-width="1" fill="none" fill-rule="evenodd">
        <g id="线型图标（单色）" transform="translate(-214.000000, -5340.000000)">
            <g id="编组-5" transform="translate(131.000000, 4940.000000)">
                <g id="74" transform="translate(83.000000, 400.000000)">
                    <g id="编组"></g>
                    <path d="M18.6341331,4 C18.6341331,2.85634731 19.8626578,2.1333874 20.8624518,2.68868313 C26.0055458,5.54520959 29.1536043,10.4972682 29.1536043,16.14942 C29.1536043,17.1847889 29.0494317,18.205554 28.8457205,19.201984 L28.73,19.717 L28.8210895,19.6407419 C30.0559204,18.5594197 31.111924,17.2682649 31.9243441,15.8384836 L32.1074722,15.5061056 C32.6327703,14.5222686 34.0098773,14.4354123 34.6546252,15.3454528 C36.6347764,18.140371 37.708644,21.4342346 37.708644,24.8870909 C37.708644,32.0731173 33.0912592,38.3900225 26.2355543,40.8520585 C25.8258768,40.9991828 25.3724928,40.9610855 24.993112,40.7476577 C21.4716386,38.7665862 19.0862533,36.1700543 17.6964166,33.1620865 C17.3489392,32.4100552 17.676895,31.5187274 18.4289263,31.1712501 C19.1809575,30.8237728 20.0722853,31.1517285 20.4197627,31.9037598 C21.4482334,34.1296377 23.1619396,36.0912418 25.7124228,37.6870912 L25.865,37.78 L26.1512196,37.6595353 C31.2153812,35.4512251 34.5749434,30.6502233 34.7047439,25.2140103 L34.708644,24.8870909 C34.708644,22.8698871 34.2612804,20.921349 33.4134111,19.1366512 L33.386,19.081 L33.2003037,19.3309466 C31.454656,21.6108258 29.1576372,23.4666793 26.5329109,24.6455187 L26.1557449,24.8092914 C24.8110965,25.3732882 23.533734,23.8811572 24.2982907,22.6395354 C25.5114393,20.669411 26.1536043,18.4559912 26.1536043,16.14942 C26.1536043,12.400433 24.4172446,9.02897847 21.416146,6.64949447 L21.352,6.6 L21.2969475,6.84868639 C20.5458515,9.96716531 18.5656122,12.7850741 15.614965,15.2079429 L15.2831351,15.4755201 C10.85653,18.9796334 9,22.1394638 9,26.4053982 C9,32.0799173 13.6608958,37.8028243 19.4328682,39.0814978 C20.2416862,39.2606764 20.7521097,40.0616059 20.5729311,40.8704239 C20.3937525,41.6792418 19.592823,42.1896654 18.784005,42.0104868 C11.6470436,40.4294252 6,33.4956713 6,26.4053982 C6,21.2406743 8.22679486,17.3332698 13.0781236,13.3981268 L13.4208517,13.1235208 C16.7902345,10.4550644 18.6341331,7.35746569 18.6341331,4 Z" id="Stroke-1" fill="#333333" fill-rule="nonzero"></path>
                </g>
            </g>
        </g>
    </g>
</svg>