<?xml version="1.0" encoding="UTF-8"?>
<svg width="44px" height="44px" viewBox="0 0 44 44" version="1.1" xmlns="http://www.w3.org/2000/svg" xmlns:xlink="http://www.w3.org/1999/xlink">
    <title>75@2x</title>
    <g id="相关图标说明" stroke="none" stroke-width="1" fill="none" fill-rule="evenodd">
        <g id="线型图标（单色）" transform="translate(-298.000000, -5340.000000)">
            <g id="编组-5" transform="translate(131.000000, 4940.000000)">
                <g id="75" transform="translate(167.000000, 400.000000)">
                    <g id="编组"></g>
                    <g id="编组-55" transform="translate(6.500000, 4.000000)" fill="#333333" fill-rule="nonzero">
                        <path d="M16,19.5 C16.7796961,19.5 17.4204487,20.0948881 17.4931334,20.85554 L17.5,21 L17.5,27 C17.5,27.8284271 16.8284271,28.5 16,28.5 C15.2203039,28.5 14.5795513,27.9051119 14.5068666,27.14446 L14.5,27 L14.5,21 C14.5,20.1715729 15.1715729,19.5 16,19.5 Z" id="路径-24"></path>
                        <path d="M6.31011595,12.0019352 L24.3722296,12 C26.2243099,12 27.1732665,12.183252 28.1610897,12.7115456 C29.0743443,13.1999595 29.8000405,13.9256557 30.2884544,14.8389103 C30.7856719,15.7686263 30.977247,16.6639137 30.9980648,18.310116 L31,18.6277704 L31,23.6280192 C31,24.4564463 30.3284271,25.1280192 29.5,25.1280192 C28.7203039,25.1280192 28.0795513,24.5331311 28.0068666,23.7724792 L28,23.6280192 L28,18.6277704 L27.9954923,18.1442936 L27.9813578,17.735981 C27.9428503,16.9872479 27.8410775,16.624052 27.6430148,16.2537069 C27.4342003,15.8632577 27.1367423,15.5657997 26.7462931,15.3569852 C26.375948,15.1589225 26.0127521,15.0571497 25.264019,15.0186422 L24.8557064,15.0045077 L24.3722296,15 L6.6277704,15 C6.45287213,15 6.2923192,15.0014516 6.14429363,15.0045077 L5.735981,15.0186422 C4.98724792,15.0571497 4.62405196,15.1589225 4.25370688,15.3569852 C3.86325774,15.5657997 3.56579969,15.8632577 3.3569852,16.2537069 C3.15892249,16.624052 3.05714967,16.9872479 3.01864218,17.735981 L3.00450765,18.1442936 L3,18.6277704 L3,29.3722296 C3,29.5471279 3.00145159,29.7076808 3.00450765,29.8557064 L3.01864218,30.264019 C3.05714967,31.0127521 3.15892249,31.375948 3.3569852,31.7462931 C3.56579969,32.1367423 3.86325774,32.4342003 4.25370688,32.6430148 C4.62405196,32.8410775 4.98724792,32.9428503 5.735981,32.9813578 L6.14429363,32.9954923 L6.6277704,33 L24.9635844,33 C25.7655019,33 26.2997228,32.8818432 26.7462931,32.6430148 C27.1367423,32.4342003 27.4342003,32.1367423 27.6430148,31.7462931 C27.8818432,31.2997228 28,30.7655019 28,29.9635844 C28,29.1351572 28.6715729,28.4635844 29.5,28.4635844 C30.3284271,28.4635844 31,29.1351572 31,29.9635844 C31,31.2339511 30.774967,32.2513902 30.2884544,33.1610897 C29.8000405,34.0743443 29.0743443,34.8000405 28.1610897,35.2884544 C27.3340902,35.7307386 26.4180497,35.9569239 25.3038862,35.9943933 L24.9635844,36 L6.6277704,36 C4.77569009,36 3.82673354,35.816748 2.8389103,35.2884544 C1.92565574,34.8000405 1.19995949,34.0743443 0.711545611,33.1610897 C0.214328059,32.2313737 0.0227529702,31.3360863 0.00193520045,29.689884 L0,18.6277704 C0,16.7756901 0.183251962,15.8267335 0.711545611,14.8389103 C1.19995949,13.9256557 1.92565574,13.1999595 2.8389103,12.7115456 C3.76862629,12.2143281 4.66391365,12.022753 6.31011595,12.0019352 Z" id="路径"></path>
                        <path d="M15.4902007,0 C18.9511028,0 22.1039932,1.6917845 23.7757719,4.39521318 C24.2114843,5.09980255 23.9935165,6.02419981 23.2889271,6.45991224 C22.5843378,6.89562467 21.6599405,6.67765685 21.2242281,5.97306748 C20.1089756,4.16959572 17.9292611,3 15.4902007,3 C11.9507717,3 9.13077361,5.43071463 9.0044201,8.3826599 L9,8.58943125 L9,13.5 C9,14.3284271 8.32842712,15 7.5,15 C6.72030388,15 6.07955132,14.4051119 6.00686658,13.64446 L6,13.5 L6,8.58943125 C6,3.80300725 10.28621,0 15.4902007,0 Z" id="路径"></path>
                    </g>
                </g>
            </g>
        </g>
    </g>
</svg>