<?xml version="1.0" encoding="UTF-8"?>
<svg width="44px" height="44px" viewBox="0 0 44 44" version="1.1" xmlns="http://www.w3.org/2000/svg" xmlns:xlink="http://www.w3.org/1999/xlink">
    <title>76@2x</title>
    <g id="相关图标说明" stroke="none" stroke-width="1" fill="none" fill-rule="evenodd">
        <g id="线型图标（单色）" transform="translate(-382.000000, -5340.000000)">
            <g id="编组-5" transform="translate(131.000000, 4940.000000)">
                <g id="76" transform="translate(251.000000, 400.000000)">
                    <g id="编组"></g>
                    <g id="编组-54" transform="translate(5.500000, 5.000000)" fill="#333333" fill-rule="nonzero">
                        <path d="M32.8496582,14.5759699 C32.9245916,15.1407963 32.9716921,15.7110133 32.9905591,16.285106 L33,16.8604344 L33,27.5 C33,28.3284271 32.3284271,29 31.5,29 C30.7203039,29 30.0795513,28.4051119 30.0068666,27.64446 L30,27.5 L30,16.8604344 C30,16.2237795 29.9582842,15.5928934 29.8757152,14.9705115 C29.7667655,14.1492798 30.3441842,13.3952188 31.1654159,13.2862692 C31.9866476,13.1773195 32.7407085,13.7547382 32.8496582,14.5759699 Z M16.5,0 C22.9527189,0 28.7246799,3.8186366 31.4281232,9.66970971 C31.7755947,10.4217437 31.4476321,11.3130689 30.6955981,11.6605404 C29.9435642,12.0080119 29.0522389,11.6800493 28.7047674,10.9280153 C26.484524,6.12273373 21.7644369,3 16.5,3 C9.15567334,3 3.16838676,9.02669925 3.00348997,16.5420127 L3,16.8604344 L3,27.5 C3,28.3284271 2.32842712,29 1.5,29 C0.720303883,29 0.0795513218,28.4051119 0.00686657806,27.64446 L0,27.5 L0,16.8604344 C0,7.55654049 7.37922539,0 16.5,0 Z" id="形状"></path>
                        <path d="M31.5,17 L28.5,17 C26.0147186,17 24,19.0147186 24,21.5 L24,24.5 C24,26.9852814 26.0147186,29 28.5,29 L31.5,29 C32.3284271,29 33,28.3284271 33,27.5 L33,18.5 C33,17.6715729 32.3284271,17 31.5,17 Z M30,20 L30,26 L28.5,26 C27.6715729,26 27,25.3284271 27,24.5 L27,21.5 L27.0068666,21.35554 C27.0795513,20.5948881 27.7203039,20 28.5,20 L30,20 Z" id="矩形"></path>
                        <path d="M4.5,17 L1.5,17 C0.671572875,17 0,17.6715729 0,18.5 L0,27.5 C0,28.3284271 0.671572875,29 1.5,29 L4.5,29 C6.98528137,29 9,26.9852814 9,24.5 L9,21.5 C9,19.0147186 6.98528137,17 4.5,17 Z M3,26 L3,20 L4.5,20 C5.32842712,20 6,20.6715729 6,21.5 L6,24.5 C6,25.3284271 5.32842712,26 4.5,26 L3,26 Z" id="矩形备份"></path>
                        <path d="M28.2634255,30.400446 C29.0916063,30.3802464 29.7793545,31.0352447 29.799554,31.8634255 C29.8185654,32.6428898 29.2394776,33.297957 28.4808241,33.3891671 L28.3365745,33.399554 L20.1365745,33.599554 C19.3083937,33.6197536 18.6206455,32.9647553 18.600446,32.1365745 C18.5814346,31.3571102 19.1605224,30.702043 19.9191759,30.6108329 L20.0634255,30.600446 L28.2634255,30.400446 Z" id="路径"></path>
                    </g>
                </g>
            </g>
        </g>
    </g>
</svg>