<?xml version="1.0" encoding="UTF-8"?>
<svg width="44px" height="44px" viewBox="0 0 44 44" version="1.1" xmlns="http://www.w3.org/2000/svg" xmlns:xlink="http://www.w3.org/1999/xlink">
    <title>77@2x</title>
    <g id="相关图标说明" stroke="none" stroke-width="1" fill="none" fill-rule="evenodd">
        <g id="线型图标（单色）" transform="translate(-466.000000, -5340.000000)">
            <g id="编组-5" transform="translate(131.000000, 4940.000000)">
                <g id="77" transform="translate(335.000000, 400.000000)">
                    <g id="编组"></g>
                    <g id="编组-53" transform="translate(2.500000, 2.500000)" fill="#333333">
                        <circle id="椭圆形" cx="20" cy="27" r="1.5"></circle>
                        <path d="M19.0297492,9.01712322 C22.6687448,8.74981652 25.8420363,11.5657695 25.4866093,15.2078188 C25.3590532,16.5221685 24.7490216,17.6163138 23.7073243,18.7862744 L23.3360505,19.1885338 L23.1381613,19.3950244 L22.7169206,19.8286577 L22.3268726,20.239174 C21.4840211,21.1484002 21.1015993,21.7353439 20.9613525,22.3829415 L20.9349269,22.5227804 C20.802288,23.3405202 20.0318538,23.8959042 19.214114,23.7632653 C18.3963741,23.6306264 17.8409901,22.8601922 17.973629,22.0424524 C18.2181735,20.534797 18.8868864,19.5052357 20.3053827,18.0089599 L21.2836778,16.9920133 C22.056073,16.1641641 22.4424453,15.5176568 22.5007158,14.9172338 C22.6648803,13.2350448 21.1278406,11.8710883 19.2499202,12.0090331 C17.5833221,12.1318971 16.197459,13.4833691 15.9888047,15.1816093 C15.8877797,16.0038534 15.1393221,16.588517 14.317078,16.487492 C13.4948338,16.3864669 12.9101702,15.6380094 13.0111953,14.8157652 C13.3926791,11.7108633 15.9198681,9.24638807 19.0297492,9.01712322 Z" id="Stroke-1" fill-rule="nonzero" transform="translate(19.256855, 16.391198) rotate(-5.000000) translate(-19.256855, -16.391198) "></path>
                        <path d="M19.5,0 C30.2695526,0 39,8.73044738 39,19.5 C39,23.5855196 37.7390543,27.4856432 35.4285265,30.7511996 C34.9500363,31.4274678 34.0139197,31.5877986 33.3376515,31.1093085 C32.6613833,30.6308184 32.5010525,29.6947018 32.9795427,29.0184335 C34.934442,26.2555004 36,22.9597137 36,19.5 C36,10.3873016 28.6126984,3 19.5,3 C10.3873016,3 3,10.3873016 3,19.5 C3,28.6126984 10.3873016,36 19.5,36 C22.3994137,36 25.1865336,35.2525005 27.6493533,33.8506409 C28.3693168,33.4408311 29.285179,33.6922603 29.6949888,34.4122238 C30.1047986,35.1321873 29.8533694,36.0480495 29.1334059,36.4578593 C26.2212639,38.1154773 22.9232405,39 19.5,39 C8.73044738,39 0,30.2695526 0,19.5 C0,8.73044738 8.73044738,0 19.5,0 Z" id="形状结合" fill-rule="nonzero"></path>
                    </g>
                </g>
            </g>
        </g>
    </g>
</svg>