<?xml version="1.0" encoding="UTF-8"?>
<svg width="44px" height="44px" viewBox="0 0 44 44" version="1.1" xmlns="http://www.w3.org/2000/svg" xmlns:xlink="http://www.w3.org/1999/xlink">
    <title>78@2x</title>
    <g id="相关图标说明" stroke="none" stroke-width="1" fill="none" fill-rule="evenodd">
        <g id="线型图标（单色）" transform="translate(-546.000000, -5340.000000)">
            <g id="编组-5" transform="translate(131.000000, 4940.000000)">
                <g id="78" transform="translate(415.000000, 400.000000)">
                    <g id="编组"></g>
                    <g id="编组-52" transform="translate(4.500000, 5.500000)" fill="#333333" fill-rule="nonzero">
                        <path d="M17.5,0 C27.5849352,0 35,6.56647581 35,16.4798073 C35,19.7294717 34.2143356,22.6648541 32.713682,25.1518094 C32.2856827,25.8611105 31.3637185,26.0891506 30.6544174,25.6611512 C29.9451163,25.2331519 29.7170761,24.3111877 30.1450755,23.6018866 C31.3579874,21.5917907 32,19.193117 32,16.4798073 C32,8.30999955 26.0037865,3 17.5,3 C9.11112955,3 3.16251775,8.16745573 3.00327639,16.1501716 L3.00073778,16.6039912 L3.00697962,16.8487874 L3.02995596,17.2197723 L3.05566983,17.4795155 L3.09075724,17.7571093 L3.16294461,18.2218091 L3.26131613,18.7648312 L3.38892805,19.409071 L3.69227434,20.8561301 L3.83933551,21.5796102 C3.86191073,21.6941997 3.88353265,21.8059683 3.90422257,21.9151775 L4.01734841,22.541812 L4.1091283,23.1195731 C4.23129973,23.9558359 4.28487813,24.6695152 4.28538645,25.4512489 C4.28553284,25.6763802 4.27901546,25.9051534 4.26613189,26.1373927 C4.21467126,27.0650222 4.06479912,28.0260135 3.84025954,28.9974257 L3.741,29.402 L3.79923487,29.3907271 C5.00794766,29.1604325 6.23922626,29.0106364 7.46116437,28.9699459 L8.07120734,28.9588253 C8.67921524,28.9570644 9.31502995,28.9834774 9.9879601,29.0356025 L10.6323992,29.0918256 L11.2929938,29.162066 L11.9914882,29.2482416 C12.1122703,29.2640387 12.2355376,29.2805797 12.3617431,29.2979045 L13.1578584,29.4115794 L16.1525708,29.8551481 L16.6964154,29.9217746 L17.0207378,29.9486782 L17.1897314,29.9560724 L17.5,29.9596146 C20.2357644,29.9596146 22.7898138,29.3888323 24.9670901,28.3026844 C25.7083967,27.932879 26.609131,28.2340402 26.9789364,28.9753468 C27.3487418,29.7166534 27.0475806,30.6173877 26.306274,30.9871931 C23.8466934,32.2141701 21.0228472,32.8828751 18.0298855,32.9533887 L17.339107,32.9593579 L16.9811867,32.9532236 L16.6188898,32.9312896 L16.0592394,32.8701163 L14.444707,32.6391346 L12.4092316,32.3341634 L11.4377731,32.2017346 L10.851241,32.1312407 C10.7565014,32.1205805 10.6630581,32.1104452 10.5705938,32.1008055 L10.0250149,32.0486818 C9.93519646,32.0409079 9.84572211,32.0335713 9.75627446,32.0266427 C9.15953158,31.9804191 8.60295561,31.9572978 8.07989566,31.9588127 C6.68474323,31.9628532 5.23487699,32.1448754 3.82344809,32.4462951 C3.32216379,32.5533475 2.86285021,32.6677996 2.45688615,32.7816153 L2.11299142,32.8817779 L1.9810197,32.9234492 C0.765464691,33.3274249 -0.364499055,32.1202374 0.118836196,30.9340008 L0.20550906,30.7081365 L0.293060869,30.4655062 C0.431964297,30.0719319 0.571464606,29.6343515 0.701631432,29.1668223 C1.01030557,28.0581362 1.2155584,26.9658815 1.27073754,25.971222 C1.28057353,25.7939184 1.28549628,25.6211202 1.28538709,25.4531996 C1.2849265,24.7448889 1.22704576,24.079213 1.08942433,23.2280072 L0.997104027,22.6931947 L0.884574577,22.1029032 L0.431941347,19.9236215 L0.290849807,19.2062985 L0.214792052,18.7877612 L0.12529507,18.2293132 L0.0806146185,17.8914935 L0.04679441,17.5718493 L0.0228683428,17.262317 L0.00787031522,16.9548328 L0.000834225224,16.641333 C0,16.5881337 0,16.5343478 0,16.4798073 C0,6.56647581 7.41506485,0 17.5,0 Z" id="路径"></path>
                        <path d="M22.0785124,11.5289256 C22.9069395,11.5289256 23.5785124,12.2004985 23.5785124,13.0289256 C23.5785124,13.8086217 22.9836243,14.4493743 22.2229724,14.522059 L22.0785124,14.5289256 L11.5,14.5289256 C10.6715729,14.5289256 10,13.8573527 10,13.0289256 C10,12.2492295 10.5948881,11.6084769 11.35554,11.5357922 L11.5,11.5289256 L22.0785124,11.5289256 Z" id="Stroke-3"></path>
                        <path d="M22.0785124,18.5289256 C22.9069395,18.5289256 23.5785124,19.2004985 23.5785124,20.0289256 C23.5785124,20.8086217 22.9836243,21.4493743 22.2229724,21.522059 L22.0785124,21.5289256 L11.5,21.5289256 C10.6715729,21.5289256 10,20.8573527 10,20.0289256 C10,19.2492295 10.5948881,18.6084769 11.35554,18.5357922 L11.5,18.5289256 L22.0785124,18.5289256 Z" id="Stroke-5"></path>
                    </g>
                </g>
            </g>
        </g>
    </g>
</svg>