<?xml version="1.0" encoding="UTF-8"?>
<svg width="44px" height="44px" viewBox="0 0 44 44" version="1.1" xmlns="http://www.w3.org/2000/svg" xmlns:xlink="http://www.w3.org/1999/xlink">
    <title>78@2x</title>
    <g id="页面-1" stroke="none" stroke-width="1" fill="none" fill-rule="evenodd">
        <g id="78">
            <g id="编组"></g>
            <g id="编组" transform="translate(6.000000, 7.000000)" stroke="#333333" stroke-linecap="round" stroke-linejoin="round" stroke-width="3">
                <path d="M24.1366821,28.1449387 C21.7526683,29.3342188 18.9708909,29.9596146 16,29.9596146 C13.9647437,29.9596146 10.0827311,28.9486618 6.5755515,28.958819 C3.11065198,28.9688537 0.00795278037,30 0.00795278037,30 C0.00795278037,30 1.28727768,26.8601875 1.28538677,23.9522243 C1.28331001,20.7584616 0,17.6605061 0,14.9798073 C0,5.53280431 7.16346692,0 16,0 C24.8365331,0 32,5.53280431 32,14.9798073 C32,18.0417094 31.2474805,20.6924264 29.9293788,22.876848" id="路径"></path>
                <line x1="10" y1="11.5289256" x2="20.5785124" y2="11.5289256" id="Stroke-3"></line>
                <line x1="10" y1="18.5289256" x2="20.5785124" y2="18.5289256" id="Stroke-5"></line>
            </g>
        </g>
    </g>
</svg>