<?xml version="1.0" encoding="UTF-8"?>
<svg width="44px" height="44px" viewBox="0 0 44 44" version="1.1" xmlns="http://www.w3.org/2000/svg" xmlns:xlink="http://www.w3.org/1999/xlink">
    <title>79@2x</title>
    <g id="页面-1" stroke="none" stroke-width="1" fill="none" fill-rule="evenodd">
        <g id="79">
            <g id="编组"></g>
            <g id="编组" transform="translate(6.000000, 11.000000)" stroke="#333333" stroke-linecap="round" stroke-linejoin="round" stroke-width="3">
                <path d="M20.4085758,26 L3,26 C1.34314575,26 0,24.6568542 0,23 L0,18.198 L0,18.198 C1.9723,17.16 3.3,15.221 3.3,13 C3.3,10.779 1.9723,8.84 0,7.803 L0,3 C0,1.34314575 1.34314575,0 3,0 L30,0 C31.6568542,0 33,1.34314575 33,3 L33,7.803 L33,7.803 C31.0277,8.84 29.7,10.779 29.7,13 C29.7,15.221 31.0277,17.16 33,18.198 L33,23 C33,24.6568542 31.6568542,26 30,26 L28.8711207,26 L28.8711207,26" id="路径"></path>
                <line x1="12.5" y1="18.5" x2="12.5" y2="1.5" id="Stroke-3" stroke-dasharray="0,6"></line>
            </g>
        </g>
    </g>
</svg>