<?xml version="1.0" encoding="UTF-8"?>
<svg width="44px" height="44px" viewBox="0 0 44 44" version="1.1" xmlns="http://www.w3.org/2000/svg" xmlns:xlink="http://www.w3.org/1999/xlink">
    <title>79@2x</title>
    <g id="相关图标说明" stroke="none" stroke-width="1" fill="none" fill-rule="evenodd">
        <g id="线型图标（单色）" transform="translate(-630.000000, -5340.000000)">
            <g id="编组-5" transform="translate(131.000000, 4940.000000)">
                <g id="79" transform="translate(499.000000, 400.000000)">
                    <g id="编组"></g>
                    <g id="编组-51" transform="translate(4.000000, 7.500000)" fill="#333333" fill-rule="nonzero">
                        <path d="M31.5,0 C33.9142733,0 35.8844891,1.90123652 35.995102,4.2881643 L36,4.5 L36,9.303 C36,9.86014417 35.6912002,10.3713875 35.1980647,10.6306693 C33.6501888,11.4445147 32.7,12.9097236 32.7,14.5 C32.7,16.0902629 33.6502117,17.5557124 35.1985919,18.3706081 C35.6466311,18.6064062 35.9423743,19.0502257 35.992443,19.5474013 L36,19.698 L36,24.5 C36,26.9142733 34.0987635,28.8844891 31.7118357,28.995102 L31.5,29 L30.3711207,29 C29.5426936,29 28.8711207,28.3284271 28.8711207,27.5 C28.8711207,26.7203039 29.4660088,26.0795513 30.2266607,26.0068666 L30.3711207,26 L31.5,26 C32.2796961,26 32.9204487,25.4051119 32.9931334,24.64446 L33,24.5 L33,20.542 L32.8500555,20.4393009 C30.9754607,19.0993604 29.7934525,17.0430174 29.7053019,14.7733516 L29.7,14.5 C29.7,12.1223994 30.9007291,9.95383914 32.8504996,8.56102299 L33,8.457 L33,4.5 C33,3.72030388 32.4051119,3.07955132 31.64446,3.00686658 L31.5,3 L4.5,3 C3.72030388,3 3.07955132,3.59488808 3.00686658,4.35553999 L3,4.5 L3,8.458 L3.14950039,8.56102299 C5.02427968,9.90026928 6.20652817,11.9567346 6.29469702,14.2266214 L6.3,14.5 C6.3,16.8773637 5.09952306,19.0457628 3.14994446,20.4393009 L3,20.542 L3,24.5 C3,25.2796961 3.59488808,25.9204487 4.35553999,25.9931334 L4.5,26 L21.9085758,26 C22.7370029,26 23.4085758,26.6715729 23.4085758,27.5 C23.4085758,28.2796961 22.8136877,28.9204487 22.0530358,28.9931334 L21.9085758,29 L4.5,29 C2.08572667,29 0.115510911,27.0987635 0.0048979895,24.7118357 L0,24.5 L0,19.698 C0,19.1410698 0.308564987,18.629986 0.801408089,18.3706081 C2.34978835,17.5557124 3.3,16.0902629 3.3,14.5 C3.3,12.9097236 2.34981119,11.4445147 0.801935292,10.6306693 C0.353630332,10.3949585 0.0576688596,9.95101517 0.00756268248,9.45365555 L0,9.303 L0,4.5 C0,2.08572667 1.90123652,0.115510911 4.2881643,0.0048979895 L4.5,0 L31.5,0 Z" id="路径"></path>
                        <path d="M15.5,21 L15.5,20 C15.5,19.1715729 14.8284271,18.5 14,18.5 C13.1715729,18.5 12.5,19.1715729 12.5,20 L12.5,21 C12.5,21.8284271 13.1715729,22.5 14,22.5 C14.8284271,22.5 15.5,21.8284271 15.5,21 Z M15.5,15 L15.5,14 C15.5,13.1715729 14.8284271,12.5 14,12.5 C13.1715729,12.5 12.5,13.1715729 12.5,14 L12.5,15 C12.5,15.8284271 13.1715729,16.5 14,16.5 C14.8284271,16.5 15.5,15.8284271 15.5,15 Z M15.5,9 L15.5,8 C15.5,7.17157288 14.8284271,6.5 14,6.5 C13.1715729,6.5 12.5,7.17157288 12.5,8 L12.5,9 C12.5,9.82842712 13.1715729,10.5 14,10.5 C14.8284271,10.5 15.5,9.82842712 15.5,9 Z" id="Stroke-3"></path>
                    </g>
                </g>
            </g>
        </g>
    </g>
</svg>