<?xml version="1.0" encoding="UTF-8"?>
<svg width="44px" height="44px" viewBox="0 0 44 44" version="1.1" xmlns="http://www.w3.org/2000/svg" xmlns:xlink="http://www.w3.org/1999/xlink">
    <title>8@2x</title>
    <g id="相关图标说明" stroke="none" stroke-width="1" fill="none" fill-rule="evenodd">
        <g id="线型图标（单色）" transform="translate(-714.000000, -4940.000000)">
            <g id="编组-5" transform="translate(131.000000, 4940.000000)">
                <g id="8" transform="translate(583.000000, 0.000000)">
                    <g id="编组"></g>
                    <path d="M11.8356243,29.0053177 C10.5315359,29.0899613 9.5,30.1745166 9.5,31.5 L9.5,31.5 L9.5,36 L29,36 L29.14446,36.0068666 C29.9051119,36.0795513 30.5,36.7203039 30.5,37.5 C30.5,38.3284271 29.8284271,39 29,39 L29,39 L8,39 L7.85553999,38.9931334 C7.09488808,38.9204487 6.5,38.2796961 6.5,37.5 L6.5,37.5 L6.5,31.5 L6.5043672,31.2787929 C6.62046086,28.34378 9.03652085,26 12,26 L12,26 L32,26 C34.9634791,26 37.3795391,28.34378 37.4956328,31.2787929 L37.5,31.5 L37.5,37.5 C37.5,38.3284271 36.8284271,39 36,39 C35.2203039,39 34.5795513,38.4051119 34.5068666,37.64446 L34.5,37.5 L34.5,31.5 C34.5,30.1745166 33.4684641,29.0899613 32.1643757,29.0053177 L32,29 L12,29 Z M25,5 C28.0375661,5 30.5,7.46243388 30.5,10.5 L30.5,10.5 L30.5,15.5 C30.5,20.1944204 26.6944204,24 22,24 C17.3055796,24 13.5,20.1944204 13.5,15.5 L13.5,15.5 L13.5,10.5 C13.5,7.46243388 15.9624339,5 19,5 L19,5 Z M25,8 L19,8 C17.6192881,8 16.5,9.11928813 16.5,10.5 L16.5,10.5 L16.5,15.5 C16.5,18.5375661 18.9624339,21 22,21 C25.0375661,21 27.5,18.5375661 27.5,15.5 L27.5,15.5 L27.5,10.5 C27.5,9.11928813 26.3807119,8 25,8 L25,8 Z" id="形状结合" fill="#333333" fill-rule="nonzero"></path>
                </g>
            </g>
        </g>
    </g>
</svg>