<?xml version="1.0" encoding="UTF-8"?>
<svg width="44px" height="44px" viewBox="0 0 44 44" version="1.1" xmlns="http://www.w3.org/2000/svg" xmlns:xlink="http://www.w3.org/1999/xlink">
    <title>80@2x</title>
    <g id="相关图标说明" stroke="none" stroke-width="1" fill="none" fill-rule="evenodd">
        <g id="线型图标（单色）" transform="translate(-714.000000, -5340.000000)">
            <g id="编组-5" transform="translate(131.000000, 4940.000000)">
                <g id="80" transform="translate(583.000000, 400.000000)">
                    <g id="编组"></g>
                    <g id="编组-49" transform="translate(5.000000, 5.000000)" fill="#333333" fill-rule="nonzero">
                        <path d="M8,0 C3.581722,0 0,3.581722 0,8 C0,12.418278 3.581722,16 8,16 C12.418278,16 16,12.418278 16,8 C16,3.581722 12.418278,0 8,0 Z M8,3 C10.7614237,3 13,5.23857625 13,8 C13,10.7614237 10.7614237,13 8,13 C5.23857625,13 3,10.7614237 3,8 C3,5.23857625 5.23857625,3 8,3 Z" id="矩形"></path>
                        <path d="M8,18 C3.581722,18 0,21.581722 0,26 C0,30.418278 3.581722,34 8,34 C12.418278,34 16,30.418278 16,26 C16,21.581722 12.418278,18 8,18 Z M8,21 C10.7614237,21 13,23.2385763 13,26 C13,28.7614237 10.7614237,31 8,31 C5.23857625,31 3,28.7614237 3,26 C3,23.2385763 5.23857625,21 8,21 Z" id="矩形备份-2"></path>
                        <path d="M26,0 C21.581722,0 18,3.581722 18,8 C18,12.418278 21.581722,16 26,16 C30.418278,16 34,12.418278 34,8 C34,3.581722 30.418278,0 26,0 Z M26,3 C28.7614237,3 31,5.23857625 31,8 C31,10.7614237 28.7614237,13 26,13 C23.2385763,13 21,10.7614237 21,8 C21,5.23857625 23.2385763,3 26,3 Z" id="矩形备份"></path>
                        <path d="M26,18 C30.418278,18 34,21.581722 33.9993881,26.0428411 C33.9599124,27.424445 33.6403612,28.6766779 33.0343922,29.7802878 C32.6356712,30.506451 31.7237724,30.7718954 30.9976091,30.3731744 C30.2714459,29.9744534 30.0060015,29.0625545 30.4047225,28.3363913 C30.7735574,27.6646574 30.9743014,26.8779972 31,26 C31,23.2385763 28.7614237,21 26,21 C23.2385763,21 21,23.2385763 21,26 C21,28.7614237 23.2385763,31 26,31 C26.8284271,31 27.5,31.6715729 27.5,32.5 C27.5,33.3284271 26.8284271,34 26,34 C21.581722,34 18,30.418278 18,26 C18,21.581722 21.581722,18 26,18 Z" id="路径" transform="translate(25.999694, 26.000000) rotate(-19.000000) translate(-25.999694, -26.000000) "></path>
                    </g>
                </g>
            </g>
        </g>
    </g>
</svg>