<?xml version="1.0" encoding="UTF-8"?>
<svg width="44px" height="44px" viewBox="0 0 44 44" version="1.1" xmlns="http://www.w3.org/2000/svg" xmlns:xlink="http://www.w3.org/1999/xlink">
    <title>81@2x</title>
    <g id="页面-1" stroke="none" stroke-width="1" fill="none" fill-rule="evenodd">
        <g id="81">
            <g id="编组"></g>
            <g id="编组-41" transform="translate(5.000000, 4.000000)" fill-rule="nonzero">
                <path d="M0.468823485,26.3141699 C0.424131811,25.2341087 0.424131811,24.2972248 0.468823485,23.5035183 C0.535860995,22.3129586 0.614521074,21.5943444 0.758596661,21.1679126 C1.68082988,18.438307 3.64093909,16.996605 6.48493909,16.996605 C7.28793765,16.996605 9.4594532,17.1468309 9.73961293,16.996605 C10.0197727,16.8463792 7.58293975,16.736885 6.22174597,14.9910862 C4.86055219,13.2452875 4.87881154,10.840531 4.8804043,10.0539099 L4.8804043,8.7705563 C4.8804043,6.08006524 6.79453619,5.95884556 8.42653619,5.95884556" id="路径" stroke="#333333" stroke-width="3" stroke-linecap="round"></path>
                <path d="M10.1635074,23.2309526 C8.90148639,23.3128658 7.90322581,24.3624354 7.90322581,25.6451613 L7.90322581,25.6451613 L7.90322581,30 L26.7741935,30 L26.9139936,30.0066451 C27.6501083,30.0769852 28.2258065,30.6970683 28.2258065,31.4516129 C28.2258065,32.2533166 27.5758972,32.9032258 26.7741935,32.9032258 L26.7741935,32.9032258 L6.4516129,32.9032258 L6.31181289,32.8965807 C5.57569815,32.8262407 5,32.2061575 5,31.4516129 L5,31.4516129 L5,25.6451613 L5.00422633,25.4310899 C5.11657503,22.5907549 7.4546976,20.3225806 10.3225806,20.3225806 L10.3225806,20.3225806 L29.6774194,20.3225806 C32.5453024,20.3225806 34.883425,22.5907549 34.9957737,25.4310899 L35,25.6451613 L35,31.4516129 C35,32.2533166 34.3500908,32.9032258 33.5483871,32.9032258 C32.7938425,32.9032258 32.1737593,32.3275277 32.1034193,31.5914129 L32.0967742,31.4516129 L32.0967742,25.6451613 C32.0967742,24.3624354 31.0985136,23.3128658 29.8364926,23.2309526 L29.6774194,23.2258065 L10.3225806,23.2258065 Z M22.9032258,4.26325641e-14 C25.8428059,4.26325641e-14 28.2258065,2.38300053 28.2258065,5.32258065 L28.2258065,5.32258065 L28.2258065,10.1612903 C28.2258065,14.7042778 24.5429875,18.3870968 20,18.3870968 C15.4570125,18.3870968 11.7741935,14.7042778 11.7741935,10.1612903 L11.7741935,10.1612903 L11.7741935,5.32258065 C11.7741935,2.38300053 14.1571941,4.26325641e-14 17.0967742,4.26325641e-14 L17.0967742,4.26325641e-14 Z M22.9032258,2.90322581 L17.0967742,2.90322581 C15.7606014,2.90322581 14.6774194,3.98640786 14.6774194,5.32258065 L14.6774194,5.32258065 L14.6774194,10.1612903 C14.6774194,13.1008704 17.0604199,15.483871 20,15.483871 C22.9395801,15.483871 25.3225806,13.1008704 25.3225806,10.1612903 L25.3225806,10.1612903 L25.3225806,5.32258065 C25.3225806,3.98640786 24.2393986,2.90322581 22.9032258,2.90322581 L22.9032258,2.90322581 Z" id="形状结合" fill="#333333"></path>
            </g>
        </g>
    </g>
</svg>