<?xml version="1.0" encoding="UTF-8"?>
<svg width="44px" height="44px" viewBox="0 0 44 44" version="1.1" xmlns="http://www.w3.org/2000/svg" xmlns:xlink="http://www.w3.org/1999/xlink">
    <title>81@2x</title>
    <g id="相关图标说明" stroke="none" stroke-width="1" fill="none" fill-rule="evenodd">
        <g id="线型图标（单色）" transform="translate(-798.000000, -5340.000000)">
            <g id="编组-5" transform="translate(131.000000, 4940.000000)">
                <g id="81" transform="translate(667.000000, 400.000000)">
                    <g id="编组"></g>
                    <g id="编组-41" transform="translate(3.935304, 5.500000)" fill="#333333" fill-rule="nonzero">
                        <path d="M9.49123264,4.45884556 C10.3196598,4.45884556 10.9912326,5.13041843 10.9912326,5.95884556 C10.9912326,6.78727268 10.3196598,7.45884556 9.49123264,7.45884556 L9.12434676,7.46174042 L8.80294956,7.47180178 L8.52416172,7.49109482 C7.66268529,7.57308575 7.46337624,7.84335771 7.44634788,8.64610726 L7.44503542,10.0860273 C7.4426748,11.1728883 7.52623222,11.9949474 7.83278424,12.8682965 C7.99393215,13.3273977 8.20516055,13.7299 8.46936977,14.0687615 C8.69734546,14.3611517 8.99654324,14.6086864 9.3620783,14.8176494 C9.65691206,14.9861951 9.96901206,15.1178982 10.3280035,15.2348687 L10.6627914,15.3360528 L11.1254549,15.4666217 C11.2495122,15.5050189 11.3476387,15.5401251 11.4531626,15.5930066 L11.6171222,15.6837559 L11.7056465,15.7388929 C11.745104,15.7664633 11.7795322,15.7964347 11.8187307,15.8395977 L11.9063919,15.9467098 L12.0241956,16.1081832 L12.1895633,16.3432015 L12.2450529,16.6937381 L12.2808442,16.965082 C12.3179227,17.3227073 12.2761354,17.4805835 12.0997534,17.7425799 L11.9616138,17.9360041 L11.8764424,18.0505375 L11.7367855,18.1695867 C11.6933981,18.2056001 11.6641014,18.2278809 11.6323461,18.2486384 L11.5131558,18.3185494 L11.3699292,18.3905369 C11.3232415,18.4121728 11.2771397,18.43151 11.2302176,18.4487315 L11.0855851,18.4942323 L10.9275957,18.5281386 C10.8996824,18.5328845 10.8708611,18.5371931 10.840956,18.5410872 L10.6471141,18.5596627 L10.4188256,18.5693916 L10.1476547,18.5713733 L9.64204015,18.562224 L7.68164802,18.4975721 L7.54963555,18.496605 C5.36115119,18.496605 3.96455758,19.5164636 3.24437508,21.6480439 C3.23306071,21.6815319 3.22190827,21.7222926 3.21091943,21.7708142 L3.17844535,21.94015 L3.14696282,22.1589808 L3.11648182,22.4302362 L3.07265998,22.941824 L3.04472642,23.3569579 L3.03114767,23.5878461 C2.98943739,24.3286042 2.98943739,25.2178086 3.03223743,26.2521547 C3.06648747,27.0798736 2.42325393,27.7786374 1.59553512,27.8128874 C0.767816302,27.8471375 0.0690524838,27.2039039 0.0348024455,26.3761851 C-0.0117808664,25.2504087 -0.0117808664,24.2658455 0.0358922026,23.4191906 L0.0852114729,22.6566881 L0.122022754,22.2219129 L0.163502362,21.8384263 L0.21095565,21.4997491 L0.265687974,21.199402 C0.304892614,21.0105075 0.349820179,20.842847 0.402211143,20.6877814 C1.33760257,17.9192304 3.23703671,16.1746624 5.84339267,15.6578863 L5.90495887,15.646 L5.72334784,15.371492 C5.48797933,14.9977542 5.28827083,14.5996303 5.1212667,14.1803062 L5.00209949,13.8618879 C4.74585461,13.131861 4.59029218,12.3706759 4.51037011,11.5843822 C4.46713843,11.1590579 4.45047455,10.8163421 4.44617284,10.4041032 L4.44510075,8.7705563 C4.44510075,5.45327085 6.29643154,4.45884556 9.49123264,4.45884556 Z" id="路径"></path>
                        <path d="M11.2282039,23.2309526 C9.96618284,23.3128658 8.96792226,24.3624354 8.96792226,25.6451613 L8.96792226,25.6451613 L8.96792226,30 L27.83889,30 L27.97869,30.0066451 C28.7148048,30.0769852 29.2905029,30.6970683 29.2905029,31.4516129 C29.2905029,32.2533166 28.6405937,32.9032258 27.83889,32.9032258 L27.83889,32.9032258 L7.51630935,32.9032258 L7.37650934,32.8965807 C6.6403946,32.8262407 6.06469645,32.2061575 6.06469645,31.4516129 L6.06469645,31.4516129 L6.06469645,25.6451613 L6.06892278,25.4310899 C6.18127148,22.5907549 8.51939405,20.3225806 11.3872771,20.3225806 L11.3872771,20.3225806 L30.7421158,20.3225806 C33.6099989,20.3225806 35.9481214,22.5907549 36.0604701,25.4310899 L36.0646965,25.6451613 L36.0646965,31.4516129 C36.0646965,32.2533166 35.4147872,32.9032258 34.6130835,32.9032258 C33.8585389,32.9032258 33.2384558,32.3275277 33.1681157,31.5914129 L33.1614706,31.4516129 L33.1614706,25.6451613 C33.1614706,24.3624354 32.1632101,23.3128658 30.9011891,23.2309526 L30.7421158,23.2258065 L11.3872771,23.2258065 Z M23.9679223,0 C26.9075024,0 29.2905029,2.38300053 29.2905029,5.32258065 L29.2905029,5.32258065 L29.2905029,10.1612903 C29.2905029,14.7042778 25.6076839,18.3870968 21.0646965,18.3870968 C16.521709,18.3870968 12.83889,14.7042778 12.83889,10.1612903 L12.83889,10.1612903 L12.83889,5.32258065 C12.83889,2.38300053 15.2218905,0 18.1614706,0 L18.1614706,0 Z M23.9679223,2.90322581 L18.1614706,2.90322581 C16.8252979,2.90322581 15.7421158,3.98640786 15.7421158,5.32258065 L15.7421158,5.32258065 L15.7421158,10.1612903 C15.7421158,13.1008704 18.1251163,15.483871 21.0646965,15.483871 C24.0042766,15.483871 26.3872771,13.1008704 26.3872771,10.1612903 L26.3872771,10.1612903 L26.3872771,5.32258065 C26.3872771,3.98640786 25.304095,2.90322581 23.9679223,2.90322581 L23.9679223,2.90322581 Z" id="形状结合"></path>
                    </g>
                </g>
            </g>
        </g>
    </g>
</svg>