<?xml version="1.0" encoding="UTF-8"?>
<svg width="44px" height="44px" viewBox="0 0 44 44" version="1.1" xmlns="http://www.w3.org/2000/svg" xmlns:xlink="http://www.w3.org/1999/xlink">
    <title>82@2x</title>
    <g id="相关图标说明" stroke="none" stroke-width="1" fill="none" fill-rule="evenodd">
        <g id="线型图标（单色）" transform="translate(-882.000000, -5340.000000)">
            <g id="编组-5" transform="translate(131.000000, 4940.000000)">
                <g id="82" transform="translate(751.000000, 400.000000)">
                    <g id="编组"></g>
                    <g id="编组-48" transform="translate(4.000000, 5.000000)" fill="#333333" fill-rule="nonzero">
                        <path d="M30.5,2.5 C33.4634791,2.5 35.8795391,4.84378001 35.9956328,7.77879286 L36,8 L36,18.5992815 C36,19.4277086 35.3284271,20.0992815 34.5,20.0992815 C33.7203039,20.0992815 33.0795513,19.5043934 33.0068666,18.7437415 L33,18.5992815 L33,8 C33,6.6745166 31.9684641,5.58996133 30.6643757,5.50531768 L30.5,5.5 L5.5,5.5 C4.1745166,5.5 3.08996133,6.53153594 3.00531768,7.83562431 L3,8 L3,26 C3,27.3254834 4.03153594,28.4100387 5.33562431,28.4946823 L5.5,28.5 L30.5,28.5 C31.8254834,28.5 32.9100387,27.4684641 32.9946823,26.1643757 L33,26 L33,24.4701832 C33,23.6417561 33.6715729,22.9701832 34.5,22.9701832 C35.2796961,22.9701832 35.9204487,23.5650713 35.9931334,24.3257232 L36,24.4701832 L36,26 C36,28.9634791 33.65622,31.3795391 30.7212071,31.4956328 L30.5,31.5 L5.5,31.5 C2.53652085,31.5 0.120460863,29.15622 0.00436720397,26.2212071 L0,26 L0,8 C0,5.03652085 2.34378001,2.62046086 5.27879286,2.5043672 L5.5,2.5 L30.5,2.5 Z" id="路径"></path>
                        <path d="M18,0 C18.7796961,0 19.4204487,0.594888083 19.4931334,1.35553999 L19.5,1.5 L19.5,8.5 C19.5,9.32842712 18.8284271,10 18,10 C17.2203039,10 16.5795513,9.40511192 16.5068666,8.64446001 L16.5,8.5 L16.5,1.5 C16.5,0.671572875 17.1715729,0 18,0 Z" id="直线-8"></path>
                        <path d="M18,0 C18.7796961,0 19.4204487,0.594888083 19.4931334,1.35553999 L19.5,1.5 L19.5,8.5 C19.5,9.32842712 18.8284271,10 18,10 C17.2203039,10 16.5795513,9.40511192 16.5068666,8.64446001 L16.5,8.5 L16.5,1.5 C16.5,0.671572875 17.1715729,0 18,0 Z" id="直线-8备份"></path>
                        <path d="M34,12 C34.8284271,12 35.5,12.6715729 35.5,13.5 C35.5,14.2796961 34.9051119,14.9204487 34.14446,14.9931334 L34,15 L2,15 C1.17157288,15 0.5,14.3284271 0.5,13.5 C0.5,12.7203039 1.09488808,12.0795513 1.85553999,12.0068666 L2,12 L34,12 Z" id="直线-8备份-2"></path>
                    </g>
                </g>
            </g>
        </g>
    </g>
</svg>