<?xml version="1.0" encoding="UTF-8"?>
<svg width="44px" height="44px" viewBox="0 0 44 44" version="1.1" xmlns="http://www.w3.org/2000/svg" xmlns:xlink="http://www.w3.org/1999/xlink">
    <title>83@2x</title>
    <g id="页面-1" stroke="none" stroke-width="1" fill="none" fill-rule="evenodd">
        <g id="83">
            <g id="编组"></g>
            <path d="M17.9783544,27.8520788 L33.0334899,31.7208279 C33.569532,31.853784 34.1118622,31.5270183 34.2448184,30.9909762 C34.2529353,30.958251 34.259392,30.9251362 34.2641636,30.8917587 L37.6594896,7.14152243 C37.7376494,6.59479627 37.3578013,6.08822612 36.8110751,6.01006633 C36.5885041,5.97824765 36.3617045,6.02236223 36.1672877,6.13528878 L6.49789795,23.3686897 C6.02033024,23.6460839 5.85805752,24.2581014 6.13545169,24.7356691 C6.2714574,24.9698194 6.49660598,25.1388045 6.75942615,25.2039926 L12.1145722,26.5962388" id="路径" stroke="#333333" stroke-width="3" stroke-linecap="round"></path>
            <path d="M26.1167369,18 L17,27.556068 L17,36.108173 C17,36.6604577 17.4477153,37.108173 18,37.108173 C18.3164394,37.108173 18.6142062,36.9583992 18.802858,36.7043434 L21.1415051,33.5549055 L21.1415051,33.5549055" id="路径-8" stroke="#333333" stroke-width="3" stroke-linecap="round"></path>
        </g>
    </g>
</svg>