<?xml version="1.0" encoding="UTF-8"?>
<svg width="44px" height="44px" viewBox="0 0 44 44" version="1.1" xmlns="http://www.w3.org/2000/svg" xmlns:xlink="http://www.w3.org/1999/xlink">
    <title>83@2x</title>
    <g id="相关图标说明" stroke="none" stroke-width="1" fill="none" fill-rule="evenodd">
        <g id="线型图标（单色）" transform="translate(-966.000000, -5340.000000)">
            <g id="编组-5" transform="translate(131.000000, 4940.000000)">
                <g id="83" transform="translate(835.000000, 400.000000)">
                    <g id="编组"></g>
                    <g id="编组-47" transform="translate(4.499753, 4.940000)" fill="#333333" fill-rule="nonzero">
                        <path d="M30.9141346,0.338221944 C31.4001765,0.055905578 31.9671757,-0.0543808632 32.5236031,0.0251658274 C33.8357459,0.212749328 34.7634016,1.3873903 34.6626377,2.69033223 L34.6446393,2.85380608 L31.2493133,26.6040423 C31.2373842,26.6874861 31.2212426,26.7702731 31.2009502,26.8520862 C30.8818555,28.1385872 29.6195629,28.9429155 28.3226382,28.7083955 L28.1604079,28.6736296 L13.1052724,24.8048804 C12.3029135,24.5986966 11.8196181,23.7811112 12.0258019,22.9787524 C12.2198573,22.2235911 12.9555002,21.7510604 13.7103067,21.8699784 L13.85193,21.8992819 L28.3582468,25.6260024 L31.5282468,3.45000242 L3.80124679,19.5550024 L7.99224647,20.6445014 C8.74685706,20.8406873 9.21730966,21.5776608 9.09626193,22.3321287 L9.0665588,22.4736687 C8.87037297,23.2282793 8.1333994,23.6987319 7.37893148,23.5776842 L7.23739149,23.5479811 L1.89856537,22.1598801 C1.24151495,21.9969099 0.678643502,21.5744472 0.338629232,20.9890714 C-0.325960973,19.8448988 0.0189270485,18.3920284 1.09963285,17.6625808 L1.24474486,17.5716229 L30.9141346,0.338221944 Z" id="路径"></path>
                        <path d="M20.5316688,12.4645839 C21.1035147,11.865181 22.0529994,11.8428416 22.6524022,12.4146875 C23.2143424,12.950793 23.2690979,13.8188077 22.8025607,14.4191081 L22.7022985,14.535421 L14.0002468,23.6560024 L14.0002468,30.0950024 L15.437465,28.1606524 C15.9022967,27.5346672 16.761905,27.3748885 17.415933,27.7700111 L17.5360075,27.850621 C18.1619927,28.3154527 18.3217714,29.175061 17.9266488,29.829089 L17.8460389,29.9491635 L15.5073917,33.0986013 C15.0357622,33.733741 14.2913452,34.1081754 13.5002468,34.1081754 C12.1747634,34.1081754 11.0902081,33.0766395 11.0055645,31.7725511 L11.0002468,31.6081754 L11.0002468,22.4553204 L20.5316688,12.4645839 Z" id="路径-8"></path>
                    </g>
                </g>
            </g>
        </g>
    </g>
</svg>