<?xml version="1.0" encoding="UTF-8"?>
<svg width="44px" height="44px" viewBox="0 0 44 44" version="1.1" xmlns="http://www.w3.org/2000/svg" xmlns:xlink="http://www.w3.org/1999/xlink">
    <title>84@2x</title>
    <g id="相关图标说明" stroke="none" stroke-width="1" fill="none" fill-rule="evenodd">
        <g id="线型图标（单色）" transform="translate(-1050.000000, -5340.000000)">
            <g id="编组-5" transform="translate(131.000000, 4940.000000)">
                <g id="84" transform="translate(919.000000, 400.000000)">
                    <g id="编组"></g>
                    <path d="M18.1954428,5.94818123 C20.2600333,3.97053493 23.4811238,3.91236887 25.6137437,5.77368302 L25.8045572,5.94818123 L37.3045572,16.9638923 C38.3238725,17.9402821 38.9263222,19.2685776 38.9936716,20.671797 L39,20.9357111 L39,34.0755014 C39,37.1130675 36.5375661,39.5755014 33.5,39.5755014 C32.6715729,39.5755014 32,38.9039285 32,38.0755014 C32,37.2958052 32.5948881,36.6550527 33.35554,36.5823679 L33.5,36.5755014 C34.8254834,36.5755014 35.9100387,35.5439654 35.9946823,34.239877 L36,34.0755014 L36,20.9357111 C36,20.3221885 35.774518,19.7326121 35.3705473,19.2770707 L35.2293442,19.1303389 L23.7293442,8.11462783 C22.8064055,7.23055605 21.3750194,7.19037097 20.4058582,7.99407259 L20.2706558,8.11462783 L8.77065581,19.1303389 C8.32760116,19.5547356 8.05781367,20.1253994 8.00828672,20.7322414 L8,20.9357111 L8,34.0755014 C8,35.4009848 9.03153594,36.48554 10.3356243,36.5701837 L10.5,36.5755014 L25.4024594,36.5755014 C26.1821556,36.5755014 26.8229081,35.9806133 26.8955929,35.2199614 L26.9024594,35.0755014 L26.9024594,28.1933552 C26.9024594,27.364928 27.5740323,26.6933552 28.4024594,26.6933552 C29.1821556,26.6933552 29.8229081,27.2882432 29.8955929,28.0488951 L29.9024594,28.1933552 L29.9024594,35.0755014 C29.9024594,37.4897747 28.0012229,39.4599904 25.6142951,39.5706034 L25.4024594,39.5755014 L10.5,39.5755014 C7.53652085,39.5755014 5.12046086,37.2317213 5.0043672,34.2967085 L5,34.0755014 L5,20.9357111 C5,19.5242081 5.54248996,18.1703177 6.50923518,17.1510216 L6.69544278,16.9638923 L18.1954428,5.94818123 Z" id="路径" fill="#333333" fill-rule="nonzero"></path>
                </g>
            </g>
        </g>
    </g>
</svg>