<?xml version="1.0" encoding="UTF-8"?>
<svg width="44px" height="44px" viewBox="0 0 44 44" version="1.1" xmlns="http://www.w3.org/2000/svg" xmlns:xlink="http://www.w3.org/1999/xlink">
    <title>85@2x</title>
    <g id="页面-1" stroke="none" stroke-width="1" fill="none" fill-rule="evenodd">
        <g id="85">
            <g id="编组"></g>
            <g id="金豆" transform="translate(6.000000, 6.000000)" stroke="#333333" stroke-linecap="round" stroke-width="3">
                <path d="M22.7261346,28.6489923 C23.1599677,28.36103 23.587251,28.0550845 24.0057354,27.7322712 C28.2637105,24.4477255 31.6107813,19.4169206 31.6779886,13.814592 C31.7966629,4.00586057 25.5018971,0.502957714 21.5061943,0.502957714 C17.5094857,0.502957714 15.3301029,2.254912 13.8768457,4.00586057 C12.4235886,5.75781486 11.3333943,11.0116663 4.79424,13.814592 C-0.65472,16.2665234 -0.0462628571,23.6233234 1.88772571,26.0752549 C3.82272,28.5271863 6.36516571,31.6801006 13.8768457,31.6801006 C15.2541152,31.6801006 16.7208106,31.409253 18.1985647,30.9064191" id="路径"></path>
            </g>
            <path d="M20,20.0748579 C21.6312336,18.7892985 22.6533425,17.0976792 23.0663266,15" id="路径-2" stroke="#333333" stroke-width="3" stroke-linecap="round" transform="translate(21.533163, 17.537429) rotate(3.000000) translate(-21.533163, -17.537429) "></path>
        </g>
    </g>
</svg>