<?xml version="1.0" encoding="UTF-8"?>
<svg width="44px" height="44px" viewBox="0 0 44 44" version="1.1" xmlns="http://www.w3.org/2000/svg" xmlns:xlink="http://www.w3.org/1999/xlink">
    <title>85@2x</title>
    <g id="相关图标说明" stroke="none" stroke-width="1" fill="none" fill-rule="evenodd">
        <g id="线型图标（单色）" transform="translate(-1134.000000, -5340.000000)">
            <g id="编组-5" transform="translate(131.000000, 4940.000000)">
                <g id="85" transform="translate(1003.000000, 400.000000)">
                    <g id="编组"></g>
                    <g id="编组-50" transform="translate(4.880000, 4.910000)" fill="#333333" fill-rule="nonzero">
                        <path d="M22.5635785,0 C28.8299685,0 34.3465317,5.63314113 34.2352648,14.8296275 C34.1665203,20.5601018 30.9589177,26.0757946 25.9792937,29.9170109 C25.533828,30.2606372 25.0777028,30.5873665 24.613055,30.8957824 C23.9228383,31.3539227 22.9919112,31.1657875 22.533771,30.4755708 C22.0756308,29.7853542 22.2637659,28.854427 22.9539826,28.3962868 C23.3593594,28.1272127 23.7576928,27.8418805 24.1469455,27.5416161 C28.4475904,24.2241555 31.1786877,19.5278461 31.2354825,14.7934874 C31.3266066,7.26185608 27.1529497,3 22.5635785,3 C19.59051,3 17.7096164,4.00765599 16.0887318,5.96056948 C16.0547407,6.00154698 16.0178773,6.05013738 15.9781476,6.10664379 L15.9164041,6.19737831 C15.9269544,6.18140262 15.9311944,6.17695351 15.9295828,6.18309254 L15.9076517,6.23233562 L15.6587218,6.70493164 L15.2824332,7.38713179 L14.6926035,8.42019999 L14.362792,8.98011338 L13.9077253,9.72895148 L13.5669778,10.2676612 L13.3452362,10.6053299 L13.1310444,10.9192525 C13.0961278,10.9692813 13.0616404,11.018086 13.0276397,11.0655495 L12.8299328,11.3332956 C12.7981078,11.3749245 12.766884,11.4149774 12.7363188,11.4533371 C11.1408103,13.455719 9.11109933,15.0464919 6.46715022,16.179526 C2.7764662,17.8402657 2.10369034,23.5834456 4.12260712,26.14305 L4.31900184,26.3895277 L4.7071018,26.8613605 C7.3416124,29.9902232 9.66996994,31.1771429 14.9342299,31.1771429 C16.1220531,31.1771429 17.4249571,30.9420317 18.7727524,30.4834187 C19.5570203,30.2165567 20.4091295,30.635997 20.6759915,31.4202649 C20.9428536,32.2045329 20.5234132,33.056642 19.7391453,33.3235041 C18.0927637,33.8837167 16.4666984,34.1771429 14.9342299,34.1771429 C8.52797084,34.1771429 5.44444504,32.4796594 2.19275227,28.5293288 L1.76737782,28.0012466 C-1.36158514,24.0343138 -0.419066388,15.9884623 5.26066848,13.4329496 C7.4604918,12.4900232 9.09532698,11.2087318 10.3900603,9.5838261 C10.5003492,9.44541232 10.6244673,9.27394783 10.757866,9.07866425 L11.0356899,8.65907357 L11.3301754,8.19237702 L11.7854551,7.43990936 L12.3110253,6.53740597 L13.0507317,5.21923612 L13.4130341,4.5441576 C13.5336691,4.3614876 13.6543647,4.19636629 13.7799983,4.0449105 C15.9387363,1.44396733 18.6340499,0 22.5635785,0 Z" id="路径"></path>
                        <path d="M16.6519625,9.70728935 C16.8119886,8.89446517 17.6006396,8.3652678 18.4134638,8.52529393 C19.2262879,8.68532005 19.7554853,9.47397105 19.5954592,10.2867952 C19.1138163,12.7332145 17.9007202,14.740923 15.9858463,16.2500165 C15.3351905,16.762792 14.3920432,16.6510179 13.8792678,16.0003622 C13.3664924,15.3497065 13.4782664,14.4065592 14.1289222,13.8937838 C15.4765154,12.8317586 16.3076371,11.4562286 16.6519625,9.70728935 Z" id="路径-2" transform="translate(16.590659, 12.534360) rotate(3.000000) translate(-16.590659, -12.534360) "></path>
                    </g>
                </g>
            </g>
        </g>
    </g>
</svg>