<?xml version="1.0" encoding="UTF-8"?>
<svg width="44px" height="44px" viewBox="0 0 44 44" version="1.1" xmlns="http://www.w3.org/2000/svg" xmlns:xlink="http://www.w3.org/1999/xlink">
    <title>86@2x</title>
    <g id="相关图标说明" stroke="none" stroke-width="1" fill="none" fill-rule="evenodd">
        <g id="线型图标（单色）" transform="translate(-1218.000000, -5340.000000)">
            <g id="编组-5" transform="translate(131.000000, 4940.000000)">
                <g id="86" transform="translate(1087.000000, 400.000000)">
                    <g id="编组"></g>
                    <path d="M24.6275322,9.05579891 C28.6989685,6.53059097 34.0222758,7.11316268 37.4545566,10.5454434 C41.4426373,14.5335242 41.513853,20.9549696 37.6682037,25.0299562 L37.4545566,25.2498724 L24.9418525,37.7625764 C23.371192,39.3332369 20.8577168,39.3855923 19.2242454,37.9196859 L19.0584795,37.7626245 L6.54441846,25.249699 C2.48519385,21.1891474 2.48519385,14.6061684 6.54476508,10.5452702 C10.5339505,6.55738801 16.9552867,6.48617583 21.0302417,10.3317978 L21.2501563,10.5454434 L24.697978,13.9932652 C25.2837644,14.5790516 25.2837644,15.5287991 24.697978,16.1145855 C24.1488032,16.6637603 23.2797408,16.6980837 22.6905801,16.2175558 L22.5766577,16.1145855 L19.1288359,12.6667638 C16.2397887,9.77771652 11.5559036,9.77771652 8.66608545,12.6665904 C5.84215183,15.4914472 5.77939775,20.0323751 8.47761619,22.9332947 L8.665864,23.1285039 L21.1797517,35.6412561 C21.6006252,36.0621295 22.26382,36.0921919 22.7193108,35.7314433 L22.8205322,35.6412561 L35.3332362,23.128552 C38.2222546,20.2395336 38.2222546,15.5557822 35.3332362,12.6667638 C32.8914489,10.2249765 29.1027204,9.81034593 26.2087662,11.6052497 C25.5047548,12.0418954 24.5800695,11.8251527 24.1434238,11.1211413 C23.7067781,10.4171299 23.9235208,9.49244462 24.6275322,9.05579891 Z" id="Stroke-1" fill="#333333" fill-rule="nonzero"></path>
                </g>
            </g>
        </g>
    </g>
</svg>