<?xml version="1.0" encoding="UTF-8"?>
<svg width="44px" height="44px" viewBox="0 0 44 44" version="1.1" xmlns="http://www.w3.org/2000/svg" xmlns:xlink="http://www.w3.org/1999/xlink">
    <title>87@2x</title>
    <g id="页面-1" stroke="none" stroke-width="1" fill="none" fill-rule="evenodd">
        <g id="87">
            <g id="编组"></g>
            <line x1="26.881" y1="17" x2="16.5" y2="27.5" id="Stroke-3" stroke="#333333" stroke-width="3" stroke-linecap="round" stroke-linejoin="round"></line>
            <path d="M24.2656699,13.3066181 L29.9574619,13.0494152 C30.5091836,13.0244838 30.9766534,13.4515317 31.0015848,14.0032535 C31.002944,14.033333 31.002944,14.0634586 31.0015848,14.0935381 L30.7443819,19.7853301 C30.7194505,20.3370519 30.2519808,20.7640998 29.7002591,20.7391684 C29.4509108,20.7279007 29.2147904,20.6237904 29.0382946,20.4472946 L23.6037054,15.0127054 C23.2131811,14.6221811 23.2131811,13.9890161 23.6037054,13.5984918 C23.7802012,13.421996 24.0163216,13.3178857 24.2656699,13.3066181 Z" id="Fill-4" fill="#333333"></path>
            <path d="M38,32.4701832 L38,34 C38,36.209139 36.209139,38 34,38 L10,38 C7.790861,38 6,36.209139 6,34 L6,10 C6,7.790861 7.790861,6 10,6 L34,6 C36.209139,6 38,7.790861 38,10 L38,24.9638289 L38,24.9638289" id="路径" stroke="#333333" stroke-width="3" stroke-linecap="round"></path>
        </g>
    </g>
</svg>