<?xml version="1.0" encoding="UTF-8"?>
<svg width="44px" height="44px" viewBox="0 0 44 44" version="1.1" xmlns="http://www.w3.org/2000/svg" xmlns:xlink="http://www.w3.org/1999/xlink">
    <title>88@2x</title>
    <g id="相关图标说明" stroke="none" stroke-width="1" fill="none" fill-rule="evenodd">
        <g id="线型图标（单色）" transform="translate(-1386.000000, -5340.000000)">
            <g id="编组-5" transform="translate(131.000000, 4940.000000)">
                <g id="88" transform="translate(1255.000000, 400.000000)">
                    <g id="编组"></g>
                    <g id="编组-45" transform="translate(4.500000, 4.500000)" fill="#333333">
                        <g id="编组" transform="translate(17.742500, 16.742300) scale(-1, -1) translate(-17.742500, -16.742300) translate(2.485000, 1.484800)">
                            <g id="编组-39" transform="translate(7.449000, 7.499800)">
                                <path d="M10.8143126,2.94540161 C11.3967512,2.35628637 12.3464833,2.35087388 12.9355985,2.93331249 C13.4878941,3.47934868 13.5271696,4.34820137 13.050007,4.94009101 L12.9476877,5.05459839 L2.56668766,15.5545984 C1.98424906,16.1437136 1.03451701,16.1491261 0.445401767,15.5666875 C-0.106893775,15.0206513 -0.146169314,14.1517986 0.330993271,13.559909 L0.433312642,13.4454016 L10.8143126,2.94540161 Z" id="Stroke-3" fill-rule="nonzero"></path>
                                <path d="M9.26567003,0.306618056 L14.9574621,0.0494152114 C15.5091838,0.0244838017 15.9766535,0.451531735 16.0015849,1.00325347 C16.0029442,1.03333299 16.0029442,1.06345856 16.0015849,1.09353809 L15.7443821,6.78533013 C15.7194507,7.33705186 15.251981,7.76409979 14.7002592,7.73916838 C14.4509109,7.72790074 14.2147906,7.6237904 14.0382947,7.4472946 L8.60370556,2.0127054 C8.21318126,1.62218111 8.21318126,0.989016132 8.60370556,0.598491841 C8.78020136,0.421996033 9.01632172,0.317885701 9.26567003,0.306618056 Z" id="Fill-4"></path>
                            </g>
                        </g>
                        <path d="M29.5,0 C32.4634791,0 34.8795391,2.34378001 34.9956328,5.27879286 L35,5.5 L35,20.4638289 C35,21.292256 34.3284271,21.9638289 33.5,21.9638289 C32.7203039,21.9638289 32.0795513,21.3689408 32.0068666,20.6082889 L32,20.4638289 L32,5.5 C32,4.1745166 30.9684641,3.08996133 29.6643757,3.00531768 L29.5,3 L5.5,3 C4.1745166,3 3.08996133,4.03153594 3.00531768,5.33562431 L3,5.5 L3,29.5 C3,30.8254834 4.03153594,31.9100387 5.33562431,31.9946823 L5.5,32 L29.5,32 C30.8254834,32 31.9100387,30.9684641 31.9946823,29.6643757 L32,29.5 L32,27.9701832 C32,27.1417561 32.6715729,26.4701832 33.5,26.4701832 C34.2796961,26.4701832 34.9204487,27.0650713 34.9931334,27.8257232 L35,27.9701832 L35,29.5 C35,32.4634791 32.65622,34.8795391 29.7212071,34.9956328 L29.5,35 L5.5,35 C2.53652085,35 0.120460863,32.65622 0.00436720397,29.7212071 L0,29.5 L0,5.5 C0,2.53652085 2.34378001,0.120460863 5.27879286,0.00436720397 L5.5,0 L29.5,0 Z" id="路径" fill-rule="nonzero"></path>
                    </g>
                </g>
            </g>
        </g>
    </g>
</svg>