<?xml version="1.0" encoding="UTF-8"?>
<svg width="44px" height="44px" viewBox="0 0 44 44" version="1.1" xmlns="http://www.w3.org/2000/svg" xmlns:xlink="http://www.w3.org/1999/xlink">
    <title>88@2x</title>
    <g id="页面-1" stroke="none" stroke-width="1" fill="none" fill-rule="evenodd">
        <g id="88">
            <g id="编组"></g>
            <g id="编组" transform="translate(22.000000, 22.000000) scale(-1, -1) translate(-22.000000, -22.000000) translate(6.000000, 6.000000)">
                <line x1="20.881" y1="11" x2="10.5" y2="21.5" id="Stroke-3" stroke="#333333" stroke-width="3" stroke-linecap="round" stroke-linejoin="round"></line>
                <path d="M18.2656699,7.30661806 L23.9574619,7.04941521 C24.5091836,7.0244838 24.9766534,7.45153174 25.0015848,8.00325347 C25.002944,8.03333299 25.002944,8.06345856 25.0015848,8.09353809 L24.7443819,13.7853301 C24.7194505,14.3370519 24.2519808,14.7640998 23.7002591,14.7391684 C23.4509108,14.7279007 23.2147904,14.6237904 23.0382946,14.4472946 L17.6037054,9.0127054 C17.2131811,8.62218111 17.2131811,7.98901613 17.6037054,7.59849184 C17.7802012,7.42199603 18.0163216,7.3178857 18.2656699,7.30661806 Z" id="Fill-4" fill="#333333"></path>
            </g>
            <path d="M38,33.4701832 L38,35 C38,37.209139 36.209139,39 34,39 L10,39 C7.790861,39 6,37.209139 6,35 L6,11 C6,8.790861 7.790861,7 10,7 L34,7 C36.209139,7 38,8.790861 38,11 L38,25.9638289 L38,25.9638289" id="路径" stroke="#333333" stroke-width="3" stroke-linecap="round"></path>
        </g>
    </g>
</svg>