<?xml version="1.0" encoding="UTF-8"?>
<svg width="44px" height="44px" viewBox="0 0 44 44" version="1.1" xmlns="http://www.w3.org/2000/svg" xmlns:xlink="http://www.w3.org/1999/xlink">
    <title>89@2x</title>
    <g id="相关图标说明" stroke="none" stroke-width="1" fill="none" fill-rule="evenodd">
        <g id="线型图标（单色）" transform="translate(-1470.000000, -5340.000000)">
            <g id="编组-5" transform="translate(131.000000, 4940.000000)">
                <g id="89" transform="translate(1339.000000, 400.000000)">
                    <g id="编组"></g>
                    <g id="编组-42" transform="translate(6.500000, 2.500000)" fill="#333333" fill-rule="nonzero">
                        <path d="M22.5390041,7.8482679 C23.1750882,7.3175245 24.1209887,7.40292 24.6517321,8.03900408 C25.1824755,8.67508815 25.09708,9.62098871 24.4609959,10.1517321 C22.1150744,12.10915 18.8097472,13.1666667 15.3654657,13.1666667 C12.2120168,13.1666667 8.96129154,12.0490786 6.57531985,10.1810871 C5.92302348,9.67040031 5.8082262,8.72761622 6.31891295,8.07531985 C6.82959969,7.42302348 7.77238378,7.3082262 8.42468015,7.81891295 C10.2819662,9.27299336 12.8813913,10.1666667 15.3654657,10.1666667 C18.1429366,10.1666667 20.7664131,9.3273034 22.5390041,7.8482679 Z" id="Stroke-1"></path>
                        <path d="M25.5,0 C28.4634791,0 30.8795391,2.34378001 30.9956328,5.27879286 L31,5.5 L31,25.4638289 C31,26.292256 30.3284271,26.9638289 29.5,26.9638289 C28.7203039,26.9638289 28.0795513,26.3689408 28.0068666,25.6082889 L28,25.4638289 L28,5.5 C28,4.1745166 26.9684641,3.08996133 25.6643757,3.00531768 L25.5,3 L5.5,3 C4.1745166,3 3.08996133,4.03153594 3.00531768,5.33562431 L3,5.5 L3,33.5 C3,34.8254834 4.03153594,35.9100387 5.33562431,35.9946823 L5.5,36 L25.5,36 C26.8254834,36 27.9100387,34.9684641 27.9946823,33.6643757 L28,33.5 L28,31.9701832 C28,31.1417561 28.6715729,30.4701832 29.5,30.4701832 C30.2796961,30.4701832 30.9204487,31.0650713 30.9931334,31.8257232 L31,31.9701832 L31,33.5 C31,36.4634791 28.65622,38.8795391 25.7212071,38.9956328 L25.5,39 L5.5,39 C2.53652085,39 0.120460863,36.65622 0.00436720397,33.7212071 L0,33.5 L0,5.5 C0,2.53652085 2.34378001,0.120460863 5.27879286,0.00436720397 L5.5,0 L25.5,0 Z" id="路径"></path>
                    </g>
                </g>
            </g>
        </g>
    </g>
</svg>