<?xml version="1.0" encoding="UTF-8"?>
<svg width="44px" height="44px" viewBox="0 0 44 44" version="1.1" xmlns="http://www.w3.org/2000/svg" xmlns:xlink="http://www.w3.org/1999/xlink">
    <title>9@2x</title>
    <g id="页面-1" stroke="none" stroke-width="1" fill="none" fill-rule="evenodd">
        <g id="9">
            <g id="编组"></g>
            <path d="M34.117323,23.9315561 C35.0838213,23.9315561 35.867323,24.7150578 35.867323,25.6815561 C35.867323,26.5997295 35.1602127,27.3527484 34.2608502,27.4257549 L34.117323,27.4315561 L12.847323,27.4316705 L19.7162469,34.1082661 C20.3685132,34.7423036 20.42079,35.7610166 19.8630445,36.4564574 L19.7513161,36.5828913 C19.1172786,37.2351577 18.0985656,37.2874345 17.4031248,36.729689 L17.2766908,36.6179605 L9.08320596,28.6534589 C8.55053509,28.1356746 8.25,27.4244147 8.25,26.6815561 C8.25,25.2190243 9.3917046,24.0231518 10.8324777,23.9365749 L11,23.9315561 L34.117323,23.9315561 Z M26.7141982,6.63342435 L26.8406322,6.74515277 L35.034117,14.7096544 C35.5667879,15.2274387 35.867323,15.9386986 35.867323,16.6815572 C35.867323,18.144089 34.7256184,19.3399615 33.2848453,19.4265384 L33.117323,19.4315572 L10,19.4315572 C9.03350169,19.4315572 8.25,18.6480555 8.25,17.6815572 C8.25,16.7633838 8.95711027,16.0103649 9.85647279,15.9373584 L10,15.9315572 L31.269,15.931 L24.4010761,9.25484723 C23.7488098,8.62080976 23.696533,7.60209673 24.2542785,6.90665593 L24.3660069,6.78022197 C25.0000444,6.12795563 26.0187574,6.07567886 26.7141982,6.63342435 Z" id="形状结合" fill="#333333" fill-rule="nonzero"></path>
        </g>
    </g>
</svg>