<?xml version="1.0" encoding="UTF-8"?>
<svg width="44px" height="44px" viewBox="0 0 44 44" version="1.1" xmlns="http://www.w3.org/2000/svg" xmlns:xlink="http://www.w3.org/1999/xlink">
    <title>9@2x</title>
    <g id="相关图标说明" stroke="none" stroke-width="1" fill="none" fill-rule="evenodd">
        <g id="线型图标（单色）" transform="translate(-798.000000, -4940.000000)">
            <g id="编组-5" transform="translate(131.000000, 4940.000000)">
                <g id="9" transform="translate(667.000000, 0.000000)">
                    <g id="编组"></g>
                    <path d="M34.067323,24.2315572 C35.0338213,24.2315572 35.817323,25.0150589 35.817323,25.9815572 C35.817323,26.8997306 35.1102127,27.6527496 34.2108502,27.725756 L34.067323,27.7315572 L12.797323,27.7316716 L19.6662469,34.4082672 C20.3185132,35.0423047 20.37079,36.0610177 19.8130445,36.7564585 L19.7013161,36.8828924 C19.0672786,37.5351588 18.0485656,37.5874356 17.3531248,37.0296901 L17.2266908,36.9179616 L9.03320596,28.95346 C8.50053509,28.4356757 8.2,27.7244158 8.2,26.9815572 C8.2,25.5190254 9.3417046,24.3231529 10.7824777,24.236576 L10.95,24.2315572 L34.067323,24.2315572 Z M26.6641982,6.93342545 L26.7906322,7.04515388 L34.984117,15.0096555 C35.5167879,15.5274398 35.817323,16.2386997 35.817323,16.9815583 C35.817323,18.4440902 34.6756184,19.6399626 33.2348453,19.7265395 L33.067323,19.7315583 L9.95,19.7315583 C8.98350169,19.7315583 8.2,18.9480566 8.2,17.9815583 C8.2,17.0633849 8.90711027,16.310366 9.80647279,16.2373595 L9.95,16.2315583 L31.219,16.2310011 L24.3510761,9.55484833 C23.6988098,8.92081087 23.646533,7.90209783 24.2042785,7.20665704 L24.3160069,7.08022307 C24.9500444,6.42795673 25.9687574,6.37567996 26.6641982,6.93342545 Z" id="形状结合" fill="#333333" fill-rule="nonzero"></path>
                </g>
            </g>
        </g>
    </g>
</svg>