<?xml version="1.0" encoding="UTF-8"?>
<svg width="44px" height="44px" viewBox="0 0 44 44" version="1.1" xmlns="http://www.w3.org/2000/svg" xmlns:xlink="http://www.w3.org/1999/xlink">
    <title>90@2x</title>
    <g id="相关图标说明" stroke="none" stroke-width="1" fill="none" fill-rule="evenodd">
        <g id="线型图标（单色）" transform="translate(-1554.000000, -5340.000000)">
            <g id="编组-5" transform="translate(131.000000, 4940.000000)">
                <g id="90" transform="translate(1423.000000, 400.000000)">
                    <g id="编组"></g>
                    <g id="编组-2" transform="translate(3.500000, 6.500000)" fill="#333333" fill-rule="nonzero">
                        <g id="编组">
                            <path d="M31.5,0 C34.4634791,0 36.8795391,2.34378001 36.9956328,5.27879286 L37,5.5 L37,18.2381022 C37,19.0665293 36.3284271,19.7381022 35.5,19.7381022 C34.7203039,19.7381022 34.0795513,19.1432141 34.0068666,18.3825622 L34,18.2381022 L34,5.5 C34,4.1745166 32.9684641,3.08996133 31.6643757,3.00531768 L31.5,3 L27,3 C23.2145483,3 20.1309013,6.00478338 20.004059,9.75935025 L20,10 L20,28.333 L31.5,28.3333333 C32.8254834,28.3333333 33.9100387,27.3017974 33.9946823,25.997709 L34,25.8333333 L34,24.8232576 C34,23.9948305 34.6715729,23.3232576 35.5,23.3232576 C36.2796961,23.3232576 36.9204487,23.9181457 36.9931334,24.6787976 L37,24.8232576 L37,25.8333333 C37,28.7968125 34.65622,31.2128725 31.7212071,31.3289661 L31.5,31.3333333 L18.5,31.3333333 C17.7203039,31.3333333 17.0795513,30.7384453 17.0068666,29.9777933 L17,29.8333333 L17,10 C17,4.57076009 21.3266708,0.152068282 26.7200952,0.00384179753 L27,0 L31.5,0 Z" id="路径"></path>
                            <path d="M14.5,0 L10,0 C4.4771525,0 0,4.4771525 0,10 L0,29.8333333 C0,30.6617605 0.671572875,31.3333333 1.5,31.3333333 L14.5,31.3333333 C17.5375661,31.3333333 20,28.8708995 20,25.8333333 L20,5.5 C20,2.46243388 17.5375661,0 14.5,0 Z M10,3 L14.5,3 C15.8807119,3 17,4.11928813 17,5.5 L17,25.8333333 L16.9946823,25.997709 C16.9100387,27.3017974 15.8254834,28.3333333 14.5,28.3333333 L3,28.333 L3,10 C3,6.13400675 6.13400675,3 10,3 Z" id="矩形" transform="translate(10.000000, 15.666667) scale(-1, 1) translate(-10.000000, -15.666667) "></path>
                        </g>
                    </g>
                </g>
            </g>
        </g>
    </g>
</svg>